%TF.GenerationSoftware,KiCad,Pcbnew,9.0.0*%
%TF.CreationDate,2025-05-15T12:13:46+12:00*%
%TF.ProjectId,,58585858-5858-4585-9858-585858585858,rev?*%
%TF.SameCoordinates,Original*%
%TF.FileFunction,Copper,L2,Bot*%
%TF.FilePolarity,Positive*%
%FSLAX46Y46*%
G04 Gerber Fmt 4.6, Leading zero omitted, Abs format (unit mm)*
G04 Created by KiCad (PCBNEW 9.0.0) date 2025-05-15 12:13:46*
%MOMM*%
%LPD*%
G01*
G04 APERTURE LIST*
G04 Aperture macros list*
%AMRoundRect*
0 Rectangle with rounded corners*
0 $1 Rounding radius*
0 $2 $3 $4 $5 $6 $7 $8 $9 X,Y pos of 4 corners*
0 Add a 4 corners polygon primitive as box body*
4,1,4,$2,$3,$4,$5,$6,$7,$8,$9,$2,$3,0*
0 Add four circle primitives for the rounded corners*
1,1,$1+$1,$2,$3*
1,1,$1+$1,$4,$5*
1,1,$1+$1,$6,$7*
1,1,$1+$1,$8,$9*
0 Add four rect primitives between the rounded corners*
20,1,$1+$1,$2,$3,$4,$5,0*
20,1,$1+$1,$4,$5,$6,$7,0*
20,1,$1+$1,$6,$7,$8,$9,0*
20,1,$1+$1,$8,$9,$2,$3,0*%
G04 Aperture macros list end*
%TA.AperFunction,ComponentPad*%
%ADD10C,3.600000*%
%TD*%
%TA.AperFunction,ComponentPad*%
%ADD11C,2.600000*%
%TD*%
%TA.AperFunction,ComponentPad*%
%ADD12RoundRect,0.250000X0.350000X0.625000X-0.350000X0.625000X-0.350000X-0.625000X0.350000X-0.625000X0*%
%TD*%
%TA.AperFunction,ComponentPad*%
%ADD13O,1.200000X1.750000*%
%TD*%
%TA.AperFunction,ComponentPad*%
%ADD14RoundRect,0.250000X-0.350000X-0.625000X0.350000X-0.625000X0.350000X0.625000X-0.350000X0.625000X0*%
%TD*%
%TA.AperFunction,ComponentPad*%
%ADD15R,1.700000X1.700000*%
%TD*%
%TA.AperFunction,ComponentPad*%
%ADD16O,1.700000X1.700000*%
%TD*%
%TA.AperFunction,HeatsinkPad*%
%ADD17O,1.600000X0.900000*%
%TD*%
%TA.AperFunction,SMDPad,CuDef*%
%ADD18RoundRect,0.250000X-0.375000X-0.625000X0.375000X-0.625000X0.375000X0.625000X-0.375000X0.625000X0*%
%TD*%
%TA.AperFunction,ComponentPad*%
%ADD19C,4.000000*%
%TD*%
%TA.AperFunction,ComponentPad*%
%ADD20R,1.600000X1.600000*%
%TD*%
%TA.AperFunction,ComponentPad*%
%ADD21C,1.600000*%
%TD*%
%TA.AperFunction,ComponentPad*%
%ADD22RoundRect,0.250000X0.625000X-0.350000X0.625000X0.350000X-0.625000X0.350000X-0.625000X-0.350000X0*%
%TD*%
%TA.AperFunction,ComponentPad*%
%ADD23O,1.750000X1.200000*%
%TD*%
%TA.AperFunction,ComponentPad*%
%ADD24RoundRect,0.250000X-0.625000X0.350000X-0.625000X-0.350000X0.625000X-0.350000X0.625000X0.350000X0*%
%TD*%
%TA.AperFunction,SMDPad,CuDef*%
%ADD25RoundRect,0.095000X-0.155000X-0.095000X0.155000X-0.095000X0.155000X0.095000X-0.155000X0.095000X0*%
%TD*%
%TA.AperFunction,SMDPad,CuDef*%
%ADD26RoundRect,0.075000X-0.250000X-0.075000X0.250000X-0.075000X0.250000X0.075000X-0.250000X0.075000X0*%
%TD*%
%TA.AperFunction,ComponentPad*%
%ADD27RoundRect,0.250001X0.759999X-0.499999X0.759999X0.499999X-0.759999X0.499999X-0.759999X-0.499999X0*%
%TD*%
%TA.AperFunction,ComponentPad*%
%ADD28O,2.020000X1.500000*%
%TD*%
%TA.AperFunction,HeatsinkPad*%
%ADD29O,0.900000X1.600000*%
%TD*%
%TA.AperFunction,ViaPad*%
%ADD30C,0.600000*%
%TD*%
%TA.AperFunction,ViaPad*%
%ADD31C,1.000000*%
%TD*%
%TA.AperFunction,ViaPad*%
%ADD32C,0.450000*%
%TD*%
G04 APERTURE END LIST*
D10*
%TO.P,H2,1,1*%
%TO.N,GND*%
X189521320Y-102121320D03*
%TD*%
%TO.P,H1,1,1*%
%TO.N,GND*%
X99521320Y-102121320D03*
%TD*%
D11*
%TO.P,TP20,1,1*%
%TO.N,GND*%
X149521320Y-103121320D03*
X152061320Y-103121320D03*
%TD*%
D12*
%TO.P,J2,1,Pin_1*%
%TO.N,/UART2_RX*%
X123921320Y-127321320D03*
D13*
%TO.P,J2,2,Pin_2*%
%TO.N,GND*%
X121921320Y-127321320D03*
%TO.P,J2,3,Pin_3*%
%TO.N,/UART2_TX*%
X119921320Y-127321320D03*
%TD*%
D14*
%TO.P,J18,1,Pin_1*%
%TO.N,GND*%
X107121320Y-99321320D03*
D13*
%TO.P,J18,2,Pin_2*%
%TO.N,/PWM_EXT*%
X109121320Y-99321320D03*
%TO.P,J18,3,Pin_3*%
%TO.N,/A11*%
X111121320Y-99321320D03*
%TO.P,J18,4,Pin_4*%
%TO.N,+3V3*%
X113121320Y-99321320D03*
%TO.P,J18,5,Pin_5*%
%TO.N,/A9*%
X115121320Y-99321320D03*
%TO.P,J18,6,Pin_6*%
%TO.N,/A8*%
X117121320Y-99321320D03*
%TO.P,J18,7,Pin_7*%
%TO.N,GND*%
X119121320Y-99321320D03*
%TD*%
D11*
%TO.P,TP19,1,1*%
%TO.N,GND*%
X104651320Y-138121320D03*
X107191320Y-138121320D03*
%TD*%
D10*
%TO.P,H3,1,1*%
%TO.N,GND*%
X99521320Y-142121320D03*
%TD*%
D15*
%TO.P,J10,1,Pin_1*%
%TO.N,/CANL2*%
X122321320Y-132321320D03*
D16*
%TO.P,J10,2,Pin_2*%
%TO.N,Net-(J10-Pin_2)*%
X124861320Y-132321320D03*
%TD*%
D14*
%TO.P,J8,1,Pin_1*%
%TO.N,GND*%
X135121320Y-99371320D03*
D13*
%TO.P,J8,2,Pin_2*%
%TO.N,/SPI_MOSI*%
X137121320Y-99371320D03*
%TO.P,J8,3,Pin_3*%
%TO.N,/SPI_MISO*%
X139121320Y-99371320D03*
%TO.P,J8,4,Pin_4*%
%TO.N,/SPI_SCK*%
X141121320Y-99371320D03*
%TO.P,J8,5,Pin_5*%
%TO.N,/SPI_CS*%
X143121320Y-99371320D03*
%TO.P,J8,6,Pin_6*%
%TO.N,+3V3*%
X145121320Y-99371320D03*
%TD*%
D15*
%TO.P,J9,1,Pin_1*%
%TO.N,/CANH1*%
X166596320Y-132321320D03*
D16*
%TO.P,J9,2,Pin_2*%
%TO.N,Net-(J9-Pin_2)*%
X164056320Y-132321320D03*
%TD*%
D12*
%TO.P,J1,1,Pin_1*%
%TO.N,/SWCLK*%
X112921320Y-122521320D03*
D13*
%TO.P,J1,2,Pin_2*%
%TO.N,GND*%
X110921320Y-122521320D03*
%TO.P,J1,3,Pin_3*%
%TO.N,/SWDIO*%
X108921320Y-122521320D03*
%TO.P,J1,4,Pin_4*%
%TO.N,/NRST*%
X106921320Y-122521320D03*
%TD*%
D17*
%TO.P,J4,6,Shield*%
%TO.N,unconnected-(J4-Shield-Pad6)*%
X96046320Y-114021320D03*
%TO.N,unconnected-(J4-Shield-Pad6)_1*%
X96046320Y-120621320D03*
%TD*%
D10*
%TO.P,H4,1,1*%
%TO.N,GND*%
X189521320Y-142121320D03*
%TD*%
D14*
%TO.P,J17,1,Pin_1*%
%TO.N,GND*%
X131921320Y-56671320D03*
D13*
%TO.P,J17,2,Pin_2*%
%TO.N,Net-(J17-Pin_2)*%
X133921320Y-56671320D03*
%TO.P,J17,3,Pin_3*%
%TO.N,+5VA*%
X135921320Y-56671320D03*
%TD*%
D14*
%TO.P,J10,1,Pin_1*%
%TO.N,GND*%
X148321320Y-51321320D03*
D13*
%TO.P,J10,2,Pin_2*%
%TO.N,/I2C3_SDA*%
X150321320Y-51321320D03*
%TO.P,J10,3,Pin_3*%
%TO.N,+5V*%
X152321320Y-51321320D03*
%TO.P,J10,4,Pin_4*%
%TO.N,/I2C3_SCL*%
X154321320Y-51321320D03*
%TO.P,J10,5,Pin_5*%
%TO.N,+3V3*%
X156321320Y-51321320D03*
%TD*%
D12*
%TO.P,J1,1,Pin_1*%
%TO.N,/SWCLK*%
X164921320Y-80521320D03*
D13*
%TO.P,J1,2,Pin_2*%
%TO.N,GND*%
X162921320Y-80521320D03*
%TO.P,J1,3,Pin_3*%
%TO.N,/SWDIO*%
X160921320Y-80521320D03*
%TO.P,J1,4,Pin_4*%
%TO.N,/NRST*%
X158921320Y-80521320D03*
%TD*%
D18*
%TO.P,D5,1,K*%
%TO.N,GND*%
X180921320Y-88521320D03*
%TO.P,D5,2,A*%
%TO.N,Net-(D5-A)*%
X183721320Y-88521320D03*
%TD*%
D12*
%TO.P,J16,1,Pin_1*%
%TO.N,+5VA*%
X108921320Y-77521320D03*
D13*
%TO.P,J16,2,Pin_2*%
%TO.N,/Analog Domain/LC_C_SENSE+*%
X106921320Y-77521320D03*
%TO.P,J16,3,Pin_3*%
%TO.N,/Analog Domain/LC_C_SIG+*%
X104921320Y-77521320D03*
%TO.P,J16,4,Pin_4*%
%TO.N,/Analog Domain/LC_C_SIG-*%
X102921320Y-77521320D03*
%TO.P,J16,5,Pin_5*%
%TO.N,/Analog Domain/LC_C_SENSE-*%
X100921320Y-77521320D03*
%TO.P,J16,6,Pin_6*%
%TO.N,GND*%
X98921320Y-77521320D03*
%TD*%
D14*
%TO.P,J21,1,Pin_1*%
%TO.N,Net-(J21-Pin_1)*%
X115721320Y-52651320D03*
D13*
%TO.P,J21,2,Pin_2*%
%TO.N,Net-(J21-Pin_2)*%
X117721320Y-52651320D03*
%TD*%
D14*
%TO.P,J19,1,Pin_1*%
%TO.N,GND*%
X131921320Y-62471320D03*
D13*
%TO.P,J19,2,Pin_2*%
%TO.N,Net-(J19-Pin_2)*%
X133921320Y-62471320D03*
%TO.P,J19,3,Pin_3*%
%TO.N,+5VA*%
X135921320Y-62471320D03*
%TD*%
D19*
%TO.P,J6,0*%
%TO.N,N/C*%
X175021320Y-88201320D03*
X150021320Y-88201320D03*
D20*
%TO.P,J6,1,1*%
%TO.N,/+7V4_CAN*%
X168061320Y-86781320D03*
D21*
%TO.P,J6,2,2*%
%TO.N,GND*%
X165291320Y-86781320D03*
%TO.P,J6,3,3*%
%TO.N,unconnected-(J6-Pad3)*%
X162521320Y-86781320D03*
%TO.P,J6,4,4*%
%TO.N,GND*%
X159751320Y-86781320D03*
%TO.P,J6,5,5*%
%TO.N,/+7V4_CAN*%
X156981320Y-86781320D03*
%TO.P,J6,6,6*%
%TO.N,/CANH1*%
X166676320Y-89621320D03*
%TO.P,J6,7,7*%
%TO.N,/CANL1*%
X163906320Y-89621320D03*
%TO.P,J6,8,8*%
%TO.N,/CANH2*%
X161136320Y-89621320D03*
%TO.P,J6,9,9*%
%TO.N,/CANL2*%
X158366320Y-89621320D03*
%TD*%
D22*
%TO.P,J22,1,Pin_1*%
%TO.N,Net-(J22-Pin_1)*%
X124671320Y-53121320D03*
D23*
%TO.P,J22,2,Pin_2*%
%TO.N,GND*%
X124671320Y-51121320D03*
%TD*%
D12*
%TO.P,J18,1,Pin_1*%
%TO.N,Net-(J18-Pin_1)*%
X131521320Y-77521320D03*
D13*
%TO.P,J18,2,Pin_2*%
%TO.N,Net-(J18-Pin_2)*%
X129521320Y-77521320D03*
%TD*%
D24*
%TO.P,J5,1,Pin_1*%
%TO.N,GND*%
X190171320Y-65321320D03*
D23*
%TO.P,J5,2,Pin_2*%
%TO.N,/I2C1_SDA*%
X190171320Y-67321320D03*
%TO.P,J5,3,Pin_3*%
%TO.N,+5V*%
X190171320Y-69321320D03*
%TO.P,J5,4,Pin_4*%
%TO.N,/I2C1_SCL*%
X190171320Y-71321320D03*
%TO.P,J5,5,Pin_5*%
%TO.N,+3V3*%
X190171320Y-73321320D03*
%TD*%
D18*
%TO.P,D7,1,K*%
%TO.N,GND*%
X180921320Y-94121320D03*
%TO.P,D7,2,A*%
%TO.N,Net-(D7-A)*%
X183721320Y-94121320D03*
%TD*%
D22*
%TO.P,J13,1,Pin_1*%
%TO.N,+5VA*%
X99721320Y-70121320D03*
D23*
%TO.P,J13,2,Pin_2*%
%TO.N,/Analog Domain/LC_A_SENSE+*%
X99721320Y-68121320D03*
%TO.P,J13,3,Pin_3*%
%TO.N,/Analog Domain/LC_A_SIG+*%
X99721320Y-66121320D03*
%TO.P,J13,4,Pin_4*%
%TO.N,/Analog Domain/LC_A_SIG-*%
X99721320Y-64121320D03*
%TO.P,J13,5,Pin_5*%
%TO.N,/Analog Domain/LC_A_SENSE-*%
X99721320Y-62121320D03*
%TO.P,J13,6,Pin_6*%
%TO.N,GND*%
X99721320Y-60121320D03*
%TD*%
D18*
%TO.P,D6,1,K*%
%TO.N,GND*%
X180921320Y-91321320D03*
%TO.P,D6,2,A*%
%TO.N,Net-(D6-A)*%
X183721320Y-91321320D03*
%TD*%
D19*
%TO.P,J11,0*%
%TO.N,N/C*%
X139021320Y-88201320D03*
X114021320Y-88201320D03*
D20*
%TO.P,J11,1,1*%
%TO.N,/+7V4_CAN*%
X132061320Y-86781320D03*
D21*
%TO.P,J11,2,2*%
%TO.N,GND*%
X129291320Y-86781320D03*
%TO.P,J11,3,3*%
%TO.N,unconnected-(J11-Pad3)*%
X126521320Y-86781320D03*
%TO.P,J11,4,4*%
%TO.N,GND*%
X123751320Y-86781320D03*
%TO.P,J11,5,5*%
%TO.N,/+7V4_CAN*%
X120981320Y-86781320D03*
%TO.P,J11,6,6*%
%TO.N,/CANH1*%
X130676320Y-89621320D03*
%TO.P,J11,7,7*%
%TO.N,/CANL1*%
X127906320Y-89621320D03*
%TO.P,J11,8,8*%
%TO.N,/CANH2*%
X125136320Y-89621320D03*
%TO.P,J11,9,9*%
%TO.N,/CANL2*%
X122366320Y-89621320D03*
%TD*%
D25*
%TO.P,D1,1,K1*%
%TO.N,/I2C1_SDA*%
X168421320Y-61921320D03*
D26*
%TO.P,D1,2,A*%
%TO.N,GND*%
X168341320Y-61381320D03*
D25*
%TO.P,D1,3,K2*%
%TO.N,/I2C1_SCL*%
X168421320Y-60841320D03*
%TO.P,D1,4,K3*%
%TO.N,/UART2_RX*%
X170121320Y-60841320D03*
%TO.P,D1,5,K4*%
%TO.N,/UART2_TX*%
X170121320Y-61921320D03*
%TD*%
D27*
%TO.P,J12,1,Pin_1*%
%TO.N,Net-(J12-Pin_1)*%
X175521320Y-80521320D03*
D28*
%TO.P,J12,2,Pin_2*%
%TO.N,GND*%
X175521320Y-77521320D03*
%TO.P,J12,3,Pin_3*%
X175521320Y-74521320D03*
%TD*%
D14*
%TO.P,J7,1,Pin_1*%
%TO.N,GND*%
X161521320Y-51321320D03*
D13*
%TO.P,J7,2,Pin_2*%
%TO.N,/I2C2_SDA*%
X163521320Y-51321320D03*
%TO.P,J7,3,Pin_3*%
%TO.N,+5V*%
X165521320Y-51321320D03*
%TO.P,J7,4,Pin_4*%
%TO.N,/I2C2_SCL*%
X167521320Y-51321320D03*
%TO.P,J7,5,Pin_5*%
%TO.N,+3V3*%
X169521320Y-51321320D03*
%TD*%
D14*
%TO.P,J20,1,Pin_1*%
%TO.N,Net-(J20-Pin_1)*%
X107321320Y-52721320D03*
D13*
%TO.P,J20,2,Pin_2*%
%TO.N,Net-(J20-Pin_2)*%
X109321320Y-52721320D03*
%TD*%
D12*
%TO.P,J14,1,Pin_1*%
%TO.N,+5VA*%
X124121320Y-77571320D03*
D13*
%TO.P,J14,2,Pin_2*%
%TO.N,/Analog Domain/LC_B_SENSE+*%
X122121320Y-77571320D03*
%TO.P,J14,3,Pin_3*%
%TO.N,/Analog Domain/LC_B_SIG+*%
X120121320Y-77571320D03*
%TO.P,J14,4,Pin_4*%
%TO.N,/Analog Domain/LC_B_SIG-*%
X118121320Y-77571320D03*
%TO.P,J14,5,Pin_5*%
%TO.N,/Analog Domain/LC_B_SENSE-*%
X116121320Y-77571320D03*
%TO.P,J14,6,Pin_6*%
%TO.N,GND*%
X114121320Y-77571320D03*
%TD*%
D14*
%TO.P,J15,1,Pin_1*%
%TO.N,GND*%
X131921320Y-50871320D03*
D13*
%TO.P,J15,2,Pin_2*%
%TO.N,Net-(J15-Pin_2)*%
X133921320Y-50871320D03*
%TO.P,J15,3,Pin_3*%
%TO.N,+5VA*%
X135921320Y-50871320D03*
%TD*%
D29*
%TO.P,J4,6,Shield*%
%TO.N,unconnected-(J4-Shield-Pad6)_4*%
X161721320Y-95521320D03*
%TO.N,unconnected-(J4-Shield-Pad6)*%
X168321320Y-95521320D03*
%TD*%
D10*
%TO.P,H2,1,1*%
%TO.N,GND*%
X189521320Y-52121320D03*
%TD*%
%TO.P,H1,1,1*%
%TO.N,GND*%
X99521320Y-52121320D03*
%TD*%
%TO.P,H3,1,1*%
%TO.N,GND*%
X99521320Y-92121320D03*
%TD*%
D22*
%TO.P,J3,1,Pin_1*%
%TO.N,GND*%
X170571320Y-80321320D03*
D23*
%TO.P,J3,2,Pin_2*%
%TO.N,/E1*%
X170571320Y-78321320D03*
%TO.P,J3,3,Pin_3*%
%TO.N,/E2*%
X170571320Y-76321320D03*
%TO.P,J3,4,Pin_4*%
%TO.N,+3V3*%
X170571320Y-74321320D03*
%TO.P,J3,5,Pin_5*%
%TO.N,/E3*%
X170571320Y-72321320D03*
%TO.P,J3,6,Pin_6*%
%TO.N,/E4*%
X170571320Y-70321320D03*
%TO.P,J3,7,Pin_7*%
%TO.N,GND*%
X170571320Y-68321320D03*
%TD*%
D11*
%TO.P,TP19,1,1*%
%TO.N,GND*%
X98351320Y-84421320D03*
X100891320Y-84421320D03*
%TD*%
D15*
%TO.P,J9,1,Pin_1*%
%TO.N,/CANL2*%
X120721320Y-82521320D03*
D16*
%TO.P,J9,2,Pin_2*%
%TO.N,Net-(J9-Pin_2)*%
X123261320Y-82521320D03*
%TD*%
D10*
%TO.P,H4,1,1*%
%TO.N,GND*%
X189521320Y-92121320D03*
%TD*%
D15*
%TO.P,J8,1,Pin_1*%
%TO.N,/CANH1*%
X129796320Y-82521320D03*
D16*
%TO.P,J8,2,Pin_2*%
%TO.N,Net-(J8-Pin_2)*%
X127256320Y-82521320D03*
%TD*%
D24*
%TO.P,J2,1,Pin_1*%
%TO.N,/UART2_RX*%
X171671320Y-59321320D03*
D23*
%TO.P,J2,2,Pin_2*%
%TO.N,GND*%
X171671320Y-61321320D03*
%TO.P,J2,3,Pin_3*%
%TO.N,/UART2_TX*%
X171671320Y-63321320D03*
%TD*%
D11*
%TO.P,TP20,1,1*%
%TO.N,GND*%
X190721320Y-60261320D03*
X190721320Y-57721320D03*
%TD*%
D30*
%TO.N,/PWM_A*%
X119121320Y-114121320D03*
%TO.N,Net-(J15-Pin_4)*%
X138121320Y-109321320D03*
%TO.N,/PWM_B*%
X137321320Y-115322320D03*
X118702041Y-114871320D03*
%TO.N,Net-(J14-Pin_4)*%
X140921320Y-108921320D03*
%TO.N,/CAN2_AUX*%
X130121320Y-132921320D03*
X124521320Y-122521320D03*
%TO.N,/CANL2*%
X143121320Y-142121320D03*
X143121320Y-143521320D03*
%TO.N,/CAN1_AUX*%
X151921320Y-131121320D03*
X127321320Y-122321320D03*
%TO.N,/CANH1*%
X147521320Y-141521320D03*
%TO.N,/CANL1*%
X141921320Y-140721320D03*
%TO.N,Net-(D8-A)*%
X183721320Y-132371322D03*
X181921320Y-135121320D03*
X183121320Y-136521320D03*
D31*
%TO.N,+7V4*%
X185721320Y-120021320D03*
X185721320Y-114121320D03*
X190706320Y-126321320D03*
D30*
X162521320Y-118321320D03*
D31*
X190706320Y-128121320D03*
D30*
%TO.N,GND*%
X167521320Y-143121320D03*
X130521320Y-110521320D03*
D31*
X192321320Y-111521320D03*
D30*
X150321320Y-120521320D03*
X110321320Y-109921320D03*
X147721320Y-120521320D03*
D31*
X162421320Y-126621320D03*
D30*
X180521320Y-129321320D03*
D31*
X158721320Y-127121320D03*
D30*
X172721320Y-120921320D03*
X129721320Y-128861320D03*
X139521320Y-131521320D03*
X166521320Y-119921320D03*
%TO.N,/LED2*%
X124321320Y-119121320D03*
%TO.N,/LED1*%
X120921320Y-119721320D03*
%TO.N,/PWM_EXT*%
X115121320Y-105721320D03*
X115121320Y-111321320D03*
%TO.N,Net-(J17-Pin_4)*%
X144121320Y-105321320D03*
%TO.N,/PWM_D*%
X137921320Y-111122320D03*
X118121320Y-112321320D03*
%TO.N,Net-(J16-Pin_4)*%
X144121320Y-108121320D03*
%TO.N,/PWM_C*%
X118321320Y-113321320D03*
X137321320Y-112321320D03*
%TO.N,/PWM_A*%
X137321320Y-113995320D03*
%TO.N,GND*%
X130121320Y-107921320D03*
X133721320Y-117121320D03*
X172096320Y-140121320D03*
X124471320Y-103121320D03*
X175321320Y-118321320D03*
X180521320Y-132321320D03*
X167521320Y-144121320D03*
X128871320Y-106521320D03*
D31*
X192321320Y-114921320D03*
D30*
X172321320Y-139521320D03*
X145121320Y-120521320D03*
X144321320Y-124721320D03*
D31*
X154121320Y-101321320D03*
D30*
X133721320Y-114721320D03*
X143921320Y-142121320D03*
X155921320Y-119921320D03*
X126871320Y-104921320D03*
X131921320Y-115921320D03*
X143121320Y-144321320D03*
D31*
X162921320Y-125521320D03*
D30*
X145721320Y-129521320D03*
D32*
X131722214Y-118569291D03*
D30*
X126521320Y-115321320D03*
D31*
X169521320Y-127121320D03*
X154121320Y-111521320D03*
D30*
X100321320Y-119521320D03*
X142921320Y-129921320D03*
X135721320Y-113321320D03*
%TO.N,+3V3*%
X117321320Y-107721320D03*
X137521320Y-130521320D03*
X106321320Y-114521320D03*
D32*
X130721320Y-117321320D03*
X130721320Y-114521320D03*
D31*
X158921320Y-124921320D03*
D30*
X140296320Y-126121320D03*
X141721320Y-132721320D03*
D31*
X154371320Y-121921320D03*
X156321320Y-124921320D03*
X157521320Y-124921320D03*
D32*
X131721320Y-117321320D03*
D30*
X111721320Y-114521320D03*
X173721320Y-132321320D03*
X103521320Y-125321320D03*
X188721320Y-131921320D03*
D32*
X131721320Y-127921320D03*
D30*
X149921320Y-131921320D03*
%TO.N,Net-(U5-DRDY_N)*%
X134721320Y-66121320D03*
%TO.N,Net-(U5-RESET_N)*%
X128721320Y-64921320D03*
%TO.N,/2S+ A10*%
X171421320Y-66621320D03*
%TO.N,/I2C1_SDA*%
X160921320Y-72521320D03*
%TO.N,/I2C1_SCL*%
X158721320Y-72521320D03*
%TO.N,/NRST*%
X158571320Y-64471320D03*
D32*
%TO.N,Net-(D6-A)*%
X182721320Y-91321320D03*
D30*
%TO.N,/CANL2*%
X143121320Y-92921320D03*
X143121320Y-94521320D03*
%TO.N,/CANH1*%
X147321320Y-92121320D03*
%TO.N,/CANL1*%
X141521320Y-90921320D03*
D32*
%TO.N,GND*%
X101024818Y-64004065D03*
D30*
X179521320Y-89621320D03*
D31*
X179796320Y-70646320D03*
D30*
X103321320Y-58721320D03*
D32*
X181821320Y-94121320D03*
D30*
X104521320Y-87121320D03*
X176858820Y-67583820D03*
D31*
X176521320Y-53521320D03*
D30*
X122521320Y-65971320D03*
D32*
X181821320Y-88521320D03*
D30*
X160721320Y-59521320D03*
X105921320Y-76521320D03*
D31*
X179896320Y-59946320D03*
D30*
X172021320Y-94621320D03*
X180921320Y-60521320D03*
D31*
X189321320Y-82721320D03*
D30*
X154521320Y-87121320D03*
X114921320Y-66221320D03*
X153521320Y-58021320D03*
X114121320Y-53101320D03*
X179521320Y-87121320D03*
X101921320Y-76521320D03*
X138721320Y-82921320D03*
X158921320Y-49521320D03*
X112621320Y-63221320D03*
X119921320Y-51101320D03*
X144521320Y-87121320D03*
X104521320Y-92121320D03*
X102521320Y-62121320D03*
X192021320Y-87121320D03*
X155721320Y-56821320D03*
D31*
X182921320Y-85521320D03*
D30*
X141521320Y-58121320D03*
X140221320Y-53621320D03*
D32*
X181821320Y-91321320D03*
D30*
X140321320Y-50421320D03*
X119321320Y-63521320D03*
X180721320Y-71321320D03*
X172021320Y-92121320D03*
X117121320Y-76721320D03*
D32*
X143220148Y-79146320D03*
D30*
X109521320Y-87121320D03*
X121121320Y-76721320D03*
X184521320Y-87121320D03*
D31*
X176521320Y-64521320D03*
D30*
X160321320Y-64321320D03*
X114521320Y-92121320D03*
X169521320Y-89621320D03*
X133121320Y-77121320D03*
X132521320Y-83121320D03*
X145321320Y-79321320D03*
X162521320Y-59721320D03*
X192021320Y-84621320D03*
X180521320Y-78521320D03*
X127921320Y-77121320D03*
X144521320Y-89621320D03*
X134521320Y-87121320D03*
X119321320Y-53101320D03*
X145721320Y-74321320D03*
X110721320Y-53321320D03*
X166971320Y-62021320D03*
X113921320Y-63546320D03*
X166921320Y-91521320D03*
D31*
X189321320Y-81921320D03*
D30*
X111521320Y-51121320D03*
D32*
X101521320Y-67921320D03*
D30*
X109521320Y-92121320D03*
X119521320Y-92121320D03*
X105921320Y-53321320D03*
%TO.N,+3V3*%
X166121320Y-53121320D03*
X181521320Y-55321320D03*
X181521320Y-53921320D03*
X125121320Y-64721320D03*
X146521320Y-80321320D03*
X158964680Y-60563769D03*
D32*
%TO.N,Net-(D7-A)*%
X182721320Y-94121320D03*
%TO.N,Net-(D5-A)*%
X182721320Y-88521320D03*
D30*
%TO.N,+5VA*%
X105121320Y-51121320D03*
D32*
X110721320Y-64321320D03*
D30*
X137146320Y-77321320D03*
X137146320Y-76521320D03*
X134721320Y-78121320D03*
X137146320Y-78121320D03*
X121721320Y-53921320D03*
X113521320Y-51101320D03*
%TO.N,+5V*%
X178521320Y-62846320D03*
X144221446Y-79321320D03*
X181521320Y-67521320D03*
X181521320Y-66521320D03*
X138921320Y-79721320D03*
%TO.N,/2S+ A10*%
X166921320Y-63921320D03*
%TO.N,+3V3*%
X141908820Y-75508820D03*
X149521320Y-80121320D03*
X117921320Y-65521320D03*
X181521320Y-56521320D03*
X192121320Y-64121320D03*
X147321320Y-53921320D03*
X162521320Y-61121320D03*
%TO.N,Net-(U5-RESET_N)*%
X133740216Y-73102424D03*
%TO.N,Net-(U5-CS_N)*%
X135721320Y-64921320D03*
X135721320Y-68921320D03*
%TO.N,Net-(U5-DRDY_N)*%
X134721320Y-71501838D03*
%TD*%
M02*
