%TF.GenerationSoftware,KiCad,Pcbnew,9.0.0*%
%TF.CreationDate,2025-05-15T12:13:46+12:00*%
%TF.ProjectId,,58585858-5858-4585-9858-585858585858,rev?*%
%TF.SameCoordinates,Original*%
%TF.FileFunction,Paste,Top*%
%TF.FilePolarity,Positive*%
%FSLAX46Y46*%
G04 Gerber Fmt 4.6, Leading zero omitted, Abs format (unit mm)*
G04 Created by KiCad (PCBNEW 9.0.0) date 2025-05-15 12:13:46*
%MOMM*%
%LPD*%
G01*
G04 APERTURE LIST*
G04 Aperture macros list*
%AMRoundRect*
0 Rectangle with rounded corners*
0 $1 Rounding radius*
0 $2 $3 $4 $5 $6 $7 $8 $9 X,Y pos of 4 corners*
0 Add a 4 corners polygon primitive as box body*
4,1,4,$2,$3,$4,$5,$6,$7,$8,$9,$2,$3,0*
0 Add four circle primitives for the rounded corners*
1,1,$1+$1,$2,$3*
1,1,$1+$1,$4,$5*
1,1,$1+$1,$6,$7*
1,1,$1+$1,$8,$9*
0 Add four rect primitives between the rounded corners*
20,1,$1+$1,$2,$3,$4,$5,0*
20,1,$1+$1,$4,$5,$6,$7,0*
20,1,$1+$1,$6,$7,$8,$9,0*
20,1,$1+$1,$8,$9,$2,$3,0*%
G04 Aperture macros list end*
%ADD10RoundRect,0.125000X0.125000X-0.125000X0.125000X0.125000X-0.125000X0.125000X-0.125000X-0.125000X0*%
%ADD11RoundRect,0.095000X0.155000X0.095000X-0.155000X0.095000X-0.155000X-0.095000X0.155000X-0.095000X0*%
%ADD12RoundRect,0.075000X0.250000X0.075000X-0.250000X0.075000X-0.250000X-0.075000X0.250000X-0.075000X0*%
%ADD13RoundRect,0.200000X0.200000X0.275000X-0.200000X0.275000X-0.200000X-0.275000X0.200000X-0.275000X0*%
%ADD14RoundRect,0.200000X0.275000X-0.200000X0.275000X0.200000X-0.275000X0.200000X-0.275000X-0.200000X0*%
%ADD15R,1.050000X0.399999*%
%ADD16R,0.200000X0.599999*%
%ADD17RoundRect,0.250000X1.500000X0.550000X-1.500000X0.550000X-1.500000X-0.550000X1.500000X-0.550000X0*%
%ADD18RoundRect,0.200000X-0.200000X-0.275000X0.200000X-0.275000X0.200000X0.275000X-0.200000X0.275000X0*%
%ADD19RoundRect,0.200000X-0.275000X0.200000X-0.275000X-0.200000X0.275000X-0.200000X0.275000X0.200000X0*%
%ADD20RoundRect,0.225000X0.225000X0.250000X-0.225000X0.250000X-0.225000X-0.250000X0.225000X-0.250000X0*%
%ADD21RoundRect,0.150000X0.150000X0.200000X-0.150000X0.200000X-0.150000X-0.200000X0.150000X-0.200000X0*%
%ADD22RoundRect,0.375000X0.625000X0.375000X-0.625000X0.375000X-0.625000X-0.375000X0.625000X-0.375000X0*%
%ADD23RoundRect,0.500000X0.500000X1.400000X-0.500000X1.400000X-0.500000X-1.400000X0.500000X-1.400000X0*%
%ADD24RoundRect,0.140000X0.170000X-0.140000X0.170000X0.140000X-0.170000X0.140000X-0.170000X-0.140000X0*%
%ADD25RoundRect,0.140000X-0.140000X-0.170000X0.140000X-0.170000X0.140000X0.170000X-0.140000X0.170000X0*%
%ADD26RoundRect,0.250000X-0.300000X0.300000X-0.300000X-0.300000X0.300000X-0.300000X0.300000X0.300000X0*%
%ADD27RoundRect,0.075000X0.700000X0.075000X-0.700000X0.075000X-0.700000X-0.075000X0.700000X-0.075000X0*%
%ADD28RoundRect,0.075000X0.075000X0.700000X-0.075000X0.700000X-0.075000X-0.700000X0.075000X-0.700000X0*%
%ADD29RoundRect,0.250000X-0.300000X-0.300000X0.300000X-0.300000X0.300000X0.300000X-0.300000X0.300000X0*%
%ADD30RoundRect,0.225000X-0.225000X-0.250000X0.225000X-0.250000X0.225000X0.250000X-0.225000X0.250000X0*%
%ADD31RoundRect,0.225000X0.250000X-0.225000X0.250000X0.225000X-0.250000X0.225000X-0.250000X-0.225000X0*%
%ADD32RoundRect,0.250000X-0.325000X-0.650000X0.325000X-0.650000X0.325000X0.650000X-0.325000X0.650000X0*%
%ADD33RoundRect,0.250000X0.625000X-0.375000X0.625000X0.375000X-0.625000X0.375000X-0.625000X-0.375000X0*%
%ADD34RoundRect,0.250000X-1.500000X-0.550000X1.500000X-0.550000X1.500000X0.550000X-1.500000X0.550000X0*%
%ADD35RoundRect,0.225000X-0.250000X0.225000X-0.250000X-0.225000X0.250000X-0.225000X0.250000X0.225000X0*%
%ADD36RoundRect,0.140000X-0.170000X0.140000X-0.170000X-0.140000X0.170000X-0.140000X0.170000X0.140000X0*%
%ADD37RoundRect,0.150000X-0.150000X0.512500X-0.150000X-0.512500X0.150000X-0.512500X0.150000X0.512500X0*%
%ADD38RoundRect,0.100000X-0.575000X0.100000X-0.575000X-0.100000X0.575000X-0.100000X0.575000X0.100000X0*%
%ADD39O,1.600000X0.900000*%
%ADD40RoundRect,0.250000X-0.450000X0.550000X-0.450000X-0.550000X0.450000X-0.550000X0.450000X0.550000X0*%
%ADD41RoundRect,0.250000X-0.700000X0.700000X-0.700000X-0.700000X0.700000X-0.700000X0.700000X0.700000X0*%
%ADD42RoundRect,0.095000X0.095000X-0.155000X0.095000X0.155000X-0.095000X0.155000X-0.095000X-0.155000X0*%
%ADD43RoundRect,0.075000X0.075000X-0.250000X0.075000X0.250000X-0.075000X0.250000X-0.075000X-0.250000X0*%
%ADD44R,1.400000X1.200000*%
%ADD45RoundRect,0.150000X0.150000X0.350000X-0.150000X0.350000X-0.150000X-0.350000X0.150000X-0.350000X0*%
%ADD46RoundRect,0.105000X0.245000X0.105000X-0.245000X0.105000X-0.245000X-0.105000X0.245000X-0.105000X0*%
%ADD47R,0.304800X0.972299*%
%ADD48RoundRect,0.125000X0.125000X0.125000X-0.125000X0.125000X-0.125000X-0.125000X0.125000X-0.125000X0*%
%ADD49RoundRect,0.135000X0.135000X0.185000X-0.135000X0.185000X-0.135000X-0.185000X0.135000X-0.185000X0*%
%ADD50RoundRect,0.375000X0.375000X-0.625000X0.375000X0.625000X-0.375000X0.625000X-0.375000X-0.625000X0*%
%ADD51RoundRect,0.500000X1.400000X-0.500000X1.400000X0.500000X-1.400000X0.500000X-1.400000X-0.500000X0*%
%ADD52RoundRect,0.135000X-0.185000X0.135000X-0.185000X-0.135000X0.185000X-0.135000X0.185000X0.135000X0*%
%ADD53RoundRect,0.140000X0.140000X0.170000X-0.140000X0.170000X-0.140000X-0.170000X0.140000X-0.170000X0*%
%ADD54RoundRect,0.250000X-0.650000X0.325000X-0.650000X-0.325000X0.650000X-0.325000X0.650000X0.325000X0*%
%ADD55RoundRect,0.095000X-0.155000X-0.095000X0.155000X-0.095000X0.155000X0.095000X-0.155000X0.095000X0*%
%ADD56RoundRect,0.075000X-0.250000X-0.075000X0.250000X-0.075000X0.250000X0.075000X-0.250000X0.075000X0*%
%ADD57RoundRect,0.100000X-0.100000X-0.575000X0.100000X-0.575000X0.100000X0.575000X-0.100000X0.575000X0*%
%ADD58O,0.900000X1.600000*%
%ADD59RoundRect,0.250000X-0.550000X-0.450000X0.550000X-0.450000X0.550000X0.450000X-0.550000X0.450000X0*%
%ADD60RoundRect,0.250000X-0.700000X-0.700000X0.700000X-0.700000X0.700000X0.700000X-0.700000X0.700000X0*%
%ADD61RoundRect,0.135000X-0.135000X-0.185000X0.135000X-0.185000X0.135000X0.185000X-0.135000X0.185000X0*%
%ADD62RoundRect,0.250000X0.300000X-0.300000X0.300000X0.300000X-0.300000X0.300000X-0.300000X-0.300000X0*%
%ADD63RoundRect,0.250000X-0.375000X-0.625000X0.375000X-0.625000X0.375000X0.625000X-0.375000X0.625000X0*%
%ADD64RoundRect,0.150000X-0.350000X0.150000X-0.350000X-0.150000X0.350000X-0.150000X0.350000X0.150000X0*%
%ADD65RoundRect,0.105000X-0.105000X0.245000X-0.105000X-0.245000X0.105000X-0.245000X0.105000X0.245000X0*%
%ADD66RoundRect,0.135000X0.185000X-0.135000X0.185000X0.135000X-0.185000X0.135000X-0.185000X-0.135000X0*%
%ADD67RoundRect,0.075000X-0.075000X0.700000X-0.075000X-0.700000X0.075000X-0.700000X0.075000X0.700000X0*%
%ADD68RoundRect,0.075000X-0.700000X0.075000X-0.700000X-0.075000X0.700000X-0.075000X0.700000X0.075000X0*%
%ADD69RoundRect,0.250000X0.375000X0.625000X-0.375000X0.625000X-0.375000X-0.625000X0.375000X-0.625000X0*%
%ADD70RoundRect,0.250000X-1.000000X1.950000X-1.000000X-1.950000X1.000000X-1.950000X1.000000X1.950000X0*%
%ADD71RoundRect,0.075000X0.075000X-0.675000X0.075000X0.675000X-0.075000X0.675000X-0.075000X-0.675000X0*%
%ADD72RoundRect,0.075000X0.675000X-0.075000X0.675000X0.075000X-0.675000X0.075000X-0.675000X-0.075000X0*%
%ADD73RoundRect,0.250000X0.275000X0.700000X-0.275000X0.700000X-0.275000X-0.700000X0.275000X-0.700000X0*%
G04 APERTURE END LIST*
D10*
%TO.C,D6*%
X177121320Y-145021320D03*
X177121320Y-142821320D03*
%TD*%
D11*
%TO.C,D4*%
X128771320Y-129461320D03*
D12*
X128851320Y-128921320D03*
D11*
X128771320Y-128381320D03*
X127071320Y-128381320D03*
X127071320Y-129461320D03*
%TD*%
D13*
%TO.C,R25*%
X186146320Y-136521320D03*
X184496320Y-136521320D03*
%TD*%
D14*
%TO.C,R22*%
X185521320Y-130946320D03*
X185521320Y-129296320D03*
%TD*%
D13*
%TO.C,R5*%
X116146320Y-106921320D03*
X114496320Y-106921320D03*
%TD*%
D15*
%TO.C,U5*%
X184646320Y-133196322D03*
X184646320Y-133896321D03*
D16*
X184571319Y-134671320D03*
X185071320Y-134671320D03*
X185571320Y-134671320D03*
X186071321Y-134671320D03*
D15*
X185996320Y-133896321D03*
X185996320Y-133196322D03*
D16*
X186071321Y-132371322D03*
X185571320Y-132371322D03*
X185071320Y-132371322D03*
X184571319Y-132371322D03*
%TD*%
D17*
%TO.C,C22*%
X162321320Y-101321320D03*
X156721320Y-101321320D03*
%TD*%
D18*
%TO.C,R29*%
X112696320Y-114721320D03*
X114346320Y-114721320D03*
%TD*%
D19*
%TO.C,R23*%
X187521320Y-129296320D03*
X187521320Y-130946320D03*
%TD*%
D20*
%TO.C,C20*%
X126696320Y-102321320D03*
X125146320Y-102321320D03*
%TD*%
D21*
%TO.C,D8*%
X181421320Y-132521320D03*
X182821320Y-132521320D03*
%TD*%
D22*
%TO.C,U3*%
X160671320Y-127221320D03*
X160671320Y-124921320D03*
D23*
X154371320Y-124921320D03*
D22*
X160671320Y-122621320D03*
%TD*%
D20*
%TO.C,C8*%
X140296320Y-132321320D03*
X138746320Y-132321320D03*
%TD*%
D14*
%TO.C,R26*%
X179321320Y-136946320D03*
X179321320Y-135296320D03*
%TD*%
D13*
%TO.C,R17*%
X181346320Y-118321320D03*
X179696320Y-118321320D03*
%TD*%
%TO.C,R21*%
X129921320Y-102321320D03*
X128271320Y-102321320D03*
%TD*%
D24*
%TO.C,C6*%
X130521320Y-112201320D03*
X130521320Y-111241320D03*
%TD*%
D25*
%TO.C,C2*%
X129841320Y-118121320D03*
X130801320Y-118121320D03*
%TD*%
D26*
%TO.C,D10*%
X180521320Y-127921320D03*
X180521320Y-130721320D03*
%TD*%
D27*
%TO.C,U1*%
X127996320Y-119271320D03*
X127996320Y-118771320D03*
X127996320Y-118271320D03*
X127996320Y-117771320D03*
X127996320Y-117271320D03*
X127996320Y-116771320D03*
X127996320Y-116271320D03*
X127996320Y-115771320D03*
X127996320Y-115271320D03*
X127996320Y-114771320D03*
X127996320Y-114271320D03*
X127996320Y-113771320D03*
X127996320Y-113271320D03*
X127996320Y-112771320D03*
X127996320Y-112271320D03*
X127996320Y-111771320D03*
D28*
X126071320Y-109846320D03*
X125571320Y-109846320D03*
X125071320Y-109846320D03*
X124571320Y-109846320D03*
X124071320Y-109846320D03*
X123571320Y-109846320D03*
X123071320Y-109846320D03*
X122571320Y-109846320D03*
X122071320Y-109846320D03*
X121571320Y-109846320D03*
X121071320Y-109846320D03*
X120571320Y-109846320D03*
X120071320Y-109846320D03*
X119571320Y-109846320D03*
X119071320Y-109846320D03*
X118571320Y-109846320D03*
D27*
X116646320Y-111771320D03*
X116646320Y-112271320D03*
X116646320Y-112771320D03*
X116646320Y-113271320D03*
X116646320Y-113771320D03*
X116646320Y-114271320D03*
X116646320Y-114771320D03*
X116646320Y-115271320D03*
X116646320Y-115771320D03*
X116646320Y-116271320D03*
X116646320Y-116771320D03*
X116646320Y-117271320D03*
X116646320Y-117771320D03*
X116646320Y-118271320D03*
X116646320Y-118771320D03*
X116646320Y-119271320D03*
D28*
X118571320Y-121196320D03*
X119071320Y-121196320D03*
X119571320Y-121196320D03*
X120071320Y-121196320D03*
X120571320Y-121196320D03*
X121071320Y-121196320D03*
X121571320Y-121196320D03*
X122071320Y-121196320D03*
X122571320Y-121196320D03*
X123071320Y-121196320D03*
X123571320Y-121196320D03*
X124071320Y-121196320D03*
X124571320Y-121196320D03*
X125071320Y-121196320D03*
X125571320Y-121196320D03*
X126071320Y-121196320D03*
%TD*%
D29*
%TO.C,D7*%
X167521320Y-141921320D03*
X170321320Y-141921320D03*
%TD*%
D18*
%TO.C,R12*%
X140296320Y-125321320D03*
X141946320Y-125321320D03*
%TD*%
D17*
%TO.C,C21*%
X162321320Y-111521320D03*
X156721320Y-111521320D03*
%TD*%
D18*
%TO.C,R4*%
X106496320Y-106921320D03*
X108146320Y-106921320D03*
%TD*%
D30*
%TO.C,C4*%
X132746320Y-117921320D03*
X134296320Y-117921320D03*
%TD*%
D13*
%TO.C,R24*%
X187146320Y-138121320D03*
X185496320Y-138121320D03*
%TD*%
D20*
%TO.C,C16*%
X132646320Y-107121320D03*
X131096320Y-107121320D03*
%TD*%
D13*
%TO.C,R8*%
X103746320Y-117921320D03*
X102096320Y-117921320D03*
%TD*%
D31*
%TO.C,C14*%
X173921320Y-122496320D03*
X173921320Y-120946320D03*
%TD*%
D20*
%TO.C,C10*%
X130671320Y-105521320D03*
X129121320Y-105521320D03*
%TD*%
D32*
%TO.C,C13*%
X165046320Y-119921320D03*
X167996320Y-119921320D03*
%TD*%
D25*
%TO.C,C1*%
X129841320Y-115321320D03*
X130801320Y-115321320D03*
%TD*%
D19*
%TO.C,R9*%
X161321320Y-131496320D03*
X161321320Y-133146320D03*
%TD*%
D31*
%TO.C,C23*%
X183921320Y-130896320D03*
X183921320Y-129346320D03*
%TD*%
D19*
%TO.C,R11*%
X127721320Y-131696320D03*
X127721320Y-133346320D03*
%TD*%
D33*
%TO.C,F1*%
X170321320Y-139321320D03*
X170321320Y-136521320D03*
%TD*%
D18*
%TO.C,R10*%
X147096320Y-131921320D03*
X148746320Y-131921320D03*
%TD*%
D32*
%TO.C,C11*%
X154446320Y-119921320D03*
X157396320Y-119921320D03*
%TD*%
D13*
%TO.C,R19*%
X178276320Y-118321320D03*
X176626320Y-118321320D03*
%TD*%
%TO.C,R15*%
X133921320Y-105521320D03*
X132271320Y-105521320D03*
%TD*%
%TO.C,R6*%
X132546320Y-127921320D03*
X130896320Y-127921320D03*
%TD*%
%TO.C,R28*%
X135746320Y-127921320D03*
X134096320Y-127921320D03*
%TD*%
%TO.C,R16*%
X135896320Y-107121320D03*
X134246320Y-107121320D03*
%TD*%
D31*
%TO.C,C9*%
X144321320Y-127121320D03*
X144321320Y-125571320D03*
%TD*%
D34*
%TO.C,C17*%
X186321320Y-109521320D03*
X191921320Y-109521320D03*
%TD*%
D35*
%TO.C,C12*%
X162921320Y-122546320D03*
X162921320Y-124096320D03*
%TD*%
D36*
%TO.C,C7*%
X135721320Y-111241320D03*
X135721320Y-112201320D03*
%TD*%
D18*
%TO.C,R30*%
X107271320Y-114721320D03*
X108921320Y-114721320D03*
%TD*%
D30*
%TO.C,C3*%
X132346320Y-113921320D03*
X133896320Y-113921320D03*
%TD*%
D13*
%TO.C,R20*%
X131921320Y-103921320D03*
X130271320Y-103921320D03*
%TD*%
D18*
%TO.C,R13*%
X140296320Y-126921320D03*
X141946320Y-126921320D03*
%TD*%
D33*
%TO.C,F2*%
X178121320Y-131721320D03*
X178121320Y-128921320D03*
%TD*%
D22*
%TO.C,U4*%
X171471320Y-127221320D03*
X171471320Y-124921320D03*
D23*
X165171320Y-124921320D03*
D22*
X171471320Y-122621320D03*
%TD*%
D13*
%TO.C,R14*%
X140346320Y-130521320D03*
X138696320Y-130521320D03*
%TD*%
D37*
%TO.C,D9*%
X182871320Y-135183820D03*
X180971320Y-135183820D03*
X181921320Y-137458820D03*
%TD*%
D34*
%TO.C,C15*%
X186321320Y-116921320D03*
X191921320Y-116921320D03*
%TD*%
D38*
%TO.C,J4*%
X98721320Y-116021320D03*
X98721320Y-116671320D03*
X98721320Y-117321320D03*
X98721320Y-117971320D03*
X98721320Y-118621320D03*
D39*
X96046320Y-114021320D03*
D40*
X98496320Y-114121320D03*
D41*
X96046320Y-116121320D03*
X96046320Y-118521320D03*
D40*
X98496320Y-120521320D03*
D39*
X96046320Y-120621320D03*
%TD*%
D42*
%TO.C,D5*%
X109781320Y-108771320D03*
D43*
X110321320Y-108851320D03*
D42*
X110861320Y-108771320D03*
X110861320Y-107071320D03*
X109781320Y-107071320D03*
%TD*%
D44*
%TO.C,Y1*%
X132021320Y-112171320D03*
X134221320Y-112171320D03*
X134221320Y-110471320D03*
X132021320Y-110471320D03*
%TD*%
D45*
%TO.C,Q1*%
X173601320Y-144451320D03*
X173601320Y-143321320D03*
X172891320Y-144451320D03*
X172891320Y-143321320D03*
D46*
X172121320Y-144861320D03*
X172121320Y-144211320D03*
X172121320Y-143561320D03*
X172121320Y-142911320D03*
X175121320Y-144861320D03*
X175121320Y-144211320D03*
X175121320Y-143561320D03*
X175121320Y-142911320D03*
%TD*%
D47*
%TO.C,U2*%
X145221698Y-128581069D03*
X144721572Y-128581069D03*
X144221446Y-128581069D03*
X143721320Y-128581069D03*
X143221194Y-128581069D03*
X142721068Y-128581069D03*
X142220942Y-128581069D03*
X142220942Y-131661571D03*
X142721068Y-131661571D03*
X143221194Y-131661571D03*
X143721320Y-131661571D03*
X144221446Y-131661571D03*
X144721572Y-131661571D03*
X145221698Y-131661571D03*
%TD*%
D13*
%TO.C,R7*%
X103746320Y-116121320D03*
X102096320Y-116121320D03*
%TD*%
D19*
%TO.C,R27*%
X103521320Y-122496320D03*
X103521320Y-124146320D03*
%TD*%
D25*
%TO.C,C5*%
X129841320Y-116521320D03*
X130801320Y-116521320D03*
%TD*%
D13*
%TO.C,R18*%
X173746320Y-141121320D03*
X172096320Y-141121320D03*
%TD*%
D20*
%TO.C,C19*%
X128671320Y-103921320D03*
X127121320Y-103921320D03*
%TD*%
D48*
%TO.C,D3*%
X183921320Y-73921320D03*
X181721320Y-73921320D03*
%TD*%
D24*
%TO.C,C5*%
X161721320Y-61121320D03*
X161721320Y-60161320D03*
%TD*%
D49*
%TO.C,R36*%
X133831320Y-78121320D03*
X132811320Y-78121320D03*
%TD*%
D50*
%TO.C,U3*%
X179221320Y-58271320D03*
X181521320Y-58271320D03*
D51*
X181521320Y-51971320D03*
D50*
X183821320Y-58271320D03*
%TD*%
D31*
%TO.C,C9*%
X144521320Y-76696320D03*
X144521320Y-75146320D03*
%TD*%
D52*
%TO.C,R38*%
X129521320Y-74811320D03*
X129521320Y-75831320D03*
%TD*%
D30*
%TO.C,C4*%
X163346320Y-60721320D03*
X164896320Y-60721320D03*
%TD*%
D53*
%TO.C,C26*%
X119601320Y-73521320D03*
X118641320Y-73521320D03*
%TD*%
D18*
%TO.C,R46*%
X123096320Y-54921320D03*
X124746320Y-54921320D03*
%TD*%
D52*
%TO.C,R25*%
X120121320Y-74811320D03*
X120121320Y-75831320D03*
%TD*%
D19*
%TO.C,R16*%
X179921320Y-75696320D03*
X179921320Y-77346320D03*
%TD*%
D52*
%TO.C,R28*%
X118121320Y-74811320D03*
X118121320Y-75831320D03*
%TD*%
D13*
%TO.C,R18*%
X135546320Y-83121320D03*
X133896320Y-83121320D03*
%TD*%
%TO.C,R55*%
X165146320Y-53121320D03*
X163496320Y-53121320D03*
%TD*%
D54*
%TO.C,C10*%
X176521320Y-51846320D03*
X176521320Y-54796320D03*
%TD*%
D55*
%TO.C,D2*%
X158071320Y-48981320D03*
D56*
X157991320Y-49521320D03*
D55*
X158071320Y-50061320D03*
X159771320Y-50061320D03*
X159771320Y-48981320D03*
%TD*%
D30*
%TO.C,C3*%
X159946320Y-58721320D03*
X161496320Y-58721320D03*
%TD*%
D25*
%TO.C,C24*%
X101641320Y-63521320D03*
X102601320Y-63521320D03*
%TD*%
D24*
%TO.C,C37*%
X106121320Y-55401320D03*
X106121320Y-54441320D03*
%TD*%
D36*
%TO.C,C39*%
X110521320Y-54441320D03*
X110521320Y-55401320D03*
%TD*%
D14*
%TO.C,R17*%
X175796320Y-69233820D03*
X175796320Y-67583820D03*
%TD*%
D24*
%TO.C,C2*%
X160721320Y-61121320D03*
X160721320Y-60161320D03*
%TD*%
%TO.C,C40*%
X114521320Y-55381320D03*
X114521320Y-54421320D03*
%TD*%
D31*
%TO.C,C17*%
X111521320Y-65096320D03*
X111521320Y-63546320D03*
%TD*%
D19*
%TO.C,R54*%
X192121320Y-65696320D03*
X192121320Y-67346320D03*
%TD*%
D57*
%TO.C,J4*%
X163721320Y-92846320D03*
X164371320Y-92846320D03*
X165021320Y-92846320D03*
X165671320Y-92846320D03*
X166321320Y-92846320D03*
D58*
X161721320Y-95521320D03*
D59*
X161821320Y-93071320D03*
D60*
X163821320Y-95521320D03*
X166221320Y-95521320D03*
D59*
X168221320Y-93071320D03*
D58*
X168321320Y-95521320D03*
%TD*%
D30*
%TO.C,C16*%
X121746320Y-65221320D03*
X123296320Y-65221320D03*
%TD*%
D14*
%TO.C,R51*%
X192121320Y-72946320D03*
X192121320Y-71296320D03*
%TD*%
D61*
%TO.C,R50*%
X117721320Y-50901320D03*
X118741320Y-50901320D03*
%TD*%
D19*
%TO.C,R4*%
X159921320Y-83496320D03*
X159921320Y-85146320D03*
%TD*%
D13*
%TO.C,R6*%
X129546320Y-85121320D03*
X127896320Y-85121320D03*
%TD*%
D18*
%TO.C,R56*%
X148721320Y-53321320D03*
X150371320Y-53321320D03*
%TD*%
D25*
%TO.C,C38*%
X107841320Y-57121320D03*
X108801320Y-57121320D03*
%TD*%
D62*
%TO.C,D4*%
X182921320Y-83521320D03*
X182921320Y-80721320D03*
%TD*%
D44*
%TO.C,Y1*%
X157321320Y-58221320D03*
X155121320Y-58221320D03*
X155121320Y-59921320D03*
X157321320Y-59921320D03*
%TD*%
D20*
%TO.C,C8*%
X141896320Y-82921320D03*
X140346320Y-82921320D03*
%TD*%
D63*
%TO.C,F2*%
X177921320Y-80721320D03*
X180721320Y-80721320D03*
%TD*%
D64*
%TO.C,Q1*%
X183411320Y-77241320D03*
X182281320Y-77241320D03*
X183411320Y-77951320D03*
X182281320Y-77951320D03*
D65*
X183821320Y-78721320D03*
X183171320Y-78721320D03*
X182521320Y-78721320D03*
X181871320Y-78721320D03*
X183821320Y-75721320D03*
X183171320Y-75721320D03*
X182521320Y-75721320D03*
X181871320Y-75721320D03*
%TD*%
D20*
%TO.C,C19*%
X113296320Y-61721320D03*
X111746320Y-61721320D03*
%TD*%
D24*
%TO.C,C23*%
X105521320Y-65601320D03*
X105521320Y-64641320D03*
%TD*%
D31*
%TO.C,C36*%
X141521320Y-60896320D03*
X141521320Y-59346320D03*
%TD*%
D18*
%TO.C,R15*%
X179196320Y-95221320D03*
X180846320Y-95221320D03*
%TD*%
D49*
%TO.C,R20*%
X104231320Y-60521320D03*
X103211320Y-60521320D03*
%TD*%
D50*
%TO.C,U4*%
X179221320Y-69071320D03*
X181521320Y-69071320D03*
D51*
X181521320Y-62771320D03*
D50*
X183821320Y-69071320D03*
%TD*%
D36*
%TO.C,C29*%
X106121320Y-74841320D03*
X106121320Y-75801320D03*
%TD*%
D13*
%TO.C,R48*%
X139946320Y-49121320D03*
X138296320Y-49121320D03*
%TD*%
%TO.C,R53*%
X155946320Y-53321320D03*
X154296320Y-53321320D03*
%TD*%
D66*
%TO.C,R49*%
X117721320Y-55411320D03*
X117721320Y-54391320D03*
%TD*%
D67*
%TO.C,U1*%
X164071320Y-62846320D03*
X163571320Y-62846320D03*
X163071320Y-62846320D03*
X162571320Y-62846320D03*
X162071320Y-62846320D03*
X161571320Y-62846320D03*
X161071320Y-62846320D03*
X160571320Y-62846320D03*
X160071320Y-62846320D03*
X159571320Y-62846320D03*
X159071320Y-62846320D03*
X158571320Y-62846320D03*
X158071320Y-62846320D03*
X157571320Y-62846320D03*
X157071320Y-62846320D03*
X156571320Y-62846320D03*
D68*
X154646320Y-64771320D03*
X154646320Y-65271320D03*
X154646320Y-65771320D03*
X154646320Y-66271320D03*
X154646320Y-66771320D03*
X154646320Y-67271320D03*
X154646320Y-67771320D03*
X154646320Y-68271320D03*
X154646320Y-68771320D03*
X154646320Y-69271320D03*
X154646320Y-69771320D03*
X154646320Y-70271320D03*
X154646320Y-70771320D03*
X154646320Y-71271320D03*
X154646320Y-71771320D03*
X154646320Y-72271320D03*
D67*
X156571320Y-74196320D03*
X157071320Y-74196320D03*
X157571320Y-74196320D03*
X158071320Y-74196320D03*
X158571320Y-74196320D03*
X159071320Y-74196320D03*
X159571320Y-74196320D03*
X160071320Y-74196320D03*
X160571320Y-74196320D03*
X161071320Y-74196320D03*
X161571320Y-74196320D03*
X162071320Y-74196320D03*
X162571320Y-74196320D03*
X163071320Y-74196320D03*
X163571320Y-74196320D03*
X164071320Y-74196320D03*
D68*
X165996320Y-72271320D03*
X165996320Y-71771320D03*
X165996320Y-71271320D03*
X165996320Y-70771320D03*
X165996320Y-70271320D03*
X165996320Y-69771320D03*
X165996320Y-69271320D03*
X165996320Y-68771320D03*
X165996320Y-68271320D03*
X165996320Y-67771320D03*
X165996320Y-67271320D03*
X165996320Y-66771320D03*
X165996320Y-66271320D03*
X165996320Y-65771320D03*
X165996320Y-65271320D03*
X165996320Y-64771320D03*
%TD*%
D24*
%TO.C,C27*%
X117121320Y-75801320D03*
X117121320Y-74841320D03*
%TD*%
D13*
%TO.C,R24*%
X139975639Y-71501838D03*
X138325639Y-71501838D03*
%TD*%
D61*
%TO.C,R45*%
X114701320Y-50901320D03*
X115721320Y-50901320D03*
%TD*%
D18*
%TO.C,R14*%
X179196320Y-92421320D03*
X180846320Y-92421320D03*
%TD*%
D69*
%TO.C,F1*%
X173421320Y-84921320D03*
X170621320Y-84921320D03*
%TD*%
D70*
%TO.C,C14*%
X189321320Y-78221320D03*
X189321320Y-85621320D03*
%TD*%
D66*
%TO.C,R47*%
X115721320Y-55411320D03*
X115721320Y-54391320D03*
%TD*%
D18*
%TO.C,R7*%
X147096320Y-81321320D03*
X148746320Y-81321320D03*
%TD*%
D13*
%TO.C,R27*%
X139975639Y-65101838D03*
X138325639Y-65101838D03*
%TD*%
D25*
%TO.C,C41*%
X116241320Y-57101320D03*
X117201320Y-57101320D03*
%TD*%
D18*
%TO.C,R8*%
X122721320Y-85121320D03*
X124371320Y-85121320D03*
%TD*%
D71*
%TO.C,U5*%
X114771320Y-69896320D03*
X115271320Y-69896320D03*
X115771320Y-69896320D03*
X116271320Y-69896320D03*
X116771320Y-69896320D03*
X117271320Y-69896320D03*
X117771320Y-69896320D03*
X118271320Y-69896320D03*
D72*
X119696320Y-68471320D03*
X119696320Y-67971320D03*
X119696320Y-67471320D03*
X119696320Y-66971320D03*
X119696320Y-66471320D03*
X119696320Y-65971320D03*
X119696320Y-65471320D03*
X119696320Y-64971320D03*
D71*
X118271320Y-63546320D03*
X117771320Y-63546320D03*
X117271320Y-63546320D03*
X116771320Y-63546320D03*
X116271320Y-63546320D03*
X115771320Y-63546320D03*
X115271320Y-63546320D03*
X114771320Y-63546320D03*
D72*
X113346320Y-64971320D03*
X113346320Y-65471320D03*
X113346320Y-65971320D03*
X113346320Y-66471320D03*
X113346320Y-66971320D03*
X113346320Y-67471320D03*
X113346320Y-67971320D03*
X113346320Y-68471320D03*
%TD*%
D13*
%TO.C,R30*%
X139975639Y-68301838D03*
X138325639Y-68301838D03*
%TD*%
D66*
%TO.C,R43*%
X109321320Y-55431320D03*
X109321320Y-54411320D03*
%TD*%
D52*
%TO.C,R31*%
X104921320Y-74811320D03*
X104921320Y-75831320D03*
%TD*%
D19*
%TO.C,R9*%
X142721320Y-74696320D03*
X142721320Y-76346320D03*
%TD*%
D54*
%TO.C,C12*%
X176521320Y-62846320D03*
X176521320Y-65796320D03*
%TD*%
D18*
%TO.C,R29*%
X138296320Y-52221320D03*
X139946320Y-52221320D03*
%TD*%
D36*
%TO.C,C25*%
X121121320Y-74841320D03*
X121121320Y-75801320D03*
%TD*%
D24*
%TO.C,C35*%
X128321320Y-75801320D03*
X128321320Y-74841320D03*
%TD*%
D47*
%TO.C,U2*%
X145221698Y-78181069D03*
X144721572Y-78181069D03*
X144221446Y-78181069D03*
X143721320Y-78181069D03*
X143221194Y-78181069D03*
X142721068Y-78181069D03*
X142220942Y-78181069D03*
X142220942Y-81261571D03*
X142721068Y-81261571D03*
X143221194Y-81261571D03*
X143721320Y-81261571D03*
X144221446Y-81261571D03*
X144721572Y-81261571D03*
X145221698Y-81261571D03*
%TD*%
D19*
%TO.C,R10*%
X140721320Y-75896320D03*
X140721320Y-77546320D03*
%TD*%
D53*
%TO.C,C18*%
X104201320Y-62521320D03*
X103241320Y-62521320D03*
%TD*%
D52*
%TO.C,R37*%
X131521320Y-74811320D03*
X131521320Y-75831320D03*
%TD*%
D20*
%TO.C,C11*%
X183696320Y-60521320D03*
X182146320Y-60521320D03*
%TD*%
D35*
%TO.C,C43*%
X141521320Y-49146320D03*
X141521320Y-50696320D03*
%TD*%
D66*
%TO.C,R42*%
X107321320Y-55431320D03*
X107321320Y-54411320D03*
%TD*%
D73*
%TO.C,FB1*%
X140296320Y-79721320D03*
X137146320Y-79721320D03*
%TD*%
D35*
%TO.C,C32*%
X141521320Y-55346320D03*
X141521320Y-56896320D03*
%TD*%
D25*
%TO.C,C21*%
X103241320Y-59521320D03*
X104201320Y-59521320D03*
%TD*%
D13*
%TO.C,R11*%
X138746320Y-81721320D03*
X137096320Y-81721320D03*
%TD*%
D49*
%TO.C,R19*%
X104231320Y-61521320D03*
X103211320Y-61521320D03*
%TD*%
D19*
%TO.C,R13*%
X185721320Y-87196320D03*
X185721320Y-88846320D03*
%TD*%
D18*
%TO.C,R40*%
X138296320Y-60921320D03*
X139946320Y-60921320D03*
%TD*%
D53*
%TO.C,C34*%
X131001320Y-73521320D03*
X130041320Y-73521320D03*
%TD*%
D14*
%TO.C,R12*%
X175821320Y-72433820D03*
X175821320Y-70783820D03*
%TD*%
D24*
%TO.C,C31*%
X101721320Y-75801320D03*
X101721320Y-74841320D03*
%TD*%
D36*
%TO.C,C33*%
X132721320Y-74841320D03*
X132721320Y-75801320D03*
%TD*%
D35*
%TO.C,C15*%
X135521320Y-79746320D03*
X135521320Y-81296320D03*
%TD*%
D13*
%TO.C,R52*%
X169146320Y-49521320D03*
X167496320Y-49521320D03*
%TD*%
D52*
%TO.C,R34*%
X102921320Y-74811320D03*
X102921320Y-75831320D03*
%TD*%
D13*
%TO.C,R33*%
X139975639Y-69901838D03*
X138325639Y-69901838D03*
%TD*%
D53*
%TO.C,C6*%
X157401320Y-56821320D03*
X156441320Y-56821320D03*
%TD*%
D13*
%TO.C,R32*%
X139975639Y-63501838D03*
X138325639Y-63501838D03*
%TD*%
D61*
%TO.C,R44*%
X109321320Y-50921320D03*
X110341320Y-50921320D03*
%TD*%
D49*
%TO.C,R21*%
X102631320Y-65721320D03*
X101611320Y-65721320D03*
%TD*%
D35*
%TO.C,C28*%
X141521320Y-52271320D03*
X141521320Y-53821320D03*
%TD*%
D49*
%TO.C,R23*%
X102631320Y-64521320D03*
X101611320Y-64521320D03*
%TD*%
D13*
%TO.C,R22*%
X139975639Y-73101838D03*
X138325639Y-73101838D03*
%TD*%
D49*
%TO.C,R39*%
X128431320Y-78121320D03*
X127411320Y-78121320D03*
%TD*%
D61*
%TO.C,R41*%
X106301320Y-50921320D03*
X107321320Y-50921320D03*
%TD*%
D53*
%TO.C,C30*%
X104401320Y-73321320D03*
X103441320Y-73321320D03*
%TD*%
D24*
%TO.C,C7*%
X153521320Y-59701320D03*
X153521320Y-58741320D03*
%TD*%
D53*
%TO.C,C22*%
X102601320Y-66721320D03*
X101641320Y-66721320D03*
%TD*%
D24*
%TO.C,C1*%
X159721320Y-61121320D03*
X159721320Y-60161320D03*
%TD*%
D19*
%TO.C,R5*%
X161521320Y-83496320D03*
X161521320Y-85146320D03*
%TD*%
D36*
%TO.C,C42*%
X118921320Y-54421320D03*
X118921320Y-55381320D03*
%TD*%
D13*
%TO.C,R26*%
X139975639Y-66701838D03*
X138325639Y-66701838D03*
%TD*%
D24*
%TO.C,C20*%
X105321320Y-61501320D03*
X105321320Y-60541320D03*
%TD*%
D20*
%TO.C,C13*%
X183696320Y-71321320D03*
X182146320Y-71321320D03*
%TD*%
D18*
%TO.C,R35*%
X138296320Y-55321320D03*
X139946320Y-55321320D03*
%TD*%
M02*
