M48
; DRILL file {KiCad 9.0.0} date 2025-05-15T12:13:48+1200
; FORMAT={-:-/ absolute / metric / decimal}
; #@! TF.CreationDate,2025-05-15T12:13:48+12:00
; #@! TF.GenerationSoftware,Kicad,Pcbnew,9.0.0
; #@! TF.FileFunction,Plated,1,2,PTH
FMAT,2
METRIC
; #@! TA.AperFunction,Plated,PTH,ViaDrill
T1C0.300
; #@! TA.AperFunction,Plated,PTH,ViaDrill
T2C0.500
; #@! TA.AperFunction,Plated,PTH,ComponentDrill
T3C0.500
; #@! TA.AperFunction,Plated,PTH,ComponentDrill
T4C0.750
; #@! TA.AperFunction,Plated,PTH,ComponentDrill
T5C1.000
; #@! TA.AperFunction,Plated,PTH,ComponentDrill
T6C1.020
; #@! TA.AperFunction,Plated,PTH,ComponentDrill
T7C1.300
; #@! TA.AperFunction,Plated,PTH,ComponentDrill
T8C3.200
%
G90
G05
T1
X100.321Y-119.521
X101.025Y-64.004
X101.521Y-67.921
X101.921Y-76.521
X102.521Y-62.121
X103.321Y-58.721
X103.521Y-125.321
X104.521Y-87.121
X104.521Y-92.121
X105.121Y-51.121
X105.921Y-53.321
X105.921Y-76.521
X106.321Y-114.521
X109.521Y-87.121
X109.521Y-92.121
X110.321Y-109.921
X110.721Y-53.321
X110.721Y-64.321
X111.521Y-51.121
X111.721Y-114.521
X112.621Y-63.221
X113.521Y-51.101
X113.921Y-63.546
X114.121Y-53.101
X114.521Y-92.121
X114.921Y-66.221
X115.121Y-105.721
X115.121Y-111.321
X117.121Y-76.721
X117.321Y-107.721
X117.921Y-65.521
X118.121Y-112.321
X118.321Y-113.321
X118.702Y-114.871
X119.121Y-114.121
X119.321Y-53.101
X119.321Y-63.521
X119.521Y-92.121
X119.921Y-51.101
X120.921Y-119.721
X121.121Y-76.721
X121.721Y-53.921
X122.521Y-65.971
X124.321Y-119.121
X124.471Y-103.121
X124.521Y-122.521
X125.121Y-64.721
X126.521Y-115.321
X126.871Y-104.921
X127.321Y-122.321
X127.921Y-77.121
X128.721Y-64.921
X128.871Y-106.521
X129.721Y-128.861
X130.121Y-107.921
X130.121Y-132.921
X130.521Y-110.521
X130.721Y-114.521
X130.721Y-117.321
X131.721Y-117.321
X131.721Y-127.921
X131.722Y-118.569
X131.921Y-115.921
X132.521Y-83.121
X133.121Y-77.121
X133.721Y-114.721
X133.721Y-117.121
X133.74Y-73.102
X134.521Y-87.121
X134.721Y-66.121
X134.721Y-71.502
X134.721Y-78.121
X135.721Y-64.921
X135.721Y-68.921
X135.721Y-113.321
X137.146Y-76.521
X137.146Y-77.321
X137.146Y-78.121
X137.321Y-112.321
X137.321Y-113.995
X137.321Y-115.322
X137.521Y-130.521
X137.921Y-111.122
X138.121Y-109.321
X138.721Y-82.921
X138.921Y-79.721
X139.521Y-131.521
X140.221Y-53.621
X140.296Y-126.121
X140.321Y-50.421
X140.921Y-108.921
X141.521Y-58.121
X141.521Y-90.921
X141.721Y-132.721
X141.909Y-75.509
X141.921Y-140.721
X142.921Y-129.921
X143.121Y-92.921
X143.121Y-94.521
X143.121Y-142.121
X143.121Y-143.521
X143.121Y-144.321
X143.22Y-79.146
X143.921Y-142.121
X144.121Y-105.321
X144.121Y-108.121
X144.221Y-79.321
X144.321Y-124.721
X144.521Y-87.121
X144.521Y-89.621
X145.121Y-120.521
X145.321Y-79.321
X145.721Y-74.321
X145.721Y-129.521
X146.521Y-80.321
X147.321Y-53.921
X147.321Y-92.121
X147.521Y-141.521
X147.721Y-120.521
X149.521Y-80.121
X149.921Y-131.921
X150.321Y-120.521
X151.921Y-131.121
X153.521Y-58.021
X154.521Y-87.121
X155.721Y-56.821
X155.921Y-119.921
X158.571Y-64.471
X158.721Y-72.521
X158.921Y-49.521
X158.965Y-60.564
X160.321Y-64.321
X160.721Y-59.521
X160.921Y-72.521
X162.521Y-59.721
X162.521Y-61.121
X162.521Y-118.321
X166.121Y-53.121
X166.521Y-119.921
X166.921Y-63.921
X166.921Y-91.521
X166.971Y-62.021
X167.521Y-143.121
X167.521Y-144.121
X169.521Y-89.621
X171.421Y-66.621
X172.021Y-92.121
X172.021Y-94.621
X172.096Y-140.121
X172.321Y-139.521
X172.721Y-120.921
X173.721Y-132.321
X175.321Y-118.321
X176.859Y-67.584
X178.521Y-62.846
X179.521Y-87.121
X179.521Y-89.621
X180.521Y-78.521
X180.521Y-129.321
X180.521Y-132.321
X180.721Y-71.321
X180.921Y-60.521
X181.521Y-53.921
X181.521Y-55.321
X181.521Y-56.521
X181.521Y-66.521
X181.521Y-67.521
X181.821Y-88.521
X181.821Y-91.321
X181.821Y-94.121
X181.921Y-135.121
X182.721Y-88.521
X182.721Y-91.321
X182.721Y-94.121
X183.121Y-136.521
X183.721Y-132.371
X184.521Y-87.121
X188.721Y-131.921
X192.021Y-84.621
X192.021Y-87.121
X192.121Y-64.121
T2
X154.121Y-101.321
X154.121Y-111.521
X154.371Y-121.921
X156.321Y-124.921
X157.521Y-124.921
X158.721Y-127.121
X158.921Y-124.921
X162.421Y-126.621
X162.921Y-125.521
X169.521Y-127.121
X176.521Y-53.521
X176.521Y-64.521
X179.796Y-70.646
X179.896Y-59.946
X182.921Y-85.521
X185.721Y-114.121
X185.721Y-120.021
X189.321Y-81.921
X189.321Y-82.721
X190.706Y-126.321
X190.706Y-128.121
X192.321Y-111.521
X192.321Y-114.921
T4
X98.921Y-77.521
X99.721Y-60.121
X99.721Y-62.121
X99.721Y-64.121
X99.721Y-66.121
X99.721Y-68.121
X99.721Y-70.121
X100.921Y-77.521
X102.921Y-77.521
X104.921Y-77.521
X106.921Y-77.521
X106.921Y-122.521
X107.121Y-99.321
X107.321Y-52.721
X108.921Y-77.521
X108.921Y-122.521
X109.121Y-99.321
X109.321Y-52.721
X110.921Y-122.521
X111.121Y-99.321
X112.921Y-122.521
X113.121Y-99.321
X114.121Y-77.571
X115.121Y-99.321
X115.721Y-52.651
X116.121Y-77.571
X117.121Y-99.321
X117.721Y-52.651
X118.121Y-77.571
X119.121Y-99.321
X119.921Y-127.321
X120.121Y-77.571
X121.921Y-127.321
X122.121Y-77.571
X123.921Y-127.321
X124.121Y-77.571
X124.671Y-51.121
X124.671Y-53.121
X129.521Y-77.521
X131.521Y-77.521
X131.921Y-50.871
X131.921Y-56.671
X131.921Y-62.471
X133.921Y-50.871
X133.921Y-56.671
X133.921Y-62.471
X135.121Y-99.371
X135.921Y-50.871
X135.921Y-56.671
X135.921Y-62.471
X137.121Y-99.371
X139.121Y-99.371
X141.121Y-99.371
X143.121Y-99.371
X145.121Y-99.371
X148.321Y-51.321
X150.321Y-51.321
X152.321Y-51.321
X154.321Y-51.321
X156.321Y-51.321
X158.921Y-80.521
X160.921Y-80.521
X161.521Y-51.321
X162.921Y-80.521
X163.521Y-51.321
X164.921Y-80.521
X165.521Y-51.321
X167.521Y-51.321
X169.521Y-51.321
X170.571Y-68.321
X170.571Y-70.321
X170.571Y-72.321
X170.571Y-74.321
X170.571Y-76.321
X170.571Y-78.321
X170.571Y-80.321
X171.671Y-59.321
X171.671Y-61.321
X171.671Y-63.321
X190.171Y-65.321
X190.171Y-67.321
X190.171Y-69.321
X190.171Y-71.321
X190.171Y-73.321
T5
X120.721Y-82.521
X120.981Y-86.781
X122.321Y-132.321
X122.366Y-89.621
X123.261Y-82.521
X123.751Y-86.781
X124.861Y-132.321
X125.136Y-89.621
X126.521Y-86.781
X127.256Y-82.521
X127.906Y-89.621
X129.291Y-86.781
X129.796Y-82.521
X130.676Y-89.621
X132.061Y-86.781
X156.981Y-86.781
X158.366Y-89.621
X159.751Y-86.781
X161.136Y-89.621
X162.521Y-86.781
X163.906Y-89.621
X164.056Y-132.321
X165.291Y-86.781
X166.596Y-132.321
X166.676Y-89.621
X168.061Y-86.781
T6
X175.521Y-74.521
X175.521Y-77.521
X175.521Y-80.521
T7
X98.351Y-84.421
X100.891Y-84.421
X104.651Y-138.121
X107.191Y-138.121
X149.521Y-103.121
X152.061Y-103.121
X190.721Y-57.721
X190.721Y-60.261
T8
X99.521Y-52.121
X99.521Y-92.121
X99.521Y-102.121
X99.521Y-142.121
X114.021Y-88.201
X139.021Y-88.201
X150.021Y-88.201
X175.021Y-88.201
X189.521Y-52.121
X189.521Y-92.121
X189.521Y-102.121
X189.521Y-142.121
T3
G00X95.696Y-114.021
M15
G01X96.396Y-114.021
M16
G05
G00X95.696Y-120.621
M15
G01X96.396Y-120.621
M16
G05
G00X161.721Y-95.871
M15
G01X161.721Y-95.171
M16
G05
G00X168.321Y-95.871
M15
G01X168.321Y-95.171
M16
G05
M30
