%TF.GenerationSoftware,KiCad,Pcbnew,9.0.0*%
%TF.CreationDate,2025-07-15T20:23:25+12:00*%
%TF.ProjectId,ADC_Board,4144435f-426f-4617-9264-2e6b69636164,B*%
%TF.SameCoordinates,Original*%
%TF.FileFunction,Copper,L4,Bot*%
%TF.FilePolarity,Positive*%
%FSLAX46Y46*%
G04 Gerber Fmt 4.6, Leading zero omitted, Abs format (unit mm)*
G04 Created by KiCad (PCBNEW 9.0.0) date 2025-07-15 20:23:25*
%MOMM*%
%LPD*%
G01*
G04 APERTURE LIST*
G04 Aperture macros list*
%AMRoundRect*
0 Rectangle with rounded corners*
0 $1 Rounding radius*
0 $2 $3 $4 $5 $6 $7 $8 $9 X,Y pos of 4 corners*
0 Add a 4 corners polygon primitive as box body*
4,1,4,$2,$3,$4,$5,$6,$7,$8,$9,$2,$3,0*
0 Add four circle primitives for the rounded corners*
1,1,$1+$1,$2,$3*
1,1,$1+$1,$4,$5*
1,1,$1+$1,$6,$7*
1,1,$1+$1,$8,$9*
0 Add four rect primitives between the rounded corners*
20,1,$1+$1,$2,$3,$4,$5,0*
20,1,$1+$1,$4,$5,$6,$7,0*
20,1,$1+$1,$6,$7,$8,$9,0*
20,1,$1+$1,$8,$9,$2,$3,0*%
G04 Aperture macros list end*
%TA.AperFunction,ComponentPad*%
%ADD10RoundRect,0.250000X-0.625000X0.350000X-0.625000X-0.350000X0.625000X-0.350000X0.625000X0.350000X0*%
%TD*%
%TA.AperFunction,ComponentPad*%
%ADD11O,1.750000X1.200000*%
%TD*%
%TA.AperFunction,ComponentPad*%
%ADD12C,3.600000*%
%TD*%
%TA.AperFunction,ComponentPad*%
%ADD13R,1.700000X1.700000*%
%TD*%
%TA.AperFunction,ComponentPad*%
%ADD14O,1.700000X1.700000*%
%TD*%
%TA.AperFunction,ComponentPad*%
%ADD15C,2.600000*%
%TD*%
%TA.AperFunction,ComponentPad*%
%ADD16RoundRect,0.250000X0.625000X-0.350000X0.625000X0.350000X-0.625000X0.350000X-0.625000X-0.350000X0*%
%TD*%
%TA.AperFunction,ComponentPad*%
%ADD17RoundRect,0.250000X0.350000X0.625000X-0.350000X0.625000X-0.350000X-0.625000X0.350000X-0.625000X0*%
%TD*%
%TA.AperFunction,ComponentPad*%
%ADD18O,1.200000X1.750000*%
%TD*%
%TA.AperFunction,HeatsinkPad*%
%ADD19O,0.900000X1.600000*%
%TD*%
%TA.AperFunction,ComponentPad*%
%ADD20RoundRect,0.250000X-0.350000X-0.625000X0.350000X-0.625000X0.350000X0.625000X-0.350000X0.625000X0*%
%TD*%
%TA.AperFunction,ComponentPad*%
%ADD21RoundRect,0.250001X0.759999X-0.499999X0.759999X0.499999X-0.759999X0.499999X-0.759999X-0.499999X0*%
%TD*%
%TA.AperFunction,ComponentPad*%
%ADD22O,2.020000X1.500000*%
%TD*%
%TA.AperFunction,SMDPad,CuDef*%
%ADD23RoundRect,0.095000X-0.155000X-0.095000X0.155000X-0.095000X0.155000X0.095000X-0.155000X0.095000X0*%
%TD*%
%TA.AperFunction,SMDPad,CuDef*%
%ADD24RoundRect,0.075000X-0.250000X-0.075000X0.250000X-0.075000X0.250000X0.075000X-0.250000X0.075000X0*%
%TD*%
%TA.AperFunction,ComponentPad*%
%ADD25C,4.000000*%
%TD*%
%TA.AperFunction,ComponentPad*%
%ADD26R,1.600000X1.600000*%
%TD*%
%TA.AperFunction,ComponentPad*%
%ADD27C,1.600000*%
%TD*%
%TA.AperFunction,SMDPad,CuDef*%
%ADD28RoundRect,0.250000X-0.375000X-0.625000X0.375000X-0.625000X0.375000X0.625000X-0.375000X0.625000X0*%
%TD*%
%TA.AperFunction,ViaPad*%
%ADD29C,0.600000*%
%TD*%
%TA.AperFunction,ViaPad*%
%ADD30C,0.450000*%
%TD*%
%TA.AperFunction,ViaPad*%
%ADD31C,1.000000*%
%TD*%
%TA.AperFunction,Conductor*%
%ADD32C,0.100000*%
%TD*%
%TA.AperFunction,Conductor*%
%ADD33C,0.200000*%
%TD*%
%TA.AperFunction,Conductor*%
%ADD34C,2.000000*%
%TD*%
%TA.AperFunction,Conductor*%
%ADD35C,0.300000*%
%TD*%
G04 APERTURE END LIST*
D10*
%TO.P,J2,1,Pin_1*%
%TO.N,/UART2_RX*%
X167150000Y-82200000D03*
D11*
%TO.P,J2,2,Pin_2*%
%TO.N,GND*%
X167150000Y-84200000D03*
%TO.P,J2,3,Pin_3*%
%TO.N,/UART2_TX*%
X167150000Y-86200000D03*
%TD*%
D12*
%TO.P,H4,1,1*%
%TO.N,GND*%
X185000000Y-115000000D03*
%TD*%
D13*
%TO.P,J8,1,Pin_1*%
%TO.N,/CANH1*%
X125275000Y-105400000D03*
D14*
%TO.P,J8,2,Pin_2*%
%TO.N,Net-(J8-Pin_2)*%
X122735000Y-105400000D03*
%TD*%
D15*
%TO.P,TP19,1,1*%
%TO.N,GND*%
X93830000Y-107300000D03*
X96370000Y-107300000D03*
%TD*%
D13*
%TO.P,J9,1,Pin_1*%
%TO.N,/CANL2*%
X116200000Y-105400000D03*
D14*
%TO.P,J9,2,Pin_2*%
%TO.N,Net-(J9-Pin_2)*%
X118740000Y-105400000D03*
%TD*%
D15*
%TO.P,TP20,1,1*%
%TO.N,GND*%
X186200000Y-83140000D03*
X186200000Y-80600000D03*
%TD*%
D16*
%TO.P,J3,1,Pin_1*%
%TO.N,GND*%
X166050000Y-103200000D03*
D11*
%TO.P,J3,2,Pin_2*%
%TO.N,/E1*%
X166050000Y-101200000D03*
%TO.P,J3,3,Pin_3*%
%TO.N,/E2*%
X166050000Y-99200000D03*
%TO.P,J3,4,Pin_4*%
%TO.N,+3V3*%
X166050000Y-97200000D03*
%TO.P,J3,5,Pin_5*%
%TO.N,/E3*%
X166050000Y-95200000D03*
%TO.P,J3,6,Pin_6*%
%TO.N,/E4*%
X166050000Y-93200000D03*
%TO.P,J3,7,Pin_7*%
%TO.N,GND*%
X166050000Y-91200000D03*
%TD*%
D12*
%TO.P,H3,1,1*%
%TO.N,GND*%
X95000000Y-115000000D03*
%TD*%
D17*
%TO.P,J1,1,Pin_1*%
%TO.N,/SWCLK*%
X160400000Y-103400000D03*
D18*
%TO.P,J1,2,Pin_2*%
%TO.N,GND*%
X158400000Y-103400000D03*
%TO.P,J1,3,Pin_3*%
%TO.N,/SWDIO*%
X156400000Y-103400000D03*
%TO.P,J1,4,Pin_4*%
%TO.N,/NRST*%
X154400000Y-103400000D03*
%TD*%
D12*
%TO.P,H1,1,1*%
%TO.N,GND*%
X95000000Y-75000000D03*
%TD*%
%TO.P,H2,1,1*%
%TO.N,GND*%
X185000000Y-75000000D03*
%TD*%
D19*
%TO.P,J4,6,Shield*%
%TO.N,unconnected-(J4-Shield-Pad6)_4*%
X157200000Y-118400000D03*
%TO.N,unconnected-(J4-Shield-Pad6)*%
X163800000Y-118400000D03*
%TD*%
D20*
%TO.P,J15,1,Pin_1*%
%TO.N,GND*%
X127400000Y-73750000D03*
D18*
%TO.P,J15,2,Pin_2*%
%TO.N,Net-(J15-Pin_2)*%
X129400000Y-73750000D03*
%TO.P,J15,3,Pin_3*%
%TO.N,+5VA*%
X131400000Y-73750000D03*
%TD*%
D17*
%TO.P,J14,1,Pin_1*%
%TO.N,+5VA*%
X119600000Y-100450000D03*
D18*
%TO.P,J14,2,Pin_2*%
%TO.N,/Analog Domain/LC_B_SENSE+*%
X117600000Y-100450000D03*
%TO.P,J14,3,Pin_3*%
%TO.N,/Analog Domain/LC_B_SIG+*%
X115600000Y-100450000D03*
%TO.P,J14,4,Pin_4*%
%TO.N,/Analog Domain/LC_B_SIG-*%
X113600000Y-100450000D03*
%TO.P,J14,5,Pin_5*%
%TO.N,/Analog Domain/LC_B_SENSE-*%
X111600000Y-100450000D03*
%TO.P,J14,6,Pin_6*%
%TO.N,GND*%
X109600000Y-100450000D03*
%TD*%
D20*
%TO.P,J20,1,Pin_1*%
%TO.N,Net-(J20-Pin_1)*%
X102800000Y-75600000D03*
D18*
%TO.P,J20,2,Pin_2*%
%TO.N,Net-(J20-Pin_2)*%
X104800000Y-75600000D03*
%TD*%
D20*
%TO.P,J7,1,Pin_1*%
%TO.N,GND*%
X157000000Y-74200000D03*
D18*
%TO.P,J7,2,Pin_2*%
%TO.N,/I2C2_SDA*%
X159000000Y-74200000D03*
%TO.P,J7,3,Pin_3*%
%TO.N,+5V*%
X161000000Y-74200000D03*
%TO.P,J7,4,Pin_4*%
%TO.N,/I2C2_SCL*%
X163000000Y-74200000D03*
%TO.P,J7,5,Pin_5*%
%TO.N,+3V3*%
X165000000Y-74200000D03*
%TD*%
D21*
%TO.P,J12,1,Pin_1*%
%TO.N,Net-(J12-Pin_1)*%
X171000000Y-103400000D03*
D22*
%TO.P,J12,2,Pin_2*%
%TO.N,GND*%
X171000000Y-100400000D03*
%TO.P,J12,3,Pin_3*%
X171000000Y-97400000D03*
%TD*%
D23*
%TO.P,D1,1,K1*%
%TO.N,/I2C1_SDA*%
X163900000Y-84800000D03*
D24*
%TO.P,D1,2,A*%
%TO.N,GND*%
X163820000Y-84260000D03*
D23*
%TO.P,D1,3,K2*%
%TO.N,/I2C1_SCL*%
X163900000Y-83720000D03*
%TO.P,D1,4,K3*%
%TO.N,/UART2_RX*%
X165600000Y-83720000D03*
%TO.P,D1,5,K4*%
%TO.N,/UART2_TX*%
X165600000Y-84800000D03*
%TD*%
D25*
%TO.P,J11,0*%
%TO.N,N/C*%
X134500000Y-111080000D03*
X109500000Y-111080000D03*
D26*
%TO.P,J11,1,1*%
%TO.N,/+7V4_CAN*%
X127540000Y-109660000D03*
D27*
%TO.P,J11,2,2*%
%TO.N,GND*%
X124770000Y-109660000D03*
%TO.P,J11,3,3*%
%TO.N,unconnected-(J11-Pad3)*%
X122000000Y-109660000D03*
%TO.P,J11,4,4*%
%TO.N,GND*%
X119230000Y-109660000D03*
%TO.P,J11,5,5*%
%TO.N,/+7V4_CAN*%
X116460000Y-109660000D03*
%TO.P,J11,6,6*%
%TO.N,/CANH1*%
X126155000Y-112500000D03*
%TO.P,J11,7,7*%
%TO.N,/CANL1*%
X123385000Y-112500000D03*
%TO.P,J11,8,8*%
%TO.N,/CANH2*%
X120615000Y-112500000D03*
%TO.P,J11,9,9*%
%TO.N,/CANL2*%
X117845000Y-112500000D03*
%TD*%
D20*
%TO.P,J10,1,Pin_1*%
%TO.N,GND*%
X143800000Y-74200000D03*
D18*
%TO.P,J10,2,Pin_2*%
%TO.N,/I2C3_SDA*%
X145800000Y-74200000D03*
%TO.P,J10,3,Pin_3*%
%TO.N,+5V*%
X147800000Y-74200000D03*
%TO.P,J10,4,Pin_4*%
%TO.N,/I2C3_SCL*%
X149800000Y-74200000D03*
%TO.P,J10,5,Pin_5*%
%TO.N,+3V3*%
X151800000Y-74200000D03*
%TD*%
D20*
%TO.P,J17,1,Pin_1*%
%TO.N,GND*%
X127400000Y-79550000D03*
D18*
%TO.P,J17,2,Pin_2*%
%TO.N,Net-(J17-Pin_2)*%
X129400000Y-79550000D03*
%TO.P,J17,3,Pin_3*%
%TO.N,+5VA*%
X131400000Y-79550000D03*
%TD*%
D28*
%TO.P,D6,1,K*%
%TO.N,GND*%
X176400000Y-114200000D03*
%TO.P,D6,2,A*%
%TO.N,Net-(D6-A)*%
X179200000Y-114200000D03*
%TD*%
D16*
%TO.P,J13,1,Pin_1*%
%TO.N,+5VA*%
X95200000Y-93000000D03*
D11*
%TO.P,J13,2,Pin_2*%
%TO.N,/Analog Domain/LC_A_SENSE+*%
X95200000Y-91000000D03*
%TO.P,J13,3,Pin_3*%
%TO.N,/Analog Domain/LC_A_SIG+*%
X95200000Y-89000000D03*
%TO.P,J13,4,Pin_4*%
%TO.N,/Analog Domain/LC_A_SIG-*%
X95200000Y-87000000D03*
%TO.P,J13,5,Pin_5*%
%TO.N,/Analog Domain/LC_A_SENSE-*%
X95200000Y-85000000D03*
%TO.P,J13,6,Pin_6*%
%TO.N,GND*%
X95200000Y-83000000D03*
%TD*%
D28*
%TO.P,D7,1,K*%
%TO.N,GND*%
X176400000Y-117000000D03*
%TO.P,D7,2,A*%
%TO.N,Net-(D7-A)*%
X179200000Y-117000000D03*
%TD*%
D10*
%TO.P,J5,1,Pin_1*%
%TO.N,GND*%
X185650000Y-88200000D03*
D11*
%TO.P,J5,2,Pin_2*%
%TO.N,/I2C1_SDA*%
X185650000Y-90200000D03*
%TO.P,J5,3,Pin_3*%
%TO.N,+5V*%
X185650000Y-92200000D03*
%TO.P,J5,4,Pin_4*%
%TO.N,/I2C1_SCL*%
X185650000Y-94200000D03*
%TO.P,J5,5,Pin_5*%
%TO.N,+3V3*%
X185650000Y-96200000D03*
%TD*%
D17*
%TO.P,J18,1,Pin_1*%
%TO.N,Net-(J18-Pin_1)*%
X127000000Y-100400000D03*
D18*
%TO.P,J18,2,Pin_2*%
%TO.N,Net-(J18-Pin_2)*%
X125000000Y-100400000D03*
%TD*%
D16*
%TO.P,J22,1,Pin_1*%
%TO.N,Net-(J22-Pin_1)*%
X120150000Y-76000000D03*
D11*
%TO.P,J22,2,Pin_2*%
%TO.N,GND*%
X120150000Y-74000000D03*
%TD*%
D25*
%TO.P,J6,0*%
%TO.N,N/C*%
X170500000Y-111080000D03*
X145500000Y-111080000D03*
D26*
%TO.P,J6,1,1*%
%TO.N,/+7V4_CAN*%
X163540000Y-109660000D03*
D27*
%TO.P,J6,2,2*%
%TO.N,GND*%
X160770000Y-109660000D03*
%TO.P,J6,3,3*%
%TO.N,unconnected-(J6-Pad3)*%
X158000000Y-109660000D03*
%TO.P,J6,4,4*%
%TO.N,GND*%
X155230000Y-109660000D03*
%TO.P,J6,5,5*%
%TO.N,/+7V4_CAN*%
X152460000Y-109660000D03*
%TO.P,J6,6,6*%
%TO.N,/CANH1*%
X162155000Y-112500000D03*
%TO.P,J6,7,7*%
%TO.N,/CANL1*%
X159385000Y-112500000D03*
%TO.P,J6,8,8*%
%TO.N,/CANH2*%
X156615000Y-112500000D03*
%TO.P,J6,9,9*%
%TO.N,/CANL2*%
X153845000Y-112500000D03*
%TD*%
D20*
%TO.P,J19,1,Pin_1*%
%TO.N,GND*%
X127400000Y-85350000D03*
D18*
%TO.P,J19,2,Pin_2*%
%TO.N,Net-(J19-Pin_2)*%
X129400000Y-85350000D03*
%TO.P,J19,3,Pin_3*%
%TO.N,+5VA*%
X131400000Y-85350000D03*
%TD*%
D20*
%TO.P,J21,1,Pin_1*%
%TO.N,Net-(J21-Pin_1)*%
X111200000Y-75530000D03*
D18*
%TO.P,J21,2,Pin_2*%
%TO.N,Net-(J21-Pin_2)*%
X113200000Y-75530000D03*
%TD*%
D17*
%TO.P,J16,1,Pin_1*%
%TO.N,+5VA*%
X104400000Y-100400000D03*
D18*
%TO.P,J16,2,Pin_2*%
%TO.N,/Analog Domain/LC_C_SENSE+*%
X102400000Y-100400000D03*
%TO.P,J16,3,Pin_3*%
%TO.N,/Analog Domain/LC_C_SIG+*%
X100400000Y-100400000D03*
%TO.P,J16,4,Pin_4*%
%TO.N,/Analog Domain/LC_C_SIG-*%
X98400000Y-100400000D03*
%TO.P,J16,5,Pin_5*%
%TO.N,/Analog Domain/LC_C_SENSE-*%
X96400000Y-100400000D03*
%TO.P,J16,6,Pin_6*%
%TO.N,GND*%
X94400000Y-100400000D03*
%TD*%
D28*
%TO.P,D5,1,K*%
%TO.N,GND*%
X176400000Y-111400000D03*
%TO.P,D5,2,A*%
%TO.N,Net-(D5-A)*%
X179200000Y-111400000D03*
%TD*%
D29*
%TO.N,GND*%
X113200000Y-88400000D03*
X113200000Y-90800000D03*
X110750000Y-89350000D03*
D30*
%TO.N,+3V3*%
X115600000Y-88300000D03*
X116100000Y-87850000D03*
%TO.N,GND*%
X133700000Y-99800000D03*
D29*
X145600000Y-97700000D03*
X134600000Y-75800000D03*
X134600000Y-74300000D03*
X133775000Y-80925000D03*
%TO.N,+3V3*%
X158000000Y-84000000D03*
X142800000Y-76800000D03*
X187600000Y-87000000D03*
X177000000Y-79400000D03*
X145000000Y-103000000D03*
X137387500Y-98387500D03*
X154443360Y-83442449D03*
X142000000Y-103200000D03*
X177000000Y-76800000D03*
X177000000Y-78200000D03*
X161600000Y-76000000D03*
%TO.N,GND*%
X101400000Y-76200000D03*
X115000000Y-115000000D03*
X105000000Y-115000000D03*
D30*
X97000000Y-90800000D03*
D29*
X107000000Y-74000000D03*
D31*
X184800000Y-104800000D03*
D29*
X162400000Y-114400000D03*
X109400000Y-86425000D03*
X162450000Y-84900000D03*
X106200000Y-76200000D03*
X141200000Y-97200000D03*
X114800000Y-75980000D03*
X130000000Y-110000000D03*
X140000000Y-112500000D03*
X123400000Y-100000000D03*
X176000000Y-101400000D03*
X187500000Y-107500000D03*
X158000000Y-82600000D03*
X140800000Y-102200000D03*
X128000000Y-106000000D03*
X128600000Y-100000000D03*
X165000000Y-112500000D03*
X110000000Y-115000000D03*
X155800000Y-87200000D03*
D31*
X172000000Y-87400000D03*
D29*
X180000000Y-110000000D03*
X116600000Y-99600000D03*
X105000000Y-110000000D03*
D30*
X138698828Y-102025000D03*
D29*
X112600000Y-99600000D03*
X167500000Y-115000000D03*
X176200000Y-94200000D03*
X114800000Y-86400000D03*
X138300000Y-74200000D03*
D30*
X177300000Y-114200000D03*
D29*
X138200000Y-77300000D03*
X137000000Y-81000000D03*
D31*
X178400000Y-108400000D03*
D29*
X151200000Y-79700000D03*
X187500000Y-110000000D03*
X98000000Y-85000000D03*
X100000000Y-115000000D03*
X140000000Y-110000000D03*
X115400000Y-73980000D03*
X108100000Y-86100000D03*
X154400000Y-72400000D03*
X134200000Y-105800000D03*
X97400000Y-99400000D03*
X175000000Y-110000000D03*
X109600000Y-75980000D03*
X149000000Y-80900000D03*
X150000000Y-110000000D03*
D31*
X184800000Y-105600000D03*
D29*
X176400000Y-83400000D03*
X167500000Y-117500000D03*
D31*
X175375000Y-82825000D03*
D29*
X101400000Y-99400000D03*
X156200000Y-82400000D03*
D30*
X177300000Y-111400000D03*
D29*
X118000000Y-88850000D03*
D31*
X172000000Y-76400000D03*
D29*
X172337500Y-90462500D03*
X100000000Y-110000000D03*
D30*
X177300000Y-117000000D03*
D29*
X98800000Y-81600000D03*
D31*
X175275000Y-93525000D03*
D29*
X175000000Y-112500000D03*
D30*
X96503498Y-86882745D03*
D29*
%TO.N,/CANL1*%
X137000000Y-113800000D03*
%TO.N,/CANH1*%
X142800000Y-115000000D03*
%TO.N,/CANL2*%
X138600000Y-117400000D03*
X138600000Y-115800000D03*
D30*
%TO.N,Net-(D6-A)*%
X178200000Y-114200000D03*
D29*
%TO.N,/NRST*%
X154050000Y-87350000D03*
%TO.N,/I2C1_SCL*%
X154200000Y-95400000D03*
%TO.N,/I2C1_SDA*%
X156400000Y-95400000D03*
%TO.N,/2S+ A10*%
X166900000Y-89500000D03*
X162400000Y-86800000D03*
%TO.N,+5V*%
X134400000Y-102600000D03*
X177000000Y-89400000D03*
X177000000Y-90400000D03*
X139700126Y-102200000D03*
X174000000Y-85725000D03*
%TO.N,+5VA*%
X109000000Y-73980000D03*
X117200000Y-76800000D03*
X132625000Y-101000000D03*
X130200000Y-101000000D03*
X132625000Y-99400000D03*
X132625000Y-100200000D03*
D30*
X106200000Y-87200000D03*
D29*
X100600000Y-74000000D03*
D30*
%TO.N,Net-(D5-A)*%
X178200000Y-111400000D03*
%TO.N,Net-(D7-A)*%
X178200000Y-117000000D03*
D29*
%TO.N,Net-(U5-RESET_N)*%
X124200000Y-87800000D03*
X129218896Y-95981104D03*
%TO.N,Net-(U5-DRDY_N)*%
X130200000Y-94380518D03*
X130200000Y-89000000D03*
%TO.N,Net-(U5-CS_N)*%
X131200000Y-91800000D03*
X131200000Y-87800000D03*
%TD*%
D32*
%TO.N,GND*%
X162500000Y-84900000D02*
X163140000Y-84260000D01*
X163140000Y-84260000D02*
X163820000Y-84260000D01*
D33*
X176400000Y-111400000D02*
X177300000Y-111400000D01*
X176400000Y-114200000D02*
X177300000Y-114200000D01*
D32*
X162450000Y-84900000D02*
X162500000Y-84900000D01*
D33*
X176400000Y-117000000D02*
X177300000Y-117000000D01*
%TO.N,/CANL1*%
X128000000Y-111200000D02*
X130600000Y-113800000D01*
X130600000Y-113800000D02*
X137000000Y-113800000D01*
X137000000Y-113800000D02*
X158085000Y-113800000D01*
X124685000Y-111200000D02*
X128000000Y-111200000D01*
X123385000Y-112500000D02*
X124685000Y-111200000D01*
X158085000Y-113800000D02*
X159385000Y-112500000D01*
%TO.N,/CANH1*%
X142800000Y-115000000D02*
X128655000Y-115000000D01*
X142800000Y-115000000D02*
X159655000Y-115000000D01*
X159655000Y-115000000D02*
X162155000Y-112500000D01*
X128655000Y-115000000D02*
X126155000Y-112500000D01*
%TO.N,/CANL2*%
X138600000Y-117400000D02*
X138600000Y-115800000D01*
%TO.N,Net-(D6-A)*%
X179200000Y-114200000D02*
X178200000Y-114200000D01*
D34*
%TO.N,/+7V4_CAN*%
X117388630Y-107600000D02*
X126600000Y-107600000D01*
X116460000Y-108528630D02*
X117388630Y-107600000D01*
X116460000Y-109660000D02*
X116460000Y-108528630D01*
X153388630Y-107600000D02*
X162600000Y-107600000D01*
X152460000Y-108528630D02*
X151531370Y-107600000D01*
X128600000Y-107600000D02*
X127600000Y-108600000D01*
X127540000Y-109660000D02*
X127540000Y-108660000D01*
X163540000Y-108540000D02*
X163540000Y-109660000D01*
X151531370Y-107600000D02*
X128600000Y-107600000D01*
X152460000Y-109660000D02*
X152460000Y-108528630D01*
X152460000Y-108528630D02*
X153388630Y-107600000D01*
X126600000Y-107600000D02*
X127600000Y-108600000D01*
X127540000Y-108660000D02*
X127600000Y-108600000D01*
X162600000Y-107600000D02*
X163540000Y-108540000D01*
D32*
%TO.N,/NRST*%
X154050000Y-87350000D02*
X153400000Y-88000000D01*
X154400000Y-100400000D02*
X154400000Y-103400000D01*
X153400000Y-99400000D02*
X154400000Y-100400000D01*
X153400000Y-88000000D02*
X153400000Y-99400000D01*
%TO.N,/UART2_RX*%
X165600000Y-83720000D02*
X165630000Y-83720000D01*
X165630000Y-83720000D02*
X167150000Y-82200000D01*
%TO.N,/UART2_TX*%
X165750000Y-84800000D02*
X167150000Y-86200000D01*
X165600000Y-84800000D02*
X165750000Y-84800000D01*
%TO.N,/I2C1_SCL*%
X186800000Y-89200000D02*
X187200000Y-89600000D01*
X186683912Y-94200000D02*
X185650000Y-94200000D01*
X154200000Y-95400000D02*
X154200000Y-92200000D01*
X183800000Y-89200000D02*
X186800000Y-89200000D01*
X182800000Y-88200000D02*
X183800000Y-89200000D01*
X187200000Y-89600000D02*
X187200000Y-93683912D01*
X164800000Y-84200000D02*
X164800000Y-86200000D01*
X162680000Y-83720000D02*
X163900000Y-83720000D01*
X164800000Y-86200000D02*
X166800000Y-88200000D01*
X166800000Y-88200000D02*
X182800000Y-88200000D01*
X164320000Y-83720000D02*
X164800000Y-84200000D01*
X163900000Y-83720000D02*
X164320000Y-83720000D01*
X154200000Y-92200000D02*
X162680000Y-83720000D01*
X187200000Y-93683912D02*
X186683912Y-94200000D01*
%TO.N,/I2C1_SDA*%
X166400000Y-88800000D02*
X182200000Y-88800000D01*
X163900000Y-86300000D02*
X166400000Y-88800000D01*
X183600000Y-90200000D02*
X185650000Y-90200000D01*
X163400000Y-84800000D02*
X163900000Y-84800000D01*
X163900000Y-84800000D02*
X163900000Y-86300000D01*
X156400000Y-91800000D02*
X163400000Y-84800000D01*
X156400000Y-95400000D02*
X156400000Y-91800000D01*
X182200000Y-88800000D02*
X183600000Y-90200000D01*
%TO.N,/2S+ A10*%
X166900000Y-89500000D02*
X165100000Y-89500000D01*
X165100000Y-89500000D02*
X162400000Y-86800000D01*
D35*
%TO.N,+5V*%
X177000000Y-89400000D02*
X180400000Y-89400000D01*
X134400000Y-102600000D02*
X137164000Y-105364000D01*
X177000000Y-90400000D02*
X177000000Y-103600000D01*
X161000000Y-74200000D02*
X158549000Y-71749000D01*
X177000000Y-103600000D02*
X175800000Y-104800000D01*
X137164000Y-105364000D02*
X176036000Y-105364000D01*
X150251000Y-71749000D02*
X147800000Y-74200000D01*
X175800000Y-104800000D02*
X142300126Y-104800000D01*
X177600000Y-103800000D02*
X177600000Y-90000000D01*
X177000000Y-90400000D02*
X177000000Y-89400000D01*
X174000000Y-85725000D02*
X172525000Y-85725000D01*
X180400000Y-89400000D02*
X183200000Y-92200000D01*
X158549000Y-71749000D02*
X150251000Y-71749000D01*
X172525000Y-85725000D02*
X161000000Y-74200000D01*
X177600000Y-90000000D02*
X177000000Y-89400000D01*
X142300126Y-104800000D02*
X139700126Y-102200000D01*
X183200000Y-92200000D02*
X185650000Y-92200000D01*
X176036000Y-105364000D02*
X177600000Y-103800000D01*
D33*
%TO.N,Net-(D5-A)*%
X178200000Y-111400000D02*
X179200000Y-111400000D01*
%TO.N,Net-(D7-A)*%
X179200000Y-117000000D02*
X178200000Y-117000000D01*
D32*
%TO.N,Net-(U5-RESET_N)*%
X129218896Y-92818896D02*
X129218896Y-95981104D01*
X124200000Y-87800000D02*
X129218896Y-92818896D01*
%TO.N,Net-(U5-DRDY_N)*%
X130200000Y-89000000D02*
X130200000Y-94380518D01*
%TO.N,Net-(U5-CS_N)*%
X131200000Y-87800000D02*
X131200000Y-91800000D01*
%TD*%
M02*
