%TF.GenerationSoftware,KiCad,Pcbnew,9.0.0*%
%TF.CreationDate,2025-05-15T12:14:54+12:00*%
%TF.ProjectId,ADC_Board,4144435f-426f-4617-9264-2e6b69636164,A*%
%TF.SameCoordinates,Original*%
%TF.FileFunction,Soldermask,Bot*%
%TF.FilePolarity,Negative*%
%FSLAX46Y46*%
G04 Gerber Fmt 4.6, Leading zero omitted, Abs format (unit mm)*
G04 Created by KiCad (PCBNEW 9.0.0) date 2025-05-15 12:14:54*
%MOMM*%
%LPD*%
G01*
G04 APERTURE LIST*
G04 Aperture macros list*
%AMRoundRect*
0 Rectangle with rounded corners*
0 $1 Rounding radius*
0 $2 $3 $4 $5 $6 $7 $8 $9 X,Y pos of 4 corners*
0 Add a 4 corners polygon primitive as box body*
4,1,4,$2,$3,$4,$5,$6,$7,$8,$9,$2,$3,0*
0 Add four circle primitives for the rounded corners*
1,1,$1+$1,$2,$3*
1,1,$1+$1,$4,$5*
1,1,$1+$1,$6,$7*
1,1,$1+$1,$8,$9*
0 Add four rect primitives between the rounded corners*
20,1,$1+$1,$2,$3,$4,$5,0*
20,1,$1+$1,$4,$5,$6,$7,0*
20,1,$1+$1,$6,$7,$8,$9,0*
20,1,$1+$1,$8,$9,$2,$3,0*%
G04 Aperture macros list end*
%ADD10RoundRect,0.250000X-0.625000X0.350000X-0.625000X-0.350000X0.625000X-0.350000X0.625000X0.350000X0*%
%ADD11O,1.750000X1.200000*%
%ADD12C,3.600000*%
%ADD13R,1.700000X1.700000*%
%ADD14O,1.700000X1.700000*%
%ADD15C,2.600000*%
%ADD16RoundRect,0.250000X0.625000X-0.350000X0.625000X0.350000X-0.625000X0.350000X-0.625000X-0.350000X0*%
%ADD17RoundRect,0.250000X0.350000X0.625000X-0.350000X0.625000X-0.350000X-0.625000X0.350000X-0.625000X0*%
%ADD18O,1.200000X1.750000*%
%ADD19O,0.900000X1.600000*%
%ADD20RoundRect,0.250000X-0.350000X-0.625000X0.350000X-0.625000X0.350000X0.625000X-0.350000X0.625000X0*%
%ADD21C,1.270000*%
%ADD22RoundRect,0.250001X0.759999X-0.499999X0.759999X0.499999X-0.759999X0.499999X-0.759999X-0.499999X0*%
%ADD23O,2.020000X1.500000*%
%ADD24RoundRect,0.095000X-0.155000X-0.095000X0.155000X-0.095000X0.155000X0.095000X-0.155000X0.095000X0*%
%ADD25RoundRect,0.075000X-0.250000X-0.075000X0.250000X-0.075000X0.250000X0.075000X-0.250000X0.075000X0*%
%ADD26C,4.000000*%
%ADD27R,1.600000X1.600000*%
%ADD28C,1.600000*%
%ADD29RoundRect,0.250000X-0.375000X-0.625000X0.375000X-0.625000X0.375000X0.625000X-0.375000X0.625000X0*%
G04 APERTURE END LIST*
D10*
%TO.C,J2*%
X167150000Y-82200000D03*
D11*
X167150000Y-84200000D03*
X167150000Y-86200000D03*
%TD*%
D12*
%TO.C,H4*%
X185000000Y-115000000D03*
%TD*%
D13*
%TO.C,J8*%
X125275000Y-105400000D03*
D14*
X122735000Y-105400000D03*
%TD*%
D15*
%TO.C,TP19*%
X93830000Y-107300000D03*
X96370000Y-107300000D03*
%TD*%
D13*
%TO.C,J9*%
X116200000Y-105400000D03*
D14*
X118740000Y-105400000D03*
%TD*%
D15*
%TO.C,TP20*%
X186200000Y-83140000D03*
X186200000Y-80600000D03*
%TD*%
D16*
%TO.C,J3*%
X166050000Y-103200000D03*
D11*
X166050000Y-101200000D03*
X166050000Y-99200000D03*
X166050000Y-97200000D03*
X166050000Y-95200000D03*
X166050000Y-93200000D03*
X166050000Y-91200000D03*
%TD*%
D12*
%TO.C,H3*%
X95000000Y-115000000D03*
%TD*%
D17*
%TO.C,J1*%
X160400000Y-103400000D03*
D18*
X158400000Y-103400000D03*
X156400000Y-103400000D03*
X154400000Y-103400000D03*
%TD*%
D12*
%TO.C,H1*%
X95000000Y-75000000D03*
%TD*%
%TO.C,H2*%
X185000000Y-75000000D03*
%TD*%
D19*
%TO.C,J4*%
X157200000Y-118400000D03*
X163800000Y-118400000D03*
%TD*%
D20*
%TO.C,J15*%
X127400000Y-73750000D03*
D18*
X129400000Y-73750000D03*
X131400000Y-73750000D03*
%TD*%
D17*
%TO.C,J14*%
X119600000Y-100450000D03*
D18*
X117600000Y-100450000D03*
X115600000Y-100450000D03*
X113600000Y-100450000D03*
X111600000Y-100450000D03*
X109600000Y-100450000D03*
%TD*%
D20*
%TO.C,J20*%
X102800000Y-75600000D03*
D18*
X104800000Y-75600000D03*
%TD*%
D20*
%TO.C,J7*%
X157000000Y-74200000D03*
D18*
X159000000Y-74200000D03*
X161000000Y-74200000D03*
X163000000Y-74200000D03*
X165000000Y-74200000D03*
%TD*%
D21*
%TO.C,J12*%
X172960000Y-106400000D03*
X172960000Y-94400000D03*
D22*
X171000000Y-103400000D03*
D23*
X171000000Y-100400000D03*
X171000000Y-97400000D03*
%TD*%
D24*
%TO.C,D1*%
X163900000Y-84800000D03*
D25*
X163820000Y-84260000D03*
D24*
X163900000Y-83720000D03*
X165600000Y-83720000D03*
X165600000Y-84800000D03*
%TD*%
D26*
%TO.C,J11*%
X134500000Y-111080000D03*
X109500000Y-111080000D03*
D27*
X127540000Y-109660000D03*
D28*
X124770000Y-109660000D03*
X122000000Y-109660000D03*
X119230000Y-109660000D03*
X116460000Y-109660000D03*
X126155000Y-112500000D03*
X123385000Y-112500000D03*
X120615000Y-112500000D03*
X117845000Y-112500000D03*
%TD*%
D20*
%TO.C,J10*%
X143800000Y-74200000D03*
D18*
X145800000Y-74200000D03*
X147800000Y-74200000D03*
X149800000Y-74200000D03*
X151800000Y-74200000D03*
%TD*%
D20*
%TO.C,J17*%
X127400000Y-79550000D03*
D18*
X129400000Y-79550000D03*
X131400000Y-79550000D03*
%TD*%
D29*
%TO.C,D6*%
X176400000Y-114200000D03*
X179200000Y-114200000D03*
%TD*%
D16*
%TO.C,J13*%
X95200000Y-93000000D03*
D11*
X95200000Y-91000000D03*
X95200000Y-89000000D03*
X95200000Y-87000000D03*
X95200000Y-85000000D03*
X95200000Y-83000000D03*
%TD*%
D29*
%TO.C,D7*%
X176400000Y-117000000D03*
X179200000Y-117000000D03*
%TD*%
D10*
%TO.C,J5*%
X185650000Y-88200000D03*
D11*
X185650000Y-90200000D03*
X185650000Y-92200000D03*
X185650000Y-94200000D03*
X185650000Y-96200000D03*
%TD*%
D17*
%TO.C,J18*%
X127000000Y-100400000D03*
D18*
X125000000Y-100400000D03*
%TD*%
D16*
%TO.C,J22*%
X120150000Y-76000000D03*
D11*
X120150000Y-74000000D03*
%TD*%
D26*
%TO.C,J6*%
X170500000Y-111080000D03*
X145500000Y-111080000D03*
D27*
X163540000Y-109660000D03*
D28*
X160770000Y-109660000D03*
X158000000Y-109660000D03*
X155230000Y-109660000D03*
X152460000Y-109660000D03*
X162155000Y-112500000D03*
X159385000Y-112500000D03*
X156615000Y-112500000D03*
X153845000Y-112500000D03*
%TD*%
D20*
%TO.C,J19*%
X127400000Y-85350000D03*
D18*
X129400000Y-85350000D03*
X131400000Y-85350000D03*
%TD*%
D20*
%TO.C,J21*%
X111200000Y-75530000D03*
D18*
X113200000Y-75530000D03*
%TD*%
D17*
%TO.C,J16*%
X104400000Y-100400000D03*
D18*
X102400000Y-100400000D03*
X100400000Y-100400000D03*
X98400000Y-100400000D03*
X96400000Y-100400000D03*
X94400000Y-100400000D03*
%TD*%
D29*
%TO.C,D5*%
X176400000Y-111400000D03*
X179200000Y-111400000D03*
%TD*%
M02*
