%TF.GenerationSoftware,KiCad,Pcbnew,9.0.0*%
%TF.CreationDate,2025-07-15T20:23:25+12:00*%
%TF.ProjectId,ADC_Board,4144435f-426f-4617-9264-2e6b69636164,B*%
%TF.SameCoordinates,Original*%
%TF.FileFunction,Soldermask,Top*%
%TF.FilePolarity,Negative*%
%FSLAX46Y46*%
G04 Gerber Fmt 4.6, Leading zero omitted, Abs format (unit mm)*
G04 Created by KiCad (PCBNEW 9.0.0) date 2025-07-15 20:23:25*
%MOMM*%
%LPD*%
G01*
G04 APERTURE LIST*
G04 Aperture macros list*
%AMRoundRect*
0 Rectangle with rounded corners*
0 $1 Rounding radius*
0 $2 $3 $4 $5 $6 $7 $8 $9 X,Y pos of 4 corners*
0 Add a 4 corners polygon primitive as box body*
4,1,4,$2,$3,$4,$5,$6,$7,$8,$9,$2,$3,0*
0 Add four circle primitives for the rounded corners*
1,1,$1+$1,$2,$3*
1,1,$1+$1,$4,$5*
1,1,$1+$1,$6,$7*
1,1,$1+$1,$8,$9*
0 Add four rect primitives between the rounded corners*
20,1,$1+$1,$2,$3,$4,$5,0*
20,1,$1+$1,$4,$5,$6,$7,0*
20,1,$1+$1,$6,$7,$8,$9,0*
20,1,$1+$1,$8,$9,$2,$3,0*%
%AMFreePoly0*
4,1,23,0.550000,-0.750000,0.000000,-0.750000,0.000000,-0.745722,-0.065263,-0.745722,-0.191342,-0.711940,-0.304381,-0.646677,-0.396677,-0.554381,-0.461940,-0.441342,-0.495722,-0.315263,-0.495722,-0.250000,-0.500000,-0.250000,-0.500000,0.250000,-0.495722,0.250000,-0.495722,0.315263,-0.461940,0.441342,-0.396677,0.554381,-0.304381,0.646677,-0.191342,0.711940,-0.065263,0.745722,0.000000,0.745722,
0.000000,0.750000,0.550000,0.750000,0.550000,-0.750000,0.550000,-0.750000,$1*%
%AMFreePoly1*
4,1,23,0.000000,0.745722,0.065263,0.745722,0.191342,0.711940,0.304381,0.646677,0.396677,0.554381,0.461940,0.441342,0.495722,0.315263,0.495722,0.250000,0.500000,0.250000,0.500000,-0.250000,0.495722,-0.250000,0.495722,-0.315263,0.461940,-0.441342,0.396677,-0.554381,0.304381,-0.646677,0.191342,-0.711940,0.065263,-0.745722,0.000000,-0.745722,0.000000,-0.750000,-0.550000,-0.750000,
-0.550000,0.750000,0.000000,0.750000,0.000000,0.745722,0.000000,0.745722,$1*%
%AMFreePoly2*
4,1,17,1.395000,0.765000,0.855000,0.765000,0.855000,0.535000,1.395000,0.535000,1.395000,0.115000,0.855000,0.115000,0.855000,-0.115000,1.395000,-0.115000,1.395000,-0.535000,0.855000,-0.535000,0.855000,-0.765000,1.395000,-0.765000,1.395000,-1.185000,-0.855000,-1.185000,-0.855000,1.185000,1.395000,1.185000,1.395000,0.765000,1.395000,0.765000,$1*%
G04 Aperture macros list end*
%ADD10RoundRect,0.062500X0.062500X-0.375000X0.062500X0.375000X-0.062500X0.375000X-0.062500X-0.375000X0*%
%ADD11RoundRect,0.062500X0.375000X-0.062500X0.375000X0.062500X-0.375000X0.062500X-0.375000X-0.062500X0*%
%ADD12R,3.100000X3.100000*%
%ADD13RoundRect,0.200000X0.275000X-0.200000X0.275000X0.200000X-0.275000X0.200000X-0.275000X-0.200000X0*%
%ADD14RoundRect,0.200000X-0.200000X-0.275000X0.200000X-0.275000X0.200000X0.275000X-0.200000X0.275000X0*%
%ADD15RoundRect,0.225000X-0.250000X0.225000X-0.250000X-0.225000X0.250000X-0.225000X0.250000X0.225000X0*%
%ADD16RoundRect,0.140000X0.170000X-0.140000X0.170000X0.140000X-0.170000X0.140000X-0.170000X-0.140000X0*%
%ADD17RoundRect,0.250000X0.275000X0.700000X-0.275000X0.700000X-0.275000X-0.700000X0.275000X-0.700000X0*%
%ADD18RoundRect,0.250000X-0.625000X0.350000X-0.625000X-0.350000X0.625000X-0.350000X0.625000X0.350000X0*%
%ADD19O,1.750000X1.200000*%
%ADD20C,1.000000*%
%ADD21RoundRect,0.140000X-0.170000X0.140000X-0.170000X-0.140000X0.170000X-0.140000X0.170000X0.140000X0*%
%ADD22C,3.600000*%
%ADD23C,5.600000*%
%ADD24RoundRect,0.135000X-0.185000X0.135000X-0.185000X-0.135000X0.185000X-0.135000X0.185000X0.135000X0*%
%ADD25RoundRect,0.135000X0.135000X0.185000X-0.135000X0.185000X-0.135000X-0.185000X0.135000X-0.185000X0*%
%ADD26RoundRect,0.135000X-0.135000X-0.185000X0.135000X-0.185000X0.135000X0.185000X-0.135000X0.185000X0*%
%ADD27R,1.700000X1.700000*%
%ADD28O,1.700000X1.700000*%
%ADD29RoundRect,0.200000X-0.275000X0.200000X-0.275000X-0.200000X0.275000X-0.200000X0.275000X0.200000X0*%
%ADD30RoundRect,0.140000X0.140000X0.170000X-0.140000X0.170000X-0.140000X-0.170000X0.140000X-0.170000X0*%
%ADD31FreePoly0,0.000000*%
%ADD32R,1.000000X1.500000*%
%ADD33FreePoly1,0.000000*%
%ADD34RoundRect,0.200000X0.200000X0.275000X-0.200000X0.275000X-0.200000X-0.275000X0.200000X-0.275000X0*%
%ADD35C,2.600000*%
%ADD36RoundRect,0.125000X0.125000X0.125000X-0.125000X0.125000X-0.125000X-0.125000X0.125000X-0.125000X0*%
%ADD37RoundRect,0.225000X-0.225000X-0.250000X0.225000X-0.250000X0.225000X0.250000X-0.225000X0.250000X0*%
%ADD38RoundRect,0.135000X0.185000X-0.135000X0.185000X0.135000X-0.185000X0.135000X-0.185000X-0.135000X0*%
%ADD39RoundRect,0.250000X0.625000X-0.350000X0.625000X0.350000X-0.625000X0.350000X-0.625000X-0.350000X0*%
%ADD40RoundRect,0.225000X0.250000X-0.225000X0.250000X0.225000X-0.250000X0.225000X-0.250000X-0.225000X0*%
%ADD41RoundRect,0.225000X0.225000X0.250000X-0.225000X0.250000X-0.225000X-0.250000X0.225000X-0.250000X0*%
%ADD42R,1.500000X1.500000*%
%ADD43RoundRect,0.095000X-0.155000X-0.095000X0.155000X-0.095000X0.155000X0.095000X-0.155000X0.095000X0*%
%ADD44RoundRect,0.075000X-0.250000X-0.075000X0.250000X-0.075000X0.250000X0.075000X-0.250000X0.075000X0*%
%ADD45FreePoly0,180.000000*%
%ADD46FreePoly1,180.000000*%
%ADD47R,0.304800X0.972299*%
%ADD48RoundRect,0.140000X-0.140000X-0.170000X0.140000X-0.170000X0.140000X0.170000X-0.140000X0.170000X0*%
%ADD49RoundRect,0.250000X-0.650000X0.325000X-0.650000X-0.325000X0.650000X-0.325000X0.650000X0.325000X0*%
%ADD50RoundRect,0.375000X0.375000X-0.625000X0.375000X0.625000X-0.375000X0.625000X-0.375000X-0.625000X0*%
%ADD51RoundRect,0.500000X1.400000X-0.500000X1.400000X0.500000X-1.400000X0.500000X-1.400000X-0.500000X0*%
%ADD52RoundRect,0.250000X0.350000X0.625000X-0.350000X0.625000X-0.350000X-0.625000X0.350000X-0.625000X0*%
%ADD53O,1.200000X1.750000*%
%ADD54RoundRect,0.250000X-1.000000X1.950000X-1.000000X-1.950000X1.000000X-1.950000X1.000000X1.950000X0*%
%ADD55RoundRect,0.250000X0.375000X0.625000X-0.375000X0.625000X-0.375000X-0.625000X0.375000X-0.625000X0*%
%ADD56RoundRect,0.075000X-0.075000X0.700000X-0.075000X-0.700000X0.075000X-0.700000X0.075000X0.700000X0*%
%ADD57RoundRect,0.075000X-0.700000X0.075000X-0.700000X-0.075000X0.700000X-0.075000X0.700000X0.075000X0*%
%ADD58RoundRect,0.105000X-0.105000X0.245000X-0.105000X-0.245000X0.105000X-0.245000X0.105000X0.245000X0*%
%ADD59FreePoly2,270.000000*%
%ADD60RoundRect,0.250000X-0.375000X-0.625000X0.375000X-0.625000X0.375000X0.625000X-0.375000X0.625000X0*%
%ADD61R,1.400000X1.200000*%
%ADD62RoundRect,0.250000X0.300000X-0.300000X0.300000X0.300000X-0.300000X0.300000X-0.300000X-0.300000X0*%
%ADD63RoundRect,0.100000X-0.100000X-0.575000X0.100000X-0.575000X0.100000X0.575000X-0.100000X0.575000X0*%
%ADD64O,0.900000X1.600000*%
%ADD65RoundRect,0.250000X-0.550000X-0.450000X0.550000X-0.450000X0.550000X0.450000X-0.550000X0.450000X0*%
%ADD66RoundRect,0.250000X-0.700000X-0.700000X0.700000X-0.700000X0.700000X0.700000X-0.700000X0.700000X0*%
%ADD67RoundRect,0.250000X-0.350000X-0.625000X0.350000X-0.625000X0.350000X0.625000X-0.350000X0.625000X0*%
%ADD68C,1.270000*%
%ADD69RoundRect,0.250001X0.759999X-0.499999X0.759999X0.499999X-0.759999X0.499999X-0.759999X-0.499999X0*%
%ADD70O,2.020000X1.500000*%
%ADD71C,4.000000*%
%ADD72R,1.600000X1.600000*%
%ADD73C,1.600000*%
G04 APERTURE END LIST*
%TO.C,JP2*%
G36*
X136550000Y-107050000D02*
G01*
X138050000Y-107050000D01*
X138050000Y-108550000D01*
X136550000Y-108550000D01*
X136550000Y-107050000D01*
G37*
%TO.C,JP1*%
G36*
X143450000Y-108550000D02*
G01*
X141950000Y-108550000D01*
X141950000Y-107050000D01*
X143450000Y-107050000D01*
X143450000Y-108550000D01*
G37*
%TD*%
D10*
%TO.C,U5*%
X110250000Y-92037500D03*
X110750000Y-92037500D03*
X111250000Y-92037500D03*
X111750000Y-92037500D03*
X112250000Y-92037500D03*
X112750000Y-92037500D03*
X113250000Y-92037500D03*
X113750000Y-92037500D03*
D11*
X114437500Y-91350000D03*
X114437500Y-90850000D03*
X114437500Y-90350000D03*
X114437500Y-89850000D03*
X114437500Y-89350000D03*
X114437500Y-88850000D03*
X114437500Y-88350000D03*
X114437500Y-87850000D03*
D10*
X113750000Y-87162500D03*
X113250000Y-87162500D03*
X112750000Y-87162500D03*
X112250000Y-87162500D03*
X111750000Y-87162500D03*
X111250000Y-87162500D03*
X110750000Y-87162500D03*
X110250000Y-87162500D03*
D11*
X109562500Y-87850000D03*
X109562500Y-88350000D03*
X109562500Y-88850000D03*
X109562500Y-89350000D03*
X109562500Y-89850000D03*
X109562500Y-90350000D03*
X109562500Y-90850000D03*
X109562500Y-91350000D03*
D12*
X112000000Y-89600000D03*
%TD*%
D13*
%TO.C,R61*%
X133700000Y-100625000D03*
X133700000Y-98975000D03*
%TD*%
D14*
%TO.C,R60*%
X132675000Y-97500000D03*
X134325000Y-97500000D03*
%TD*%
%TO.C,R59*%
X133775000Y-73500000D03*
X135425000Y-73500000D03*
%TD*%
%TO.C,R58*%
X133775000Y-76600000D03*
X135425000Y-76600000D03*
%TD*%
%TO.C,R57*%
X133775000Y-82200000D03*
X135425000Y-82200000D03*
%TD*%
D15*
%TO.C,C44*%
X146800000Y-96325000D03*
X146800000Y-97875000D03*
%TD*%
D16*
%TO.C,C1*%
X155200000Y-84000000D03*
X155200000Y-83040000D03*
%TD*%
D17*
%TO.C,FB1*%
X135775000Y-102600000D03*
X132625000Y-102600000D03*
%TD*%
D15*
%TO.C,C43*%
X137000000Y-72025000D03*
X137000000Y-73575000D03*
%TD*%
D18*
%TO.C,J2*%
X167150000Y-82200000D03*
D19*
X167150000Y-84200000D03*
X167150000Y-86200000D03*
%TD*%
D20*
%TO.C,TP10*%
X139600000Y-89600000D03*
%TD*%
D15*
%TO.C,C32*%
X137000000Y-78225000D03*
X137000000Y-79775000D03*
%TD*%
D21*
%TO.C,C33*%
X128200000Y-97720000D03*
X128200000Y-98680000D03*
%TD*%
D16*
%TO.C,C37*%
X101600000Y-78280000D03*
X101600000Y-77320000D03*
%TD*%
D22*
%TO.C,H4*%
X185000000Y-115000000D03*
D23*
X185000000Y-115000000D03*
%TD*%
D16*
%TO.C,C35*%
X123800000Y-98680000D03*
X123800000Y-97720000D03*
%TD*%
D24*
%TO.C,R38*%
X125000000Y-97690000D03*
X125000000Y-98710000D03*
%TD*%
D25*
%TO.C,R39*%
X123910000Y-101000000D03*
X122890000Y-101000000D03*
%TD*%
D16*
%TO.C,C31*%
X97200000Y-98680000D03*
X97200000Y-97720000D03*
%TD*%
D26*
%TO.C,R41*%
X101780000Y-73800000D03*
X102800000Y-73800000D03*
%TD*%
D27*
%TO.C,J8*%
X125275000Y-105400000D03*
D28*
X122735000Y-105400000D03*
%TD*%
D14*
%TO.C,R35*%
X133775000Y-78200000D03*
X135425000Y-78200000D03*
%TD*%
D15*
%TO.C,C28*%
X137000000Y-75150000D03*
X137000000Y-76700000D03*
%TD*%
D21*
%TO.C,C25*%
X116600000Y-97720000D03*
X116600000Y-98680000D03*
%TD*%
D29*
%TO.C,R13*%
X181200000Y-110075000D03*
X181200000Y-111725000D03*
%TD*%
D30*
%TO.C,C30*%
X99880000Y-96200000D03*
X98920000Y-96200000D03*
%TD*%
%TO.C,C6*%
X152880000Y-79700000D03*
X151920000Y-79700000D03*
%TD*%
D13*
%TO.C,R12*%
X171300000Y-95312500D03*
X171300000Y-93662500D03*
%TD*%
D20*
%TO.C,TP16*%
X182200000Y-86000000D03*
%TD*%
D14*
%TO.C,R29*%
X133775000Y-75100000D03*
X135425000Y-75100000D03*
%TD*%
D15*
%TO.C,C15*%
X131000000Y-102625000D03*
X131000000Y-104175000D03*
%TD*%
D14*
%TO.C,R40*%
X133775000Y-83800000D03*
X135425000Y-83800000D03*
%TD*%
D20*
%TO.C,TP2*%
X142400000Y-94400000D03*
%TD*%
%TO.C,TP18*%
X182200000Y-79200000D03*
%TD*%
D31*
%TO.C,JP2*%
X136000000Y-107800000D03*
D32*
X137300000Y-107800000D03*
D33*
X138600000Y-107800000D03*
%TD*%
D25*
%TO.C,R19*%
X99710000Y-84400000D03*
X98690000Y-84400000D03*
%TD*%
D34*
%TO.C,R32*%
X135454319Y-86380518D03*
X133804319Y-86380518D03*
%TD*%
D13*
%TO.C,R17*%
X171275000Y-92112500D03*
X171275000Y-90462500D03*
%TD*%
D24*
%TO.C,R34*%
X98400000Y-97690000D03*
X98400000Y-98710000D03*
%TD*%
D16*
%TO.C,C2*%
X156200000Y-84000000D03*
X156200000Y-83040000D03*
%TD*%
D34*
%TO.C,R26*%
X135454319Y-89580518D03*
X133804319Y-89580518D03*
%TD*%
D25*
%TO.C,R21*%
X98110000Y-88600000D03*
X97090000Y-88600000D03*
%TD*%
D35*
%TO.C,TP19*%
X93830000Y-107300000D03*
X96370000Y-107300000D03*
%TD*%
D27*
%TO.C,J9*%
X116200000Y-105400000D03*
D28*
X118740000Y-105400000D03*
%TD*%
D34*
%TO.C,R52*%
X164625000Y-72400000D03*
X162975000Y-72400000D03*
%TD*%
D36*
%TO.C,D3*%
X179400000Y-96800000D03*
X177200000Y-96800000D03*
%TD*%
D20*
%TO.C,TP8*%
X139600000Y-86400000D03*
%TD*%
D30*
%TO.C,C18*%
X99680000Y-85400000D03*
X98720000Y-85400000D03*
%TD*%
D16*
%TO.C,C20*%
X100800000Y-84380000D03*
X100800000Y-83420000D03*
%TD*%
D21*
%TO.C,C42*%
X114400000Y-77300000D03*
X114400000Y-78260000D03*
%TD*%
D25*
%TO.C,R23*%
X98110000Y-87400000D03*
X97090000Y-87400000D03*
%TD*%
D37*
%TO.C,C4*%
X158825000Y-83600000D03*
X160375000Y-83600000D03*
%TD*%
D34*
%TO.C,R22*%
X135454319Y-95980518D03*
X133804319Y-95980518D03*
%TD*%
%TO.C,R33*%
X135454319Y-92780518D03*
X133804319Y-92780518D03*
%TD*%
D20*
%TO.C,TP1*%
X139600000Y-92800000D03*
%TD*%
D38*
%TO.C,R42*%
X102800000Y-78310000D03*
X102800000Y-77290000D03*
%TD*%
D35*
%TO.C,TP20*%
X186200000Y-83140000D03*
X186200000Y-80600000D03*
%TD*%
D20*
%TO.C,TP17*%
X182200000Y-82600000D03*
%TD*%
D29*
%TO.C,R5*%
X157000000Y-106375000D03*
X157000000Y-108025000D03*
%TD*%
D20*
%TO.C,TP15*%
X148800000Y-96600000D03*
%TD*%
%TO.C,TP5*%
X140000000Y-77000000D03*
%TD*%
D29*
%TO.C,R10*%
X136200000Y-98775000D03*
X136200000Y-100425000D03*
%TD*%
D24*
%TO.C,R37*%
X127000000Y-97690000D03*
X127000000Y-98710000D03*
%TD*%
D20*
%TO.C,TP4*%
X139900000Y-74100000D03*
%TD*%
D37*
%TO.C,C3*%
X155425000Y-81600000D03*
X156975000Y-81600000D03*
%TD*%
D39*
%TO.C,J3*%
X166050000Y-103200000D03*
D19*
X166050000Y-101200000D03*
X166050000Y-99200000D03*
X166050000Y-97200000D03*
X166050000Y-95200000D03*
X166050000Y-93200000D03*
X166050000Y-91200000D03*
%TD*%
D21*
%TO.C,C39*%
X106000000Y-77320000D03*
X106000000Y-78280000D03*
%TD*%
D20*
%TO.C,TP11*%
X142400000Y-91200000D03*
%TD*%
D16*
%TO.C,C7*%
X149000000Y-82580000D03*
X149000000Y-81620000D03*
%TD*%
D40*
%TO.C,C9*%
X140000000Y-99575000D03*
X140000000Y-98025000D03*
%TD*%
D41*
%TO.C,C13*%
X179175000Y-94200000D03*
X177625000Y-94200000D03*
%TD*%
D42*
%TO.C,TP29*%
X107400000Y-93200000D03*
%TD*%
D34*
%TO.C,R11*%
X134225000Y-104600000D03*
X132575000Y-104600000D03*
%TD*%
D43*
%TO.C,D2*%
X153550000Y-71860000D03*
D44*
X153470000Y-72400000D03*
D43*
X153550000Y-72940000D03*
X155250000Y-72940000D03*
X155250000Y-71860000D03*
%TD*%
D22*
%TO.C,H3*%
X95000000Y-115000000D03*
D23*
X95000000Y-115000000D03*
%TD*%
D16*
%TO.C,C5*%
X157200000Y-84000000D03*
X157200000Y-83040000D03*
%TD*%
D25*
%TO.C,R36*%
X129310000Y-101000000D03*
X128290000Y-101000000D03*
%TD*%
D45*
%TO.C,JP1*%
X144000000Y-107800000D03*
D32*
X142700000Y-107800000D03*
D46*
X141400000Y-107800000D03*
%TD*%
D41*
%TO.C,C11*%
X179175000Y-83400000D03*
X177625000Y-83400000D03*
%TD*%
D26*
%TO.C,R44*%
X104800000Y-73800000D03*
X105820000Y-73800000D03*
%TD*%
D47*
%TO.C,U2*%
X140700378Y-101059749D03*
X140200252Y-101059749D03*
X139700126Y-101059749D03*
X139200000Y-101059749D03*
X138699874Y-101059749D03*
X138199748Y-101059749D03*
X137699622Y-101059749D03*
X137699622Y-104140251D03*
X138199748Y-104140251D03*
X138699874Y-104140251D03*
X139200000Y-104140251D03*
X139700126Y-104140251D03*
X140200252Y-104140251D03*
X140700378Y-104140251D03*
%TD*%
D48*
%TO.C,C24*%
X97120000Y-86400000D03*
X98080000Y-86400000D03*
%TD*%
D49*
%TO.C,C12*%
X172000000Y-85725000D03*
X172000000Y-88675000D03*
%TD*%
D30*
%TO.C,C34*%
X126480000Y-96400000D03*
X125520000Y-96400000D03*
%TD*%
D20*
%TO.C,TP14*%
X142900000Y-98800000D03*
%TD*%
D30*
%TO.C,C22*%
X98080000Y-89600000D03*
X97120000Y-89600000D03*
%TD*%
D48*
%TO.C,C21*%
X98720000Y-82400000D03*
X99680000Y-82400000D03*
%TD*%
D50*
%TO.C,U3*%
X174700000Y-81150000D03*
X177000000Y-81150000D03*
D51*
X177000000Y-74850000D03*
D50*
X179300000Y-81150000D03*
%TD*%
D29*
%TO.C,R9*%
X138200000Y-97575000D03*
X138200000Y-99225000D03*
%TD*%
D24*
%TO.C,R31*%
X100400000Y-97690000D03*
X100400000Y-98710000D03*
%TD*%
D38*
%TO.C,R43*%
X104800000Y-78310000D03*
X104800000Y-77290000D03*
%TD*%
D20*
%TO.C,TP6*%
X139000000Y-78800000D03*
%TD*%
D34*
%TO.C,R30*%
X135454319Y-91180518D03*
X133804319Y-91180518D03*
%TD*%
D14*
%TO.C,R8*%
X118200000Y-108000000D03*
X119850000Y-108000000D03*
%TD*%
D48*
%TO.C,C41*%
X111720000Y-79980000D03*
X112680000Y-79980000D03*
%TD*%
D34*
%TO.C,R27*%
X135454319Y-87980518D03*
X133804319Y-87980518D03*
%TD*%
D14*
%TO.C,R7*%
X142575000Y-104200000D03*
X144225000Y-104200000D03*
%TD*%
D49*
%TO.C,C10*%
X172000000Y-74725000D03*
X172000000Y-77675000D03*
%TD*%
D34*
%TO.C,R55*%
X160625000Y-76000000D03*
X158975000Y-76000000D03*
%TD*%
%TO.C,R18*%
X131025000Y-106000000D03*
X129375000Y-106000000D03*
%TD*%
D24*
%TO.C,R28*%
X113600000Y-97690000D03*
X113600000Y-98710000D03*
%TD*%
D29*
%TO.C,R16*%
X175400000Y-98575000D03*
X175400000Y-100225000D03*
%TD*%
D24*
%TO.C,R25*%
X115600000Y-97690000D03*
X115600000Y-98710000D03*
%TD*%
D14*
%TO.C,R46*%
X118575000Y-77800000D03*
X120225000Y-77800000D03*
%TD*%
D52*
%TO.C,J1*%
X160400000Y-103400000D03*
D53*
X158400000Y-103400000D03*
X156400000Y-103400000D03*
X154400000Y-103400000D03*
%TD*%
D30*
%TO.C,C26*%
X115080000Y-96400000D03*
X114120000Y-96400000D03*
%TD*%
D38*
%TO.C,R47*%
X111200000Y-78290000D03*
X111200000Y-77270000D03*
%TD*%
D54*
%TO.C,C14*%
X184800000Y-101100000D03*
X184800000Y-108500000D03*
%TD*%
D55*
%TO.C,F1*%
X168900000Y-107800000D03*
X166100000Y-107800000D03*
%TD*%
D14*
%TO.C,R14*%
X174675000Y-115300000D03*
X176325000Y-115300000D03*
%TD*%
D26*
%TO.C,R45*%
X110180000Y-73780000D03*
X111200000Y-73780000D03*
%TD*%
D34*
%TO.C,R24*%
X135454319Y-94380518D03*
X133804319Y-94380518D03*
%TD*%
D16*
%TO.C,C27*%
X112600000Y-98680000D03*
X112600000Y-97720000D03*
%TD*%
D56*
%TO.C,U1*%
X159550000Y-85725000D03*
X159050000Y-85725000D03*
X158550000Y-85725000D03*
X158050000Y-85725000D03*
X157550000Y-85725000D03*
X157050000Y-85725000D03*
X156550000Y-85725000D03*
X156050000Y-85725000D03*
X155550000Y-85725000D03*
X155050000Y-85725000D03*
X154550000Y-85725000D03*
X154050000Y-85725000D03*
X153550000Y-85725000D03*
X153050000Y-85725000D03*
X152550000Y-85725000D03*
X152050000Y-85725000D03*
D57*
X150125000Y-87650000D03*
X150125000Y-88150000D03*
X150125000Y-88650000D03*
X150125000Y-89150000D03*
X150125000Y-89650000D03*
X150125000Y-90150000D03*
X150125000Y-90650000D03*
X150125000Y-91150000D03*
X150125000Y-91650000D03*
X150125000Y-92150000D03*
X150125000Y-92650000D03*
X150125000Y-93150000D03*
X150125000Y-93650000D03*
X150125000Y-94150000D03*
X150125000Y-94650000D03*
X150125000Y-95150000D03*
D56*
X152050000Y-97075000D03*
X152550000Y-97075000D03*
X153050000Y-97075000D03*
X153550000Y-97075000D03*
X154050000Y-97075000D03*
X154550000Y-97075000D03*
X155050000Y-97075000D03*
X155550000Y-97075000D03*
X156050000Y-97075000D03*
X156550000Y-97075000D03*
X157050000Y-97075000D03*
X157550000Y-97075000D03*
X158050000Y-97075000D03*
X158550000Y-97075000D03*
X159050000Y-97075000D03*
X159550000Y-97075000D03*
D57*
X161475000Y-95150000D03*
X161475000Y-94650000D03*
X161475000Y-94150000D03*
X161475000Y-93650000D03*
X161475000Y-93150000D03*
X161475000Y-92650000D03*
X161475000Y-92150000D03*
X161475000Y-91650000D03*
X161475000Y-91150000D03*
X161475000Y-90650000D03*
X161475000Y-90150000D03*
X161475000Y-89650000D03*
X161475000Y-89150000D03*
X161475000Y-88650000D03*
X161475000Y-88150000D03*
X161475000Y-87650000D03*
%TD*%
D20*
%TO.C,TP7*%
X140000000Y-83800000D03*
%TD*%
D38*
%TO.C,R49*%
X113200000Y-78290000D03*
X113200000Y-77270000D03*
%TD*%
D34*
%TO.C,R53*%
X151425000Y-76200000D03*
X149775000Y-76200000D03*
%TD*%
%TO.C,R48*%
X135425000Y-72000000D03*
X133775000Y-72000000D03*
%TD*%
D20*
%TO.C,TP13*%
X144800000Y-99600000D03*
%TD*%
D22*
%TO.C,H1*%
X95000000Y-75000000D03*
D23*
X95000000Y-75000000D03*
%TD*%
D21*
%TO.C,C29*%
X101600000Y-97720000D03*
X101600000Y-98680000D03*
%TD*%
D50*
%TO.C,U4*%
X174700000Y-91950000D03*
X177000000Y-91950000D03*
D51*
X177000000Y-85650000D03*
D50*
X179300000Y-91950000D03*
%TD*%
D25*
%TO.C,R20*%
X99710000Y-83400000D03*
X98690000Y-83400000D03*
%TD*%
D14*
%TO.C,R15*%
X174675000Y-118100000D03*
X176325000Y-118100000D03*
%TD*%
D40*
%TO.C,C36*%
X137000000Y-83775000D03*
X137000000Y-82225000D03*
%TD*%
D16*
%TO.C,C23*%
X101000000Y-88480000D03*
X101000000Y-87520000D03*
%TD*%
D41*
%TO.C,C19*%
X108775000Y-84600000D03*
X107225000Y-84600000D03*
%TD*%
D58*
%TO.C,Q1*%
X179300000Y-98600000D03*
X178650000Y-98600000D03*
X178000000Y-98600000D03*
X177350000Y-98600000D03*
D59*
X178325000Y-100555000D03*
%TD*%
D60*
%TO.C,F2*%
X173400000Y-103600000D03*
X176200000Y-103600000D03*
%TD*%
D41*
%TO.C,C8*%
X137375000Y-105800000D03*
X135825000Y-105800000D03*
%TD*%
D61*
%TO.C,Y1*%
X152800000Y-81100000D03*
X150600000Y-81100000D03*
X150600000Y-82800000D03*
X152800000Y-82800000D03*
%TD*%
D62*
%TO.C,D4*%
X178400000Y-106400000D03*
X178400000Y-103600000D03*
%TD*%
D48*
%TO.C,C38*%
X103320000Y-80000000D03*
X104280000Y-80000000D03*
%TD*%
D14*
%TO.C,R56*%
X144200000Y-76200000D03*
X145850000Y-76200000D03*
%TD*%
D34*
%TO.C,R6*%
X125025000Y-108000000D03*
X123375000Y-108000000D03*
%TD*%
D22*
%TO.C,H2*%
X185000000Y-75000000D03*
D23*
X185000000Y-75000000D03*
%TD*%
D29*
%TO.C,R4*%
X155400000Y-106375000D03*
X155400000Y-108025000D03*
%TD*%
D26*
%TO.C,R50*%
X113200000Y-73780000D03*
X114220000Y-73780000D03*
%TD*%
D13*
%TO.C,R51*%
X187600000Y-95825000D03*
X187600000Y-94175000D03*
%TD*%
D37*
%TO.C,C16*%
X117225000Y-88100000D03*
X118775000Y-88100000D03*
%TD*%
D63*
%TO.C,J4*%
X159200000Y-115725000D03*
X159850000Y-115725000D03*
X160500000Y-115725000D03*
X161150000Y-115725000D03*
X161800000Y-115725000D03*
D64*
X157200000Y-118400000D03*
D65*
X157300000Y-115950000D03*
D66*
X159300000Y-118400000D03*
X161700000Y-118400000D03*
D65*
X163700000Y-115950000D03*
D64*
X163800000Y-118400000D03*
%TD*%
D29*
%TO.C,R54*%
X187600000Y-88575000D03*
X187600000Y-90225000D03*
%TD*%
D40*
%TO.C,C17*%
X107000000Y-87975000D03*
X107000000Y-86425000D03*
%TD*%
D20*
%TO.C,TP3*%
X139600000Y-96000000D03*
%TD*%
%TO.C,TP9*%
X142400000Y-88000000D03*
%TD*%
D16*
%TO.C,C40*%
X110000000Y-78260000D03*
X110000000Y-77300000D03*
%TD*%
D67*
%TO.C,J15*%
X127400000Y-73750000D03*
D53*
X129400000Y-73750000D03*
X131400000Y-73750000D03*
%TD*%
D52*
%TO.C,J14*%
X119600000Y-100450000D03*
D53*
X117600000Y-100450000D03*
X115600000Y-100450000D03*
X113600000Y-100450000D03*
X111600000Y-100450000D03*
X109600000Y-100450000D03*
%TD*%
D67*
%TO.C,J20*%
X102800000Y-75600000D03*
D53*
X104800000Y-75600000D03*
%TD*%
D67*
%TO.C,J7*%
X157000000Y-74200000D03*
D53*
X159000000Y-74200000D03*
X161000000Y-74200000D03*
X163000000Y-74200000D03*
X165000000Y-74200000D03*
%TD*%
D68*
%TO.C,J12*%
X172960000Y-106400000D03*
X172960000Y-94400000D03*
D69*
X171000000Y-103400000D03*
D70*
X171000000Y-100400000D03*
X171000000Y-97400000D03*
%TD*%
D71*
%TO.C,J11*%
X134500000Y-111080000D03*
X109500000Y-111080000D03*
D72*
X127540000Y-109660000D03*
D73*
X124770000Y-109660000D03*
X122000000Y-109660000D03*
X119230000Y-109660000D03*
X116460000Y-109660000D03*
X126155000Y-112500000D03*
X123385000Y-112500000D03*
X120615000Y-112500000D03*
X117845000Y-112500000D03*
%TD*%
D67*
%TO.C,J10*%
X143800000Y-74200000D03*
D53*
X145800000Y-74200000D03*
X147800000Y-74200000D03*
X149800000Y-74200000D03*
X151800000Y-74200000D03*
%TD*%
D67*
%TO.C,J17*%
X127400000Y-79550000D03*
D53*
X129400000Y-79550000D03*
X131400000Y-79550000D03*
%TD*%
D39*
%TO.C,J13*%
X95200000Y-93000000D03*
D19*
X95200000Y-91000000D03*
X95200000Y-89000000D03*
X95200000Y-87000000D03*
X95200000Y-85000000D03*
X95200000Y-83000000D03*
%TD*%
D18*
%TO.C,J5*%
X185650000Y-88200000D03*
D19*
X185650000Y-90200000D03*
X185650000Y-92200000D03*
X185650000Y-94200000D03*
X185650000Y-96200000D03*
%TD*%
D52*
%TO.C,J18*%
X127000000Y-100400000D03*
D53*
X125000000Y-100400000D03*
%TD*%
D39*
%TO.C,J22*%
X120150000Y-76000000D03*
D19*
X120150000Y-74000000D03*
%TD*%
D71*
%TO.C,J6*%
X170500000Y-111080000D03*
X145500000Y-111080000D03*
D72*
X163540000Y-109660000D03*
D73*
X160770000Y-109660000D03*
X158000000Y-109660000D03*
X155230000Y-109660000D03*
X152460000Y-109660000D03*
X162155000Y-112500000D03*
X159385000Y-112500000D03*
X156615000Y-112500000D03*
X153845000Y-112500000D03*
%TD*%
D67*
%TO.C,J19*%
X127400000Y-85350000D03*
D53*
X129400000Y-85350000D03*
X131400000Y-85350000D03*
%TD*%
D67*
%TO.C,J21*%
X111200000Y-75530000D03*
D53*
X113200000Y-75530000D03*
%TD*%
D52*
%TO.C,J16*%
X104400000Y-100400000D03*
D53*
X102400000Y-100400000D03*
X100400000Y-100400000D03*
X98400000Y-100400000D03*
X96400000Y-100400000D03*
X94400000Y-100400000D03*
%TD*%
M02*
