M48
; DRILL file {KiCad 9.0.0} date 2025-07-15T20:23:27+1200
; FORMAT={-:-/ absolute / metric / decimal}
; #@! TF.CreationDate,2025-07-15T20:23:27+12:00
; #@! TF.GenerationSoftware,Kicad,Pcbnew,9.0.0
; #@! TF.FileFunction,Plated,1,4,PTH
FMAT,2
METRIC
; #@! TA.AperFunction,Plated,PTH,ViaDrill
T1C0.300
; #@! TA.AperFunction,Plated,PTH,ViaDrill
T2C0.500
; #@! TA.AperFunction,Plated,PTH,ComponentDrill
T3C0.500
; #@! TA.AperFunction,Plated,PTH,ComponentDrill
T4C0.750
; #@! TA.AperFunction,Plated,PTH,ComponentDrill
T5C1.000
; #@! TA.AperFunction,Plated,PTH,ComponentDrill
T6C1.020
; #@! TA.AperFunction,Plated,PTH,ComponentDrill
T7C1.300
; #@! TA.AperFunction,Plated,PTH,ComponentDrill
T8C3.200
%
G90
G05
T1
X96.503Y-86.883
X97.0Y-90.8
X97.4Y-99.4
X98.0Y-85.0
X98.8Y-81.6
X100.0Y-110.0
X100.0Y-115.0
X100.6Y-74.0
X101.4Y-76.2
X101.4Y-99.4
X105.0Y-110.0
X105.0Y-115.0
X106.2Y-76.2
X106.2Y-87.2
X107.0Y-74.0
X108.1Y-86.1
X109.0Y-73.98
X109.4Y-86.425
X109.6Y-75.98
X110.0Y-115.0
X110.75Y-89.35
X112.6Y-99.6
X113.2Y-88.4
X113.2Y-90.8
X114.8Y-75.98
X114.8Y-86.4
X115.0Y-115.0
X115.4Y-73.98
X115.6Y-88.3
X116.1Y-87.85
X116.6Y-99.6
X117.2Y-76.8
X118.0Y-88.85
X123.4Y-100.0
X124.2Y-87.8
X128.0Y-106.0
X128.6Y-100.0
X129.219Y-95.981
X130.0Y-110.0
X130.2Y-89.0
X130.2Y-94.381
X130.2Y-101.0
X131.2Y-87.8
X131.2Y-91.8
X132.625Y-99.4
X132.625Y-100.2
X132.625Y-101.0
X133.7Y-99.8
X133.775Y-80.925
X134.2Y-105.8
X134.4Y-102.6
X134.6Y-74.3
X134.6Y-75.8
X137.0Y-81.0
X137.0Y-113.8
X137.387Y-98.387
X138.2Y-77.3
X138.3Y-74.2
X138.6Y-115.8
X138.6Y-117.4
X138.699Y-102.025
X139.7Y-102.2
X140.0Y-110.0
X140.0Y-112.5
X140.8Y-102.2
X141.2Y-97.2
X142.0Y-103.2
X142.8Y-76.8
X142.8Y-115.0
X145.0Y-103.0
X145.6Y-97.7
X149.0Y-80.9
X150.0Y-110.0
X151.2Y-79.7
X154.05Y-87.35
X154.2Y-95.4
X154.4Y-72.4
X154.443Y-83.442
X155.8Y-87.2
X156.2Y-82.4
X156.4Y-95.4
X158.0Y-82.6
X158.0Y-84.0
X161.6Y-76.0
X162.4Y-86.8
X162.4Y-114.4
X162.45Y-84.9
X165.0Y-112.5
X166.9Y-89.5
X167.5Y-115.0
X167.5Y-117.5
X172.338Y-90.462
X174.0Y-85.725
X175.0Y-110.0
X175.0Y-112.5
X176.0Y-101.4
X176.2Y-94.2
X176.4Y-83.4
X177.0Y-76.8
X177.0Y-78.2
X177.0Y-79.4
X177.0Y-89.4
X177.0Y-90.4
X177.3Y-111.4
X177.3Y-114.2
X177.3Y-117.0
X178.2Y-111.4
X178.2Y-114.2
X178.2Y-117.0
X180.0Y-110.0
X187.5Y-107.5
X187.5Y-110.0
X187.6Y-87.0
T2
X172.0Y-76.4
X172.0Y-87.4
X175.275Y-93.525
X175.375Y-82.825
X178.4Y-108.4
X184.8Y-104.8
X184.8Y-105.6
T4
X94.4Y-100.4
X95.2Y-83.0
X95.2Y-85.0
X95.2Y-87.0
X95.2Y-89.0
X95.2Y-91.0
X95.2Y-93.0
X96.4Y-100.4
X98.4Y-100.4
X100.4Y-100.4
X102.4Y-100.4
X102.8Y-75.6
X104.4Y-100.4
X104.8Y-75.6
X109.6Y-100.45
X111.2Y-75.53
X111.6Y-100.45
X113.2Y-75.53
X113.6Y-100.45
X115.6Y-100.45
X117.6Y-100.45
X119.6Y-100.45
X120.15Y-74.0
X120.15Y-76.0
X125.0Y-100.4
X127.0Y-100.4
X127.4Y-73.75
X127.4Y-79.55
X127.4Y-85.35
X129.4Y-73.75
X129.4Y-79.55
X129.4Y-85.35
X131.4Y-73.75
X131.4Y-79.55
X131.4Y-85.35
X143.8Y-74.2
X145.8Y-74.2
X147.8Y-74.2
X149.8Y-74.2
X151.8Y-74.2
X154.4Y-103.4
X156.4Y-103.4
X157.0Y-74.2
X158.4Y-103.4
X159.0Y-74.2
X160.4Y-103.4
X161.0Y-74.2
X163.0Y-74.2
X165.0Y-74.2
X166.05Y-91.2
X166.05Y-93.2
X166.05Y-95.2
X166.05Y-97.2
X166.05Y-99.2
X166.05Y-101.2
X166.05Y-103.2
X167.15Y-82.2
X167.15Y-84.2
X167.15Y-86.2
X185.65Y-88.2
X185.65Y-90.2
X185.65Y-92.2
X185.65Y-94.2
X185.65Y-96.2
T5
X116.2Y-105.4
X116.46Y-109.66
X117.845Y-112.5
X118.74Y-105.4
X119.23Y-109.66
X120.615Y-112.5
X122.0Y-109.66
X122.735Y-105.4
X123.385Y-112.5
X124.77Y-109.66
X125.275Y-105.4
X126.155Y-112.5
X127.54Y-109.66
X152.46Y-109.66
X153.845Y-112.5
X155.23Y-109.66
X156.615Y-112.5
X158.0Y-109.66
X159.385Y-112.5
X160.77Y-109.66
X162.155Y-112.5
X163.54Y-109.66
T6
X171.0Y-97.4
X171.0Y-100.4
X171.0Y-103.4
T7
X93.83Y-107.3
X96.37Y-107.3
X186.2Y-80.6
X186.2Y-83.14
T8
X95.0Y-75.0
X95.0Y-115.0
X109.5Y-111.08
X134.5Y-111.08
X145.5Y-111.08
X170.5Y-111.08
X185.0Y-75.0
X185.0Y-115.0
T3
G00X157.2Y-118.75
M15
G01X157.2Y-118.05
M16
G05
G00X163.8Y-118.75
M15
G01X163.8Y-118.05
M16
G05
M30
