%TF.GenerationSoftware,KiCad,Pcbnew,9.0.0*%
%TF.CreationDate,2025-05-15T11:56:12+12:00*%
%TF.ProjectId,Servo_Board,53657276-6f5f-4426-9f61-72642e6b6963,A*%
%TF.SameCoordinates,Original*%
%TF.FileFunction,Copper,L4,Bot*%
%TF.FilePolarity,Positive*%
%FSLAX46Y46*%
G04 Gerber Fmt 4.6, Leading zero omitted, Abs format (unit mm)*
G04 Created by KiCad (PCBNEW 9.0.0) date 2025-05-15 11:56:12*
%MOMM*%
%LPD*%
G01*
G04 APERTURE LIST*
G04 Aperture macros list*
%AMRoundRect*
0 Rectangle with rounded corners*
0 $1 Rounding radius*
0 $2 $3 $4 $5 $6 $7 $8 $9 X,Y pos of 4 corners*
0 Add a 4 corners polygon primitive as box body*
4,1,4,$2,$3,$4,$5,$6,$7,$8,$9,$2,$3,0*
0 Add four circle primitives for the rounded corners*
1,1,$1+$1,$2,$3*
1,1,$1+$1,$4,$5*
1,1,$1+$1,$6,$7*
1,1,$1+$1,$8,$9*
0 Add four rect primitives between the rounded corners*
20,1,$1+$1,$2,$3,$4,$5,0*
20,1,$1+$1,$4,$5,$6,$7,0*
20,1,$1+$1,$6,$7,$8,$9,0*
20,1,$1+$1,$8,$9,$2,$3,0*%
G04 Aperture macros list end*
%TA.AperFunction,ComponentPad*%
%ADD10C,2.600000*%
%TD*%
%TA.AperFunction,ComponentPad*%
%ADD11C,3.600000*%
%TD*%
%TA.AperFunction,ComponentPad*%
%ADD12RoundRect,0.250000X0.350000X0.625000X-0.350000X0.625000X-0.350000X-0.625000X0.350000X-0.625000X0*%
%TD*%
%TA.AperFunction,ComponentPad*%
%ADD13O,1.200000X1.750000*%
%TD*%
%TA.AperFunction,ComponentPad*%
%ADD14RoundRect,0.250000X-0.350000X-0.625000X0.350000X-0.625000X0.350000X0.625000X-0.350000X0.625000X0*%
%TD*%
%TA.AperFunction,ComponentPad*%
%ADD15R,1.700000X1.700000*%
%TD*%
%TA.AperFunction,ComponentPad*%
%ADD16O,1.700000X1.700000*%
%TD*%
%TA.AperFunction,HeatsinkPad*%
%ADD17O,1.600000X0.900000*%
%TD*%
%TA.AperFunction,SMDPad,CuDef*%
%ADD18RoundRect,0.250000X0.625000X-0.375000X0.625000X0.375000X-0.625000X0.375000X-0.625000X-0.375000X0*%
%TD*%
%TA.AperFunction,ComponentPad*%
%ADD19RoundRect,0.250001X0.499999X0.499999X-0.499999X0.499999X-0.499999X-0.499999X0.499999X-0.499999X0*%
%TD*%
%TA.AperFunction,ComponentPad*%
%ADD20C,1.500000*%
%TD*%
%TA.AperFunction,SMDPad,CuDef*%
%ADD21RoundRect,0.200000X0.200000X0.275000X-0.200000X0.275000X-0.200000X-0.275000X0.200000X-0.275000X0*%
%TD*%
%TA.AperFunction,ComponentPad*%
%ADD22RoundRect,0.250001X0.759999X-0.499999X0.759999X0.499999X-0.759999X0.499999X-0.759999X-0.499999X0*%
%TD*%
%TA.AperFunction,ComponentPad*%
%ADD23O,2.020000X1.500000*%
%TD*%
%TA.AperFunction,ComponentPad*%
%ADD24C,4.000000*%
%TD*%
%TA.AperFunction,ComponentPad*%
%ADD25R,1.600000X1.600000*%
%TD*%
%TA.AperFunction,ComponentPad*%
%ADD26C,1.600000*%
%TD*%
%TA.AperFunction,SMDPad,CuDef*%
%ADD27RoundRect,0.200000X-0.200000X-0.275000X0.200000X-0.275000X0.200000X0.275000X-0.200000X0.275000X0*%
%TD*%
%TA.AperFunction,ComponentPad*%
%ADD28RoundRect,0.250001X-0.759999X0.499999X-0.759999X-0.499999X0.759999X-0.499999X0.759999X0.499999X0*%
%TD*%
%TA.AperFunction,ViaPad*%
%ADD29C,0.450000*%
%TD*%
%TA.AperFunction,ViaPad*%
%ADD30C,0.600000*%
%TD*%
%TA.AperFunction,ViaPad*%
%ADD31C,1.000000*%
%TD*%
%TA.AperFunction,Conductor*%
%ADD32C,0.200000*%
%TD*%
%TA.AperFunction,Conductor*%
%ADD33C,2.000000*%
%TD*%
%TA.AperFunction,Conductor*%
%ADD34C,0.100000*%
%TD*%
G04 APERTURE END LIST*
D10*
%TO.P,TP20,1,1*%
%TO.N,GND*%
X155000000Y-81000000D03*
X157540000Y-81000000D03*
%TD*%
%TO.P,TP19,1,1*%
%TO.N,GND*%
X110130000Y-116000000D03*
X112670000Y-116000000D03*
%TD*%
D11*
%TO.P,H4,1,1*%
%TO.N,GND*%
X195000000Y-120000000D03*
%TD*%
D12*
%TO.P,J1,1,Pin_1*%
%TO.N,/SWCLK*%
X118400000Y-100400000D03*
D13*
%TO.P,J1,2,Pin_2*%
%TO.N,GND*%
X116400000Y-100400000D03*
%TO.P,J1,3,Pin_3*%
%TO.N,/SWDIO*%
X114400000Y-100400000D03*
%TO.P,J1,4,Pin_4*%
%TO.N,/NRST*%
X112400000Y-100400000D03*
%TD*%
D14*
%TO.P,J18,1,Pin_1*%
%TO.N,GND*%
X112600000Y-77200000D03*
D13*
%TO.P,J18,2,Pin_2*%
%TO.N,/PWM_EXT*%
X114600000Y-77200000D03*
%TO.P,J18,3,Pin_3*%
%TO.N,/A11*%
X116600000Y-77200000D03*
%TO.P,J18,4,Pin_4*%
%TO.N,+3V3*%
X118600000Y-77200000D03*
%TO.P,J18,5,Pin_5*%
%TO.N,/A9*%
X120600000Y-77200000D03*
%TO.P,J18,6,Pin_6*%
%TO.N,/A8*%
X122600000Y-77200000D03*
%TO.P,J18,7,Pin_7*%
%TO.N,GND*%
X124600000Y-77200000D03*
%TD*%
D15*
%TO.P,J10,1,Pin_1*%
%TO.N,/CANL2*%
X127800000Y-110200000D03*
D16*
%TO.P,J10,2,Pin_2*%
%TO.N,Net-(J10-Pin_2)*%
X130340000Y-110200000D03*
%TD*%
D14*
%TO.P,J8,1,Pin_1*%
%TO.N,GND*%
X140600000Y-77250000D03*
D13*
%TO.P,J8,2,Pin_2*%
%TO.N,/SPI_MOSI*%
X142600000Y-77250000D03*
%TO.P,J8,3,Pin_3*%
%TO.N,/SPI_MISO*%
X144600000Y-77250000D03*
%TO.P,J8,4,Pin_4*%
%TO.N,/SPI_SCK*%
X146600000Y-77250000D03*
%TO.P,J8,5,Pin_5*%
%TO.N,/SPI_CS*%
X148600000Y-77250000D03*
%TO.P,J8,6,Pin_6*%
%TO.N,+3V3*%
X150600000Y-77250000D03*
%TD*%
D11*
%TO.P,H3,1,1*%
%TO.N,GND*%
X105000000Y-120000000D03*
%TD*%
D15*
%TO.P,J9,1,Pin_1*%
%TO.N,/CANH1*%
X172075000Y-110200000D03*
D16*
%TO.P,J9,2,Pin_2*%
%TO.N,Net-(J9-Pin_2)*%
X169535000Y-110200000D03*
%TD*%
D11*
%TO.P,H2,1,1*%
%TO.N,GND*%
X195000000Y-80000000D03*
%TD*%
D12*
%TO.P,J2,1,Pin_1*%
%TO.N,/UART2_RX*%
X129400000Y-105200000D03*
D13*
%TO.P,J2,2,Pin_2*%
%TO.N,GND*%
X127400000Y-105200000D03*
%TO.P,J2,3,Pin_3*%
%TO.N,/UART2_TX*%
X125400000Y-105200000D03*
%TD*%
D17*
%TO.P,J4,6,Shield*%
%TO.N,unconnected-(J4-Shield-Pad6)*%
X101525000Y-91900000D03*
%TO.N,unconnected-(J4-Shield-Pad6)_1*%
X101525000Y-98500000D03*
%TD*%
D11*
%TO.P,H1,1,1*%
%TO.N,GND*%
X105000000Y-80000000D03*
%TD*%
D18*
%TO.P,D2,1,K*%
%TO.N,GND*%
X153200000Y-99800000D03*
%TO.P,D2,2,A*%
%TO.N,Net-(D2-A)*%
X153200000Y-97000000D03*
%TD*%
D19*
%TO.P,J17,1,Pin_1*%
%TO.N,+7V4*%
X173700000Y-80880000D03*
D20*
%TO.P,J17,2,Pin_2*%
%TO.N,/PWM_D*%
X170700000Y-80880000D03*
%TO.P,J17,3,Pin_3*%
%TO.N,GND*%
X173700000Y-83880000D03*
%TO.P,J17,4,Pin_4*%
%TO.N,Net-(J17-Pin_4)*%
X170700000Y-83880000D03*
%TD*%
D18*
%TO.P,D1,1,K*%
%TO.N,GND*%
X155800000Y-99800000D03*
%TO.P,D1,2,A*%
%TO.N,Net-(D1-A)*%
X155800000Y-97000000D03*
%TD*%
D19*
%TO.P,J16,1,Pin_1*%
%TO.N,+7V4*%
X185300000Y-80880000D03*
D20*
%TO.P,J16,2,Pin_2*%
%TO.N,/PWM_C*%
X182300000Y-80880000D03*
%TO.P,J16,3,Pin_3*%
%TO.N,GND*%
X185300000Y-83880000D03*
%TO.P,J16,4,Pin_4*%
%TO.N,Net-(J16-Pin_4)*%
X182300000Y-83880000D03*
%TD*%
D21*
%TO.P,R1,1*%
%TO.N,+7V4*%
X156825000Y-95200000D03*
%TO.P,R1,2*%
%TO.N,Net-(D1-A)*%
X155175000Y-95200000D03*
%TD*%
D22*
%TO.P,J19,1,Pin_1*%
%TO.N,Net-(J19-Pin_1)*%
X181000000Y-108400000D03*
D23*
%TO.P,J19,2,Pin_2*%
%TO.N,GND*%
X181000000Y-105400000D03*
%TO.P,J19,3,Pin_3*%
X181000000Y-102400000D03*
%TD*%
D24*
%TO.P,J12,0*%
%TO.N,N/C*%
X144500000Y-116094669D03*
X119500000Y-116094669D03*
D25*
%TO.P,J12,1,1*%
%TO.N,/+7V4_CAN*%
X137540000Y-114674669D03*
D26*
%TO.P,J12,2,2*%
%TO.N,GND*%
X134770000Y-114674669D03*
%TO.P,J12,3,3*%
%TO.N,/CAN2_AUX*%
X132000000Y-114674669D03*
%TO.P,J12,4,4*%
%TO.N,GND*%
X129230000Y-114674669D03*
%TO.P,J12,5,5*%
%TO.N,/+7V4_CAN*%
X126460000Y-114674669D03*
%TO.P,J12,6,6*%
%TO.N,/CANH1*%
X136155000Y-117514669D03*
%TO.P,J12,7,7*%
%TO.N,/CANL1*%
X133385000Y-117514669D03*
%TO.P,J12,8,8*%
%TO.N,/CANH2*%
X130615000Y-117514669D03*
%TO.P,J12,9,9*%
%TO.N,/CANL2*%
X127845000Y-117514669D03*
%TD*%
D14*
%TO.P,J5,1,Pin_1*%
%TO.N,GND*%
X111000000Y-89350000D03*
D13*
%TO.P,J5,2,Pin_2*%
%TO.N,/I2C1_SDA*%
X113000000Y-89350000D03*
%TO.P,J5,3,Pin_3*%
%TO.N,unconnected-(J5-Pin_3-Pad3)*%
X115000000Y-89350000D03*
%TO.P,J5,4,Pin_4*%
%TO.N,/I2C1_SCL*%
X117000000Y-89350000D03*
%TO.P,J5,5,Pin_5*%
%TO.N,+3V3*%
X119000000Y-89350000D03*
%TD*%
D18*
%TO.P,D3,1,K*%
%TO.N,GND*%
X150600000Y-99800000D03*
%TO.P,D3,2,A*%
%TO.N,Net-(D3-A)*%
X150600000Y-97000000D03*
%TD*%
D19*
%TO.P,J15,1,Pin_1*%
%TO.N,+7V4*%
X173700000Y-91080000D03*
D20*
%TO.P,J15,2,Pin_2*%
%TO.N,/PWM_A*%
X170700000Y-91080000D03*
%TO.P,J15,3,Pin_3*%
%TO.N,GND*%
X173700000Y-94080000D03*
%TO.P,J15,4,Pin_4*%
%TO.N,Net-(J15-Pin_4)*%
X170700000Y-94080000D03*
%TD*%
D14*
%TO.P,J3,1,Pin_1*%
%TO.N,GND*%
X104600000Y-109400000D03*
D13*
%TO.P,J3,2,Pin_2*%
%TO.N,/E1*%
X106600000Y-109400000D03*
%TO.P,J3,3,Pin_3*%
%TO.N,/E2*%
X108600000Y-109400000D03*
%TO.P,J3,4,Pin_4*%
%TO.N,+3V3*%
X110600000Y-109400000D03*
%TO.P,J3,5,Pin_5*%
%TO.N,/E3*%
X112600000Y-109400000D03*
%TO.P,J3,6,Pin_6*%
%TO.N,/E4*%
X114600000Y-109400000D03*
%TO.P,J3,7,Pin_7*%
%TO.N,GND*%
X116600000Y-109400000D03*
%TD*%
D24*
%TO.P,J6,0*%
%TO.N,N/C*%
X180500000Y-116094669D03*
X155500000Y-116094669D03*
D25*
%TO.P,J6,1,1*%
%TO.N,/+7V4_CAN*%
X173540000Y-114674669D03*
D26*
%TO.P,J6,2,2*%
%TO.N,GND*%
X170770000Y-114674669D03*
%TO.P,J6,3,3*%
%TO.N,/CAN1_AUX*%
X168000000Y-114674669D03*
%TO.P,J6,4,4*%
%TO.N,GND*%
X165230000Y-114674669D03*
%TO.P,J6,5,5*%
%TO.N,/+7V4_CAN*%
X162460000Y-114674669D03*
%TO.P,J6,6,6*%
%TO.N,/CANH1*%
X172155000Y-117514669D03*
%TO.P,J6,7,7*%
%TO.N,/CANL1*%
X169385000Y-117514669D03*
%TO.P,J6,8,8*%
%TO.N,/CANH2*%
X166615000Y-117514669D03*
%TO.P,J6,9,9*%
%TO.N,/CANL2*%
X163845000Y-117514669D03*
%TD*%
D12*
%TO.P,J7,1,Pin_1*%
%TO.N,GND*%
X141400000Y-104050000D03*
D13*
%TO.P,J7,2,Pin_2*%
%TO.N,/I2C2_SDA*%
X139400000Y-104050000D03*
%TO.P,J7,3,Pin_3*%
%TO.N,unconnected-(J7-Pin_3-Pad3)*%
X137400000Y-104050000D03*
%TO.P,J7,4,Pin_4*%
%TO.N,/I2C2_SCL*%
X135400000Y-104050000D03*
%TO.P,J7,5,Pin_5*%
%TO.N,+3V3*%
X133400000Y-104050000D03*
%TD*%
D27*
%TO.P,R3,1*%
%TO.N,/LED2*%
X146975000Y-97000000D03*
%TO.P,R3,2*%
%TO.N,Net-(D3-A)*%
X148625000Y-97000000D03*
%TD*%
%TO.P,R2,1*%
%TO.N,/LED1*%
X151575000Y-95200000D03*
%TO.P,R2,2*%
%TO.N,Net-(D2-A)*%
X153225000Y-95200000D03*
%TD*%
D12*
%TO.P,J11,1,Pin_1*%
%TO.N,GND*%
X119000000Y-82600000D03*
D13*
%TO.P,J11,2,Pin_2*%
%TO.N,/I2C3_SDA*%
X117000000Y-82600000D03*
%TO.P,J11,3,Pin_3*%
%TO.N,unconnected-(J11-Pin_3-Pad3)*%
X115000000Y-82600000D03*
%TO.P,J11,4,Pin_4*%
%TO.N,/I2C3_SCL*%
X113000000Y-82600000D03*
%TO.P,J11,5,Pin_5*%
%TO.N,+3V3*%
X111000000Y-82600000D03*
%TD*%
D19*
%TO.P,J14,1,Pin_1*%
%TO.N,+7V4*%
X185300000Y-91080000D03*
D20*
%TO.P,J14,2,Pin_2*%
%TO.N,/PWM_B*%
X182300000Y-91080000D03*
%TO.P,J14,3,Pin_3*%
%TO.N,GND*%
X185300000Y-94080000D03*
%TO.P,J14,4,Pin_4*%
%TO.N,Net-(J14-Pin_4)*%
X182300000Y-94080000D03*
%TD*%
D28*
%TO.P,SW1,1,Pin_1*%
%TO.N,+7V4*%
X196185000Y-108100000D03*
D23*
%TO.P,SW1,2,Pin_2*%
%TO.N,Net-(SW1-Pin_2)*%
X196185000Y-111100000D03*
%TD*%
D29*
%TO.N,+3V3*%
X137200000Y-95200000D03*
D30*
X155400000Y-109800000D03*
D29*
X137200000Y-105800000D03*
D30*
X194200000Y-109800000D03*
X109000000Y-103200000D03*
X179200000Y-110200000D03*
X117200000Y-92400000D03*
D31*
X163000000Y-102800000D03*
X161800000Y-102800000D03*
X159850000Y-99800000D03*
D30*
X147200000Y-110600000D03*
X145775000Y-104000000D03*
D31*
X164400000Y-102800000D03*
D29*
X136200000Y-92400000D03*
X136200000Y-95200000D03*
D30*
X111800000Y-92400000D03*
X143000000Y-108400000D03*
X122800000Y-85600000D03*
%TO.N,GND*%
X141200000Y-91200000D03*
X148400000Y-107800000D03*
X105800000Y-97400000D03*
D31*
X159600000Y-89400000D03*
X175000000Y-105000000D03*
D30*
X132000000Y-93200000D03*
D29*
X137200894Y-96447971D03*
D30*
X151200000Y-107400000D03*
D31*
X168400000Y-103400000D03*
D30*
X148600000Y-122200000D03*
X137400000Y-93800000D03*
X132350000Y-82800000D03*
X161400000Y-97800000D03*
X149400000Y-120000000D03*
X139200000Y-92600000D03*
D31*
X159600000Y-79200000D03*
D30*
X149800000Y-102600000D03*
X150600000Y-98400000D03*
X177800000Y-117400000D03*
D31*
X197800000Y-92800000D03*
D30*
X134350000Y-84400000D03*
X173000000Y-122000000D03*
X186000000Y-110200000D03*
X180800000Y-96200000D03*
X129950000Y-81000000D03*
X177575000Y-118000000D03*
X139200000Y-95000000D03*
X135600000Y-85800000D03*
X172000000Y-97800000D03*
X145000000Y-109400000D03*
X135200000Y-106740000D03*
X178200000Y-98800000D03*
D31*
X164200000Y-105000000D03*
D30*
X186000000Y-107200000D03*
D31*
X167900000Y-104500000D03*
D30*
X153200000Y-98400000D03*
X115800000Y-87800000D03*
X155800000Y-98400000D03*
D31*
X197800000Y-89400000D03*
D30*
X136000000Y-88400000D03*
X173000000Y-121000000D03*
D31*
%TO.N,+7V4*%
X196185000Y-106000000D03*
D30*
X168000000Y-96200000D03*
D31*
X196185000Y-104200000D03*
X191200000Y-92000000D03*
X191200000Y-97900000D03*
D30*
%TO.N,Net-(D8-A)*%
X188600000Y-114400000D03*
X187400000Y-113000000D03*
X189200000Y-110250002D03*
%TO.N,/CANL1*%
X147400000Y-118600000D03*
%TO.N,/CANH1*%
X153000000Y-119400000D03*
%TO.N,/CAN1_AUX*%
X132800000Y-100200000D03*
X157400000Y-109000000D03*
%TO.N,/CANL2*%
X148600000Y-121400000D03*
X148600000Y-120000000D03*
%TO.N,/CAN2_AUX*%
X130000000Y-100400000D03*
X135600000Y-110800000D03*
%TO.N,Net-(J14-Pin_4)*%
X146400000Y-86800000D03*
%TO.N,/PWM_B*%
X124180721Y-92750000D03*
X142800000Y-93201000D03*
%TO.N,Net-(J15-Pin_4)*%
X143600000Y-87200000D03*
%TO.N,/PWM_A*%
X124600000Y-92000000D03*
X142800000Y-91874000D03*
%TO.N,/PWM_C*%
X142800000Y-90200000D03*
X123800000Y-91200000D03*
%TO.N,Net-(J16-Pin_4)*%
X149600000Y-86000000D03*
%TO.N,/PWM_D*%
X123600000Y-90200000D03*
X143400000Y-89001000D03*
%TO.N,Net-(J17-Pin_4)*%
X149600000Y-83200000D03*
%TO.N,/PWM_EXT*%
X120600000Y-89200000D03*
X120600000Y-83600000D03*
%TO.N,/LED1*%
X126400000Y-97600000D03*
%TO.N,/LED2*%
X129800000Y-97000000D03*
%TD*%
D32*
%TO.N,/CANH1*%
X170269668Y-119400000D02*
X172155000Y-117514669D01*
X136155000Y-117514669D02*
X138040331Y-119400000D01*
X138040331Y-119400000D02*
X170269668Y-119400000D01*
%TO.N,GND*%
X155800000Y-99800000D02*
X155800000Y-98400000D01*
X150600000Y-99800000D02*
X150600000Y-98400000D01*
X153200000Y-99800000D02*
X153200000Y-98400000D01*
%TO.N,+7V4*%
X159400000Y-95200000D02*
X156825000Y-95200000D01*
X160400000Y-96200000D02*
X159400000Y-95200000D01*
X168000000Y-96200000D02*
X160400000Y-96200000D01*
%TO.N,Net-(D1-A)*%
X155800000Y-95825000D02*
X155800000Y-97000000D01*
X155175000Y-95200000D02*
X155800000Y-95825000D01*
%TO.N,Net-(D2-A)*%
X153225000Y-96975000D02*
X153200000Y-97000000D01*
X153225000Y-95200000D02*
X153225000Y-96975000D01*
%TO.N,Net-(D3-A)*%
X148625000Y-97000000D02*
X150600000Y-97000000D01*
X150400000Y-96800000D02*
X150600000Y-97000000D01*
D33*
%TO.N,/+7V4_CAN*%
X173540000Y-113340000D02*
X173540000Y-113460000D01*
X161400000Y-112400000D02*
X162460000Y-113460000D01*
X162460000Y-114674669D02*
X162460000Y-113940000D01*
X162460000Y-113460000D02*
X162460000Y-114674669D01*
X172600000Y-112400000D02*
X173540000Y-113340000D01*
X137540000Y-114674669D02*
X137540000Y-113460000D01*
X162460000Y-113940000D02*
X164000000Y-112400000D01*
X126460000Y-114002180D02*
X128062180Y-112400000D01*
X136000000Y-112400000D02*
X137540000Y-113940000D01*
X138600000Y-112400000D02*
X161400000Y-112400000D01*
X173540000Y-113460000D02*
X173540000Y-114674669D01*
X137540000Y-113460000D02*
X138600000Y-112400000D01*
X137540000Y-113940000D02*
X137540000Y-114674669D01*
X126460000Y-114674669D02*
X126460000Y-114002180D01*
X164000000Y-112400000D02*
X172600000Y-112400000D01*
X128062180Y-112400000D02*
X136000000Y-112400000D01*
D32*
%TO.N,/CANL1*%
X133385000Y-117514669D02*
X134801885Y-116097784D01*
X160400000Y-118600000D02*
X163000000Y-116000000D01*
X140497784Y-116097784D02*
X143000000Y-118600000D01*
X134801885Y-116097784D02*
X140497784Y-116097784D01*
X167870331Y-116000000D02*
X169385000Y-117514669D01*
X151600000Y-118600000D02*
X160400000Y-118600000D01*
X143000000Y-118600000D02*
X151600000Y-118600000D01*
X163000000Y-116000000D02*
X167870331Y-116000000D01*
%TO.N,/CAN1_AUX*%
X148600000Y-100200000D02*
X157400000Y-109000000D01*
X132800000Y-100200000D02*
X148600000Y-100200000D01*
%TO.N,/CANL2*%
X148600000Y-120000000D02*
X148600000Y-121400000D01*
%TO.N,/CAN2_AUX*%
X130000000Y-103000000D02*
X130050000Y-103050000D01*
X135600000Y-110800000D02*
X135600000Y-111000000D01*
X130000000Y-100400000D02*
X130000000Y-103000000D01*
X135600000Y-108600000D02*
X135600000Y-110800000D01*
X130050000Y-103050000D02*
X135600000Y-108600000D01*
%TO.N,Net-(J14-Pin_4)*%
X180820000Y-92600000D02*
X155000000Y-92600000D01*
X152200000Y-92600000D02*
X146400000Y-86800000D01*
X155000000Y-92600000D02*
X152200000Y-92600000D01*
X182300000Y-94080000D02*
X180820000Y-92600000D01*
%TO.N,/PWM_B*%
X124180721Y-92750000D02*
X124330721Y-92600000D01*
X135256123Y-92600000D02*
X135656123Y-93000000D01*
X138951057Y-93201000D02*
X142800000Y-93201000D01*
X124330721Y-92600000D02*
X135256123Y-92600000D01*
X135656123Y-93000000D02*
X138750057Y-93000000D01*
X138750057Y-93000000D02*
X138951057Y-93201000D01*
%TO.N,Net-(J15-Pin_4)*%
X143600000Y-87400000D02*
X150200000Y-94000000D01*
X143600000Y-87200000D02*
X143600000Y-87400000D01*
X150200000Y-94000000D02*
X170620000Y-94000000D01*
X170620000Y-94000000D02*
X170700000Y-94080000D01*
%TO.N,/PWM_A*%
X124726000Y-91874000D02*
X142800000Y-91874000D01*
X124600000Y-92000000D02*
X124726000Y-91874000D01*
%TO.N,/PWM_C*%
X124800000Y-90200000D02*
X123800000Y-91200000D01*
X142800000Y-90200000D02*
X124800000Y-90200000D01*
%TO.N,Net-(J16-Pin_4)*%
X177000000Y-86000000D02*
X149600000Y-86000000D01*
X180180000Y-86000000D02*
X177000000Y-86000000D01*
X182300000Y-83880000D02*
X180180000Y-86000000D01*
%TO.N,/PWM_D*%
X123600000Y-90200000D02*
X124799000Y-89001000D01*
X124799000Y-89001000D02*
X143400000Y-89001000D01*
%TO.N,Net-(J17-Pin_4)*%
X168880000Y-83880000D02*
X168200000Y-83200000D01*
X168200000Y-83200000D02*
X149600000Y-83200000D01*
X170700000Y-83880000D02*
X168880000Y-83880000D01*
D34*
%TO.N,/PWM_EXT*%
X120600000Y-83600000D02*
X120600000Y-89200000D01*
D32*
%TO.N,/LED1*%
X144800000Y-95200000D02*
X151575000Y-95200000D01*
X128200000Y-95800000D02*
X144200000Y-95800000D01*
X126400000Y-97600000D02*
X128200000Y-95800000D01*
X144200000Y-95800000D02*
X144800000Y-95200000D01*
%TO.N,/LED2*%
X129800000Y-97000000D02*
X146975000Y-97000000D01*
%TD*%
%TA.AperFunction,Conductor*%
%TO.N,Net-(D8-A)*%
G36*
X189815677Y-109819685D02*
G01*
X189836319Y-109836319D01*
X190563681Y-110563681D01*
X190597166Y-110625004D01*
X190600000Y-110651362D01*
X190600000Y-114148638D01*
X190580315Y-114215677D01*
X190563681Y-114236319D01*
X189836319Y-114963681D01*
X189774996Y-114997166D01*
X189748638Y-115000000D01*
X187451362Y-115000000D01*
X187384323Y-114980315D01*
X187363681Y-114963681D01*
X186636319Y-114236319D01*
X186602834Y-114174996D01*
X186600000Y-114148638D01*
X186600000Y-110780513D01*
X186619685Y-110713474D01*
X186620898Y-110711622D01*
X186621789Y-110710289D01*
X186709394Y-110579179D01*
X186715814Y-110563681D01*
X186762586Y-110450761D01*
X186789461Y-110410538D01*
X187363681Y-109836319D01*
X187425004Y-109802834D01*
X187451362Y-109800000D01*
X189748638Y-109800000D01*
X189815677Y-109819685D01*
G37*
%TD.AperFunction*%
%TD*%
M02*
