M48
; DRILL file {KiCad 9.0.0} date 2025-05-15T11:56:15+1200
; FORMAT={-:-/ absolute / metric / decimal}
; #@! TF.CreationDate,2025-05-15T11:56:15+12:00
; #@! TF.GenerationSoftware,Kicad,Pcbnew,9.0.0
; #@! TF.FileFunction,Plated,1,4,PTH
FMAT,2
METRIC
; #@! TA.AperFunction,Plated,PTH,ViaDrill
T1C0.300
; #@! TA.AperFunction,Plated,PTH,ViaDrill
T2C0.500
; #@! TA.AperFunction,Plated,PTH,ComponentDrill
T3C0.500
; #@! TA.AperFunction,Plated,PTH,ComponentDrill
T4C0.750
; #@! TA.AperFunction,Plated,PTH,ComponentDrill
T5C1.000
; #@! TA.AperFunction,Plated,PTH,ComponentDrill
T6C1.020
; #@! TA.AperFunction,Plated,PTH,ComponentDrill
T7C1.300
; #@! TA.AperFunction,Plated,PTH,ComponentDrill
T8C3.200
%
G90
G05
T1
X105.8Y-97.4
X109.0Y-103.2
X111.8Y-92.4
X115.8Y-87.8
X117.2Y-92.4
X120.6Y-83.6
X120.6Y-89.2
X122.8Y-85.6
X123.6Y-90.2
X123.8Y-91.2
X124.181Y-92.75
X124.6Y-92.0
X126.4Y-97.6
X129.8Y-97.0
X129.95Y-81.0
X130.0Y-100.4
X132.0Y-93.2
X132.35Y-82.8
X132.8Y-100.2
X134.35Y-84.4
X135.2Y-106.74
X135.6Y-85.8
X135.6Y-110.8
X136.0Y-88.4
X136.2Y-92.4
X136.2Y-95.2
X137.2Y-95.2
X137.2Y-105.8
X137.201Y-96.448
X137.4Y-93.8
X139.2Y-92.6
X139.2Y-95.0
X141.2Y-91.2
X142.8Y-90.2
X142.8Y-91.874
X142.8Y-93.201
X143.0Y-108.4
X143.4Y-89.001
X143.6Y-87.2
X145.0Y-109.4
X145.775Y-104.0
X146.4Y-86.8
X147.2Y-110.6
X147.4Y-118.6
X148.4Y-107.8
X148.6Y-120.0
X148.6Y-121.4
X148.6Y-122.2
X149.4Y-120.0
X149.6Y-83.2
X149.6Y-86.0
X149.8Y-102.6
X150.6Y-98.4
X151.2Y-107.4
X153.0Y-119.4
X153.2Y-98.4
X155.4Y-109.8
X155.8Y-98.4
X157.4Y-109.0
X161.4Y-97.8
X168.0Y-96.2
X172.0Y-97.8
X173.0Y-121.0
X173.0Y-122.0
X177.575Y-118.0
X177.8Y-117.4
X178.2Y-98.8
X179.2Y-110.2
X180.8Y-96.2
X186.0Y-107.2
X186.0Y-110.2
X187.4Y-113.0
X188.6Y-114.4
X189.2Y-110.25
X194.2Y-109.8
T2
X159.6Y-79.2
X159.6Y-89.4
X159.85Y-99.8
X161.8Y-102.8
X163.0Y-102.8
X164.2Y-105.0
X164.4Y-102.8
X167.9Y-104.5
X168.4Y-103.4
X175.0Y-105.0
X191.2Y-92.0
X191.2Y-97.9
X196.185Y-104.2
X196.185Y-106.0
X197.8Y-89.4
X197.8Y-92.8
T4
X104.6Y-109.4
X106.6Y-109.4
X108.6Y-109.4
X110.6Y-109.4
X111.0Y-82.6
X111.0Y-89.35
X112.4Y-100.4
X112.6Y-77.2
X112.6Y-109.4
X113.0Y-82.6
X113.0Y-89.35
X114.4Y-100.4
X114.6Y-77.2
X114.6Y-109.4
X115.0Y-82.6
X115.0Y-89.35
X116.4Y-100.4
X116.6Y-77.2
X116.6Y-109.4
X117.0Y-82.6
X117.0Y-89.35
X118.4Y-100.4
X118.6Y-77.2
X119.0Y-82.6
X119.0Y-89.35
X120.6Y-77.2
X122.6Y-77.2
X124.6Y-77.2
X125.4Y-105.2
X127.4Y-105.2
X129.4Y-105.2
X133.4Y-104.05
X135.4Y-104.05
X137.4Y-104.05
X139.4Y-104.05
X140.6Y-77.25
X141.4Y-104.05
X142.6Y-77.25
X144.6Y-77.25
X146.6Y-77.25
X148.6Y-77.25
X150.6Y-77.25
T5
X126.46Y-114.675
X127.8Y-110.2
X127.845Y-117.515
X129.23Y-114.675
X130.34Y-110.2
X130.615Y-117.515
X132.0Y-114.675
X133.385Y-117.515
X134.77Y-114.675
X136.155Y-117.515
X137.54Y-114.675
X162.46Y-114.675
X163.845Y-117.515
X165.23Y-114.675
X166.615Y-117.515
X168.0Y-114.675
X169.385Y-117.515
X169.535Y-110.2
X170.77Y-114.675
X172.075Y-110.2
X172.155Y-117.515
X173.54Y-114.675
T6
X170.7Y-80.88
X170.7Y-83.88
X170.7Y-91.08
X170.7Y-94.08
X173.7Y-80.88
X173.7Y-83.88
X173.7Y-91.08
X173.7Y-94.08
X181.0Y-102.4
X181.0Y-105.4
X181.0Y-108.4
X182.3Y-80.88
X182.3Y-83.88
X182.3Y-91.08
X182.3Y-94.08
X185.3Y-80.88
X185.3Y-83.88
X185.3Y-91.08
X185.3Y-94.08
X196.185Y-108.1
X196.185Y-111.1
T7
X110.13Y-116.0
X112.67Y-116.0
X155.0Y-81.0
X157.54Y-81.0
T8
X105.0Y-80.0
X105.0Y-120.0
X119.5Y-116.095
X144.5Y-116.095
X155.5Y-116.095
X180.5Y-116.095
X195.0Y-80.0
X195.0Y-120.0
T3
G00X101.175Y-91.9
M15
G01X101.875Y-91.9
M16
G05
G00X101.175Y-98.5
M15
G01X101.875Y-98.5
M16
G05
M30
