%TF.GenerationSoftware,KiCad,Pcbnew,9.0.0*%
%TF.CreationDate,2025-05-15T11:56:12+12:00*%
%TF.ProjectId,Servo_Board,53657276-6f5f-4426-9f61-72642e6b6963,A*%
%TF.SameCoordinates,Original*%
%TF.FileFunction,Paste,Top*%
%TF.FilePolarity,Positive*%
%FSLAX46Y46*%
G04 Gerber Fmt 4.6, Leading zero omitted, Abs format (unit mm)*
G04 Created by KiCad (PCBNEW 9.0.0) date 2025-05-15 11:56:12*
%MOMM*%
%LPD*%
G01*
G04 APERTURE LIST*
G04 Aperture macros list*
%AMRoundRect*
0 Rectangle with rounded corners*
0 $1 Rounding radius*
0 $2 $3 $4 $5 $6 $7 $8 $9 X,Y pos of 4 corners*
0 Add a 4 corners polygon primitive as box body*
4,1,4,$2,$3,$4,$5,$6,$7,$8,$9,$2,$3,0*
0 Add four circle primitives for the rounded corners*
1,1,$1+$1,$2,$3*
1,1,$1+$1,$4,$5*
1,1,$1+$1,$6,$7*
1,1,$1+$1,$8,$9*
0 Add four rect primitives between the rounded corners*
20,1,$1+$1,$2,$3,$4,$5,0*
20,1,$1+$1,$4,$5,$6,$7,0*
20,1,$1+$1,$6,$7,$8,$9,0*
20,1,$1+$1,$8,$9,$2,$3,0*%
G04 Aperture macros list end*
%ADD10RoundRect,0.225000X0.250000X-0.225000X0.250000X0.225000X-0.250000X0.225000X-0.250000X-0.225000X0*%
%ADD11RoundRect,0.250000X1.500000X0.550000X-1.500000X0.550000X-1.500000X-0.550000X1.500000X-0.550000X0*%
%ADD12R,0.304800X0.972299*%
%ADD13RoundRect,0.200000X-0.200000X-0.275000X0.200000X-0.275000X0.200000X0.275000X-0.200000X0.275000X0*%
%ADD14RoundRect,0.200000X0.275000X-0.200000X0.275000X0.200000X-0.275000X0.200000X-0.275000X-0.200000X0*%
%ADD15RoundRect,0.200000X0.200000X0.275000X-0.200000X0.275000X-0.200000X-0.275000X0.200000X-0.275000X0*%
%ADD16RoundRect,0.225000X-0.250000X0.225000X-0.250000X-0.225000X0.250000X-0.225000X0.250000X0.225000X0*%
%ADD17RoundRect,0.225000X0.225000X0.250000X-0.225000X0.250000X-0.225000X-0.250000X0.225000X-0.250000X0*%
%ADD18RoundRect,0.250000X0.625000X-0.375000X0.625000X0.375000X-0.625000X0.375000X-0.625000X-0.375000X0*%
%ADD19RoundRect,0.140000X-0.170000X0.140000X-0.170000X-0.140000X0.170000X-0.140000X0.170000X0.140000X0*%
%ADD20RoundRect,0.375000X0.625000X0.375000X-0.625000X0.375000X-0.625000X-0.375000X0.625000X-0.375000X0*%
%ADD21RoundRect,0.500000X0.500000X1.400000X-0.500000X1.400000X-0.500000X-1.400000X0.500000X-1.400000X0*%
%ADD22RoundRect,0.150000X-0.150000X0.512500X-0.150000X-0.512500X0.150000X-0.512500X0.150000X0.512500X0*%
%ADD23RoundRect,0.250000X-0.300000X0.300000X-0.300000X-0.300000X0.300000X-0.300000X0.300000X0.300000X0*%
%ADD24RoundRect,0.250000X-1.500000X-0.550000X1.500000X-0.550000X1.500000X0.550000X-1.500000X0.550000X0*%
%ADD25RoundRect,0.250000X-0.325000X-0.650000X0.325000X-0.650000X0.325000X0.650000X-0.325000X0.650000X0*%
%ADD26R,1.050000X0.399999*%
%ADD27R,0.200000X0.599999*%
%ADD28RoundRect,0.200000X-0.275000X0.200000X-0.275000X-0.200000X0.275000X-0.200000X0.275000X0.200000X0*%
%ADD29RoundRect,0.140000X-0.140000X-0.170000X0.140000X-0.170000X0.140000X0.170000X-0.140000X0.170000X0*%
%ADD30RoundRect,0.140000X0.170000X-0.140000X0.170000X0.140000X-0.170000X0.140000X-0.170000X-0.140000X0*%
%ADD31RoundRect,0.100000X-0.575000X0.100000X-0.575000X-0.100000X0.575000X-0.100000X0.575000X0.100000X0*%
%ADD32O,1.600000X0.900000*%
%ADD33RoundRect,0.250000X-0.450000X0.550000X-0.450000X-0.550000X0.450000X-0.550000X0.450000X0.550000X0*%
%ADD34RoundRect,0.250000X-0.700000X0.700000X-0.700000X-0.700000X0.700000X-0.700000X0.700000X0.700000X0*%
%ADD35RoundRect,0.225000X-0.225000X-0.250000X0.225000X-0.250000X0.225000X0.250000X-0.225000X0.250000X0*%
%ADD36RoundRect,0.075000X0.700000X0.075000X-0.700000X0.075000X-0.700000X-0.075000X0.700000X-0.075000X0*%
%ADD37RoundRect,0.075000X0.075000X0.700000X-0.075000X0.700000X-0.075000X-0.700000X0.075000X-0.700000X0*%
%ADD38RoundRect,0.095000X0.095000X-0.155000X0.095000X0.155000X-0.095000X0.155000X-0.095000X-0.155000X0*%
%ADD39RoundRect,0.075000X0.075000X-0.250000X0.075000X0.250000X-0.075000X0.250000X-0.075000X-0.250000X0*%
%ADD40R,1.400000X1.200000*%
%ADD41RoundRect,0.150000X0.150000X0.200000X-0.150000X0.200000X-0.150000X-0.200000X0.150000X-0.200000X0*%
%ADD42RoundRect,0.250000X-0.300000X-0.300000X0.300000X-0.300000X0.300000X0.300000X-0.300000X0.300000X0*%
%ADD43RoundRect,0.150000X0.150000X0.350000X-0.150000X0.350000X-0.150000X-0.350000X0.150000X-0.350000X0*%
%ADD44RoundRect,0.105000X0.245000X0.105000X-0.245000X0.105000X-0.245000X-0.105000X0.245000X-0.105000X0*%
%ADD45RoundRect,0.125000X0.125000X-0.125000X0.125000X0.125000X-0.125000X0.125000X-0.125000X-0.125000X0*%
%ADD46RoundRect,0.095000X0.155000X0.095000X-0.155000X0.095000X-0.155000X-0.095000X0.155000X-0.095000X0*%
%ADD47RoundRect,0.075000X0.250000X0.075000X-0.250000X0.075000X-0.250000X-0.075000X0.250000X-0.075000X0*%
G04 APERTURE END LIST*
D10*
%TO.C,C9*%
X149800000Y-105000000D03*
X149800000Y-103450000D03*
%TD*%
D11*
%TO.C,C21*%
X167800000Y-89400000D03*
X162200000Y-89400000D03*
%TD*%
D12*
%TO.C,U2*%
X150700378Y-106459749D03*
X150200252Y-106459749D03*
X149700126Y-106459749D03*
X149200000Y-106459749D03*
X148699874Y-106459749D03*
X148199748Y-106459749D03*
X147699622Y-106459749D03*
X147699622Y-109540251D03*
X148199748Y-109540251D03*
X148699874Y-109540251D03*
X149200000Y-109540251D03*
X149700126Y-109540251D03*
X150200252Y-109540251D03*
X150700378Y-109540251D03*
%TD*%
D13*
%TO.C,R4*%
X111975000Y-84800000D03*
X113625000Y-84800000D03*
%TD*%
D14*
%TO.C,R22*%
X191000000Y-108825000D03*
X191000000Y-107175000D03*
%TD*%
D15*
%TO.C,R20*%
X137400000Y-81800000D03*
X135750000Y-81800000D03*
%TD*%
D16*
%TO.C,C12*%
X168400000Y-100425000D03*
X168400000Y-101975000D03*
%TD*%
D17*
%TO.C,C19*%
X134150000Y-81800000D03*
X132600000Y-81800000D03*
%TD*%
D10*
%TO.C,C23*%
X189400000Y-108775000D03*
X189400000Y-107225000D03*
%TD*%
D18*
%TO.C,F2*%
X183600000Y-109600000D03*
X183600000Y-106800000D03*
%TD*%
D13*
%TO.C,R30*%
X112750000Y-92600000D03*
X114400000Y-92600000D03*
%TD*%
D19*
%TO.C,C7*%
X141200000Y-89120000D03*
X141200000Y-90080000D03*
%TD*%
D20*
%TO.C,U3*%
X166150000Y-105100000D03*
X166150000Y-102800000D03*
D21*
X159850000Y-102800000D03*
D20*
X166150000Y-100500000D03*
%TD*%
D17*
%TO.C,C10*%
X136150000Y-83400000D03*
X134600000Y-83400000D03*
%TD*%
D15*
%TO.C,R8*%
X109225000Y-95800000D03*
X107575000Y-95800000D03*
%TD*%
D22*
%TO.C,D9*%
X188350000Y-113062500D03*
X186450000Y-113062500D03*
X187400000Y-115337500D03*
%TD*%
D23*
%TO.C,D10*%
X186000000Y-105800000D03*
X186000000Y-108600000D03*
%TD*%
D15*
%TO.C,R14*%
X145825000Y-108400000D03*
X144175000Y-108400000D03*
%TD*%
D24*
%TO.C,C15*%
X191800000Y-94800000D03*
X197400000Y-94800000D03*
%TD*%
D25*
%TO.C,C11*%
X159925000Y-97800000D03*
X162875000Y-97800000D03*
%TD*%
D26*
%TO.C,U5*%
X190125000Y-111075002D03*
X190125000Y-111775001D03*
D27*
X190049999Y-112550000D03*
X190550000Y-112550000D03*
X191050000Y-112550000D03*
X191550001Y-112550000D03*
D26*
X191475000Y-111775001D03*
X191475000Y-111075002D03*
D27*
X191550001Y-110250002D03*
X191050000Y-110250002D03*
X190550000Y-110250002D03*
X190049999Y-110250002D03*
%TD*%
D28*
%TO.C,R27*%
X109000000Y-100375000D03*
X109000000Y-102025000D03*
%TD*%
D17*
%TO.C,C16*%
X138125000Y-85000000D03*
X136575000Y-85000000D03*
%TD*%
%TO.C,C20*%
X132175000Y-80200000D03*
X130625000Y-80200000D03*
%TD*%
D29*
%TO.C,C5*%
X135320000Y-94400000D03*
X136280000Y-94400000D03*
%TD*%
D30*
%TO.C,C6*%
X136000000Y-90080000D03*
X136000000Y-89120000D03*
%TD*%
D15*
%TO.C,R17*%
X186825000Y-96200000D03*
X185175000Y-96200000D03*
%TD*%
D13*
%TO.C,R13*%
X145775000Y-104800000D03*
X147425000Y-104800000D03*
%TD*%
D31*
%TO.C,J4*%
X104200000Y-93900000D03*
X104200000Y-94550000D03*
X104200000Y-95200000D03*
X104200000Y-95850000D03*
X104200000Y-96500000D03*
D32*
X101525000Y-91900000D03*
D33*
X103975000Y-92000000D03*
D34*
X101525000Y-94000000D03*
X101525000Y-96400000D03*
D33*
X103975000Y-98400000D03*
D32*
X101525000Y-98500000D03*
%TD*%
D15*
%TO.C,R19*%
X183755000Y-96200000D03*
X182105000Y-96200000D03*
%TD*%
D35*
%TO.C,C4*%
X138225000Y-95800000D03*
X139775000Y-95800000D03*
%TD*%
%TO.C,C3*%
X137825000Y-91800000D03*
X139375000Y-91800000D03*
%TD*%
D17*
%TO.C,C8*%
X145775000Y-110200000D03*
X144225000Y-110200000D03*
%TD*%
D29*
%TO.C,C2*%
X135320000Y-96000000D03*
X136280000Y-96000000D03*
%TD*%
D10*
%TO.C,C14*%
X179400000Y-100375000D03*
X179400000Y-98825000D03*
%TD*%
D14*
%TO.C,R26*%
X184800000Y-114825000D03*
X184800000Y-113175000D03*
%TD*%
D15*
%TO.C,R6*%
X138025000Y-105800000D03*
X136375000Y-105800000D03*
%TD*%
%TO.C,R18*%
X179225000Y-119000000D03*
X177575000Y-119000000D03*
%TD*%
D36*
%TO.C,U1*%
X133475000Y-97150000D03*
X133475000Y-96650000D03*
X133475000Y-96150000D03*
X133475000Y-95650000D03*
X133475000Y-95150000D03*
X133475000Y-94650000D03*
X133475000Y-94150000D03*
X133475000Y-93650000D03*
X133475000Y-93150000D03*
X133475000Y-92650000D03*
X133475000Y-92150000D03*
X133475000Y-91650000D03*
X133475000Y-91150000D03*
X133475000Y-90650000D03*
X133475000Y-90150000D03*
X133475000Y-89650000D03*
D37*
X131550000Y-87725000D03*
X131050000Y-87725000D03*
X130550000Y-87725000D03*
X130050000Y-87725000D03*
X129550000Y-87725000D03*
X129050000Y-87725000D03*
X128550000Y-87725000D03*
X128050000Y-87725000D03*
X127550000Y-87725000D03*
X127050000Y-87725000D03*
X126550000Y-87725000D03*
X126050000Y-87725000D03*
X125550000Y-87725000D03*
X125050000Y-87725000D03*
X124550000Y-87725000D03*
X124050000Y-87725000D03*
D36*
X122125000Y-89650000D03*
X122125000Y-90150000D03*
X122125000Y-90650000D03*
X122125000Y-91150000D03*
X122125000Y-91650000D03*
X122125000Y-92150000D03*
X122125000Y-92650000D03*
X122125000Y-93150000D03*
X122125000Y-93650000D03*
X122125000Y-94150000D03*
X122125000Y-94650000D03*
X122125000Y-95150000D03*
X122125000Y-95650000D03*
X122125000Y-96150000D03*
X122125000Y-96650000D03*
X122125000Y-97150000D03*
D37*
X124050000Y-99075000D03*
X124550000Y-99075000D03*
X125050000Y-99075000D03*
X125550000Y-99075000D03*
X126050000Y-99075000D03*
X126550000Y-99075000D03*
X127050000Y-99075000D03*
X127550000Y-99075000D03*
X128050000Y-99075000D03*
X128550000Y-99075000D03*
X129050000Y-99075000D03*
X129550000Y-99075000D03*
X130050000Y-99075000D03*
X130550000Y-99075000D03*
X131050000Y-99075000D03*
X131550000Y-99075000D03*
%TD*%
D38*
%TO.C,D5*%
X115260000Y-86650000D03*
D39*
X115800000Y-86730000D03*
D38*
X116340000Y-86650000D03*
X116340000Y-84950000D03*
X115260000Y-84950000D03*
%TD*%
D15*
%TO.C,R24*%
X192625000Y-116000000D03*
X190975000Y-116000000D03*
%TD*%
D25*
%TO.C,C13*%
X170525000Y-97800000D03*
X173475000Y-97800000D03*
%TD*%
D40*
%TO.C,Y1*%
X137500000Y-90050000D03*
X139700000Y-90050000D03*
X139700000Y-88350000D03*
X137500000Y-88350000D03*
%TD*%
D41*
%TO.C,D8*%
X186900000Y-110400000D03*
X188300000Y-110400000D03*
%TD*%
D24*
%TO.C,C17*%
X191800000Y-87400000D03*
X197400000Y-87400000D03*
%TD*%
D28*
%TO.C,R23*%
X193000000Y-107175000D03*
X193000000Y-108825000D03*
%TD*%
D18*
%TO.C,F1*%
X175800000Y-117200000D03*
X175800000Y-114400000D03*
%TD*%
D13*
%TO.C,R10*%
X152575000Y-109800000D03*
X154225000Y-109800000D03*
%TD*%
D28*
%TO.C,R11*%
X133200000Y-109575000D03*
X133200000Y-111225000D03*
%TD*%
D15*
%TO.C,R28*%
X141225000Y-105800000D03*
X139575000Y-105800000D03*
%TD*%
%TO.C,R15*%
X139400000Y-83400000D03*
X137750000Y-83400000D03*
%TD*%
%TO.C,R16*%
X141375000Y-85000000D03*
X139725000Y-85000000D03*
%TD*%
D20*
%TO.C,U4*%
X176950000Y-105100000D03*
X176950000Y-102800000D03*
D21*
X170650000Y-102800000D03*
D20*
X176950000Y-100500000D03*
%TD*%
D11*
%TO.C,C22*%
X167800000Y-79200000D03*
X162200000Y-79200000D03*
%TD*%
D15*
%TO.C,R5*%
X121625000Y-84800000D03*
X119975000Y-84800000D03*
%TD*%
%TO.C,R21*%
X135400000Y-80200000D03*
X133750000Y-80200000D03*
%TD*%
%TO.C,R7*%
X109225000Y-94000000D03*
X107575000Y-94000000D03*
%TD*%
D42*
%TO.C,D7*%
X173000000Y-119800000D03*
X175800000Y-119800000D03*
%TD*%
D15*
%TO.C,R25*%
X191625000Y-114400000D03*
X189975000Y-114400000D03*
%TD*%
D43*
%TO.C,Q1*%
X179080000Y-122330000D03*
X179080000Y-121200000D03*
X178370000Y-122330000D03*
X178370000Y-121200000D03*
D44*
X177600000Y-122740000D03*
X177600000Y-122090000D03*
X177600000Y-121440000D03*
X177600000Y-120790000D03*
X180600000Y-122740000D03*
X180600000Y-122090000D03*
X180600000Y-121440000D03*
X180600000Y-120790000D03*
%TD*%
D45*
%TO.C,D6*%
X182600000Y-122900000D03*
X182600000Y-120700000D03*
%TD*%
D29*
%TO.C,C1*%
X135320000Y-93200000D03*
X136280000Y-93200000D03*
%TD*%
D46*
%TO.C,D4*%
X134250000Y-107340000D03*
D47*
X134330000Y-106800000D03*
D46*
X134250000Y-106260000D03*
X132550000Y-106260000D03*
X132550000Y-107340000D03*
%TD*%
D13*
%TO.C,R29*%
X118175000Y-92600000D03*
X119825000Y-92600000D03*
%TD*%
D28*
%TO.C,R9*%
X166800000Y-109375000D03*
X166800000Y-111025000D03*
%TD*%
D13*
%TO.C,R12*%
X145775000Y-103200000D03*
X147425000Y-103200000D03*
%TD*%
M02*
