%TF.GenerationSoftware,KiCad,Pcbnew,9.0.0*%
%TF.CreationDate,2025-05-15T11:56:11+12:00*%
%TF.ProjectId,Servo_Board,53657276-6f5f-4426-9f61-72642e6b6963,A*%
%TF.SameCoordinates,Original*%
%TF.FileFunction,Copper,L1,Top*%
%TF.FilePolarity,Positive*%
%FSLAX46Y46*%
G04 Gerber Fmt 4.6, Leading zero omitted, Abs format (unit mm)*
G04 Created by KiCad (PCBNEW 9.0.0) date 2025-05-15 11:56:11*
%MOMM*%
%LPD*%
G01*
G04 APERTURE LIST*
G04 Aperture macros list*
%AMRoundRect*
0 Rectangle with rounded corners*
0 $1 Rounding radius*
0 $2 $3 $4 $5 $6 $7 $8 $9 X,Y pos of 4 corners*
0 Add a 4 corners polygon primitive as box body*
4,1,4,$2,$3,$4,$5,$6,$7,$8,$9,$2,$3,0*
0 Add four circle primitives for the rounded corners*
1,1,$1+$1,$2,$3*
1,1,$1+$1,$4,$5*
1,1,$1+$1,$6,$7*
1,1,$1+$1,$8,$9*
0 Add four rect primitives between the rounded corners*
20,1,$1+$1,$2,$3,$4,$5,0*
20,1,$1+$1,$4,$5,$6,$7,0*
20,1,$1+$1,$6,$7,$8,$9,0*
20,1,$1+$1,$8,$9,$2,$3,0*%
%AMFreePoly0*
4,1,23,0.550000,-0.750000,0.000000,-0.750000,0.000000,-0.745722,-0.065263,-0.745722,-0.191342,-0.711940,-0.304381,-0.646677,-0.396677,-0.554381,-0.461940,-0.441342,-0.495722,-0.315263,-0.495722,-0.250000,-0.500000,-0.250000,-0.500000,0.250000,-0.495722,0.250000,-0.495722,0.315263,-0.461940,0.441342,-0.396677,0.554381,-0.304381,0.646677,-0.191342,0.711940,-0.065263,0.745722,0.000000,0.745722,
0.000000,0.750000,0.550000,0.750000,0.550000,-0.750000,0.550000,-0.750000,$1*%
%AMFreePoly1*
4,1,23,0.000000,0.745722,0.065263,0.745722,0.191342,0.711940,0.304381,0.646677,0.396677,0.554381,0.461940,0.441342,0.495722,0.315263,0.495722,0.250000,0.500000,0.250000,0.500000,-0.250000,0.495722,-0.250000,0.495722,-0.315263,0.461940,-0.441342,0.396677,-0.554381,0.304381,-0.646677,0.191342,-0.711940,0.065263,-0.745722,0.000000,-0.745722,0.000000,-0.750000,-0.550000,-0.750000,
-0.550000,0.750000,0.000000,0.750000,0.000000,0.745722,0.000000,0.745722,$1*%
%AMFreePoly2*
4,1,17,1.395000,0.765000,0.855000,0.765000,0.855000,0.535000,1.395000,0.535000,1.395000,0.115000,0.855000,0.115000,0.855000,-0.115000,1.395000,-0.115000,1.395000,-0.535000,0.855000,-0.535000,0.855000,-0.765000,1.395000,-0.765000,1.395000,-1.185000,-0.855000,-1.185000,-0.855000,1.185000,1.395000,1.185000,1.395000,0.765000,1.395000,0.765000,$1*%
G04 Aperture macros list end*
%TA.AperFunction,EtchedComponent*%
%ADD10C,0.000000*%
%TD*%
%TA.AperFunction,SMDPad,CuDef*%
%ADD11C,1.000000*%
%TD*%
%TA.AperFunction,ComponentPad*%
%ADD12C,2.600000*%
%TD*%
%TA.AperFunction,SMDPad,CuDef*%
%ADD13RoundRect,0.225000X0.250000X-0.225000X0.250000X0.225000X-0.250000X0.225000X-0.250000X-0.225000X0*%
%TD*%
%TA.AperFunction,SMDPad,CuDef*%
%ADD14RoundRect,0.250000X1.500000X0.550000X-1.500000X0.550000X-1.500000X-0.550000X1.500000X-0.550000X0*%
%TD*%
%TA.AperFunction,SMDPad,CuDef*%
%ADD15R,0.304800X0.972299*%
%TD*%
%TA.AperFunction,SMDPad,CuDef*%
%ADD16RoundRect,0.200000X-0.200000X-0.275000X0.200000X-0.275000X0.200000X0.275000X-0.200000X0.275000X0*%
%TD*%
%TA.AperFunction,SMDPad,CuDef*%
%ADD17RoundRect,0.200000X0.275000X-0.200000X0.275000X0.200000X-0.275000X0.200000X-0.275000X-0.200000X0*%
%TD*%
%TA.AperFunction,ComponentPad*%
%ADD18C,3.600000*%
%TD*%
%TA.AperFunction,ConnectorPad*%
%ADD19C,5.600000*%
%TD*%
%TA.AperFunction,ComponentPad*%
%ADD20RoundRect,0.250000X0.350000X0.625000X-0.350000X0.625000X-0.350000X-0.625000X0.350000X-0.625000X0*%
%TD*%
%TA.AperFunction,ComponentPad*%
%ADD21O,1.200000X1.750000*%
%TD*%
%TA.AperFunction,SMDPad,CuDef*%
%ADD22RoundRect,0.200000X0.200000X0.275000X-0.200000X0.275000X-0.200000X-0.275000X0.200000X-0.275000X0*%
%TD*%
%TA.AperFunction,SMDPad,CuDef*%
%ADD23FreePoly0,0.000000*%
%TD*%
%TA.AperFunction,SMDPad,CuDef*%
%ADD24R,1.000000X1.500000*%
%TD*%
%TA.AperFunction,SMDPad,CuDef*%
%ADD25FreePoly1,0.000000*%
%TD*%
%TA.AperFunction,ComponentPad*%
%ADD26RoundRect,0.250000X-0.350000X-0.625000X0.350000X-0.625000X0.350000X0.625000X-0.350000X0.625000X0*%
%TD*%
%TA.AperFunction,SMDPad,CuDef*%
%ADD27RoundRect,0.225000X-0.250000X0.225000X-0.250000X-0.225000X0.250000X-0.225000X0.250000X0.225000X0*%
%TD*%
%TA.AperFunction,SMDPad,CuDef*%
%ADD28RoundRect,0.225000X0.225000X0.250000X-0.225000X0.250000X-0.225000X-0.250000X0.225000X-0.250000X0*%
%TD*%
%TA.AperFunction,SMDPad,CuDef*%
%ADD29RoundRect,0.250000X0.625000X-0.375000X0.625000X0.375000X-0.625000X0.375000X-0.625000X-0.375000X0*%
%TD*%
%TA.AperFunction,ComponentPad*%
%ADD30R,1.700000X1.700000*%
%TD*%
%TA.AperFunction,ComponentPad*%
%ADD31O,1.700000X1.700000*%
%TD*%
%TA.AperFunction,SMDPad,CuDef*%
%ADD32RoundRect,0.140000X-0.170000X0.140000X-0.170000X-0.140000X0.170000X-0.140000X0.170000X0.140000X0*%
%TD*%
%TA.AperFunction,SMDPad,CuDef*%
%ADD33RoundRect,0.375000X0.625000X0.375000X-0.625000X0.375000X-0.625000X-0.375000X0.625000X-0.375000X0*%
%TD*%
%TA.AperFunction,SMDPad,CuDef*%
%ADD34RoundRect,0.500000X0.500000X1.400000X-0.500000X1.400000X-0.500000X-1.400000X0.500000X-1.400000X0*%
%TD*%
%TA.AperFunction,SMDPad,CuDef*%
%ADD35RoundRect,0.150000X-0.150000X0.512500X-0.150000X-0.512500X0.150000X-0.512500X0.150000X0.512500X0*%
%TD*%
%TA.AperFunction,SMDPad,CuDef*%
%ADD36RoundRect,0.250000X-0.300000X0.300000X-0.300000X-0.300000X0.300000X-0.300000X0.300000X0.300000X0*%
%TD*%
%TA.AperFunction,SMDPad,CuDef*%
%ADD37RoundRect,0.250000X-1.500000X-0.550000X1.500000X-0.550000X1.500000X0.550000X-1.500000X0.550000X0*%
%TD*%
%TA.AperFunction,SMDPad,CuDef*%
%ADD38RoundRect,0.250000X-0.325000X-0.650000X0.325000X-0.650000X0.325000X0.650000X-0.325000X0.650000X0*%
%TD*%
%TA.AperFunction,SMDPad,CuDef*%
%ADD39R,1.050000X0.399999*%
%TD*%
%TA.AperFunction,SMDPad,CuDef*%
%ADD40R,0.200000X0.599999*%
%TD*%
%TA.AperFunction,SMDPad,CuDef*%
%ADD41RoundRect,0.200000X-0.275000X0.200000X-0.275000X-0.200000X0.275000X-0.200000X0.275000X0.200000X0*%
%TD*%
%TA.AperFunction,SMDPad,CuDef*%
%ADD42RoundRect,0.140000X-0.140000X-0.170000X0.140000X-0.170000X0.140000X0.170000X-0.140000X0.170000X0*%
%TD*%
%TA.AperFunction,SMDPad,CuDef*%
%ADD43RoundRect,0.140000X0.170000X-0.140000X0.170000X0.140000X-0.170000X0.140000X-0.170000X-0.140000X0*%
%TD*%
%TA.AperFunction,SMDPad,CuDef*%
%ADD44RoundRect,0.100000X-0.575000X0.100000X-0.575000X-0.100000X0.575000X-0.100000X0.575000X0.100000X0*%
%TD*%
%TA.AperFunction,HeatsinkPad*%
%ADD45O,1.600000X0.900000*%
%TD*%
%TA.AperFunction,SMDPad,CuDef*%
%ADD46RoundRect,0.250000X-0.450000X0.550000X-0.450000X-0.550000X0.450000X-0.550000X0.450000X0.550000X0*%
%TD*%
%TA.AperFunction,SMDPad,CuDef*%
%ADD47RoundRect,0.250000X-0.700000X0.700000X-0.700000X-0.700000X0.700000X-0.700000X0.700000X0.700000X0*%
%TD*%
%TA.AperFunction,SMDPad,CuDef*%
%ADD48RoundRect,0.225000X-0.225000X-0.250000X0.225000X-0.250000X0.225000X0.250000X-0.225000X0.250000X0*%
%TD*%
%TA.AperFunction,SMDPad,CuDef*%
%ADD49FreePoly0,180.000000*%
%TD*%
%TA.AperFunction,SMDPad,CuDef*%
%ADD50FreePoly1,180.000000*%
%TD*%
%TA.AperFunction,SMDPad,CuDef*%
%ADD51RoundRect,0.075000X0.700000X0.075000X-0.700000X0.075000X-0.700000X-0.075000X0.700000X-0.075000X0*%
%TD*%
%TA.AperFunction,SMDPad,CuDef*%
%ADD52RoundRect,0.075000X0.075000X0.700000X-0.075000X0.700000X-0.075000X-0.700000X0.075000X-0.700000X0*%
%TD*%
%TA.AperFunction,SMDPad,CuDef*%
%ADD53RoundRect,0.095000X0.095000X-0.155000X0.095000X0.155000X-0.095000X0.155000X-0.095000X-0.155000X0*%
%TD*%
%TA.AperFunction,SMDPad,CuDef*%
%ADD54RoundRect,0.075000X0.075000X-0.250000X0.075000X0.250000X-0.075000X0.250000X-0.075000X-0.250000X0*%
%TD*%
%TA.AperFunction,SMDPad,CuDef*%
%ADD55R,1.400000X1.200000*%
%TD*%
%TA.AperFunction,SMDPad,CuDef*%
%ADD56RoundRect,0.150000X0.150000X0.200000X-0.150000X0.200000X-0.150000X-0.200000X0.150000X-0.200000X0*%
%TD*%
%TA.AperFunction,SMDPad,CuDef*%
%ADD57RoundRect,0.250000X-0.300000X-0.300000X0.300000X-0.300000X0.300000X0.300000X-0.300000X0.300000X0*%
%TD*%
%TA.AperFunction,SMDPad,CuDef*%
%ADD58RoundRect,0.105000X0.245000X0.105000X-0.245000X0.105000X-0.245000X-0.105000X0.245000X-0.105000X0*%
%TD*%
%TA.AperFunction,SMDPad,CuDef*%
%ADD59FreePoly2,180.000000*%
%TD*%
%TA.AperFunction,SMDPad,CuDef*%
%ADD60RoundRect,0.125000X0.125000X-0.125000X0.125000X0.125000X-0.125000X0.125000X-0.125000X-0.125000X0*%
%TD*%
%TA.AperFunction,SMDPad,CuDef*%
%ADD61RoundRect,0.095000X0.155000X0.095000X-0.155000X0.095000X-0.155000X-0.095000X0.155000X-0.095000X0*%
%TD*%
%TA.AperFunction,SMDPad,CuDef*%
%ADD62RoundRect,0.075000X0.250000X0.075000X-0.250000X0.075000X-0.250000X-0.075000X0.250000X-0.075000X0*%
%TD*%
%TA.AperFunction,ComponentPad*%
%ADD63RoundRect,0.250001X0.499999X0.499999X-0.499999X0.499999X-0.499999X-0.499999X0.499999X-0.499999X0*%
%TD*%
%TA.AperFunction,ComponentPad*%
%ADD64C,1.500000*%
%TD*%
%TA.AperFunction,ComponentPad*%
%ADD65RoundRect,0.250001X0.759999X-0.499999X0.759999X0.499999X-0.759999X0.499999X-0.759999X-0.499999X0*%
%TD*%
%TA.AperFunction,ComponentPad*%
%ADD66O,2.020000X1.500000*%
%TD*%
%TA.AperFunction,ComponentPad*%
%ADD67C,4.000000*%
%TD*%
%TA.AperFunction,ComponentPad*%
%ADD68R,1.600000X1.600000*%
%TD*%
%TA.AperFunction,ComponentPad*%
%ADD69C,1.600000*%
%TD*%
%TA.AperFunction,ComponentPad*%
%ADD70RoundRect,0.250001X-0.759999X0.499999X-0.759999X-0.499999X0.759999X-0.499999X0.759999X0.499999X0*%
%TD*%
%TA.AperFunction,ViaPad*%
%ADD71C,0.450000*%
%TD*%
%TA.AperFunction,ViaPad*%
%ADD72C,0.600000*%
%TD*%
%TA.AperFunction,ViaPad*%
%ADD73C,1.000000*%
%TD*%
%TA.AperFunction,Conductor*%
%ADD74C,0.200000*%
%TD*%
%TA.AperFunction,Conductor*%
%ADD75C,1.000000*%
%TD*%
%TA.AperFunction,Conductor*%
%ADD76C,0.100000*%
%TD*%
%TA.AperFunction,Conductor*%
%ADD77C,0.300000*%
%TD*%
%TA.AperFunction,Conductor*%
%ADD78C,0.750000*%
%TD*%
%TA.AperFunction,Conductor*%
%ADD79C,0.500000*%
%TD*%
%TA.AperFunction,Conductor*%
%ADD80C,2.000000*%
%TD*%
G04 APERTURE END LIST*
D10*
%TA.AperFunction,EtchedComponent*%
%TO.C,JP2*%
G36*
X146800000Y-113100000D02*
G01*
X146300000Y-113100000D01*
X146300000Y-112500000D01*
X146800000Y-112500000D01*
X146800000Y-113100000D01*
G37*
%TD.AperFunction*%
%TA.AperFunction,EtchedComponent*%
%TO.C,JP1*%
G36*
X153600000Y-113100000D02*
G01*
X153100000Y-113100000D01*
X153100000Y-112500000D01*
X153600000Y-112500000D01*
X153600000Y-113100000D01*
G37*
%TD.AperFunction*%
%TD*%
D11*
%TO.P,TP17,1,1*%
%TO.N,+5V*%
X176200000Y-107600000D03*
%TD*%
D12*
%TO.P,TP20,1,1*%
%TO.N,GND*%
X155000000Y-81000000D03*
X157540000Y-81000000D03*
%TD*%
%TO.P,TP19,1,1*%
%TO.N,GND*%
X110130000Y-116000000D03*
X112670000Y-116000000D03*
%TD*%
D11*
%TO.P,TP18,1,1*%
%TO.N,+3V3*%
X157200000Y-102800000D03*
%TD*%
%TO.P,TP16,1,1*%
%TO.N,+7V4*%
X188600000Y-98600000D03*
%TD*%
%TO.P,TP4,1,1*%
%TO.N,/PWR_SOURCE*%
X188200000Y-103000000D03*
%TD*%
%TO.P,TP3,1,1*%
%TO.N,/2S+ A10*%
X165200000Y-95200000D03*
%TD*%
%TO.P,TP2,1,1*%
%TO.N,/CAN1_TX*%
X142800000Y-100400000D03*
%TD*%
%TO.P,TP1,1,1*%
%TO.N,/CAN1_RX*%
X148400000Y-98400000D03*
%TD*%
D13*
%TO.P,C9,1*%
%TO.N,+5V*%
X149800000Y-105000000D03*
%TO.P,C9,2*%
%TO.N,GND*%
X149800000Y-103450000D03*
%TD*%
D14*
%TO.P,C21,1*%
%TO.N,+7V4*%
X167800000Y-89400000D03*
%TO.P,C21,2*%
%TO.N,GND*%
X162200000Y-89400000D03*
%TD*%
D15*
%TO.P,U2,1,TXD1*%
%TO.N,/CAN1_RX*%
X150700378Y-106459749D03*
%TO.P,U2,2,GND*%
%TO.N,GND*%
X150200252Y-106459749D03*
%TO.P,U2,3,VCC*%
%TO.N,+5V*%
X149700126Y-106459749D03*
%TO.P,U2,4,RXD1*%
%TO.N,/CAN1_TX*%
X149200000Y-106459749D03*
%TO.P,U2,5,GND*%
%TO.N,GND*%
X148699874Y-106459749D03*
%TO.P,U2,6,TXD2*%
%TO.N,Net-(U2-TXD2)*%
X148199748Y-106459749D03*
%TO.P,U2,7,RXD2*%
%TO.N,Net-(U2-RXD2)*%
X147699622Y-106459749D03*
%TO.P,U2,8,STB2*%
%TO.N,Net-(U2-STB2)*%
X147699622Y-109540251D03*
%TO.P,U2,9,CANL2*%
%TO.N,unconnected-(U2-CANL2-Pad9)*%
X148199748Y-109540251D03*
%TO.P,U2,10,CANH2*%
%TO.N,unconnected-(U2-CANH2-Pad10)*%
X148699874Y-109540251D03*
%TO.P,U2,11,VIO*%
%TO.N,+3V3*%
X149200000Y-109540251D03*
%TO.P,U2,12,CANL1*%
%TO.N,/CANL*%
X149700126Y-109540251D03*
%TO.P,U2,13,CANH1*%
%TO.N,/CANH*%
X150200252Y-109540251D03*
%TO.P,U2,14,STB1*%
%TO.N,Net-(U2-STB1)*%
X150700378Y-109540251D03*
%TD*%
D16*
%TO.P,R4,1*%
%TO.N,+3V3*%
X111975000Y-84800000D03*
%TO.P,R4,2*%
%TO.N,/I2C3_SCL*%
X113625000Y-84800000D03*
%TD*%
D17*
%TO.P,R22,1*%
%TO.N,Net-(U5-ILM)*%
X191000000Y-108825000D03*
%TO.P,R22,2*%
%TO.N,Net-(D8-A)*%
X191000000Y-107175000D03*
%TD*%
D18*
%TO.P,H4,1,1*%
%TO.N,GND*%
X195000000Y-120000000D03*
D19*
X195000000Y-120000000D03*
%TD*%
D20*
%TO.P,J1,1,Pin_1*%
%TO.N,/SWCLK*%
X118400000Y-100400000D03*
D21*
%TO.P,J1,2,Pin_2*%
%TO.N,GND*%
X116400000Y-100400000D03*
%TO.P,J1,3,Pin_3*%
%TO.N,/SWDIO*%
X114400000Y-100400000D03*
%TO.P,J1,4,Pin_4*%
%TO.N,/NRST*%
X112400000Y-100400000D03*
%TD*%
D22*
%TO.P,R20,1*%
%TO.N,Net-(J16-Pin_4)*%
X137400000Y-81800000D03*
%TO.P,R20,2*%
%TO.N,/POT_C A2*%
X135750000Y-81800000D03*
%TD*%
D23*
%TO.P,JP2,1,A*%
%TO.N,/CANL1*%
X145900000Y-112800000D03*
D24*
%TO.P,JP2,2,C*%
%TO.N,/CANL*%
X147200000Y-112800000D03*
D25*
%TO.P,JP2,3,B*%
%TO.N,/CANL2*%
X148500000Y-112800000D03*
%TD*%
D26*
%TO.P,J18,1,Pin_1*%
%TO.N,GND*%
X112600000Y-77200000D03*
D21*
%TO.P,J18,2,Pin_2*%
%TO.N,/PWM_EXT*%
X114600000Y-77200000D03*
%TO.P,J18,3,Pin_3*%
%TO.N,/A11*%
X116600000Y-77200000D03*
%TO.P,J18,4,Pin_4*%
%TO.N,+3V3*%
X118600000Y-77200000D03*
%TO.P,J18,5,Pin_5*%
%TO.N,/A9*%
X120600000Y-77200000D03*
%TO.P,J18,6,Pin_6*%
%TO.N,/A8*%
X122600000Y-77200000D03*
%TO.P,J18,7,Pin_7*%
%TO.N,GND*%
X124600000Y-77200000D03*
%TD*%
D27*
%TO.P,C12,1*%
%TO.N,+5V*%
X168400000Y-100425000D03*
%TO.P,C12,2*%
%TO.N,GND*%
X168400000Y-101975000D03*
%TD*%
D28*
%TO.P,C19,1*%
%TO.N,/POT_C A2*%
X134150000Y-81800000D03*
%TO.P,C19,2*%
%TO.N,GND*%
X132600000Y-81800000D03*
%TD*%
D13*
%TO.P,C23,1*%
%TO.N,Net-(U5-SS)*%
X189400000Y-108775000D03*
%TO.P,C23,2*%
%TO.N,Net-(D8-A)*%
X189400000Y-107225000D03*
%TD*%
D29*
%TO.P,F2,1*%
%TO.N,Net-(D10-A2)*%
X183600000Y-109600000D03*
%TO.P,F2,2*%
%TO.N,Net-(J19-Pin_1)*%
X183600000Y-106800000D03*
%TD*%
D16*
%TO.P,R30,1*%
%TO.N,+3V3*%
X112750000Y-92600000D03*
%TO.P,R30,2*%
%TO.N,/I2C1_SDA*%
X114400000Y-92600000D03*
%TD*%
D30*
%TO.P,J10,1,Pin_1*%
%TO.N,/CANL2*%
X127800000Y-110200000D03*
D31*
%TO.P,J10,2,Pin_2*%
%TO.N,Net-(J10-Pin_2)*%
X130340000Y-110200000D03*
%TD*%
D32*
%TO.P,C7,1*%
%TO.N,Net-(U1-PF1)*%
X141200000Y-89120000D03*
%TO.P,C7,2*%
%TO.N,GND*%
X141200000Y-90080000D03*
%TD*%
D33*
%TO.P,U3,1,GND*%
%TO.N,GND*%
X166150000Y-105100000D03*
%TO.P,U3,2,VO*%
%TO.N,+3V3*%
X166150000Y-102800000D03*
D34*
X159850000Y-102800000D03*
D33*
%TO.P,U3,3,VI*%
%TO.N,+5V*%
X166150000Y-100500000D03*
%TD*%
D28*
%TO.P,C10,1*%
%TO.N,/POT_B A1*%
X136150000Y-83400000D03*
%TO.P,C10,2*%
%TO.N,GND*%
X134600000Y-83400000D03*
%TD*%
D26*
%TO.P,J8,1,Pin_1*%
%TO.N,GND*%
X140600000Y-77250000D03*
D21*
%TO.P,J8,2,Pin_2*%
%TO.N,/SPI_MOSI*%
X142600000Y-77250000D03*
%TO.P,J8,3,Pin_3*%
%TO.N,/SPI_MISO*%
X144600000Y-77250000D03*
%TO.P,J8,4,Pin_4*%
%TO.N,/SPI_SCK*%
X146600000Y-77250000D03*
%TO.P,J8,5,Pin_5*%
%TO.N,/SPI_CS*%
X148600000Y-77250000D03*
%TO.P,J8,6,Pin_6*%
%TO.N,+3V3*%
X150600000Y-77250000D03*
%TD*%
D18*
%TO.P,H3,1,1*%
%TO.N,GND*%
X105000000Y-120000000D03*
D19*
X105000000Y-120000000D03*
%TD*%
D22*
%TO.P,R8,1*%
%TO.N,Net-(U1-PA10{slash}PA12)*%
X109225000Y-95800000D03*
%TO.P,R8,2*%
%TO.N,/USB_D+*%
X107575000Y-95800000D03*
%TD*%
D35*
%TO.P,D9,1,K*%
%TO.N,Net-(D9-K)*%
X188350000Y-113062500D03*
%TO.P,D9,2,A*%
%TO.N,Net-(D8-A)*%
X186450000Y-113062500D03*
%TO.P,D9,3*%
%TO.N,N/C*%
X187400000Y-115337500D03*
%TD*%
D36*
%TO.P,D10,1,A1*%
%TO.N,GND*%
X186000000Y-105800000D03*
%TO.P,D10,2,A2*%
%TO.N,Net-(D10-A2)*%
X186000000Y-108600000D03*
%TD*%
D22*
%TO.P,R14,1*%
%TO.N,Net-(U2-STB2)*%
X145825000Y-108400000D03*
%TO.P,R14,2*%
%TO.N,+3V3*%
X144175000Y-108400000D03*
%TD*%
D37*
%TO.P,C15,1*%
%TO.N,+7V4*%
X191800000Y-94800000D03*
%TO.P,C15,2*%
%TO.N,GND*%
X197400000Y-94800000D03*
%TD*%
D38*
%TO.P,C11,1*%
%TO.N,+3V3*%
X159925000Y-97800000D03*
%TO.P,C11,2*%
%TO.N,GND*%
X162875000Y-97800000D03*
%TD*%
D39*
%TO.P,U5,1,OUT*%
%TO.N,Net-(SW1-Pin_2)*%
X190125000Y-111075002D03*
%TO.P,U5,2,IN2*%
%TO.N,Net-(D10-A2)*%
X190125000Y-111775001D03*
D40*
%TO.P,U5,3,CP2*%
%TO.N,Net-(D9-K)*%
X190049999Y-112550000D03*
%TO.P,U5,4,OV2*%
%TO.N,Net-(D8-A)*%
X190550000Y-112550000D03*
%TO.P,U5,5,OV1*%
X191050000Y-112550000D03*
%TO.P,U5,6,PR1*%
%TO.N,Net-(U5-PR1)*%
X191550001Y-112550000D03*
D39*
%TO.P,U5,7,IN1*%
%TO.N,Net-(D6-K)*%
X191475000Y-111775001D03*
%TO.P,U5,8,OUT*%
%TO.N,Net-(SW1-Pin_2)*%
X191475000Y-111075002D03*
D40*
%TO.P,U5,9,ST*%
%TO.N,/PWR_SOURCE*%
X191550001Y-110250002D03*
%TO.P,U5,10,ILM*%
%TO.N,Net-(U5-ILM)*%
X191050000Y-110250002D03*
%TO.P,U5,11,SS*%
%TO.N,Net-(U5-SS)*%
X190550000Y-110250002D03*
%TO.P,U5,12,GND*%
%TO.N,Net-(D8-A)*%
X190049999Y-110250002D03*
%TD*%
D30*
%TO.P,J9,1,Pin_1*%
%TO.N,/CANH1*%
X172075000Y-110200000D03*
D31*
%TO.P,J9,2,Pin_2*%
%TO.N,Net-(J9-Pin_2)*%
X169535000Y-110200000D03*
%TD*%
D41*
%TO.P,R27,1*%
%TO.N,/NRST*%
X109000000Y-100375000D03*
%TO.P,R27,2*%
%TO.N,+3V3*%
X109000000Y-102025000D03*
%TD*%
D18*
%TO.P,H2,1,1*%
%TO.N,GND*%
X195000000Y-80000000D03*
D19*
X195000000Y-80000000D03*
%TD*%
D28*
%TO.P,C16,1*%
%TO.N,/POT_A A0*%
X138125000Y-85000000D03*
%TO.P,C16,2*%
%TO.N,GND*%
X136575000Y-85000000D03*
%TD*%
%TO.P,C20,1*%
%TO.N,/POT_D A3*%
X132175000Y-80200000D03*
%TO.P,C20,2*%
%TO.N,GND*%
X130625000Y-80200000D03*
%TD*%
D20*
%TO.P,J2,1,Pin_1*%
%TO.N,/UART2_RX*%
X129400000Y-105200000D03*
D21*
%TO.P,J2,2,Pin_2*%
%TO.N,GND*%
X127400000Y-105200000D03*
%TO.P,J2,3,Pin_3*%
%TO.N,/UART2_TX*%
X125400000Y-105200000D03*
%TD*%
D42*
%TO.P,C5,1*%
%TO.N,+3V3*%
X135320000Y-94400000D03*
%TO.P,C5,2*%
%TO.N,GND*%
X136280000Y-94400000D03*
%TD*%
D43*
%TO.P,C6,1*%
%TO.N,Net-(U1-PF0)*%
X136000000Y-90080000D03*
%TO.P,C6,2*%
%TO.N,GND*%
X136000000Y-89120000D03*
%TD*%
D22*
%TO.P,R17,1*%
%TO.N,+7V4*%
X186825000Y-96200000D03*
%TO.P,R17,2*%
%TO.N,/2S+ A10*%
X185175000Y-96200000D03*
%TD*%
D16*
%TO.P,R13,1*%
%TO.N,+3V3*%
X145775000Y-104800000D03*
%TO.P,R13,2*%
%TO.N,Net-(U2-RXD2)*%
X147425000Y-104800000D03*
%TD*%
D44*
%TO.P,J4,1,VBUS*%
%TO.N,unconnected-(J4-VBUS-Pad1)*%
X104200000Y-93900000D03*
%TO.P,J4,2,D-*%
%TO.N,/USB_D-*%
X104200000Y-94550000D03*
%TO.P,J4,3,D+*%
%TO.N,/USB_D+*%
X104200000Y-95200000D03*
%TO.P,J4,4,ID*%
%TO.N,unconnected-(J4-ID-Pad4)*%
X104200000Y-95850000D03*
%TO.P,J4,5,GND*%
%TO.N,GND*%
X104200000Y-96500000D03*
D45*
%TO.P,J4,6,Shield*%
%TO.N,unconnected-(J4-Shield-Pad6)*%
X101525000Y-91900000D03*
D46*
%TO.N,unconnected-(J4-Shield-Pad6)_3*%
X103975000Y-92000000D03*
D47*
%TO.N,unconnected-(J4-Shield-Pad6)_5*%
X101525000Y-94000000D03*
%TO.N,unconnected-(J4-Shield-Pad6)_4*%
X101525000Y-96400000D03*
D46*
%TO.N,unconnected-(J4-Shield-Pad6)_2*%
X103975000Y-98400000D03*
D45*
%TO.N,unconnected-(J4-Shield-Pad6)_1*%
X101525000Y-98500000D03*
%TD*%
D22*
%TO.P,R19,1*%
%TO.N,/2S+ A10*%
X183755000Y-96200000D03*
%TO.P,R19,2*%
%TO.N,GND*%
X182105000Y-96200000D03*
%TD*%
D48*
%TO.P,C4,1*%
%TO.N,+3V3*%
X138225000Y-95800000D03*
%TO.P,C4,2*%
%TO.N,GND*%
X139775000Y-95800000D03*
%TD*%
D49*
%TO.P,JP1,1,A*%
%TO.N,/CANH1*%
X154000000Y-112800000D03*
D24*
%TO.P,JP1,2,C*%
%TO.N,/CANH*%
X152700000Y-112800000D03*
D50*
%TO.P,JP1,3,B*%
%TO.N,/CANH2*%
X151400000Y-112800000D03*
%TD*%
D48*
%TO.P,C3,1*%
%TO.N,+3V3*%
X137825000Y-91800000D03*
%TO.P,C3,2*%
%TO.N,GND*%
X139375000Y-91800000D03*
%TD*%
D28*
%TO.P,C8,1*%
%TO.N,+3V3*%
X145775000Y-110200000D03*
%TO.P,C8,2*%
%TO.N,GND*%
X144225000Y-110200000D03*
%TD*%
D42*
%TO.P,C2,1*%
%TO.N,+3V3*%
X135320000Y-96000000D03*
%TO.P,C2,2*%
%TO.N,GND*%
X136280000Y-96000000D03*
%TD*%
D13*
%TO.P,C14,1*%
%TO.N,+7V4*%
X179400000Y-100375000D03*
%TO.P,C14,2*%
%TO.N,GND*%
X179400000Y-98825000D03*
%TD*%
D17*
%TO.P,R26,1*%
%TO.N,+3V3*%
X184800000Y-114825000D03*
%TO.P,R26,2*%
%TO.N,Net-(D9-K)*%
X184800000Y-113175000D03*
%TD*%
D22*
%TO.P,R6,1*%
%TO.N,+3V3*%
X138025000Y-105800000D03*
%TO.P,R6,2*%
%TO.N,/I2C2_SCL*%
X136375000Y-105800000D03*
%TD*%
%TO.P,R18,1*%
%TO.N,Net-(D6-A)*%
X179225000Y-119000000D03*
%TO.P,R18,2*%
%TO.N,GND*%
X177575000Y-119000000D03*
%TD*%
D51*
%TO.P,U1,1,PC11*%
%TO.N,/PWR_SOURCE*%
X133475000Y-97150000D03*
%TO.P,U1,2,PC12*%
%TO.N,unconnected-(U1-PC12-Pad2)*%
X133475000Y-96650000D03*
%TO.P,U1,3,PC13*%
%TO.N,unconnected-(U1-PC13-Pad3)*%
X133475000Y-96150000D03*
%TO.P,U1,4,PC14*%
%TO.N,unconnected-(U1-PC14-Pad4)*%
X133475000Y-95650000D03*
%TO.P,U1,5,PC15*%
%TO.N,unconnected-(U1-PC15-Pad5)*%
X133475000Y-95150000D03*
%TO.P,U1,6,VBAT*%
%TO.N,+3V3*%
X133475000Y-94650000D03*
%TO.P,U1,7,VREF+*%
X133475000Y-94150000D03*
%TO.P,U1,8,VDD*%
X133475000Y-93650000D03*
%TO.P,U1,9,VSS*%
%TO.N,GND*%
X133475000Y-93150000D03*
%TO.P,U1,10,PF0*%
%TO.N,Net-(U1-PF0)*%
X133475000Y-92650000D03*
%TO.P,U1,11,PF1*%
%TO.N,Net-(U1-PF1)*%
X133475000Y-92150000D03*
%TO.P,U1,12,PF2*%
%TO.N,/NRST*%
X133475000Y-91650000D03*
%TO.P,U1,13,PC0*%
%TO.N,/I2C3_SCL*%
X133475000Y-91150000D03*
%TO.P,U1,14,PC1*%
%TO.N,/I2C3_SDA*%
X133475000Y-90650000D03*
%TO.P,U1,15,PC2*%
%TO.N,unconnected-(U1-PC2-Pad15)*%
X133475000Y-90150000D03*
%TO.P,U1,16,PC3*%
%TO.N,unconnected-(U1-PC3-Pad16)*%
X133475000Y-89650000D03*
D52*
%TO.P,U1,17,PA0*%
%TO.N,/POT_A A0*%
X131550000Y-87725000D03*
%TO.P,U1,18,PA1*%
%TO.N,/POT_B A1*%
X131050000Y-87725000D03*
%TO.P,U1,19,PA2*%
%TO.N,/POT_C A2*%
X130550000Y-87725000D03*
%TO.P,U1,20,PA3*%
%TO.N,/POT_D A3*%
X130050000Y-87725000D03*
%TO.P,U1,21,PA4*%
%TO.N,/SPI_CS*%
X129550000Y-87725000D03*
%TO.P,U1,22,PA5*%
%TO.N,/SPI_SCK*%
X129050000Y-87725000D03*
%TO.P,U1,23,PA6*%
%TO.N,/SPI_MISO*%
X128550000Y-87725000D03*
%TO.P,U1,24,PA7*%
%TO.N,/SPI_MOSI*%
X128050000Y-87725000D03*
%TO.P,U1,25,PC4*%
%TO.N,unconnected-(U1-PC4-Pad25)*%
X127550000Y-87725000D03*
%TO.P,U1,26,PC5*%
%TO.N,unconnected-(U1-PC5-Pad26)*%
X127050000Y-87725000D03*
%TO.P,U1,27,PB0*%
%TO.N,/A8*%
X126550000Y-87725000D03*
%TO.P,U1,28,PB1*%
%TO.N,/A9*%
X126050000Y-87725000D03*
%TO.P,U1,29,PB2*%
%TO.N,/2S+ A10*%
X125550000Y-87725000D03*
%TO.P,U1,30,PB10*%
%TO.N,/A11*%
X125050000Y-87725000D03*
%TO.P,U1,31,PB11*%
%TO.N,unconnected-(U1-PB11-Pad31)*%
X124550000Y-87725000D03*
%TO.P,U1,32,PB12*%
%TO.N,unconnected-(U1-PB12-Pad32)*%
X124050000Y-87725000D03*
D51*
%TO.P,U1,33,PB13*%
%TO.N,unconnected-(U1-PB13-Pad33)*%
X122125000Y-89650000D03*
%TO.P,U1,34,PB14*%
%TO.N,/PWM_D*%
X122125000Y-90150000D03*
%TO.P,U1,35,PB15*%
%TO.N,/PWM_EXT*%
X122125000Y-90650000D03*
%TO.P,U1,36,PA8*%
%TO.N,/PWM_C*%
X122125000Y-91150000D03*
%TO.P,U1,37,PA9/UCPD1_DBCC1*%
%TO.N,/I2C1_SCL*%
X122125000Y-91650000D03*
%TO.P,U1,38,PC6*%
%TO.N,/PWM_A*%
X122125000Y-92150000D03*
%TO.P,U1,39,PC7*%
%TO.N,/PWM_B*%
X122125000Y-92650000D03*
%TO.P,U1,40,PD8*%
%TO.N,unconnected-(U1-PD8-Pad40)*%
X122125000Y-93150000D03*
%TO.P,U1,41,PD9*%
%TO.N,unconnected-(U1-PD9-Pad41)*%
X122125000Y-93650000D03*
%TO.P,U1,42,PA10/UCPD1_DBCC2*%
%TO.N,/I2C1_SDA*%
X122125000Y-94150000D03*
%TO.P,U1,43,PA9/PA11*%
%TO.N,Net-(U1-PA9{slash}PA11)*%
X122125000Y-94650000D03*
%TO.P,U1,44,PA10/PA12*%
%TO.N,Net-(U1-PA10{slash}PA12)*%
X122125000Y-95150000D03*
%TO.P,U1,45,PA13*%
%TO.N,/SWDIO*%
X122125000Y-95650000D03*
%TO.P,U1,46,PA14*%
%TO.N,/SWCLK*%
X122125000Y-96150000D03*
%TO.P,U1,47,PA15*%
%TO.N,unconnected-(U1-PA15-Pad47)*%
X122125000Y-96650000D03*
%TO.P,U1,48,PC8*%
%TO.N,unconnected-(U1-PC8-Pad48)*%
X122125000Y-97150000D03*
D52*
%TO.P,U1,49,PC9*%
%TO.N,/LED2*%
X124050000Y-99075000D03*
%TO.P,U1,50,PD0*%
%TO.N,/LED1*%
X124550000Y-99075000D03*
%TO.P,U1,51,PD1*%
%TO.N,/E1*%
X125050000Y-99075000D03*
%TO.P,U1,52,PD2*%
%TO.N,/E2*%
X125550000Y-99075000D03*
%TO.P,U1,53,PD3*%
%TO.N,/E3*%
X126050000Y-99075000D03*
%TO.P,U1,54,PD4*%
%TO.N,/E4*%
X126550000Y-99075000D03*
%TO.P,U1,55,PD5*%
%TO.N,/UART2_TX*%
X127050000Y-99075000D03*
%TO.P,U1,56,PD6*%
%TO.N,/UART2_RX*%
X127550000Y-99075000D03*
%TO.P,U1,57,PB3*%
%TO.N,/I2C2_SCL*%
X128050000Y-99075000D03*
%TO.P,U1,58,PB4*%
%TO.N,/I2C2_SDA*%
X128550000Y-99075000D03*
%TO.P,U1,59,PB5*%
%TO.N,unconnected-(U1-PB5-Pad59)*%
X129050000Y-99075000D03*
%TO.P,U1,60,PB6*%
%TO.N,unconnected-(U1-PB6-Pad60)*%
X129550000Y-99075000D03*
%TO.P,U1,61,PB7*%
%TO.N,/CAN2_AUX*%
X130050000Y-99075000D03*
%TO.P,U1,62,PB8*%
%TO.N,/CAN1_RX*%
X130550000Y-99075000D03*
%TO.P,U1,63,PB9*%
%TO.N,/CAN1_TX*%
X131050000Y-99075000D03*
%TO.P,U1,64,PC10*%
%TO.N,/CAN1_AUX*%
X131550000Y-99075000D03*
%TD*%
D53*
%TO.P,D5,1,K1*%
%TO.N,/I2C1_SDA*%
X115260000Y-86650000D03*
D54*
%TO.P,D5,2,A*%
%TO.N,GND*%
X115800000Y-86730000D03*
D53*
%TO.P,D5,3,K2*%
%TO.N,/I2C1_SCL*%
X116340000Y-86650000D03*
%TO.P,D5,4,K3*%
%TO.N,/I2C3_SDA*%
X116340000Y-84950000D03*
%TO.P,D5,5,K4*%
%TO.N,/I2C3_SCL*%
X115260000Y-84950000D03*
%TD*%
D22*
%TO.P,R24,1*%
%TO.N,Net-(D6-K)*%
X192625000Y-116000000D03*
%TO.P,R24,2*%
%TO.N,Net-(U5-PR1)*%
X190975000Y-116000000D03*
%TD*%
D38*
%TO.P,C13,1*%
%TO.N,+5V*%
X170525000Y-97800000D03*
%TO.P,C13,2*%
%TO.N,GND*%
X173475000Y-97800000D03*
%TD*%
D55*
%TO.P,Y1,1,1*%
%TO.N,Net-(U1-PF0)*%
X137500000Y-90050000D03*
%TO.P,Y1,2*%
%TO.N,N/C*%
X139700000Y-90050000D03*
%TO.P,Y1,3,2*%
%TO.N,Net-(U1-PF1)*%
X139700000Y-88350000D03*
%TO.P,Y1,4*%
%TO.N,N/C*%
X137500000Y-88350000D03*
%TD*%
D56*
%TO.P,D8,1,K*%
%TO.N,GND*%
X186900000Y-110400000D03*
%TO.P,D8,2,A*%
%TO.N,Net-(D8-A)*%
X188300000Y-110400000D03*
%TD*%
D37*
%TO.P,C17,1*%
%TO.N,+7V4*%
X191800000Y-87400000D03*
%TO.P,C17,2*%
%TO.N,GND*%
X197400000Y-87400000D03*
%TD*%
D41*
%TO.P,R23,1*%
%TO.N,+3V3*%
X193000000Y-107175000D03*
%TO.P,R23,2*%
%TO.N,/PWR_SOURCE*%
X193000000Y-108825000D03*
%TD*%
D29*
%TO.P,F1,1*%
%TO.N,Net-(D7-A2)*%
X175800000Y-117200000D03*
%TO.P,F1,2*%
%TO.N,/+7V4_CAN*%
X175800000Y-114400000D03*
%TD*%
D16*
%TO.P,R10,1*%
%TO.N,Net-(U2-STB1)*%
X152575000Y-109800000D03*
%TO.P,R10,2*%
%TO.N,+3V3*%
X154225000Y-109800000D03*
%TD*%
D41*
%TO.P,R11,1*%
%TO.N,Net-(J10-Pin_2)*%
X133200000Y-109575000D03*
%TO.P,R11,2*%
%TO.N,/CANH2*%
X133200000Y-111225000D03*
%TD*%
D22*
%TO.P,R28,1*%
%TO.N,+3V3*%
X141225000Y-105800000D03*
%TO.P,R28,2*%
%TO.N,/I2C2_SDA*%
X139575000Y-105800000D03*
%TD*%
%TO.P,R15,1*%
%TO.N,Net-(J14-Pin_4)*%
X139400000Y-83400000D03*
%TO.P,R15,2*%
%TO.N,/POT_B A1*%
X137750000Y-83400000D03*
%TD*%
%TO.P,R16,1*%
%TO.N,Net-(J15-Pin_4)*%
X141375000Y-85000000D03*
%TO.P,R16,2*%
%TO.N,/POT_A A0*%
X139725000Y-85000000D03*
%TD*%
D33*
%TO.P,U4,1,GND*%
%TO.N,GND*%
X176950000Y-105100000D03*
%TO.P,U4,2,VO*%
%TO.N,+5V*%
X176950000Y-102800000D03*
D34*
X170650000Y-102800000D03*
D33*
%TO.P,U4,3,VI*%
%TO.N,+7V4*%
X176950000Y-100500000D03*
%TD*%
D14*
%TO.P,C22,1*%
%TO.N,+7V4*%
X167800000Y-79200000D03*
%TO.P,C22,2*%
%TO.N,GND*%
X162200000Y-79200000D03*
%TD*%
D22*
%TO.P,R5,1*%
%TO.N,+3V3*%
X121625000Y-84800000D03*
%TO.P,R5,2*%
%TO.N,/I2C3_SDA*%
X119975000Y-84800000D03*
%TD*%
%TO.P,R21,1*%
%TO.N,Net-(J17-Pin_4)*%
X135400000Y-80200000D03*
%TO.P,R21,2*%
%TO.N,/POT_D A3*%
X133750000Y-80200000D03*
%TD*%
%TO.P,R7,1*%
%TO.N,Net-(U1-PA9{slash}PA11)*%
X109225000Y-94000000D03*
%TO.P,R7,2*%
%TO.N,/USB_D-*%
X107575000Y-94000000D03*
%TD*%
D57*
%TO.P,D7,1,A1*%
%TO.N,GND*%
X173000000Y-119800000D03*
%TO.P,D7,2,A2*%
%TO.N,Net-(D7-A2)*%
X175800000Y-119800000D03*
%TD*%
D22*
%TO.P,R25,1*%
%TO.N,Net-(U5-PR1)*%
X191625000Y-114400000D03*
%TO.P,R25,2*%
%TO.N,Net-(D8-A)*%
X189975000Y-114400000D03*
%TD*%
D58*
%TO.P,Q1,1,S*%
%TO.N,Net-(D6-K)*%
X180600000Y-122740000D03*
%TO.P,Q1,2,S*%
X180600000Y-122090000D03*
%TO.P,Q1,3,S*%
X180600000Y-121440000D03*
%TO.P,Q1,4,G*%
%TO.N,Net-(D6-A)*%
X180600000Y-120790000D03*
D59*
%TO.P,Q1,5,D*%
%TO.N,Net-(D7-A2)*%
X178645000Y-121765000D03*
%TD*%
D60*
%TO.P,D6,1,K*%
%TO.N,Net-(D6-K)*%
X182600000Y-122900000D03*
%TO.P,D6,2,A*%
%TO.N,Net-(D6-A)*%
X182600000Y-120700000D03*
%TD*%
D42*
%TO.P,C1,1*%
%TO.N,+3V3*%
X135320000Y-93200000D03*
%TO.P,C1,2*%
%TO.N,GND*%
X136280000Y-93200000D03*
%TD*%
D61*
%TO.P,D4,1,K1*%
%TO.N,/I2C2_SDA*%
X134250000Y-107340000D03*
D62*
%TO.P,D4,2,A*%
%TO.N,GND*%
X134330000Y-106800000D03*
D61*
%TO.P,D4,3,K2*%
%TO.N,/I2C2_SCL*%
X134250000Y-106260000D03*
%TO.P,D4,4,K3*%
%TO.N,/UART2_RX*%
X132550000Y-106260000D03*
%TO.P,D4,5,K4*%
%TO.N,/UART2_TX*%
X132550000Y-107340000D03*
%TD*%
D16*
%TO.P,R29,1*%
%TO.N,+3V3*%
X118175000Y-92600000D03*
%TO.P,R29,2*%
%TO.N,/I2C1_SCL*%
X119825000Y-92600000D03*
%TD*%
D18*
%TO.P,H1,1,1*%
%TO.N,GND*%
X105000000Y-80000000D03*
D19*
X105000000Y-80000000D03*
%TD*%
D41*
%TO.P,R9,1*%
%TO.N,Net-(J9-Pin_2)*%
X166800000Y-109375000D03*
%TO.P,R9,2*%
%TO.N,/CANL1*%
X166800000Y-111025000D03*
%TD*%
D16*
%TO.P,R12,1*%
%TO.N,+3V3*%
X145775000Y-103200000D03*
%TO.P,R12,2*%
%TO.N,Net-(U2-TXD2)*%
X147425000Y-103200000D03*
%TD*%
D63*
%TO.P,J17,1,Pin_1*%
%TO.N,+7V4*%
X173700000Y-80880000D03*
D64*
%TO.P,J17,2,Pin_2*%
%TO.N,/PWM_D*%
X170700000Y-80880000D03*
%TO.P,J17,3,Pin_3*%
%TO.N,GND*%
X173700000Y-83880000D03*
%TO.P,J17,4,Pin_4*%
%TO.N,Net-(J17-Pin_4)*%
X170700000Y-83880000D03*
%TD*%
D63*
%TO.P,J16,1,Pin_1*%
%TO.N,+7V4*%
X185300000Y-80880000D03*
D64*
%TO.P,J16,2,Pin_2*%
%TO.N,/PWM_C*%
X182300000Y-80880000D03*
%TO.P,J16,3,Pin_3*%
%TO.N,GND*%
X185300000Y-83880000D03*
%TO.P,J16,4,Pin_4*%
%TO.N,Net-(J16-Pin_4)*%
X182300000Y-83880000D03*
%TD*%
D65*
%TO.P,J19,1,Pin_1*%
%TO.N,Net-(J19-Pin_1)*%
X181000000Y-108400000D03*
D66*
%TO.P,J19,2,Pin_2*%
%TO.N,GND*%
X181000000Y-105400000D03*
%TO.P,J19,3,Pin_3*%
X181000000Y-102400000D03*
%TD*%
D67*
%TO.P,J12,0*%
%TO.N,N/C*%
X144500000Y-116094669D03*
X119500000Y-116094669D03*
D68*
%TO.P,J12,1,1*%
%TO.N,/+7V4_CAN*%
X137540000Y-114674669D03*
D69*
%TO.P,J12,2,2*%
%TO.N,GND*%
X134770000Y-114674669D03*
%TO.P,J12,3,3*%
%TO.N,/CAN2_AUX*%
X132000000Y-114674669D03*
%TO.P,J12,4,4*%
%TO.N,GND*%
X129230000Y-114674669D03*
%TO.P,J12,5,5*%
%TO.N,/+7V4_CAN*%
X126460000Y-114674669D03*
%TO.P,J12,6,6*%
%TO.N,/CANH1*%
X136155000Y-117514669D03*
%TO.P,J12,7,7*%
%TO.N,/CANL1*%
X133385000Y-117514669D03*
%TO.P,J12,8,8*%
%TO.N,/CANH2*%
X130615000Y-117514669D03*
%TO.P,J12,9,9*%
%TO.N,/CANL2*%
X127845000Y-117514669D03*
%TD*%
D26*
%TO.P,J5,1,Pin_1*%
%TO.N,GND*%
X111000000Y-89350000D03*
D21*
%TO.P,J5,2,Pin_2*%
%TO.N,/I2C1_SDA*%
X113000000Y-89350000D03*
%TO.P,J5,3,Pin_3*%
%TO.N,unconnected-(J5-Pin_3-Pad3)*%
X115000000Y-89350000D03*
%TO.P,J5,4,Pin_4*%
%TO.N,/I2C1_SCL*%
X117000000Y-89350000D03*
%TO.P,J5,5,Pin_5*%
%TO.N,+3V3*%
X119000000Y-89350000D03*
%TD*%
D63*
%TO.P,J15,1,Pin_1*%
%TO.N,+7V4*%
X173700000Y-91080000D03*
D64*
%TO.P,J15,2,Pin_2*%
%TO.N,/PWM_A*%
X170700000Y-91080000D03*
%TO.P,J15,3,Pin_3*%
%TO.N,GND*%
X173700000Y-94080000D03*
%TO.P,J15,4,Pin_4*%
%TO.N,Net-(J15-Pin_4)*%
X170700000Y-94080000D03*
%TD*%
D26*
%TO.P,J3,1,Pin_1*%
%TO.N,GND*%
X104600000Y-109400000D03*
D21*
%TO.P,J3,2,Pin_2*%
%TO.N,/E1*%
X106600000Y-109400000D03*
%TO.P,J3,3,Pin_3*%
%TO.N,/E2*%
X108600000Y-109400000D03*
%TO.P,J3,4,Pin_4*%
%TO.N,+3V3*%
X110600000Y-109400000D03*
%TO.P,J3,5,Pin_5*%
%TO.N,/E3*%
X112600000Y-109400000D03*
%TO.P,J3,6,Pin_6*%
%TO.N,/E4*%
X114600000Y-109400000D03*
%TO.P,J3,7,Pin_7*%
%TO.N,GND*%
X116600000Y-109400000D03*
%TD*%
D67*
%TO.P,J6,0*%
%TO.N,N/C*%
X180500000Y-116094669D03*
X155500000Y-116094669D03*
D68*
%TO.P,J6,1,1*%
%TO.N,/+7V4_CAN*%
X173540000Y-114674669D03*
D69*
%TO.P,J6,2,2*%
%TO.N,GND*%
X170770000Y-114674669D03*
%TO.P,J6,3,3*%
%TO.N,/CAN1_AUX*%
X168000000Y-114674669D03*
%TO.P,J6,4,4*%
%TO.N,GND*%
X165230000Y-114674669D03*
%TO.P,J6,5,5*%
%TO.N,/+7V4_CAN*%
X162460000Y-114674669D03*
%TO.P,J6,6,6*%
%TO.N,/CANH1*%
X172155000Y-117514669D03*
%TO.P,J6,7,7*%
%TO.N,/CANL1*%
X169385000Y-117514669D03*
%TO.P,J6,8,8*%
%TO.N,/CANH2*%
X166615000Y-117514669D03*
%TO.P,J6,9,9*%
%TO.N,/CANL2*%
X163845000Y-117514669D03*
%TD*%
D20*
%TO.P,J7,1,Pin_1*%
%TO.N,GND*%
X141400000Y-104050000D03*
D21*
%TO.P,J7,2,Pin_2*%
%TO.N,/I2C2_SDA*%
X139400000Y-104050000D03*
%TO.P,J7,3,Pin_3*%
%TO.N,unconnected-(J7-Pin_3-Pad3)*%
X137400000Y-104050000D03*
%TO.P,J7,4,Pin_4*%
%TO.N,/I2C2_SCL*%
X135400000Y-104050000D03*
%TO.P,J7,5,Pin_5*%
%TO.N,+3V3*%
X133400000Y-104050000D03*
%TD*%
D20*
%TO.P,J11,1,Pin_1*%
%TO.N,GND*%
X119000000Y-82600000D03*
D21*
%TO.P,J11,2,Pin_2*%
%TO.N,/I2C3_SDA*%
X117000000Y-82600000D03*
%TO.P,J11,3,Pin_3*%
%TO.N,unconnected-(J11-Pin_3-Pad3)*%
X115000000Y-82600000D03*
%TO.P,J11,4,Pin_4*%
%TO.N,/I2C3_SCL*%
X113000000Y-82600000D03*
%TO.P,J11,5,Pin_5*%
%TO.N,+3V3*%
X111000000Y-82600000D03*
%TD*%
D63*
%TO.P,J14,1,Pin_1*%
%TO.N,+7V4*%
X185300000Y-91080000D03*
D64*
%TO.P,J14,2,Pin_2*%
%TO.N,/PWM_B*%
X182300000Y-91080000D03*
%TO.P,J14,3,Pin_3*%
%TO.N,GND*%
X185300000Y-94080000D03*
%TO.P,J14,4,Pin_4*%
%TO.N,Net-(J14-Pin_4)*%
X182300000Y-94080000D03*
%TD*%
D70*
%TO.P,SW1,1,Pin_1*%
%TO.N,+7V4*%
X196185000Y-108100000D03*
D66*
%TO.P,SW1,2,Pin_2*%
%TO.N,Net-(SW1-Pin_2)*%
X196185000Y-111100000D03*
%TD*%
D71*
%TO.N,+3V3*%
X137200000Y-95200000D03*
D72*
X155400000Y-109800000D03*
D71*
X137200000Y-105800000D03*
D72*
X194200000Y-109800000D03*
X109000000Y-103200000D03*
X179200000Y-110200000D03*
X117200000Y-92400000D03*
D73*
X163000000Y-102800000D03*
X161800000Y-102800000D03*
X159850000Y-99800000D03*
D72*
X147200000Y-110600000D03*
X145775000Y-104000000D03*
D73*
X164400000Y-102800000D03*
D71*
X136200000Y-92400000D03*
X136200000Y-95200000D03*
D72*
X111800000Y-92400000D03*
X143000000Y-108400000D03*
X122800000Y-85600000D03*
%TO.N,GND*%
X141200000Y-91200000D03*
X148400000Y-107800000D03*
X105800000Y-97400000D03*
D73*
X159600000Y-89400000D03*
X175000000Y-105000000D03*
D72*
X132000000Y-93200000D03*
D71*
X137200894Y-96447971D03*
D72*
X151200000Y-107400000D03*
D73*
X168400000Y-103400000D03*
D72*
X148600000Y-122200000D03*
X137400000Y-93800000D03*
X132350000Y-82800000D03*
X161400000Y-97800000D03*
X149400000Y-120000000D03*
X139200000Y-92600000D03*
D73*
X159600000Y-79200000D03*
D72*
X149800000Y-102600000D03*
X150600000Y-98400000D03*
X177800000Y-117400000D03*
D73*
X197800000Y-92800000D03*
D72*
X134350000Y-84400000D03*
X173000000Y-122000000D03*
X186000000Y-110200000D03*
X180800000Y-96200000D03*
X129950000Y-81000000D03*
X177575000Y-118000000D03*
X139200000Y-95000000D03*
X135600000Y-85800000D03*
X172000000Y-97800000D03*
X145000000Y-109400000D03*
X135200000Y-106740000D03*
X178200000Y-98800000D03*
D73*
X164200000Y-105000000D03*
D72*
X186000000Y-107200000D03*
D73*
X167900000Y-104500000D03*
D72*
X153200000Y-98400000D03*
X115800000Y-87800000D03*
X155800000Y-98400000D03*
D73*
X197800000Y-89400000D03*
D72*
X136000000Y-88400000D03*
X173000000Y-121000000D03*
D73*
%TO.N,+7V4*%
X196185000Y-106000000D03*
D72*
X168000000Y-96200000D03*
D73*
X196185000Y-104200000D03*
X191200000Y-92000000D03*
X191200000Y-97900000D03*
D72*
%TO.N,Net-(D8-A)*%
X188600000Y-114400000D03*
X187400000Y-113000000D03*
X189200000Y-110250002D03*
%TO.N,/CANL1*%
X147400000Y-118600000D03*
%TO.N,/CANH1*%
X153000000Y-119400000D03*
%TO.N,/CAN1_AUX*%
X132800000Y-100200000D03*
X157400000Y-109000000D03*
%TO.N,/CANL2*%
X148600000Y-121400000D03*
X148600000Y-120000000D03*
%TO.N,/CAN2_AUX*%
X130000000Y-100400000D03*
X135600000Y-110800000D03*
%TO.N,Net-(J14-Pin_4)*%
X146400000Y-86800000D03*
%TO.N,/PWM_B*%
X124180721Y-92750000D03*
X142800000Y-93201000D03*
%TO.N,Net-(J15-Pin_4)*%
X143600000Y-87200000D03*
%TO.N,/PWM_A*%
X124600000Y-92000000D03*
X142800000Y-91874000D03*
%TO.N,/PWM_C*%
X142800000Y-90200000D03*
X123800000Y-91200000D03*
%TO.N,Net-(J16-Pin_4)*%
X149600000Y-86000000D03*
%TO.N,/PWM_D*%
X123600000Y-90200000D03*
X143400000Y-89001000D03*
%TO.N,Net-(J17-Pin_4)*%
X149600000Y-83200000D03*
%TO.N,/PWM_EXT*%
X120600000Y-89200000D03*
X120600000Y-83600000D03*
%TO.N,/LED1*%
X126400000Y-97600000D03*
%TO.N,/LED2*%
X129800000Y-97000000D03*
%TD*%
D74*
%TO.N,+3V3*%
X137200000Y-95200000D02*
X137225000Y-95200000D01*
X136200000Y-95200000D02*
X135660000Y-95200000D01*
X135660000Y-95200000D02*
X135320000Y-95540000D01*
D75*
%TO.N,GND*%
X197400000Y-94800000D02*
X197600000Y-94800000D01*
X197600000Y-94800000D02*
X197800000Y-94600000D01*
X197800000Y-94600000D02*
X197800000Y-92800000D01*
X197400000Y-87400000D02*
X197800000Y-87800000D01*
X197800000Y-87800000D02*
X197800000Y-89400000D01*
D76*
%TO.N,/PWM_EXT*%
X114600000Y-77200000D02*
X117400000Y-80000000D01*
X117400000Y-80000000D02*
X118435813Y-80000000D01*
X118435813Y-80000000D02*
X120600000Y-82164187D01*
X120600000Y-82164187D02*
X120600000Y-83600000D01*
%TO.N,/A11*%
X125050000Y-87725000D02*
X125050000Y-85250000D01*
X119800000Y-80000000D02*
X119400000Y-80000000D01*
X125050000Y-85250000D02*
X119800000Y-80000000D01*
X119400000Y-80000000D02*
X116600000Y-77200000D01*
%TO.N,/I2C3_SCL*%
X133475000Y-91150000D02*
X125329232Y-91150000D01*
X125329232Y-91150000D02*
X119779232Y-85600000D01*
X113000000Y-84200000D02*
X113000000Y-82600000D01*
X119779232Y-85600000D02*
X114400000Y-85600000D01*
X114400000Y-85600000D02*
X113000000Y-84200000D01*
D77*
%TO.N,/CANH1*%
X172155000Y-117514669D02*
X172155000Y-110480000D01*
X172155000Y-110480000D02*
X172075000Y-110400000D01*
%TO.N,Net-(J9-Pin_2)*%
X166800000Y-109375000D02*
X168510000Y-109375000D01*
X169335000Y-110200000D02*
X169535000Y-110200000D01*
%TO.N,/CANH1*%
X172075000Y-110400000D02*
X172075000Y-110200000D01*
%TO.N,Net-(J9-Pin_2)*%
X168510000Y-109375000D02*
X169335000Y-110200000D01*
%TO.N,/CANL2*%
X127845000Y-117514669D02*
X127845000Y-110645000D01*
%TO.N,Net-(J10-Pin_2)*%
X131340000Y-109600000D02*
X130740000Y-110200000D01*
%TO.N,/CANL2*%
X127845000Y-110645000D02*
X127800000Y-110600000D01*
X127800000Y-110600000D02*
X127800000Y-110200000D01*
%TO.N,Net-(J10-Pin_2)*%
X133200000Y-109575000D02*
X133175000Y-109600000D01*
X133175000Y-109600000D02*
X131340000Y-109600000D01*
X130740000Y-110200000D02*
X130340000Y-110200000D01*
D78*
%TO.N,Net-(D10-A2)*%
X185000000Y-109600000D02*
X185000000Y-110600000D01*
X185000000Y-110600000D02*
X186200000Y-111800000D01*
X186200000Y-111800000D02*
X189000000Y-111800000D01*
D79*
X190125000Y-111775001D02*
X188224999Y-111775001D01*
D74*
%TO.N,Net-(U1-PF1)*%
X133475000Y-92150000D02*
X134850000Y-92150000D01*
X134850000Y-92150000D02*
X135200000Y-91800000D01*
X135200000Y-91800000D02*
X135200000Y-88200000D01*
X135200000Y-88200000D02*
X136200000Y-87200000D01*
X136200000Y-87200000D02*
X139200000Y-87200000D01*
X139200000Y-87200000D02*
X139700000Y-87700000D01*
X139700000Y-87700000D02*
X139700000Y-88350000D01*
D79*
%TO.N,GND*%
X173000000Y-121000000D02*
X173000000Y-122000000D01*
D74*
%TO.N,/CAN1_RX*%
X147449943Y-99400000D02*
X147000000Y-99400000D01*
X148400000Y-98400000D02*
X147400000Y-99400000D01*
X147400000Y-99400000D02*
X147000000Y-99400000D01*
%TO.N,/CAN1_TX*%
X146614064Y-101200000D02*
X144000000Y-101200000D01*
X142800000Y-100400000D02*
X143600000Y-101200000D01*
X143600000Y-101200000D02*
X144000000Y-101200000D01*
%TO.N,+5V*%
X176200000Y-107600000D02*
X171800000Y-107600000D01*
X171800000Y-107600000D02*
X170650000Y-106450000D01*
X170650000Y-106450000D02*
X170650000Y-102800000D01*
%TO.N,+3V3*%
X157200000Y-102800000D02*
X159850000Y-102800000D01*
%TO.N,+7V4*%
X188600000Y-98600000D02*
X190500000Y-98600000D01*
X190500000Y-98600000D02*
X191200000Y-97900000D01*
D76*
%TO.N,/PWR_SOURCE*%
X189399000Y-104001000D02*
X189201000Y-104001000D01*
X189201000Y-104001000D02*
X188200000Y-103000000D01*
%TO.N,/2S+ A10*%
X166000000Y-94000000D02*
X142400000Y-94000000D01*
X166000000Y-94000000D02*
X166000000Y-94400000D01*
X166000000Y-94400000D02*
X165200000Y-95200000D01*
D74*
%TO.N,/CAN1_RX*%
X150700378Y-106459749D02*
X150700378Y-102650435D01*
X147000000Y-99400000D02*
X133800000Y-99400000D01*
X132200000Y-97800000D02*
X130800000Y-97800000D01*
X133800000Y-99400000D02*
X132200000Y-97800000D01*
X150700378Y-102650435D02*
X147449943Y-99400000D01*
X130800000Y-97800000D02*
X130550000Y-98050000D01*
X130550000Y-98050000D02*
X130550000Y-99075000D01*
%TO.N,+3V3*%
X147200000Y-110600000D02*
X146800000Y-110600000D01*
D76*
X122000000Y-84800000D02*
X122800000Y-85600000D01*
X194200000Y-108375000D02*
X194200000Y-109800000D01*
D74*
X135320000Y-92880000D02*
X135800000Y-92400000D01*
X134960000Y-93200000D02*
X135320000Y-93200000D01*
X136200000Y-95200000D02*
X137200000Y-95200000D01*
X154225000Y-109800000D02*
X155400000Y-109800000D01*
D76*
X112750000Y-92600000D02*
X112000000Y-92600000D01*
D79*
X159850000Y-102800000D02*
X159850000Y-99800000D01*
D74*
X134430000Y-94650000D02*
X135320000Y-95540000D01*
X137225000Y-92400000D02*
X137825000Y-91800000D01*
X135800000Y-92400000D02*
X136200000Y-92400000D01*
X144175000Y-108400000D02*
X143000000Y-108400000D01*
X136120000Y-95200000D02*
X136200000Y-95200000D01*
D76*
X111975000Y-84800000D02*
X111975000Y-83575000D01*
D74*
X135320000Y-94400000D02*
X136120000Y-95200000D01*
X133475000Y-93650000D02*
X134510000Y-93650000D01*
X134550000Y-94150000D02*
X134800000Y-94400000D01*
X146800000Y-110600000D02*
X146400000Y-110200000D01*
D76*
X118175000Y-92600000D02*
X117400000Y-92600000D01*
X111975000Y-83575000D02*
X111000000Y-82600000D01*
D74*
X184800000Y-114825000D02*
X183825000Y-114825000D01*
X183825000Y-114825000D02*
X179200000Y-110200000D01*
X137825000Y-95800000D02*
X138225000Y-95800000D01*
X142600000Y-106000000D02*
X142400000Y-105800000D01*
X145775000Y-104000000D02*
X145775000Y-103200000D01*
D79*
X166150000Y-102800000D02*
X164400000Y-102800000D01*
X161800000Y-102800000D02*
X159850000Y-102800000D01*
D74*
X136200000Y-92400000D02*
X137225000Y-92400000D01*
X146400000Y-110200000D02*
X145775000Y-110200000D01*
D79*
X159850000Y-99800000D02*
X159850000Y-97875000D01*
D76*
X138025000Y-105800000D02*
X137200000Y-105800000D01*
D74*
X148880674Y-110600000D02*
X147200000Y-110600000D01*
D79*
X159850000Y-97875000D02*
X159925000Y-97800000D01*
D74*
X135320000Y-95540000D02*
X135320000Y-96000000D01*
X149200000Y-109540251D02*
X149200000Y-110280674D01*
D79*
X163000000Y-102800000D02*
X161800000Y-102800000D01*
D74*
X145775000Y-104800000D02*
X145775000Y-104000000D01*
X133475000Y-94150000D02*
X134550000Y-94150000D01*
X133475000Y-94650000D02*
X134430000Y-94650000D01*
X142400000Y-105800000D02*
X141225000Y-105800000D01*
X142600000Y-108000000D02*
X142600000Y-106000000D01*
D76*
X117400000Y-92600000D02*
X117200000Y-92400000D01*
X121625000Y-84800000D02*
X122000000Y-84800000D01*
D74*
X109000000Y-102025000D02*
X109000000Y-103200000D01*
X137225000Y-95200000D02*
X137825000Y-95800000D01*
X135320000Y-93200000D02*
X135320000Y-92880000D01*
X149200000Y-110280674D02*
X148880674Y-110600000D01*
D76*
X112000000Y-92600000D02*
X111800000Y-92400000D01*
D74*
X143000000Y-108400000D02*
X142600000Y-108000000D01*
D79*
X164400000Y-102800000D02*
X163000000Y-102800000D01*
D76*
X193000000Y-107175000D02*
X194200000Y-108375000D01*
D74*
X134510000Y-93650000D02*
X134960000Y-93200000D01*
X134800000Y-94400000D02*
X135320000Y-94400000D01*
%TO.N,GND*%
X144225000Y-110200000D02*
X144225000Y-110175000D01*
D79*
X176950000Y-105100000D02*
X175100000Y-105100000D01*
X173475000Y-97800000D02*
X172000000Y-97800000D01*
D74*
X149800000Y-103450000D02*
X149800000Y-102600000D01*
X150200252Y-107200172D02*
X150200252Y-106459749D01*
X136800000Y-94400000D02*
X136280000Y-94400000D01*
X134600000Y-84150000D02*
X134350000Y-84400000D01*
D77*
X186000000Y-105800000D02*
X186000000Y-107200000D01*
D74*
X135775000Y-85800000D02*
X136575000Y-85000000D01*
D79*
X167900000Y-104500000D02*
X167300000Y-105100000D01*
X177575000Y-118000000D02*
X177575000Y-117625000D01*
D74*
X137000000Y-96000000D02*
X136280000Y-96000000D01*
X135000000Y-106800000D02*
X134330000Y-106800000D01*
X136280000Y-93200000D02*
X136800000Y-93200000D01*
D79*
X173000000Y-119800000D02*
X173000000Y-121000000D01*
D74*
X135010000Y-106790000D02*
X135000000Y-106800000D01*
X137200000Y-96447077D02*
X137200000Y-96200000D01*
D77*
X182105000Y-96200000D02*
X180800000Y-96200000D01*
D74*
X132600000Y-82550000D02*
X132350000Y-82800000D01*
D79*
X168400000Y-103400000D02*
X168400000Y-101975000D01*
D74*
X137400000Y-93800000D02*
X136800000Y-94400000D01*
D75*
X162200000Y-79200000D02*
X159600000Y-79200000D01*
D74*
X132600000Y-81800000D02*
X132600000Y-82550000D01*
X134600000Y-83400000D02*
X134600000Y-84150000D01*
D79*
X177575000Y-119000000D02*
X177575000Y-118000000D01*
D74*
X137200894Y-96447971D02*
X137200000Y-96447077D01*
X130625000Y-80325000D02*
X129950000Y-81000000D01*
X130625000Y-80200000D02*
X130625000Y-80325000D01*
X139375000Y-92425000D02*
X139200000Y-92600000D01*
X104200000Y-96500000D02*
X104900000Y-96500000D01*
X136800000Y-93200000D02*
X137400000Y-93800000D01*
D77*
X178200000Y-98800000D02*
X178225000Y-98825000D01*
D79*
X162875000Y-97800000D02*
X161400000Y-97800000D01*
D74*
X135600000Y-85800000D02*
X135775000Y-85800000D01*
X135200000Y-106740000D02*
X135150000Y-106790000D01*
D79*
X168400000Y-104000000D02*
X168400000Y-103400000D01*
X166150000Y-105100000D02*
X164300000Y-105100000D01*
D74*
X148699874Y-106459749D02*
X148699874Y-107500126D01*
D77*
X186000000Y-110200000D02*
X186200000Y-110400000D01*
D74*
X139375000Y-91800000D02*
X139375000Y-92425000D01*
D76*
X115800000Y-86730000D02*
X115800000Y-87800000D01*
D77*
X179400000Y-98825000D02*
X178225000Y-98825000D01*
D74*
X133475000Y-93150000D02*
X132050000Y-93150000D01*
X151200000Y-107400000D02*
X150400080Y-107400000D01*
X144225000Y-110175000D02*
X145000000Y-109400000D01*
D79*
X167300000Y-105100000D02*
X166150000Y-105100000D01*
D74*
X150400080Y-107400000D02*
X150200252Y-107200172D01*
D79*
X167900000Y-104500000D02*
X168400000Y-104000000D01*
D77*
X186200000Y-110400000D02*
X186900000Y-110400000D01*
D74*
X136000000Y-89120000D02*
X136000000Y-88400000D01*
X135150000Y-106790000D02*
X135010000Y-106790000D01*
D75*
X162200000Y-89400000D02*
X159600000Y-89400000D01*
D74*
X141200000Y-90080000D02*
X141200000Y-91200000D01*
D79*
X164300000Y-105100000D02*
X164200000Y-105000000D01*
X175100000Y-105100000D02*
X175000000Y-105000000D01*
D74*
X104900000Y-96500000D02*
X105800000Y-97400000D01*
X137200000Y-96200000D02*
X137000000Y-96000000D01*
X139375000Y-95175000D02*
X139200000Y-95000000D01*
D79*
X177575000Y-117625000D02*
X177800000Y-117400000D01*
D74*
X139375000Y-95400000D02*
X139375000Y-95175000D01*
X139775000Y-95800000D02*
X139375000Y-95400000D01*
X132050000Y-93150000D02*
X132000000Y-93200000D01*
X148699874Y-107500126D02*
X148400000Y-107800000D01*
%TO.N,Net-(U1-PF0)*%
X137470000Y-90080000D02*
X137500000Y-90050000D01*
X133475000Y-92650000D02*
X134932450Y-92650000D01*
X134932450Y-92650000D02*
X137500000Y-90082450D01*
X136000000Y-90080000D02*
X137470000Y-90080000D01*
X137500000Y-90082450D02*
X137500000Y-90050000D01*
%TO.N,Net-(U1-PF1)*%
X140750000Y-88350000D02*
X139700000Y-88350000D01*
X141200000Y-88800000D02*
X140750000Y-88350000D01*
X141200000Y-89120000D02*
X141200000Y-88800000D01*
D79*
%TO.N,+5V*%
X170650000Y-102800000D02*
X170650000Y-97925000D01*
X176950000Y-102800000D02*
X170650000Y-102800000D01*
D74*
X169000000Y-108000000D02*
X170650000Y-106350000D01*
X149700126Y-105099874D02*
X149800000Y-105000000D01*
D79*
X168325000Y-100500000D02*
X168400000Y-100425000D01*
D74*
X149700126Y-106459749D02*
X149700126Y-107700126D01*
X149700126Y-106459749D02*
X149700126Y-105099874D01*
X170650000Y-106350000D02*
X170650000Y-102800000D01*
D79*
X170200000Y-100400000D02*
X170650000Y-100850000D01*
X168425000Y-100400000D02*
X170200000Y-100400000D01*
X170650000Y-97925000D02*
X170525000Y-97800000D01*
D74*
X149700126Y-107700126D02*
X150000000Y-108000000D01*
D79*
X170650000Y-100850000D02*
X170650000Y-102800000D01*
X166150000Y-100500000D02*
X168325000Y-100500000D01*
X168400000Y-100425000D02*
X168425000Y-100400000D01*
D74*
X150000000Y-108000000D02*
X169000000Y-108000000D01*
D76*
%TO.N,/POT_B A1*%
X131050000Y-87725000D02*
X131050000Y-86350000D01*
X136150000Y-84050000D02*
X136150000Y-83400000D01*
X131050000Y-86350000D02*
X132000000Y-85400000D01*
D74*
X136150000Y-83400000D02*
X137750000Y-83400000D01*
D76*
X132000000Y-85400000D02*
X134800000Y-85400000D01*
X134800000Y-85400000D02*
X136150000Y-84050000D01*
D75*
%TO.N,+7V4*%
X182099900Y-100500000D02*
X177100000Y-100500000D01*
D80*
X185300000Y-79300000D02*
X184400000Y-78400000D01*
X184200000Y-88600000D02*
X174600000Y-88600000D01*
X191200000Y-97900000D02*
X191200000Y-92000000D01*
X173700000Y-79500000D02*
X173700000Y-80880000D01*
D74*
X176950000Y-98550000D02*
X176950000Y-100500000D01*
X168000000Y-96200000D02*
X168800000Y-96200000D01*
D80*
X191200000Y-93400000D02*
X191200000Y-83600000D01*
X188480000Y-80880000D02*
X185300000Y-80880000D01*
X188880000Y-91080000D02*
X185300000Y-91080000D01*
X191200000Y-92000000D02*
X191200000Y-93400000D01*
X174600000Y-88600000D02*
X173700000Y-89500000D01*
X196185000Y-104200000D02*
X196185000Y-102885000D01*
D75*
X173600000Y-89400000D02*
X173700000Y-89500000D01*
D77*
X190600000Y-96200000D02*
X186825000Y-96200000D01*
D80*
X174800000Y-78400000D02*
X173700000Y-79500000D01*
X196185000Y-106000000D02*
X196185000Y-104200000D01*
X184400000Y-78400000D02*
X174800000Y-78400000D01*
D75*
X194800000Y-101500000D02*
X183099900Y-101500000D01*
D77*
X191200000Y-96800000D02*
X190600000Y-96200000D01*
D80*
X185300000Y-91080000D02*
X185300000Y-89700000D01*
D74*
X168800000Y-96200000D02*
X169200000Y-95800000D01*
D80*
X191200000Y-83600000D02*
X188480000Y-80880000D01*
D74*
X174200000Y-95800000D02*
X176950000Y-98550000D01*
D75*
X167800000Y-79200000D02*
X173400000Y-79200000D01*
D80*
X191200000Y-93400000D02*
X188880000Y-91080000D01*
X196185000Y-102885000D02*
X194800000Y-101500000D01*
D74*
X169200000Y-95800000D02*
X174200000Y-95800000D01*
D80*
X185300000Y-89700000D02*
X184200000Y-88600000D01*
X191200000Y-97900000D02*
X194800000Y-101500000D01*
D75*
X173400000Y-79200000D02*
X173700000Y-79500000D01*
D80*
X196185000Y-108100000D02*
X196185000Y-106000000D01*
D75*
X183099900Y-101500000D02*
X182099900Y-100500000D01*
X167800000Y-89400000D02*
X173600000Y-89400000D01*
D80*
X173700000Y-89500000D02*
X173700000Y-91080000D01*
D75*
X177100000Y-100500000D02*
X177000000Y-100600000D01*
D80*
X185300000Y-80880000D02*
X185300000Y-79300000D01*
D76*
%TO.N,/POT_A A0*%
X131550000Y-87725000D02*
X132875000Y-86400000D01*
D74*
X138125000Y-85000000D02*
X139725000Y-85000000D01*
D76*
X136725000Y-86400000D02*
X138125000Y-85000000D01*
X132875000Y-86400000D02*
X136725000Y-86400000D01*
%TO.N,/POT_C A2*%
X130550000Y-85817100D02*
X134150000Y-82217100D01*
X134150000Y-82217100D02*
X134150000Y-81800000D01*
X130550000Y-87725000D02*
X130550000Y-85817100D01*
D74*
X134150000Y-81800000D02*
X135750000Y-81800000D01*
D76*
%TO.N,/POT_D A3*%
X131200000Y-84600000D02*
X131200000Y-81175000D01*
D74*
X132175000Y-80200000D02*
X133750000Y-80200000D01*
D76*
X131200000Y-81175000D02*
X132175000Y-80200000D01*
X130050000Y-87725000D02*
X130050000Y-85750000D01*
X130050000Y-85750000D02*
X131200000Y-84600000D01*
D74*
%TO.N,Net-(D8-A)*%
X189450000Y-107175000D02*
X189400000Y-107225000D01*
X189400000Y-107225000D02*
X188300000Y-108325000D01*
X188449998Y-110250002D02*
X188300000Y-110400000D01*
X190049999Y-110250002D02*
X189200000Y-110250002D01*
X187400000Y-113000000D02*
X187337500Y-113062500D01*
X190550000Y-112550000D02*
X190550000Y-113825000D01*
X191050000Y-112550000D02*
X191050000Y-113325000D01*
X191050000Y-113325000D02*
X190550000Y-113825000D01*
X188300000Y-108325000D02*
X188300000Y-110400000D01*
X186450000Y-113062500D02*
X187337500Y-113062500D01*
X191000000Y-107175000D02*
X189450000Y-107175000D01*
X189200000Y-110250002D02*
X188449998Y-110250002D01*
X189975000Y-114400000D02*
X188600000Y-114400000D01*
X190550000Y-113825000D02*
X189975000Y-114400000D01*
%TO.N,Net-(U5-SS)*%
X190550000Y-110250002D02*
X190550000Y-109925000D01*
X190550000Y-109925000D02*
X189400000Y-108775000D01*
%TO.N,/UART2_RX*%
X129400000Y-105200000D02*
X129400000Y-103000000D01*
X129400000Y-103000000D02*
X127550000Y-101150000D01*
X127550000Y-101150000D02*
X127550000Y-99075000D01*
X130460000Y-106260000D02*
X129400000Y-105200000D01*
X132550000Y-106260000D02*
X130460000Y-106260000D01*
D76*
%TO.N,/I2C3_SDA*%
X119600000Y-84800000D02*
X117800000Y-84800000D01*
X116340000Y-84950000D02*
X116340000Y-84660000D01*
X116340000Y-84660000D02*
X117000000Y-84000000D01*
X117800000Y-84800000D02*
X117000000Y-84000000D01*
X125450000Y-90650000D02*
X119600000Y-84800000D01*
X117000000Y-84000000D02*
X117000000Y-82600000D01*
X133475000Y-90650000D02*
X125450000Y-90650000D01*
%TO.N,/I2C3_SCL*%
X113775000Y-84950000D02*
X113625000Y-84800000D01*
X115260000Y-84950000D02*
X113775000Y-84950000D01*
D74*
%TO.N,/UART2_TX*%
X132550000Y-107340000D02*
X127540000Y-107340000D01*
X125400000Y-105200000D02*
X125400000Y-102800000D01*
X127050000Y-101150000D02*
X127050000Y-99075000D01*
X125400000Y-102800000D02*
X127050000Y-101150000D01*
X127540000Y-107340000D02*
X125400000Y-105200000D01*
D76*
%TO.N,/I2C1_SCL*%
X117000000Y-87600000D02*
X117000000Y-89350000D01*
X119825000Y-92175000D02*
X119300000Y-91650000D01*
X119825000Y-92600000D02*
X119825000Y-92175000D01*
X119300000Y-91650000D02*
X117000000Y-89350000D01*
X116340000Y-86940000D02*
X117000000Y-87600000D01*
X122125000Y-91650000D02*
X119300000Y-91650000D01*
X116340000Y-86650000D02*
X116340000Y-86940000D01*
%TO.N,/I2C1_SDA*%
X122125000Y-94150000D02*
X117800000Y-94150000D01*
X113000000Y-88000000D02*
X113000000Y-89350000D01*
X114350000Y-86650000D02*
X113000000Y-88000000D01*
X115260000Y-86650000D02*
X114350000Y-86650000D01*
X116250000Y-92600000D02*
X116625000Y-92975000D01*
X116625000Y-92975000D02*
X113000000Y-89350000D01*
X117800000Y-94150000D02*
X116625000Y-92975000D01*
X114400000Y-92600000D02*
X116250000Y-92600000D01*
D74*
%TO.N,/I2C2_SCL*%
X134250000Y-106260000D02*
X134740000Y-106260000D01*
X135600000Y-105800000D02*
X136375000Y-105800000D01*
D76*
X128050000Y-99075000D02*
X128050000Y-100450000D01*
D74*
X134740000Y-106260000D02*
X135400000Y-105600000D01*
D76*
X130200000Y-102600000D02*
X133950000Y-102600000D01*
D74*
X135400000Y-105600000D02*
X135400000Y-104050000D01*
X135400000Y-105600000D02*
X135600000Y-105800000D01*
D76*
X128050000Y-100450000D02*
X130200000Y-102600000D01*
X133950000Y-102600000D02*
X135400000Y-104050000D01*
D74*
%TO.N,/I2C2_SDA*%
X139400000Y-106800000D02*
X139400000Y-104050000D01*
X138860000Y-107340000D02*
X139400000Y-106800000D01*
D76*
X130499000Y-102099000D02*
X137449000Y-102099000D01*
D74*
X134250000Y-107340000D02*
X138860000Y-107340000D01*
D76*
X137449000Y-102099000D02*
X139400000Y-104050000D01*
X128550000Y-100150000D02*
X130499000Y-102099000D01*
X128550000Y-99075000D02*
X128550000Y-100150000D01*
D79*
%TO.N,Net-(D6-A)*%
X179600000Y-119000000D02*
X180600000Y-120000000D01*
X182600000Y-120700000D02*
X180650000Y-120700000D01*
X180650000Y-120700000D02*
X180600000Y-120750000D01*
X180600000Y-120000000D02*
X180600000Y-120750000D01*
X179225000Y-119000000D02*
X179600000Y-119000000D01*
D75*
%TO.N,Net-(D6-K)*%
X180600000Y-122090000D02*
X181790000Y-122090000D01*
X181790000Y-122090000D02*
X182600000Y-122900000D01*
D80*
X186500000Y-122900000D02*
X190100000Y-119300000D01*
X182600000Y-122900000D02*
X186500000Y-122900000D01*
D79*
X191475000Y-111775001D02*
X192375001Y-111775001D01*
D75*
X192625000Y-116775000D02*
X190100000Y-119300000D01*
D79*
X192375001Y-111775001D02*
X192625000Y-112025000D01*
D75*
X180600000Y-122740000D02*
X180600000Y-121701000D01*
X192625000Y-116000000D02*
X192625000Y-116775000D01*
D78*
X192625000Y-112025000D02*
X192625000Y-116000000D01*
D75*
%TO.N,Net-(D7-A2)*%
X178645000Y-121765000D02*
X176765000Y-121765000D01*
X175800000Y-120800000D02*
X175800000Y-119800000D01*
X176765000Y-121765000D02*
X175800000Y-120800000D01*
X175800000Y-119800000D02*
X175800000Y-117200000D01*
D74*
%TO.N,Net-(D9-K)*%
X185651000Y-114026000D02*
X187386500Y-114026000D01*
X184800000Y-113175000D02*
X185651000Y-114026000D01*
X189537499Y-113062500D02*
X190049999Y-112550000D01*
X187386500Y-114026000D02*
X188350000Y-113062500D01*
X188350000Y-113062500D02*
X189537499Y-113062500D01*
D78*
%TO.N,Net-(D10-A2)*%
X185000000Y-109600000D02*
X186000000Y-108600000D01*
X183600000Y-109600000D02*
X185000000Y-109600000D01*
D80*
%TO.N,/+7V4_CAN*%
X173540000Y-114674669D02*
X175525331Y-114674669D01*
X175525331Y-114674669D02*
X175800000Y-114400000D01*
D74*
%TO.N,/SWDIO*%
X114400000Y-100400000D02*
X114400000Y-98600000D01*
X114400000Y-98600000D02*
X117350000Y-95650000D01*
X117350000Y-95650000D02*
X122125000Y-95650000D01*
%TO.N,/NRST*%
X112400000Y-101600000D02*
X112400000Y-100400000D01*
X112375000Y-100375000D02*
X112400000Y-100400000D01*
X109000000Y-100375000D02*
X112375000Y-100375000D01*
X113200000Y-102400000D02*
X112400000Y-101600000D01*
X129680352Y-91650000D02*
X118930352Y-102400000D01*
X118930352Y-102400000D02*
X113200000Y-102400000D01*
X133475000Y-91650000D02*
X129680352Y-91650000D01*
%TO.N,/SWCLK*%
X122125000Y-96150000D02*
X120450000Y-96150000D01*
X120450000Y-96150000D02*
X118400000Y-98200000D01*
X118400000Y-98200000D02*
X118400000Y-100400000D01*
%TO.N,/E1*%
X125050000Y-99075000D02*
X125050000Y-99883824D01*
X125050000Y-99883824D02*
X118333824Y-106600000D01*
X107600000Y-106600000D02*
X106600000Y-107600000D01*
X118333824Y-106600000D02*
X107600000Y-106600000D01*
X106600000Y-107600000D02*
X106600000Y-109400000D01*
%TO.N,/E3*%
X118468024Y-107600000D02*
X113400000Y-107600000D01*
X112600000Y-108400000D02*
X112600000Y-109400000D01*
X126050000Y-100018024D02*
X118468024Y-107600000D01*
X113400000Y-107600000D02*
X112600000Y-108400000D01*
X126050000Y-99075000D02*
X126050000Y-100018024D01*
%TO.N,/E4*%
X126550000Y-100085124D02*
X118635124Y-108000000D01*
X114600000Y-108400000D02*
X114600000Y-109400000D01*
X115000000Y-108000000D02*
X114600000Y-108400000D01*
X126550000Y-99075000D02*
X126550000Y-100085124D01*
X118635124Y-108000000D02*
X115000000Y-108000000D01*
%TO.N,/E2*%
X125550000Y-99950924D02*
X118300924Y-107200000D01*
X109200000Y-107200000D02*
X108600000Y-107800000D01*
X118300924Y-107200000D02*
X109200000Y-107200000D01*
X125550000Y-99075000D02*
X125550000Y-99950924D01*
X108600000Y-107800000D02*
X108600000Y-109400000D01*
%TO.N,/USB_D+*%
X105800000Y-95200000D02*
X106400000Y-95800000D01*
X104200000Y-95200000D02*
X105800000Y-95200000D01*
X106400000Y-95800000D02*
X107575000Y-95800000D01*
%TO.N,/USB_D-*%
X105850000Y-94550000D02*
X106400000Y-94000000D01*
X104200000Y-94550000D02*
X105850000Y-94550000D01*
X106400000Y-94000000D02*
X107575000Y-94000000D01*
%TO.N,/CANL1*%
X147400000Y-115740563D02*
X147400000Y-118600000D01*
D77*
X166800000Y-111600000D02*
X166800000Y-111025000D01*
X169385000Y-117514669D02*
X169385000Y-114185000D01*
D74*
X145900000Y-112800000D02*
X145900000Y-114240563D01*
D77*
X169385000Y-114185000D02*
X166800000Y-111600000D01*
D74*
X145900000Y-114240563D02*
X147400000Y-115740563D01*
%TO.N,/CANH1*%
X154000000Y-114340563D02*
X153000000Y-115340563D01*
X154000000Y-112800000D02*
X154000000Y-114340563D01*
X153000000Y-115340563D02*
X153000000Y-119400000D01*
%TO.N,/CAN1_AUX*%
X132675000Y-100200000D02*
X132800000Y-100200000D01*
X168000000Y-114674669D02*
X162325331Y-109000000D01*
X162325331Y-109000000D02*
X157400000Y-109000000D01*
X131550000Y-99075000D02*
X132675000Y-100200000D01*
%TO.N,/CANL2*%
X148600000Y-120000000D02*
X148500000Y-119900000D01*
X159959669Y-121400000D02*
X163845000Y-117514669D01*
X148500000Y-112800000D02*
X148500000Y-119900000D01*
X152800000Y-121400000D02*
X159959669Y-121400000D01*
X131730331Y-121400000D02*
X148600000Y-121400000D01*
X148600000Y-121400000D02*
X152800000Y-121400000D01*
X127845000Y-117514669D02*
X131730331Y-121400000D01*
%TO.N,/CANH2*%
X162800000Y-116200000D02*
X165300331Y-116200000D01*
X130615000Y-117514669D02*
X133700331Y-120600000D01*
X158400000Y-120600000D02*
X162800000Y-116200000D01*
D77*
X133200000Y-111250000D02*
X133200000Y-111225000D01*
X133117619Y-111682381D02*
X133117619Y-111332381D01*
D74*
X151400000Y-112800000D02*
X151400000Y-119800000D01*
X133700331Y-120600000D02*
X147800000Y-120600000D01*
D77*
X130615000Y-117514669D02*
X130615000Y-114185000D01*
X130615000Y-114185000D02*
X133117619Y-111682381D01*
D74*
X165300331Y-116200000D02*
X166615000Y-117514669D01*
D77*
X133117619Y-111332381D02*
X133200000Y-111250000D01*
D74*
X147800000Y-120600000D02*
X150600000Y-120600000D01*
X151400000Y-119800000D02*
X150600000Y-120600000D01*
X150600000Y-120600000D02*
X158400000Y-120600000D01*
D76*
%TO.N,/SPI_MOSI*%
X141150000Y-75800000D02*
X142600000Y-77250000D01*
X128050000Y-83800000D02*
X127800000Y-83550000D01*
X128050000Y-87725000D02*
X128050000Y-83800000D01*
X131000000Y-75800000D02*
X141150000Y-75800000D01*
X127800000Y-79000000D02*
X131000000Y-75800000D01*
X127800000Y-83550000D02*
X127800000Y-79000000D01*
%TO.N,/SPI_MISO*%
X143450000Y-78400000D02*
X144600000Y-77250000D01*
X128550000Y-83550000D02*
X128200000Y-83200000D01*
X129000000Y-78400000D02*
X143450000Y-78400000D01*
X128200000Y-83200000D02*
X128200000Y-79200000D01*
X128200000Y-79200000D02*
X129000000Y-78400000D01*
X128550000Y-87725000D02*
X128550000Y-83550000D01*
%TO.N,/SPI_SCK*%
X129200000Y-78800000D02*
X145050000Y-78800000D01*
X145050000Y-78800000D02*
X146600000Y-77250000D01*
X129050000Y-87725000D02*
X129050000Y-83450000D01*
X128600000Y-79400000D02*
X129200000Y-78800000D01*
X129050000Y-83450000D02*
X128600000Y-83000000D01*
X128600000Y-83000000D02*
X128600000Y-79400000D01*
%TO.N,/SPI_CS*%
X129000000Y-82800000D02*
X129000000Y-79600000D01*
X129400000Y-79200000D02*
X148200000Y-79200000D01*
X129550000Y-87725000D02*
X129550000Y-83350000D01*
X148600000Y-78800000D02*
X148600000Y-77250000D01*
X129000000Y-79600000D02*
X129400000Y-79200000D01*
X148200000Y-79200000D02*
X148600000Y-78800000D01*
X129550000Y-83350000D02*
X129000000Y-82800000D01*
D74*
%TO.N,/CAN2_AUX*%
X130050000Y-100350000D02*
X130000000Y-100400000D01*
X135600000Y-110800000D02*
X135600000Y-111074669D01*
X130050000Y-99075000D02*
X130050000Y-100350000D01*
X135600000Y-111074669D02*
X132000000Y-114674669D01*
%TO.N,Net-(J14-Pin_4)*%
X143000000Y-83400000D02*
X139400000Y-83400000D01*
X146400000Y-86800000D02*
X143000000Y-83400000D01*
%TO.N,/PWM_B*%
X124080721Y-92650000D02*
X122125000Y-92650000D01*
X124180721Y-92750000D02*
X124080721Y-92650000D01*
X143401000Y-92600000D02*
X180780000Y-92600000D01*
X142800000Y-93201000D02*
X143401000Y-92600000D01*
X180780000Y-92600000D02*
X182300000Y-91080000D01*
%TO.N,Net-(J15-Pin_4)*%
X143600000Y-87200000D02*
X141400000Y-85000000D01*
%TO.N,/PWM_A*%
X142800000Y-91874000D02*
X143274000Y-91400000D01*
X143274000Y-91400000D02*
X170380000Y-91400000D01*
X122125000Y-92150000D02*
X124450000Y-92150000D01*
X124450000Y-92150000D02*
X124600000Y-92000000D01*
X170380000Y-91400000D02*
X170700000Y-91080000D01*
%TO.N,/PWM_C*%
X180780000Y-82400000D02*
X182300000Y-80880000D01*
X123800000Y-91200000D02*
X123750000Y-91150000D01*
X142800000Y-90200000D02*
X153957559Y-90200000D01*
X123750000Y-91150000D02*
X122125000Y-91150000D01*
X161757559Y-82400000D02*
X180780000Y-82400000D01*
X153957559Y-90200000D02*
X161757559Y-82400000D01*
%TO.N,Net-(J16-Pin_4)*%
X145400000Y-81800000D02*
X137400000Y-81800000D01*
X145400000Y-81800000D02*
X149600000Y-86000000D01*
%TO.N,/PWM_D*%
X123550000Y-90150000D02*
X123600000Y-90200000D01*
X143400000Y-89001000D02*
X152999000Y-89001000D01*
X122125000Y-90150000D02*
X123550000Y-90150000D01*
X152999000Y-89001000D02*
X161120000Y-80880000D01*
X161120000Y-80880000D02*
X170700000Y-80880000D01*
%TO.N,Net-(J17-Pin_4)*%
X146600000Y-80200000D02*
X135400000Y-80200000D01*
X149600000Y-83200000D02*
X146600000Y-80200000D01*
D76*
%TO.N,/PWM_EXT*%
X120850000Y-90650000D02*
X122125000Y-90650000D01*
X120600000Y-89200000D02*
X120600000Y-90400000D01*
X120600000Y-90400000D02*
X120850000Y-90650000D01*
%TO.N,/A8*%
X126550000Y-87725000D02*
X126550000Y-82950000D01*
X126550000Y-82950000D02*
X122600000Y-79000000D01*
X122600000Y-79000000D02*
X122600000Y-77200000D01*
%TO.N,/A9*%
X120600000Y-79000000D02*
X120600000Y-77200000D01*
X126050000Y-87725000D02*
X126050000Y-84450000D01*
X126050000Y-84450000D02*
X120600000Y-79000000D01*
D74*
%TO.N,/CANH*%
X152700000Y-112800000D02*
X152700000Y-111850000D01*
X152050000Y-111200000D02*
X150600000Y-111200000D01*
X152700000Y-111850000D02*
X152050000Y-111200000D01*
X150200252Y-110800252D02*
X150200252Y-109540251D01*
X150600000Y-111200000D02*
X150200252Y-110800252D01*
%TO.N,/CANL*%
X147850000Y-111200000D02*
X149400000Y-111200000D01*
X149700126Y-110899874D02*
X149700126Y-109540251D01*
X147200000Y-112800000D02*
X147200000Y-111850000D01*
X147200000Y-111850000D02*
X147850000Y-111200000D01*
X149400000Y-111200000D02*
X149700126Y-110899874D01*
%TO.N,/LED1*%
X124550000Y-99075000D02*
X124550000Y-98266176D01*
X125216176Y-97600000D02*
X126400000Y-97600000D01*
X124550000Y-98266176D02*
X125216176Y-97600000D01*
%TO.N,/LED2*%
X129800000Y-97000000D02*
X125249076Y-97000000D01*
X125249076Y-97000000D02*
X124050000Y-98199076D01*
X124050000Y-98199076D02*
X124050000Y-99075000D01*
%TO.N,Net-(U1-PA9{slash}PA11)*%
X110400000Y-94000000D02*
X111050000Y-94650000D01*
X111050000Y-94650000D02*
X122125000Y-94650000D01*
X109225000Y-94000000D02*
X110400000Y-94000000D01*
%TO.N,Net-(U1-PA10{slash}PA12)*%
X109225000Y-95800000D02*
X110400000Y-95800000D01*
X110400000Y-95800000D02*
X111050000Y-95150000D01*
X111050000Y-95150000D02*
X122125000Y-95150000D01*
%TO.N,Net-(U2-STB1)*%
X150960127Y-109800000D02*
X150700378Y-109540251D01*
X152575000Y-109800000D02*
X150960127Y-109800000D01*
%TO.N,Net-(U2-TXD2)*%
X148199748Y-103974748D02*
X147425000Y-103200000D01*
X148199748Y-106459749D02*
X148199748Y-103974748D01*
%TO.N,Net-(U2-RXD2)*%
X147699622Y-105074622D02*
X147425000Y-104800000D01*
X147699622Y-106459749D02*
X147699622Y-105074622D01*
%TO.N,Net-(U2-STB2)*%
X147699622Y-109540251D02*
X147699622Y-109299622D01*
X147699622Y-109299622D02*
X146800000Y-108400000D01*
X146800000Y-108400000D02*
X145825000Y-108400000D01*
D76*
%TO.N,/2S+ A10*%
X126600000Y-89800000D02*
X125550000Y-88750000D01*
X134400000Y-86800000D02*
X131400000Y-89800000D01*
X174096388Y-95200000D02*
X169600000Y-95200000D01*
X131400000Y-89800000D02*
X126600000Y-89800000D01*
X142000000Y-87800000D02*
X141000000Y-86800000D01*
X182755000Y-97200000D02*
X176096388Y-97200000D01*
X169600000Y-95200000D02*
X168400000Y-94000000D01*
D77*
X185175000Y-96200000D02*
X183755000Y-96200000D01*
D76*
X142000000Y-93600000D02*
X142000000Y-87800000D01*
X142400000Y-94000000D02*
X142000000Y-93600000D01*
X141000000Y-86800000D02*
X134400000Y-86800000D01*
X183755000Y-96200000D02*
X182755000Y-97200000D01*
X125550000Y-88750000D02*
X125550000Y-87725000D01*
X168400000Y-94000000D02*
X166000000Y-94000000D01*
X176096388Y-97200000D02*
X174096388Y-95200000D01*
D74*
%TO.N,Net-(U5-ILM)*%
X191050000Y-108875000D02*
X191000000Y-108825000D01*
X191050000Y-110250002D02*
X191050000Y-108875000D01*
D76*
%TO.N,/PWR_SOURCE*%
X169200000Y-96800000D02*
X169800000Y-96200000D01*
X158884552Y-97150000D02*
X159385552Y-96649000D01*
X173800000Y-96200000D02*
X175200000Y-97600000D01*
X166600000Y-96800000D02*
X169200000Y-96800000D01*
X180401000Y-104001000D02*
X189399000Y-104001000D01*
D74*
X192349998Y-110250002D02*
X193000000Y-109600000D01*
D76*
X191000000Y-104000000D02*
X192000000Y-105000000D01*
X189399000Y-104001000D02*
X189400000Y-104000000D01*
X189400000Y-104000000D02*
X191000000Y-104000000D01*
X192000000Y-107825000D02*
X193000000Y-108825000D01*
X169800000Y-96200000D02*
X173800000Y-96200000D01*
X133475000Y-97150000D02*
X158884552Y-97150000D01*
X192000000Y-105000000D02*
X192000000Y-107825000D01*
D74*
X193000000Y-109600000D02*
X193000000Y-108825000D01*
D76*
X175600000Y-101800000D02*
X178200000Y-101800000D01*
X166449000Y-96649000D02*
X166600000Y-96800000D01*
X175200000Y-101400000D02*
X175600000Y-101800000D01*
X175200000Y-97600000D02*
X175200000Y-101400000D01*
D74*
X191550001Y-110250002D02*
X192349998Y-110250002D01*
D76*
X159385552Y-96649000D02*
X166449000Y-96649000D01*
X178200000Y-101800000D02*
X180401000Y-104001000D01*
D74*
%TO.N,Net-(U5-PR1)*%
X191625000Y-114400000D02*
X191625000Y-115350000D01*
X191550001Y-112550000D02*
X191550001Y-114325001D01*
X191550001Y-114325001D02*
X191625000Y-114400000D01*
X191625000Y-115350000D02*
X190975000Y-116000000D01*
D75*
%TO.N,Net-(SW1-Pin_2)*%
X196185000Y-111100000D02*
X193549996Y-111100000D01*
D79*
X191475000Y-111075002D02*
X193524998Y-111075002D01*
X190125000Y-111075002D02*
X191475000Y-111075002D01*
D74*
%TO.N,/CAN1_TX*%
X149024000Y-105624000D02*
X149024000Y-103609936D01*
X131050000Y-100450000D02*
X131050000Y-99075000D01*
X131800000Y-101200000D02*
X131050000Y-100450000D01*
X149200000Y-105800000D02*
X149024000Y-105624000D01*
X149024000Y-103609936D02*
X146614064Y-101200000D01*
X149200000Y-106459749D02*
X149200000Y-105800000D01*
X144000000Y-101200000D02*
X131800000Y-101200000D01*
D78*
%TO.N,Net-(J19-Pin_1)*%
X181000000Y-108400000D02*
X182000000Y-108400000D01*
X182000000Y-108400000D02*
X183600000Y-106800000D01*
%TD*%
M02*
