%TF.GenerationSoftware,KiCad,Pcbnew,9.0.0*%
%TF.CreationDate,2025-04-17T15:03:59+12:00*%
%TF.ProjectId,Central_ECU,43656e74-7261-46c5-9f45-43552e6b6963,A*%
%TF.SameCoordinates,Original*%
%TF.FileFunction,Legend,Bot*%
%TF.FilePolarity,Positive*%
%FSLAX46Y46*%
G04 Gerber Fmt 4.6, Leading zero omitted, Abs format (unit mm)*
G04 Created by KiCad (PCBNEW 9.0.0) date 2025-04-17 15:03:59*
%MOMM*%
%LPD*%
G01*
G04 APERTURE LIST*
%ADD10C,0.100000*%
%ADD11C,0.150000*%
%ADD12C,0.120000*%
G04 APERTURE END LIST*
G36*
X111062000Y-130874000D02*
G01*
X119062000Y-130874000D01*
X119062000Y-138874000D01*
X111062000Y-138874000D01*
X111062000Y-130874000D01*
G37*
D10*
X159512000Y-145034000D02*
X157226000Y-145034000D01*
D11*
X144405332Y-136430104D02*
X144443428Y-136468200D01*
X144443428Y-136468200D02*
X144557713Y-136506295D01*
X144557713Y-136506295D02*
X144633904Y-136506295D01*
X144633904Y-136506295D02*
X144748190Y-136468200D01*
X144748190Y-136468200D02*
X144824380Y-136392009D01*
X144824380Y-136392009D02*
X144862475Y-136315819D01*
X144862475Y-136315819D02*
X144900571Y-136163438D01*
X144900571Y-136163438D02*
X144900571Y-136049152D01*
X144900571Y-136049152D02*
X144862475Y-135896771D01*
X144862475Y-135896771D02*
X144824380Y-135820580D01*
X144824380Y-135820580D02*
X144748190Y-135744390D01*
X144748190Y-135744390D02*
X144633904Y-135706295D01*
X144633904Y-135706295D02*
X144557713Y-135706295D01*
X144557713Y-135706295D02*
X144443428Y-135744390D01*
X144443428Y-135744390D02*
X144405332Y-135782485D01*
X144138666Y-135706295D02*
X143643428Y-135706295D01*
X143643428Y-135706295D02*
X143910094Y-136011057D01*
X143910094Y-136011057D02*
X143795809Y-136011057D01*
X143795809Y-136011057D02*
X143719618Y-136049152D01*
X143719618Y-136049152D02*
X143681523Y-136087247D01*
X143681523Y-136087247D02*
X143643428Y-136163438D01*
X143643428Y-136163438D02*
X143643428Y-136353914D01*
X143643428Y-136353914D02*
X143681523Y-136430104D01*
X143681523Y-136430104D02*
X143719618Y-136468200D01*
X143719618Y-136468200D02*
X143795809Y-136506295D01*
X143795809Y-136506295D02*
X144024380Y-136506295D01*
X144024380Y-136506295D02*
X144100571Y-136468200D01*
X144100571Y-136468200D02*
X144138666Y-136430104D01*
X134753332Y-130682104D02*
X134791428Y-130720200D01*
X134791428Y-130720200D02*
X134905713Y-130758295D01*
X134905713Y-130758295D02*
X134981904Y-130758295D01*
X134981904Y-130758295D02*
X135096190Y-130720200D01*
X135096190Y-130720200D02*
X135172380Y-130644009D01*
X135172380Y-130644009D02*
X135210475Y-130567819D01*
X135210475Y-130567819D02*
X135248571Y-130415438D01*
X135248571Y-130415438D02*
X135248571Y-130301152D01*
X135248571Y-130301152D02*
X135210475Y-130148771D01*
X135210475Y-130148771D02*
X135172380Y-130072580D01*
X135172380Y-130072580D02*
X135096190Y-129996390D01*
X135096190Y-129996390D02*
X134981904Y-129958295D01*
X134981904Y-129958295D02*
X134905713Y-129958295D01*
X134905713Y-129958295D02*
X134791428Y-129996390D01*
X134791428Y-129996390D02*
X134753332Y-130034485D01*
X134448571Y-130034485D02*
X134410475Y-129996390D01*
X134410475Y-129996390D02*
X134334285Y-129958295D01*
X134334285Y-129958295D02*
X134143809Y-129958295D01*
X134143809Y-129958295D02*
X134067618Y-129996390D01*
X134067618Y-129996390D02*
X134029523Y-130034485D01*
X134029523Y-130034485D02*
X133991428Y-130110676D01*
X133991428Y-130110676D02*
X133991428Y-130186866D01*
X133991428Y-130186866D02*
X134029523Y-130301152D01*
X134029523Y-130301152D02*
X134486666Y-130758295D01*
X134486666Y-130758295D02*
X133991428Y-130758295D01*
X159073618Y-104022295D02*
X159073618Y-103222295D01*
X159073618Y-103222295D02*
X158768856Y-103222295D01*
X158768856Y-103222295D02*
X158692666Y-103260390D01*
X158692666Y-103260390D02*
X158654571Y-103298485D01*
X158654571Y-103298485D02*
X158616475Y-103374676D01*
X158616475Y-103374676D02*
X158616475Y-103488961D01*
X158616475Y-103488961D02*
X158654571Y-103565152D01*
X158654571Y-103565152D02*
X158692666Y-103603247D01*
X158692666Y-103603247D02*
X158768856Y-103641342D01*
X158768856Y-103641342D02*
X159073618Y-103641342D01*
X157854571Y-103260390D02*
X157930761Y-103222295D01*
X157930761Y-103222295D02*
X158045047Y-103222295D01*
X158045047Y-103222295D02*
X158159333Y-103260390D01*
X158159333Y-103260390D02*
X158235523Y-103336580D01*
X158235523Y-103336580D02*
X158273618Y-103412771D01*
X158273618Y-103412771D02*
X158311714Y-103565152D01*
X158311714Y-103565152D02*
X158311714Y-103679438D01*
X158311714Y-103679438D02*
X158273618Y-103831819D01*
X158273618Y-103831819D02*
X158235523Y-103908009D01*
X158235523Y-103908009D02*
X158159333Y-103984200D01*
X158159333Y-103984200D02*
X158045047Y-104022295D01*
X158045047Y-104022295D02*
X157968856Y-104022295D01*
X157968856Y-104022295D02*
X157854571Y-103984200D01*
X157854571Y-103984200D02*
X157816475Y-103946104D01*
X157816475Y-103946104D02*
X157816475Y-103679438D01*
X157816475Y-103679438D02*
X157968856Y-103679438D01*
X157321237Y-103222295D02*
X157168856Y-103222295D01*
X157168856Y-103222295D02*
X157092666Y-103260390D01*
X157092666Y-103260390D02*
X157016475Y-103336580D01*
X157016475Y-103336580D02*
X156978380Y-103488961D01*
X156978380Y-103488961D02*
X156978380Y-103755628D01*
X156978380Y-103755628D02*
X157016475Y-103908009D01*
X157016475Y-103908009D02*
X157092666Y-103984200D01*
X157092666Y-103984200D02*
X157168856Y-104022295D01*
X157168856Y-104022295D02*
X157321237Y-104022295D01*
X157321237Y-104022295D02*
X157397428Y-103984200D01*
X157397428Y-103984200D02*
X157473618Y-103908009D01*
X157473618Y-103908009D02*
X157511714Y-103755628D01*
X157511714Y-103755628D02*
X157511714Y-103488961D01*
X157511714Y-103488961D02*
X157473618Y-103336580D01*
X157473618Y-103336580D02*
X157397428Y-103260390D01*
X157397428Y-103260390D02*
X157321237Y-103222295D01*
X156483142Y-103222295D02*
X156330761Y-103222295D01*
X156330761Y-103222295D02*
X156254571Y-103260390D01*
X156254571Y-103260390D02*
X156178380Y-103336580D01*
X156178380Y-103336580D02*
X156140285Y-103488961D01*
X156140285Y-103488961D02*
X156140285Y-103755628D01*
X156140285Y-103755628D02*
X156178380Y-103908009D01*
X156178380Y-103908009D02*
X156254571Y-103984200D01*
X156254571Y-103984200D02*
X156330761Y-104022295D01*
X156330761Y-104022295D02*
X156483142Y-104022295D01*
X156483142Y-104022295D02*
X156559333Y-103984200D01*
X156559333Y-103984200D02*
X156635523Y-103908009D01*
X156635523Y-103908009D02*
X156673619Y-103755628D01*
X156673619Y-103755628D02*
X156673619Y-103488961D01*
X156673619Y-103488961D02*
X156635523Y-103336580D01*
X156635523Y-103336580D02*
X156559333Y-103260390D01*
X156559333Y-103260390D02*
X156483142Y-103222295D01*
X155797428Y-104022295D02*
X155797428Y-103222295D01*
X155797428Y-103222295D02*
X155606952Y-103222295D01*
X155606952Y-103222295D02*
X155492666Y-103260390D01*
X155492666Y-103260390D02*
X155416476Y-103336580D01*
X155416476Y-103336580D02*
X155378381Y-103412771D01*
X155378381Y-103412771D02*
X155340285Y-103565152D01*
X155340285Y-103565152D02*
X155340285Y-103679438D01*
X155340285Y-103679438D02*
X155378381Y-103831819D01*
X155378381Y-103831819D02*
X155416476Y-103908009D01*
X155416476Y-103908009D02*
X155492666Y-103984200D01*
X155492666Y-103984200D02*
X155606952Y-104022295D01*
X155606952Y-104022295D02*
X155797428Y-104022295D01*
X148945428Y-113445723D02*
X148564475Y-113445723D01*
X149021618Y-113674295D02*
X148754951Y-112874295D01*
X148754951Y-112874295D02*
X148488285Y-113674295D01*
X148221618Y-113674295D02*
X148221618Y-112874295D01*
X148221618Y-112874295D02*
X148031142Y-112874295D01*
X148031142Y-112874295D02*
X147916856Y-112912390D01*
X147916856Y-112912390D02*
X147840666Y-112988580D01*
X147840666Y-112988580D02*
X147802571Y-113064771D01*
X147802571Y-113064771D02*
X147764475Y-113217152D01*
X147764475Y-113217152D02*
X147764475Y-113331438D01*
X147764475Y-113331438D02*
X147802571Y-113483819D01*
X147802571Y-113483819D02*
X147840666Y-113560009D01*
X147840666Y-113560009D02*
X147916856Y-113636200D01*
X147916856Y-113636200D02*
X148031142Y-113674295D01*
X148031142Y-113674295D02*
X148221618Y-113674295D01*
X146964475Y-113598104D02*
X147002571Y-113636200D01*
X147002571Y-113636200D02*
X147116856Y-113674295D01*
X147116856Y-113674295D02*
X147193047Y-113674295D01*
X147193047Y-113674295D02*
X147307333Y-113636200D01*
X147307333Y-113636200D02*
X147383523Y-113560009D01*
X147383523Y-113560009D02*
X147421618Y-113483819D01*
X147421618Y-113483819D02*
X147459714Y-113331438D01*
X147459714Y-113331438D02*
X147459714Y-113217152D01*
X147459714Y-113217152D02*
X147421618Y-113064771D01*
X147421618Y-113064771D02*
X147383523Y-112988580D01*
X147383523Y-112988580D02*
X147307333Y-112912390D01*
X147307333Y-112912390D02*
X147193047Y-112874295D01*
X147193047Y-112874295D02*
X147116856Y-112874295D01*
X147116856Y-112874295D02*
X147002571Y-112912390D01*
X147002571Y-112912390D02*
X146964475Y-112950485D01*
X146659714Y-112950485D02*
X146621618Y-112912390D01*
X146621618Y-112912390D02*
X146545428Y-112874295D01*
X146545428Y-112874295D02*
X146354952Y-112874295D01*
X146354952Y-112874295D02*
X146278761Y-112912390D01*
X146278761Y-112912390D02*
X146240666Y-112950485D01*
X146240666Y-112950485D02*
X146202571Y-113026676D01*
X146202571Y-113026676D02*
X146202571Y-113102866D01*
X146202571Y-113102866D02*
X146240666Y-113217152D01*
X146240666Y-113217152D02*
X146697809Y-113674295D01*
X146697809Y-113674295D02*
X146202571Y-113674295D01*
X164090285Y-143796104D02*
X164128381Y-143834200D01*
X164128381Y-143834200D02*
X164242666Y-143872295D01*
X164242666Y-143872295D02*
X164318857Y-143872295D01*
X164318857Y-143872295D02*
X164433143Y-143834200D01*
X164433143Y-143834200D02*
X164509333Y-143758009D01*
X164509333Y-143758009D02*
X164547428Y-143681819D01*
X164547428Y-143681819D02*
X164585524Y-143529438D01*
X164585524Y-143529438D02*
X164585524Y-143415152D01*
X164585524Y-143415152D02*
X164547428Y-143262771D01*
X164547428Y-143262771D02*
X164509333Y-143186580D01*
X164509333Y-143186580D02*
X164433143Y-143110390D01*
X164433143Y-143110390D02*
X164318857Y-143072295D01*
X164318857Y-143072295D02*
X164242666Y-143072295D01*
X164242666Y-143072295D02*
X164128381Y-143110390D01*
X164128381Y-143110390D02*
X164090285Y-143148485D01*
X163823619Y-143072295D02*
X163328381Y-143072295D01*
X163328381Y-143072295D02*
X163595047Y-143377057D01*
X163595047Y-143377057D02*
X163480762Y-143377057D01*
X163480762Y-143377057D02*
X163404571Y-143415152D01*
X163404571Y-143415152D02*
X163366476Y-143453247D01*
X163366476Y-143453247D02*
X163328381Y-143529438D01*
X163328381Y-143529438D02*
X163328381Y-143719914D01*
X163328381Y-143719914D02*
X163366476Y-143796104D01*
X163366476Y-143796104D02*
X163404571Y-143834200D01*
X163404571Y-143834200D02*
X163480762Y-143872295D01*
X163480762Y-143872295D02*
X163709333Y-143872295D01*
X163709333Y-143872295D02*
X163785524Y-143834200D01*
X163785524Y-143834200D02*
X163823619Y-143796104D01*
X163061714Y-143072295D02*
X162566476Y-143072295D01*
X162566476Y-143072295D02*
X162833142Y-143377057D01*
X162833142Y-143377057D02*
X162718857Y-143377057D01*
X162718857Y-143377057D02*
X162642666Y-143415152D01*
X162642666Y-143415152D02*
X162604571Y-143453247D01*
X162604571Y-143453247D02*
X162566476Y-143529438D01*
X162566476Y-143529438D02*
X162566476Y-143719914D01*
X162566476Y-143719914D02*
X162604571Y-143796104D01*
X162604571Y-143796104D02*
X162642666Y-143834200D01*
X162642666Y-143834200D02*
X162718857Y-143872295D01*
X162718857Y-143872295D02*
X162947428Y-143872295D01*
X162947428Y-143872295D02*
X163023619Y-143834200D01*
X163023619Y-143834200D02*
X163061714Y-143796104D01*
X147834285Y-107126104D02*
X147872381Y-107164200D01*
X147872381Y-107164200D02*
X147986666Y-107202295D01*
X147986666Y-107202295D02*
X148062857Y-107202295D01*
X148062857Y-107202295D02*
X148177143Y-107164200D01*
X148177143Y-107164200D02*
X148253333Y-107088009D01*
X148253333Y-107088009D02*
X148291428Y-107011819D01*
X148291428Y-107011819D02*
X148329524Y-106859438D01*
X148329524Y-106859438D02*
X148329524Y-106745152D01*
X148329524Y-106745152D02*
X148291428Y-106592771D01*
X148291428Y-106592771D02*
X148253333Y-106516580D01*
X148253333Y-106516580D02*
X148177143Y-106440390D01*
X148177143Y-106440390D02*
X148062857Y-106402295D01*
X148062857Y-106402295D02*
X147986666Y-106402295D01*
X147986666Y-106402295D02*
X147872381Y-106440390D01*
X147872381Y-106440390D02*
X147834285Y-106478485D01*
X147072381Y-107202295D02*
X147529524Y-107202295D01*
X147300952Y-107202295D02*
X147300952Y-106402295D01*
X147300952Y-106402295D02*
X147377143Y-106516580D01*
X147377143Y-106516580D02*
X147453333Y-106592771D01*
X147453333Y-106592771D02*
X147529524Y-106630866D01*
X146577142Y-106402295D02*
X146500952Y-106402295D01*
X146500952Y-106402295D02*
X146424761Y-106440390D01*
X146424761Y-106440390D02*
X146386666Y-106478485D01*
X146386666Y-106478485D02*
X146348571Y-106554676D01*
X146348571Y-106554676D02*
X146310476Y-106707057D01*
X146310476Y-106707057D02*
X146310476Y-106897533D01*
X146310476Y-106897533D02*
X146348571Y-107049914D01*
X146348571Y-107049914D02*
X146386666Y-107126104D01*
X146386666Y-107126104D02*
X146424761Y-107164200D01*
X146424761Y-107164200D02*
X146500952Y-107202295D01*
X146500952Y-107202295D02*
X146577142Y-107202295D01*
X146577142Y-107202295D02*
X146653333Y-107164200D01*
X146653333Y-107164200D02*
X146691428Y-107126104D01*
X146691428Y-107126104D02*
X146729523Y-107049914D01*
X146729523Y-107049914D02*
X146767619Y-106897533D01*
X146767619Y-106897533D02*
X146767619Y-106707057D01*
X146767619Y-106707057D02*
X146729523Y-106554676D01*
X146729523Y-106554676D02*
X146691428Y-106478485D01*
X146691428Y-106478485D02*
X146653333Y-106440390D01*
X146653333Y-106440390D02*
X146577142Y-106402295D01*
X143643332Y-102488104D02*
X143681428Y-102526200D01*
X143681428Y-102526200D02*
X143795713Y-102564295D01*
X143795713Y-102564295D02*
X143871904Y-102564295D01*
X143871904Y-102564295D02*
X143986190Y-102526200D01*
X143986190Y-102526200D02*
X144062380Y-102450009D01*
X144062380Y-102450009D02*
X144100475Y-102373819D01*
X144100475Y-102373819D02*
X144138571Y-102221438D01*
X144138571Y-102221438D02*
X144138571Y-102107152D01*
X144138571Y-102107152D02*
X144100475Y-101954771D01*
X144100475Y-101954771D02*
X144062380Y-101878580D01*
X144062380Y-101878580D02*
X143986190Y-101802390D01*
X143986190Y-101802390D02*
X143871904Y-101764295D01*
X143871904Y-101764295D02*
X143795713Y-101764295D01*
X143795713Y-101764295D02*
X143681428Y-101802390D01*
X143681428Y-101802390D02*
X143643332Y-101840485D01*
X143376666Y-101764295D02*
X142843332Y-101764295D01*
X142843332Y-101764295D02*
X143186190Y-102564295D01*
X144164332Y-134906104D02*
X144202428Y-134944200D01*
X144202428Y-134944200D02*
X144316713Y-134982295D01*
X144316713Y-134982295D02*
X144392904Y-134982295D01*
X144392904Y-134982295D02*
X144507190Y-134944200D01*
X144507190Y-134944200D02*
X144583380Y-134868009D01*
X144583380Y-134868009D02*
X144621475Y-134791819D01*
X144621475Y-134791819D02*
X144659571Y-134639438D01*
X144659571Y-134639438D02*
X144659571Y-134525152D01*
X144659571Y-134525152D02*
X144621475Y-134372771D01*
X144621475Y-134372771D02*
X144583380Y-134296580D01*
X144583380Y-134296580D02*
X144507190Y-134220390D01*
X144507190Y-134220390D02*
X144392904Y-134182295D01*
X144392904Y-134182295D02*
X144316713Y-134182295D01*
X144316713Y-134182295D02*
X144202428Y-134220390D01*
X144202428Y-134220390D02*
X144164332Y-134258485D01*
X143478618Y-134448961D02*
X143478618Y-134982295D01*
X143669094Y-134144200D02*
X143859571Y-134715628D01*
X143859571Y-134715628D02*
X143364332Y-134715628D01*
X161061237Y-95640295D02*
X161061237Y-94840295D01*
X160680285Y-95640295D02*
X160680285Y-94840295D01*
X160680285Y-94840295D02*
X160413619Y-95411723D01*
X160413619Y-95411723D02*
X160146952Y-94840295D01*
X160146952Y-94840295D02*
X160146952Y-95640295D01*
X159613618Y-94840295D02*
X159461237Y-94840295D01*
X159461237Y-94840295D02*
X159385047Y-94878390D01*
X159385047Y-94878390D02*
X159308856Y-94954580D01*
X159308856Y-94954580D02*
X159270761Y-95106961D01*
X159270761Y-95106961D02*
X159270761Y-95373628D01*
X159270761Y-95373628D02*
X159308856Y-95526009D01*
X159308856Y-95526009D02*
X159385047Y-95602200D01*
X159385047Y-95602200D02*
X159461237Y-95640295D01*
X159461237Y-95640295D02*
X159613618Y-95640295D01*
X159613618Y-95640295D02*
X159689809Y-95602200D01*
X159689809Y-95602200D02*
X159765999Y-95526009D01*
X159765999Y-95526009D02*
X159804095Y-95373628D01*
X159804095Y-95373628D02*
X159804095Y-95106961D01*
X159804095Y-95106961D02*
X159765999Y-94954580D01*
X159765999Y-94954580D02*
X159689809Y-94878390D01*
X159689809Y-94878390D02*
X159613618Y-94840295D01*
X158927904Y-95640295D02*
X158927904Y-94840295D01*
X158927904Y-94840295D02*
X158470761Y-95640295D01*
X158470761Y-95640295D02*
X158470761Y-94840295D01*
X164090285Y-148368104D02*
X164128381Y-148406200D01*
X164128381Y-148406200D02*
X164242666Y-148444295D01*
X164242666Y-148444295D02*
X164318857Y-148444295D01*
X164318857Y-148444295D02*
X164433143Y-148406200D01*
X164433143Y-148406200D02*
X164509333Y-148330009D01*
X164509333Y-148330009D02*
X164547428Y-148253819D01*
X164547428Y-148253819D02*
X164585524Y-148101438D01*
X164585524Y-148101438D02*
X164585524Y-147987152D01*
X164585524Y-147987152D02*
X164547428Y-147834771D01*
X164547428Y-147834771D02*
X164509333Y-147758580D01*
X164509333Y-147758580D02*
X164433143Y-147682390D01*
X164433143Y-147682390D02*
X164318857Y-147644295D01*
X164318857Y-147644295D02*
X164242666Y-147644295D01*
X164242666Y-147644295D02*
X164128381Y-147682390D01*
X164128381Y-147682390D02*
X164090285Y-147720485D01*
X163823619Y-147644295D02*
X163328381Y-147644295D01*
X163328381Y-147644295D02*
X163595047Y-147949057D01*
X163595047Y-147949057D02*
X163480762Y-147949057D01*
X163480762Y-147949057D02*
X163404571Y-147987152D01*
X163404571Y-147987152D02*
X163366476Y-148025247D01*
X163366476Y-148025247D02*
X163328381Y-148101438D01*
X163328381Y-148101438D02*
X163328381Y-148291914D01*
X163328381Y-148291914D02*
X163366476Y-148368104D01*
X163366476Y-148368104D02*
X163404571Y-148406200D01*
X163404571Y-148406200D02*
X163480762Y-148444295D01*
X163480762Y-148444295D02*
X163709333Y-148444295D01*
X163709333Y-148444295D02*
X163785524Y-148406200D01*
X163785524Y-148406200D02*
X163823619Y-148368104D01*
X162642666Y-147910961D02*
X162642666Y-148444295D01*
X162833142Y-147606200D02*
X163023619Y-148177628D01*
X163023619Y-148177628D02*
X162528380Y-148177628D01*
X174040571Y-133067247D02*
X173773905Y-133067247D01*
X173659619Y-133486295D02*
X174040571Y-133486295D01*
X174040571Y-133486295D02*
X174040571Y-132686295D01*
X174040571Y-132686295D02*
X173659619Y-132686295D01*
X173316761Y-133486295D02*
X173316761Y-132686295D01*
X173316761Y-132686295D02*
X173050095Y-133257723D01*
X173050095Y-133257723D02*
X172783428Y-132686295D01*
X172783428Y-132686295D02*
X172783428Y-133486295D01*
X171945332Y-133410104D02*
X171983428Y-133448200D01*
X171983428Y-133448200D02*
X172097713Y-133486295D01*
X172097713Y-133486295D02*
X172173904Y-133486295D01*
X172173904Y-133486295D02*
X172288190Y-133448200D01*
X172288190Y-133448200D02*
X172364380Y-133372009D01*
X172364380Y-133372009D02*
X172402475Y-133295819D01*
X172402475Y-133295819D02*
X172440571Y-133143438D01*
X172440571Y-133143438D02*
X172440571Y-133029152D01*
X172440571Y-133029152D02*
X172402475Y-132876771D01*
X172402475Y-132876771D02*
X172364380Y-132800580D01*
X172364380Y-132800580D02*
X172288190Y-132724390D01*
X172288190Y-132724390D02*
X172173904Y-132686295D01*
X172173904Y-132686295D02*
X172097713Y-132686295D01*
X172097713Y-132686295D02*
X171983428Y-132724390D01*
X171983428Y-132724390D02*
X171945332Y-132762485D01*
X171602475Y-133486295D02*
X171602475Y-132686295D01*
X171602475Y-133067247D02*
X171145332Y-133067247D01*
X171145332Y-133486295D02*
X171145332Y-132686295D01*
X170802476Y-132762485D02*
X170764380Y-132724390D01*
X170764380Y-132724390D02*
X170688190Y-132686295D01*
X170688190Y-132686295D02*
X170497714Y-132686295D01*
X170497714Y-132686295D02*
X170421523Y-132724390D01*
X170421523Y-132724390D02*
X170383428Y-132762485D01*
X170383428Y-132762485D02*
X170345333Y-132838676D01*
X170345333Y-132838676D02*
X170345333Y-132914866D01*
X170345333Y-132914866D02*
X170383428Y-133029152D01*
X170383428Y-133029152D02*
X170840571Y-133486295D01*
X170840571Y-133486295D02*
X170345333Y-133486295D01*
X134753332Y-135160104D02*
X134791428Y-135198200D01*
X134791428Y-135198200D02*
X134905713Y-135236295D01*
X134905713Y-135236295D02*
X134981904Y-135236295D01*
X134981904Y-135236295D02*
X135096190Y-135198200D01*
X135096190Y-135198200D02*
X135172380Y-135122009D01*
X135172380Y-135122009D02*
X135210475Y-135045819D01*
X135210475Y-135045819D02*
X135248571Y-134893438D01*
X135248571Y-134893438D02*
X135248571Y-134779152D01*
X135248571Y-134779152D02*
X135210475Y-134626771D01*
X135210475Y-134626771D02*
X135172380Y-134550580D01*
X135172380Y-134550580D02*
X135096190Y-134474390D01*
X135096190Y-134474390D02*
X134981904Y-134436295D01*
X134981904Y-134436295D02*
X134905713Y-134436295D01*
X134905713Y-134436295D02*
X134791428Y-134474390D01*
X134791428Y-134474390D02*
X134753332Y-134512485D01*
X133991428Y-135236295D02*
X134448571Y-135236295D01*
X134219999Y-135236295D02*
X134219999Y-134436295D01*
X134219999Y-134436295D02*
X134296190Y-134550580D01*
X134296190Y-134550580D02*
X134372380Y-134626771D01*
X134372380Y-134626771D02*
X134448571Y-134664866D01*
X176282285Y-148368104D02*
X176320381Y-148406200D01*
X176320381Y-148406200D02*
X176434666Y-148444295D01*
X176434666Y-148444295D02*
X176510857Y-148444295D01*
X176510857Y-148444295D02*
X176625143Y-148406200D01*
X176625143Y-148406200D02*
X176701333Y-148330009D01*
X176701333Y-148330009D02*
X176739428Y-148253819D01*
X176739428Y-148253819D02*
X176777524Y-148101438D01*
X176777524Y-148101438D02*
X176777524Y-147987152D01*
X176777524Y-147987152D02*
X176739428Y-147834771D01*
X176739428Y-147834771D02*
X176701333Y-147758580D01*
X176701333Y-147758580D02*
X176625143Y-147682390D01*
X176625143Y-147682390D02*
X176510857Y-147644295D01*
X176510857Y-147644295D02*
X176434666Y-147644295D01*
X176434666Y-147644295D02*
X176320381Y-147682390D01*
X176320381Y-147682390D02*
X176282285Y-147720485D01*
X176015619Y-147644295D02*
X175520381Y-147644295D01*
X175520381Y-147644295D02*
X175787047Y-147949057D01*
X175787047Y-147949057D02*
X175672762Y-147949057D01*
X175672762Y-147949057D02*
X175596571Y-147987152D01*
X175596571Y-147987152D02*
X175558476Y-148025247D01*
X175558476Y-148025247D02*
X175520381Y-148101438D01*
X175520381Y-148101438D02*
X175520381Y-148291914D01*
X175520381Y-148291914D02*
X175558476Y-148368104D01*
X175558476Y-148368104D02*
X175596571Y-148406200D01*
X175596571Y-148406200D02*
X175672762Y-148444295D01*
X175672762Y-148444295D02*
X175901333Y-148444295D01*
X175901333Y-148444295D02*
X175977524Y-148406200D01*
X175977524Y-148406200D02*
X176015619Y-148368104D01*
X174758476Y-148444295D02*
X175215619Y-148444295D01*
X174987047Y-148444295D02*
X174987047Y-147644295D01*
X174987047Y-147644295D02*
X175063238Y-147758580D01*
X175063238Y-147758580D02*
X175139428Y-147834771D01*
X175139428Y-147834771D02*
X175215619Y-147872866D01*
X169214571Y-133067247D02*
X168947905Y-133067247D01*
X168833619Y-133486295D02*
X169214571Y-133486295D01*
X169214571Y-133486295D02*
X169214571Y-132686295D01*
X169214571Y-132686295D02*
X168833619Y-132686295D01*
X168490761Y-133486295D02*
X168490761Y-132686295D01*
X168490761Y-132686295D02*
X168224095Y-133257723D01*
X168224095Y-133257723D02*
X167957428Y-132686295D01*
X167957428Y-132686295D02*
X167957428Y-133486295D01*
X167119332Y-133410104D02*
X167157428Y-133448200D01*
X167157428Y-133448200D02*
X167271713Y-133486295D01*
X167271713Y-133486295D02*
X167347904Y-133486295D01*
X167347904Y-133486295D02*
X167462190Y-133448200D01*
X167462190Y-133448200D02*
X167538380Y-133372009D01*
X167538380Y-133372009D02*
X167576475Y-133295819D01*
X167576475Y-133295819D02*
X167614571Y-133143438D01*
X167614571Y-133143438D02*
X167614571Y-133029152D01*
X167614571Y-133029152D02*
X167576475Y-132876771D01*
X167576475Y-132876771D02*
X167538380Y-132800580D01*
X167538380Y-132800580D02*
X167462190Y-132724390D01*
X167462190Y-132724390D02*
X167347904Y-132686295D01*
X167347904Y-132686295D02*
X167271713Y-132686295D01*
X167271713Y-132686295D02*
X167157428Y-132724390D01*
X167157428Y-132724390D02*
X167119332Y-132762485D01*
X166776475Y-133486295D02*
X166776475Y-132686295D01*
X166776475Y-133067247D02*
X166319332Y-133067247D01*
X166319332Y-133486295D02*
X166319332Y-132686295D01*
X165519333Y-133486295D02*
X165976476Y-133486295D01*
X165747904Y-133486295D02*
X165747904Y-132686295D01*
X165747904Y-132686295D02*
X165824095Y-132800580D01*
X165824095Y-132800580D02*
X165900285Y-132876771D01*
X165900285Y-132876771D02*
X165976476Y-132914866D01*
X176282285Y-143796104D02*
X176320381Y-143834200D01*
X176320381Y-143834200D02*
X176434666Y-143872295D01*
X176434666Y-143872295D02*
X176510857Y-143872295D01*
X176510857Y-143872295D02*
X176625143Y-143834200D01*
X176625143Y-143834200D02*
X176701333Y-143758009D01*
X176701333Y-143758009D02*
X176739428Y-143681819D01*
X176739428Y-143681819D02*
X176777524Y-143529438D01*
X176777524Y-143529438D02*
X176777524Y-143415152D01*
X176777524Y-143415152D02*
X176739428Y-143262771D01*
X176739428Y-143262771D02*
X176701333Y-143186580D01*
X176701333Y-143186580D02*
X176625143Y-143110390D01*
X176625143Y-143110390D02*
X176510857Y-143072295D01*
X176510857Y-143072295D02*
X176434666Y-143072295D01*
X176434666Y-143072295D02*
X176320381Y-143110390D01*
X176320381Y-143110390D02*
X176282285Y-143148485D01*
X176015619Y-143072295D02*
X175520381Y-143072295D01*
X175520381Y-143072295D02*
X175787047Y-143377057D01*
X175787047Y-143377057D02*
X175672762Y-143377057D01*
X175672762Y-143377057D02*
X175596571Y-143415152D01*
X175596571Y-143415152D02*
X175558476Y-143453247D01*
X175558476Y-143453247D02*
X175520381Y-143529438D01*
X175520381Y-143529438D02*
X175520381Y-143719914D01*
X175520381Y-143719914D02*
X175558476Y-143796104D01*
X175558476Y-143796104D02*
X175596571Y-143834200D01*
X175596571Y-143834200D02*
X175672762Y-143872295D01*
X175672762Y-143872295D02*
X175901333Y-143872295D01*
X175901333Y-143872295D02*
X175977524Y-143834200D01*
X175977524Y-143834200D02*
X176015619Y-143796104D01*
X175025142Y-143072295D02*
X174948952Y-143072295D01*
X174948952Y-143072295D02*
X174872761Y-143110390D01*
X174872761Y-143110390D02*
X174834666Y-143148485D01*
X174834666Y-143148485D02*
X174796571Y-143224676D01*
X174796571Y-143224676D02*
X174758476Y-143377057D01*
X174758476Y-143377057D02*
X174758476Y-143567533D01*
X174758476Y-143567533D02*
X174796571Y-143719914D01*
X174796571Y-143719914D02*
X174834666Y-143796104D01*
X174834666Y-143796104D02*
X174872761Y-143834200D01*
X174872761Y-143834200D02*
X174948952Y-143872295D01*
X174948952Y-143872295D02*
X175025142Y-143872295D01*
X175025142Y-143872295D02*
X175101333Y-143834200D01*
X175101333Y-143834200D02*
X175139428Y-143796104D01*
X175139428Y-143796104D02*
X175177523Y-143719914D01*
X175177523Y-143719914D02*
X175215619Y-143567533D01*
X175215619Y-143567533D02*
X175215619Y-143377057D01*
X175215619Y-143377057D02*
X175177523Y-143224676D01*
X175177523Y-143224676D02*
X175139428Y-143148485D01*
X175139428Y-143148485D02*
X175101333Y-143110390D01*
X175101333Y-143110390D02*
X175025142Y-143072295D01*
X151739428Y-115731723D02*
X151358475Y-115731723D01*
X151815618Y-115960295D02*
X151548951Y-115160295D01*
X151548951Y-115160295D02*
X151282285Y-115960295D01*
X151015618Y-115960295D02*
X151015618Y-115160295D01*
X151015618Y-115160295D02*
X150825142Y-115160295D01*
X150825142Y-115160295D02*
X150710856Y-115198390D01*
X150710856Y-115198390D02*
X150634666Y-115274580D01*
X150634666Y-115274580D02*
X150596571Y-115350771D01*
X150596571Y-115350771D02*
X150558475Y-115503152D01*
X150558475Y-115503152D02*
X150558475Y-115617438D01*
X150558475Y-115617438D02*
X150596571Y-115769819D01*
X150596571Y-115769819D02*
X150634666Y-115846009D01*
X150634666Y-115846009D02*
X150710856Y-115922200D01*
X150710856Y-115922200D02*
X150825142Y-115960295D01*
X150825142Y-115960295D02*
X151015618Y-115960295D01*
X149758475Y-115884104D02*
X149796571Y-115922200D01*
X149796571Y-115922200D02*
X149910856Y-115960295D01*
X149910856Y-115960295D02*
X149987047Y-115960295D01*
X149987047Y-115960295D02*
X150101333Y-115922200D01*
X150101333Y-115922200D02*
X150177523Y-115846009D01*
X150177523Y-115846009D02*
X150215618Y-115769819D01*
X150215618Y-115769819D02*
X150253714Y-115617438D01*
X150253714Y-115617438D02*
X150253714Y-115503152D01*
X150253714Y-115503152D02*
X150215618Y-115350771D01*
X150215618Y-115350771D02*
X150177523Y-115274580D01*
X150177523Y-115274580D02*
X150101333Y-115198390D01*
X150101333Y-115198390D02*
X149987047Y-115160295D01*
X149987047Y-115160295D02*
X149910856Y-115160295D01*
X149910856Y-115160295D02*
X149796571Y-115198390D01*
X149796571Y-115198390D02*
X149758475Y-115236485D01*
X149491809Y-115160295D02*
X148996571Y-115160295D01*
X148996571Y-115160295D02*
X149263237Y-115465057D01*
X149263237Y-115465057D02*
X149148952Y-115465057D01*
X149148952Y-115465057D02*
X149072761Y-115503152D01*
X149072761Y-115503152D02*
X149034666Y-115541247D01*
X149034666Y-115541247D02*
X148996571Y-115617438D01*
X148996571Y-115617438D02*
X148996571Y-115807914D01*
X148996571Y-115807914D02*
X149034666Y-115884104D01*
X149034666Y-115884104D02*
X149072761Y-115922200D01*
X149072761Y-115922200D02*
X149148952Y-115960295D01*
X149148952Y-115960295D02*
X149377523Y-115960295D01*
X149377523Y-115960295D02*
X149453714Y-115922200D01*
X149453714Y-115922200D02*
X149491809Y-115884104D01*
D12*
%TO.C,C3*%
X146698580Y-135634000D02*
X146417420Y-135634000D01*
X146698580Y-136654000D02*
X146417420Y-136654000D01*
%TO.C,C2*%
X134760580Y-131316000D02*
X134479420Y-131316000D01*
X134760580Y-132336000D02*
X134479420Y-132336000D01*
%TO.C,TP23*%
X156276000Y-104460000D02*
X156276000Y-106360000D01*
X156276000Y-106360000D02*
X158176000Y-106360000D01*
X158176000Y-104460000D02*
X156276000Y-104460000D01*
X158176000Y-106360000D02*
X158176000Y-104460000D01*
%TO.C,TP31*%
X146624000Y-114112000D02*
X146624000Y-116012000D01*
X146624000Y-116012000D02*
X148524000Y-116012000D01*
X148524000Y-114112000D02*
X146624000Y-114112000D01*
X148524000Y-116012000D02*
X148524000Y-114112000D01*
%TO.C,C33*%
X166420748Y-142600000D02*
X167843252Y-142600000D01*
X166420748Y-144420000D02*
X167843252Y-144420000D01*
%TO.C,C10*%
X147179420Y-104900000D02*
X147460580Y-104900000D01*
X147179420Y-105920000D02*
X147460580Y-105920000D01*
%TO.C,C7*%
X143650580Y-103122000D02*
X143369420Y-103122000D01*
X143650580Y-104142000D02*
X143369420Y-104142000D01*
%TO.C,C4*%
X146698580Y-134110000D02*
X146417420Y-134110000D01*
X146698580Y-135130000D02*
X146417420Y-135130000D01*
%TO.C,TP22*%
X158816000Y-96078000D02*
X158816000Y-97978000D01*
X158816000Y-97978000D02*
X160716000Y-97978000D01*
X160716000Y-96078000D02*
X158816000Y-96078000D01*
X160716000Y-97978000D02*
X160716000Y-96078000D01*
%TO.C,C34*%
X166420748Y-147172000D02*
X167843252Y-147172000D01*
X166420748Y-148992000D02*
X167843252Y-148992000D01*
%TO.C,TP19*%
X171262000Y-133924000D02*
X171262000Y-135824000D01*
X171262000Y-135824000D02*
X173162000Y-135824000D01*
X173162000Y-133924000D02*
X171262000Y-133924000D01*
X173162000Y-135824000D02*
X173162000Y-133924000D01*
%TO.C,C1*%
X134760580Y-132840000D02*
X134479420Y-132840000D01*
X134760580Y-133860000D02*
X134479420Y-133860000D01*
%TO.C,C31*%
X171500748Y-147172000D02*
X172923252Y-147172000D01*
X171500748Y-148992000D02*
X172923252Y-148992000D01*
%TO.C,TP20*%
X166436000Y-133924000D02*
X166436000Y-135824000D01*
X166436000Y-135824000D02*
X168336000Y-135824000D01*
X168336000Y-133924000D02*
X166436000Y-133924000D01*
X168336000Y-135824000D02*
X168336000Y-133924000D01*
%TO.C,C30*%
X171500748Y-142600000D02*
X172923252Y-142600000D01*
X171500748Y-144420000D02*
X172923252Y-144420000D01*
%TO.C,TP32*%
X149418000Y-116398000D02*
X149418000Y-118298000D01*
X149418000Y-118298000D02*
X151318000Y-118298000D01*
X151318000Y-116398000D02*
X149418000Y-116398000D01*
X151318000Y-118298000D02*
X151318000Y-116398000D01*
%TD*%
M02*
