%TF.GenerationSoftware,KiCad,Pcbnew,9.0.0*%
%TF.CreationDate,2025-04-17T15:03:59+12:00*%
%TF.ProjectId,Central_ECU,43656e74-7261-46c5-9f45-43552e6b6963,A*%
%TF.SameCoordinates,Original*%
%TF.FileFunction,Paste,Top*%
%TF.FilePolarity,Positive*%
%FSLAX46Y46*%
G04 Gerber Fmt 4.6, Leading zero omitted, Abs format (unit mm)*
G04 Created by KiCad (PCBNEW 9.0.0) date 2025-04-17 15:03:59*
%MOMM*%
%LPD*%
G01*
G04 APERTURE LIST*
G04 Aperture macros list*
%AMRoundRect*
0 Rectangle with rounded corners*
0 $1 Rounding radius*
0 $2 $3 $4 $5 $6 $7 $8 $9 X,Y pos of 4 corners*
0 Add a 4 corners polygon primitive as box body*
4,1,4,$2,$3,$4,$5,$6,$7,$8,$9,$2,$3,0*
0 Add four circle primitives for the rounded corners*
1,1,$1+$1,$2,$3*
1,1,$1+$1,$4,$5*
1,1,$1+$1,$6,$7*
1,1,$1+$1,$8,$9*
0 Add four rect primitives between the rounded corners*
20,1,$1+$1,$2,$3,$4,$5,0*
20,1,$1+$1,$4,$5,$6,$7,0*
20,1,$1+$1,$6,$7,$8,$9,0*
20,1,$1+$1,$8,$9,$2,$3,0*%
%AMRotRect*
0 Rectangle, with rotation*
0 The origin of the aperture is its center*
0 $1 length*
0 $2 width*
0 $3 Rotation angle, in degrees counterclockwise*
0 Add horizontal line*
21,1,$1,$2,0,0,$3*%
G04 Aperture macros list end*
%ADD10RoundRect,0.250000X0.325000X0.650000X-0.325000X0.650000X-0.325000X-0.650000X0.325000X-0.650000X0*%
%ADD11RoundRect,0.250000X1.000000X-1.950000X1.000000X1.950000X-1.000000X1.950000X-1.000000X-1.950000X0*%
%ADD12RoundRect,0.250000X-0.625000X0.312500X-0.625000X-0.312500X0.625000X-0.312500X0.625000X0.312500X0*%
%ADD13RoundRect,0.050000X-0.100000X-0.250000X0.100000X-0.250000X0.100000X0.250000X-0.100000X0.250000X0*%
%ADD14RoundRect,0.200000X0.200000X0.275000X-0.200000X0.275000X-0.200000X-0.275000X0.200000X-0.275000X0*%
%ADD15RoundRect,0.200000X-0.200000X-0.275000X0.200000X-0.275000X0.200000X0.275000X-0.200000X0.275000X0*%
%ADD16RoundRect,0.225000X0.225000X0.250000X-0.225000X0.250000X-0.225000X-0.250000X0.225000X-0.250000X0*%
%ADD17RoundRect,0.250000X-1.000000X1.950000X-1.000000X-1.950000X1.000000X-1.950000X1.000000X1.950000X0*%
%ADD18RoundRect,0.250000X-0.345000X0.345000X-0.345000X-0.345000X0.345000X-0.345000X0.345000X0.345000X0*%
%ADD19RoundRect,0.100000X-0.100000X0.687500X-0.100000X-0.687500X0.100000X-0.687500X0.100000X0.687500X0*%
%ADD20RoundRect,0.095000X-0.095000X0.155000X-0.095000X-0.155000X0.095000X-0.155000X0.095000X0.155000X0*%
%ADD21RoundRect,0.075000X-0.075000X0.250000X-0.075000X-0.250000X0.075000X-0.250000X0.075000X0.250000X0*%
%ADD22RoundRect,0.200000X-0.275000X0.200000X-0.275000X-0.200000X0.275000X-0.200000X0.275000X0.200000X0*%
%ADD23RoundRect,0.200000X0.275000X-0.200000X0.275000X0.200000X-0.275000X0.200000X-0.275000X-0.200000X0*%
%ADD24RoundRect,0.250000X-0.375000X-0.625000X0.375000X-0.625000X0.375000X0.625000X-0.375000X0.625000X0*%
%ADD25R,0.800000X1.500000*%
%ADD26RoundRect,0.362500X-0.362500X-0.637500X0.362500X-0.637500X0.362500X0.637500X-0.362500X0.637500X0*%
%ADD27RoundRect,0.250000X0.625000X-0.375000X0.625000X0.375000X-0.625000X0.375000X-0.625000X-0.375000X0*%
%ADD28RoundRect,0.250000X-0.325000X-0.650000X0.325000X-0.650000X0.325000X0.650000X-0.325000X0.650000X0*%
%ADD29RoundRect,0.125000X0.125000X-0.125000X0.125000X0.125000X-0.125000X0.125000X-0.125000X-0.125000X0*%
%ADD30R,0.425000X0.400000*%
%ADD31R,1.150000X0.950000*%
%ADD32R,0.800000X0.480000*%
%ADD33RotRect,1.400000X1.200000X315.000000*%
%ADD34RoundRect,0.140000X-0.021213X0.219203X-0.219203X0.021213X0.021213X-0.219203X0.219203X-0.021213X0*%
%ADD35RoundRect,0.150000X0.150000X0.350000X-0.150000X0.350000X-0.150000X-0.350000X0.150000X-0.350000X0*%
%ADD36RoundRect,0.105000X0.245000X0.105000X-0.245000X0.105000X-0.245000X-0.105000X0.245000X-0.105000X0*%
%ADD37RoundRect,0.050000X0.100000X0.250000X-0.100000X0.250000X-0.100000X-0.250000X0.100000X-0.250000X0*%
%ADD38RoundRect,0.250000X0.300000X0.300000X-0.300000X0.300000X-0.300000X-0.300000X0.300000X-0.300000X0*%
%ADD39RoundRect,0.225000X-0.225000X-0.250000X0.225000X-0.250000X0.225000X0.250000X-0.225000X0.250000X0*%
%ADD40RoundRect,0.225000X-0.250000X0.225000X-0.250000X-0.225000X0.250000X-0.225000X0.250000X0.225000X0*%
%ADD41RoundRect,0.250000X0.375000X0.625000X-0.375000X0.625000X-0.375000X-0.625000X0.375000X-0.625000X0*%
%ADD42RoundRect,0.100000X0.575000X-0.100000X0.575000X0.100000X-0.575000X0.100000X-0.575000X-0.100000X0*%
%ADD43O,1.600000X0.900000*%
%ADD44RoundRect,0.250000X0.450000X-0.550000X0.450000X0.550000X-0.450000X0.550000X-0.450000X-0.550000X0*%
%ADD45RoundRect,0.250000X0.700000X-0.700000X0.700000X0.700000X-0.700000X0.700000X-0.700000X-0.700000X0*%
%ADD46RoundRect,0.050000X-0.250000X0.100000X-0.250000X-0.100000X0.250000X-0.100000X0.250000X0.100000X0*%
%ADD47RoundRect,0.100000X-0.637500X-0.100000X0.637500X-0.100000X0.637500X0.100000X-0.637500X0.100000X0*%
%ADD48R,1.100000X0.600000*%
%ADD49RoundRect,0.050000X0.250000X-0.100000X0.250000X0.100000X-0.250000X0.100000X-0.250000X-0.100000X0*%
%ADD50RoundRect,0.250000X0.625000X-0.312500X0.625000X0.312500X-0.625000X0.312500X-0.625000X-0.312500X0*%
%ADD51RoundRect,0.375000X0.625000X0.375000X-0.625000X0.375000X-0.625000X-0.375000X0.625000X-0.375000X0*%
%ADD52RoundRect,0.500000X0.500000X1.400000X-0.500000X1.400000X-0.500000X-1.400000X0.500000X-1.400000X0*%
%ADD53RoundRect,0.075000X-0.441942X-0.548008X0.548008X0.441942X0.441942X0.548008X-0.548008X-0.441942X0*%
%ADD54RoundRect,0.075000X0.441942X-0.548008X0.548008X-0.441942X-0.441942X0.548008X-0.548008X0.441942X0*%
%ADD55RoundRect,0.200000X0.053033X-0.335876X0.335876X-0.053033X-0.053033X0.335876X-0.335876X0.053033X0*%
%ADD56RoundRect,0.250000X-0.650000X0.325000X-0.650000X-0.325000X0.650000X-0.325000X0.650000X0.325000X0*%
%ADD57RoundRect,0.140000X0.140000X0.170000X-0.140000X0.170000X-0.140000X-0.170000X0.140000X-0.170000X0*%
%ADD58R,0.972299X0.304800*%
%ADD59RoundRect,0.150000X0.725000X0.150000X-0.725000X0.150000X-0.725000X-0.150000X0.725000X-0.150000X0*%
%ADD60RoundRect,0.140000X0.219203X0.021213X0.021213X0.219203X-0.219203X-0.021213X-0.021213X-0.219203X0*%
%ADD61RoundRect,0.087500X-0.125000X-0.087500X0.125000X-0.087500X0.125000X0.087500X-0.125000X0.087500X0*%
%ADD62RoundRect,0.087500X-0.087500X-0.125000X0.087500X-0.125000X0.087500X0.125000X-0.087500X0.125000X0*%
%ADD63RoundRect,0.225000X0.250000X-0.225000X0.250000X0.225000X-0.250000X0.225000X-0.250000X-0.225000X0*%
G04 APERTURE END LIST*
D10*
%TO.C,C24*%
X183847000Y-137414000D03*
X180897000Y-137414000D03*
%TD*%
%TO.C,C23*%
X183847000Y-134620000D03*
X180897000Y-134620000D03*
%TD*%
D11*
%TO.C,C43*%
X186182000Y-60596000D03*
X186182000Y-53196000D03*
%TD*%
D12*
%TO.C,R23*%
X180340000Y-142555500D03*
X180340000Y-145480500D03*
%TD*%
D13*
%TO.C,D16*%
X174752000Y-62230000D03*
X175452000Y-62230000D03*
%TD*%
D14*
%TO.C,R44*%
X131611000Y-59040000D03*
X129961000Y-59040000D03*
%TD*%
D15*
%TO.C,R2*%
X152337000Y-124968000D03*
X153987000Y-124968000D03*
%TD*%
D16*
%TO.C,C15*%
X188325487Y-102362000D03*
X186775487Y-102362000D03*
%TD*%
D13*
%TO.C,D11*%
X138430000Y-58420000D03*
X139130000Y-58420000D03*
%TD*%
D17*
%TO.C,C41*%
X146304000Y-64372000D03*
X146304000Y-71772000D03*
%TD*%
D18*
%TO.C,U6*%
X177016000Y-126006000D03*
X175536000Y-126006000D03*
X177016000Y-127486000D03*
X175536000Y-127486000D03*
D19*
X179201000Y-123883500D03*
X178551000Y-123883500D03*
X177901000Y-123883500D03*
X177251000Y-123883500D03*
X176601000Y-123883500D03*
X175951000Y-123883500D03*
X175301000Y-123883500D03*
X174651000Y-123883500D03*
X174001000Y-123883500D03*
X173351000Y-123883500D03*
X173351000Y-129608500D03*
X174001000Y-129608500D03*
X174651000Y-129608500D03*
X175301000Y-129608500D03*
X175951000Y-129608500D03*
X176601000Y-129608500D03*
X177251000Y-129608500D03*
X177901000Y-129608500D03*
X178551000Y-129608500D03*
X179201000Y-129608500D03*
%TD*%
D14*
%TO.C,R34*%
X177101000Y-139700000D03*
X175451000Y-139700000D03*
%TD*%
D20*
%TO.C,D12*%
X109760000Y-105830000D03*
D21*
X109220000Y-105750000D03*
D20*
X108680000Y-105830000D03*
X108680000Y-107530000D03*
X109760000Y-107530000D03*
%TD*%
D22*
%TO.C,R1*%
X133350000Y-121095000D03*
X133350000Y-122745000D03*
%TD*%
D23*
%TO.C,R11*%
X108712000Y-91757000D03*
X108712000Y-90107000D03*
%TD*%
D24*
%TO.C,F3*%
X123060000Y-64097000D03*
X125860000Y-64097000D03*
%TD*%
D14*
%TO.C,R52*%
X168719000Y-122682000D03*
X167069000Y-122682000D03*
%TD*%
D25*
%TO.C,J1*%
X145385000Y-137092000D03*
X146485000Y-137092000D03*
X147585000Y-137092000D03*
X148685000Y-137092000D03*
X149785000Y-137092000D03*
X150885000Y-137092000D03*
X151985000Y-137092000D03*
X153085000Y-137092000D03*
D26*
X141715000Y-134492000D03*
X141715000Y-142792000D03*
X155465000Y-134492000D03*
X155465000Y-142792000D03*
%TD*%
D27*
%TO.C,D4*%
X155956000Y-70996000D03*
X155956000Y-68196000D03*
%TD*%
D22*
%TO.C,R13*%
X153416000Y-64453000D03*
X153416000Y-66103000D03*
%TD*%
D15*
%TO.C,R16*%
X108649000Y-109982000D03*
X110299000Y-109982000D03*
%TD*%
D14*
%TO.C,R40*%
X163131000Y-79502000D03*
X161481000Y-79502000D03*
%TD*%
D15*
%TO.C,R32*%
X175451000Y-141224000D03*
X177101000Y-141224000D03*
%TD*%
D22*
%TO.C,R27*%
X180848000Y-125921000D03*
X180848000Y-127571000D03*
%TD*%
D14*
%TO.C,R48*%
X135636000Y-71463000D03*
X133986000Y-71463000D03*
%TD*%
D28*
%TO.C,C26*%
X180897000Y-123952000D03*
X183847000Y-123952000D03*
%TD*%
D29*
%TO.C,D9*%
X133834000Y-55852000D03*
X133834000Y-53652000D03*
%TD*%
D30*
%TO.C,Q1*%
X188135500Y-139842000D03*
X188135500Y-139192000D03*
X188135500Y-138542000D03*
X186260500Y-138542000D03*
X186260500Y-139192000D03*
X186260500Y-139842000D03*
D31*
X187198000Y-139517000D03*
D32*
X187198000Y-138492000D03*
%TD*%
D16*
%TO.C,C42*%
X135395000Y-140970000D03*
X133845000Y-140970000D03*
%TD*%
D33*
%TO.C,Y1*%
X144163142Y-109043223D03*
X145718777Y-110598858D03*
X146920858Y-109396777D03*
X145365223Y-107841142D03*
%TD*%
D14*
%TO.C,R41*%
X163131000Y-77724000D03*
X161481000Y-77724000D03*
%TD*%
D34*
%TO.C,C8*%
X142579411Y-104816589D03*
X141900589Y-105495411D03*
%TD*%
D14*
%TO.C,R9*%
X185327487Y-103124000D03*
X183677487Y-103124000D03*
%TD*%
D35*
%TO.C,Q4*%
X130028000Y-55246000D03*
X130028000Y-54116000D03*
X129318000Y-55246000D03*
X129318000Y-54116000D03*
D36*
X128548000Y-55656000D03*
X128548000Y-55006000D03*
X128548000Y-54356000D03*
X128548000Y-53706000D03*
X131548000Y-55656000D03*
X131548000Y-55006000D03*
X131548000Y-54356000D03*
X131548000Y-53706000D03*
%TD*%
D37*
%TO.C,D10*%
X141320000Y-58420000D03*
X140620000Y-58420000D03*
%TD*%
D24*
%TO.C,F1*%
X180972000Y-132080000D03*
X183772000Y-132080000D03*
%TD*%
D15*
%TO.C,R49*%
X146495000Y-117094000D03*
X148145000Y-117094000D03*
%TD*%
D38*
%TO.C,D13*%
X131702000Y-64008000D03*
X128902000Y-64008000D03*
%TD*%
D14*
%TO.C,R45*%
X128309000Y-59040000D03*
X126659000Y-59040000D03*
%TD*%
D39*
%TO.C,C35*%
X164071000Y-139700000D03*
X165621000Y-139700000D03*
%TD*%
D14*
%TO.C,R36*%
X165671000Y-142748000D03*
X164021000Y-142748000D03*
%TD*%
D15*
%TO.C,R10*%
X183677487Y-107188000D03*
X185327487Y-107188000D03*
%TD*%
D39*
%TO.C,C25*%
X178549000Y-121666000D03*
X180099000Y-121666000D03*
%TD*%
D14*
%TO.C,R30*%
X168973000Y-128524000D03*
X167323000Y-128524000D03*
%TD*%
D39*
%TO.C,C28*%
X172961000Y-121666000D03*
X174511000Y-121666000D03*
%TD*%
D22*
%TO.C,R37*%
X169164000Y-138113000D03*
X169164000Y-139763000D03*
%TD*%
D40*
%TO.C,C13*%
X172466000Y-103873000D03*
X172466000Y-105423000D03*
%TD*%
D16*
%TO.C,C18*%
X188325487Y-106426000D03*
X186775487Y-106426000D03*
%TD*%
D17*
%TO.C,C36*%
X151130000Y-52942000D03*
X151130000Y-60342000D03*
%TD*%
D37*
%TO.C,D15*%
X171038000Y-142748000D03*
X170338000Y-142748000D03*
%TD*%
D30*
%TO.C,Q3*%
X169085500Y-142890000D03*
X169085500Y-142240000D03*
X169085500Y-141590000D03*
X167210500Y-141590000D03*
X167210500Y-142240000D03*
X167210500Y-142890000D03*
D31*
X168148000Y-142565000D03*
D32*
X168148000Y-141540000D03*
%TD*%
D15*
%TO.C,R28*%
X174943000Y-132842000D03*
X176593000Y-132842000D03*
%TD*%
D14*
%TO.C,R5*%
X148145000Y-130302000D03*
X146495000Y-130302000D03*
%TD*%
D41*
%TO.C,D3*%
X151390000Y-89662000D03*
X148590000Y-89662000D03*
%TD*%
D37*
%TO.C,D7*%
X175864000Y-142748000D03*
X175164000Y-142748000D03*
%TD*%
D16*
%TO.C,C29*%
X168923000Y-130048000D03*
X167373000Y-130048000D03*
%TD*%
D30*
%TO.C,Q2*%
X173990000Y-142890000D03*
X173990000Y-142240000D03*
X173990000Y-141590000D03*
X172115000Y-141590000D03*
X172115000Y-142240000D03*
X172115000Y-142890000D03*
D31*
X173052500Y-142565000D03*
D32*
X173052500Y-141540000D03*
%TD*%
D28*
%TO.C,C27*%
X180897000Y-129540000D03*
X183847000Y-129540000D03*
%TD*%
D42*
%TO.C,J13*%
X193413000Y-80548000D03*
X193413000Y-79898000D03*
X193413000Y-79248000D03*
X193413000Y-78598000D03*
X193413000Y-77948000D03*
D43*
X196088000Y-82548000D03*
D44*
X193638000Y-82448000D03*
D45*
X196088000Y-80448000D03*
X196088000Y-78048000D03*
D44*
X193638000Y-76048000D03*
D43*
X196088000Y-75948000D03*
%TD*%
D46*
%TO.C,D1*%
X133350000Y-119030000D03*
X133350000Y-119730000D03*
%TD*%
D27*
%TO.C,D2*%
X153416000Y-70996000D03*
X153416000Y-68196000D03*
%TD*%
D15*
%TO.C,R17*%
X111189000Y-107696000D03*
X112839000Y-107696000D03*
%TD*%
D13*
%TO.C,D5*%
X185578000Y-148844000D03*
X186278000Y-148844000D03*
%TD*%
D47*
%TO.C,U4*%
X162745500Y-115398000D03*
X162745500Y-116048000D03*
X162745500Y-116698000D03*
X162745500Y-117348000D03*
X162745500Y-117998000D03*
X162745500Y-118648000D03*
X162745500Y-119298000D03*
X168470500Y-119298000D03*
X168470500Y-118648000D03*
X168470500Y-117998000D03*
X168470500Y-117348000D03*
X168470500Y-116698000D03*
X168470500Y-116048000D03*
X168470500Y-115398000D03*
%TD*%
D12*
%TO.C,R21*%
X167640000Y-54417500D03*
X167640000Y-57342500D03*
%TD*%
D48*
%TO.C,Y2*%
X140208000Y-104078000D03*
X140208000Y-102678000D03*
%TD*%
D15*
%TO.C,R19*%
X108649000Y-103632000D03*
X110299000Y-103632000D03*
%TD*%
D49*
%TO.C,D8*%
X125960000Y-57104000D03*
X125960000Y-56404000D03*
%TD*%
D14*
%TO.C,R46*%
X138977000Y-65367000D03*
X137327000Y-65367000D03*
%TD*%
D22*
%TO.C,R35*%
X173990000Y-134303000D03*
X173990000Y-135953000D03*
%TD*%
%TO.C,R39*%
X169164000Y-135065000D03*
X169164000Y-136715000D03*
%TD*%
D23*
%TO.C,R31*%
X171704000Y-129857000D03*
X171704000Y-128207000D03*
%TD*%
D50*
%TO.C,R20*%
X165100000Y-57342500D03*
X165100000Y-54417500D03*
%TD*%
D51*
%TO.C,U7*%
X138684000Y-80278000D03*
X138684000Y-77978000D03*
D52*
X132384000Y-77978000D03*
D51*
X138684000Y-75678000D03*
%TD*%
D16*
%TO.C,C32*%
X177051000Y-138176000D03*
X175501000Y-138176000D03*
%TD*%
D53*
%TO.C,U2*%
X143335519Y-101361181D03*
X143689072Y-101714734D03*
X144042625Y-102068287D03*
X144396179Y-102421841D03*
X144749732Y-102775394D03*
X145103286Y-103128948D03*
X145456839Y-103482501D03*
X145810392Y-103836054D03*
X146163946Y-104189608D03*
X146517499Y-104543161D03*
X146871052Y-104896714D03*
X147224606Y-105250268D03*
X147578159Y-105603821D03*
X147931713Y-105957375D03*
X148285266Y-106310928D03*
X148638819Y-106664481D03*
D54*
X151361181Y-106664481D03*
X151714734Y-106310928D03*
X152068287Y-105957375D03*
X152421841Y-105603821D03*
X152775394Y-105250268D03*
X153128948Y-104896714D03*
X153482501Y-104543161D03*
X153836054Y-104189608D03*
X154189608Y-103836054D03*
X154543161Y-103482501D03*
X154896714Y-103128948D03*
X155250268Y-102775394D03*
X155603821Y-102421841D03*
X155957375Y-102068287D03*
X156310928Y-101714734D03*
X156664481Y-101361181D03*
D53*
X156664481Y-98638819D03*
X156310928Y-98285266D03*
X155957375Y-97931713D03*
X155603821Y-97578159D03*
X155250268Y-97224606D03*
X154896714Y-96871052D03*
X154543161Y-96517499D03*
X154189608Y-96163946D03*
X153836054Y-95810392D03*
X153482501Y-95456839D03*
X153128948Y-95103286D03*
X152775394Y-94749732D03*
X152421841Y-94396179D03*
X152068287Y-94042625D03*
X151714734Y-93689072D03*
X151361181Y-93335519D03*
D54*
X148638819Y-93335519D03*
X148285266Y-93689072D03*
X147931713Y-94042625D03*
X147578159Y-94396179D03*
X147224606Y-94749732D03*
X146871052Y-95103286D03*
X146517499Y-95456839D03*
X146163946Y-95810392D03*
X145810392Y-96163946D03*
X145456839Y-96517499D03*
X145103286Y-96871052D03*
X144749732Y-97224606D03*
X144396179Y-97578159D03*
X144042625Y-97931713D03*
X143689072Y-98285266D03*
X143335519Y-98638819D03*
%TD*%
D55*
%TO.C,R7*%
X154356637Y-92277363D03*
X155523363Y-91110637D03*
%TD*%
D56*
%TO.C,C40*%
X117246000Y-77773000D03*
X117246000Y-80723000D03*
%TD*%
D14*
%TO.C,R4*%
X157480000Y-128524000D03*
X155830000Y-128524000D03*
%TD*%
D34*
%TO.C,C9*%
X143595411Y-105578589D03*
X142916589Y-106257411D03*
%TD*%
D40*
%TO.C,C17*%
X116840000Y-93459000D03*
X116840000Y-95009000D03*
%TD*%
D29*
%TO.C,D14*%
X138938000Y-69426000D03*
X138938000Y-67226000D03*
%TD*%
D51*
%TO.C,U8*%
X126492000Y-80278000D03*
X126492000Y-77978000D03*
D52*
X120192000Y-77978000D03*
D51*
X126492000Y-75678000D03*
%TD*%
D57*
%TO.C,C20*%
X138656000Y-104648000D03*
X137696000Y-104648000D03*
%TD*%
D58*
%TO.C,U3*%
X174227749Y-102893622D03*
X174227749Y-103393748D03*
X174227749Y-103893874D03*
X174227749Y-104394000D03*
X174227749Y-104894126D03*
X174227749Y-105394252D03*
X174227749Y-105894378D03*
X177308251Y-105894378D03*
X177308251Y-105394252D03*
X177308251Y-104894126D03*
X177308251Y-104394000D03*
X177308251Y-103893874D03*
X177308251Y-103393748D03*
X177308251Y-102893622D03*
%TD*%
D14*
%TO.C,R42*%
X163131000Y-75946000D03*
X161481000Y-75946000D03*
%TD*%
D55*
%TO.C,R6*%
X155372637Y-93547363D03*
X156539363Y-92380637D03*
%TD*%
D15*
%TO.C,R18*%
X111189000Y-105664000D03*
X112839000Y-105664000D03*
%TD*%
%TO.C,R50*%
X145733000Y-118618000D03*
X147383000Y-118618000D03*
%TD*%
D14*
%TO.C,R29*%
X168973000Y-132080000D03*
X167323000Y-132080000D03*
%TD*%
D15*
%TO.C,R8*%
X183677487Y-101600000D03*
X185327487Y-101600000D03*
%TD*%
D14*
%TO.C,R12*%
X185327487Y-105664000D03*
X183677487Y-105664000D03*
%TD*%
%TO.C,R47*%
X138938000Y-71463000D03*
X137288000Y-71463000D03*
%TD*%
D35*
%TO.C,Q5*%
X135362000Y-69021000D03*
X135362000Y-67891000D03*
X134652000Y-69021000D03*
X134652000Y-67891000D03*
D36*
X133882000Y-69431000D03*
X133882000Y-68781000D03*
X133882000Y-68131000D03*
X133882000Y-67481000D03*
X136882000Y-69431000D03*
X136882000Y-68781000D03*
X136882000Y-68131000D03*
X136882000Y-67481000D03*
%TD*%
D14*
%TO.C,R25*%
X191579000Y-136906000D03*
X189929000Y-136906000D03*
%TD*%
D34*
%TO.C,C6*%
X144357411Y-106340589D03*
X143678589Y-107019411D03*
%TD*%
D14*
%TO.C,R26*%
X194627000Y-136906000D03*
X192977000Y-136906000D03*
%TD*%
D22*
%TO.C,R15*%
X155702000Y-64453000D03*
X155702000Y-66103000D03*
%TD*%
D59*
%TO.C,CR1*%
X116078000Y-91694000D03*
X116078000Y-90424000D03*
X116078000Y-89154000D03*
X116078000Y-87884000D03*
X110928000Y-87884000D03*
X110928000Y-89154000D03*
X110928000Y-90424000D03*
X110928000Y-91694000D03*
%TD*%
D15*
%TO.C,R3*%
X153099000Y-126746000D03*
X154749000Y-126746000D03*
%TD*%
D40*
%TO.C,C37*%
X140970000Y-75679000D03*
X140970000Y-77229000D03*
%TD*%
%TO.C,C16*%
X115316000Y-93459000D03*
X115316000Y-95009000D03*
%TD*%
D15*
%TO.C,R51*%
X167069000Y-121158000D03*
X168719000Y-121158000D03*
%TD*%
D39*
%TO.C,C14*%
X180327000Y-104394000D03*
X181877000Y-104394000D03*
%TD*%
D60*
%TO.C,C11*%
X143341411Y-110321411D03*
X142662589Y-109642589D03*
%TD*%
D56*
%TO.C,C38*%
X129438000Y-77773000D03*
X129438000Y-80723000D03*
%TD*%
D15*
%TO.C,R38*%
X164021000Y-141224000D03*
X165671000Y-141224000D03*
%TD*%
D34*
%TO.C,C12*%
X148421411Y-110404589D03*
X147742589Y-111083411D03*
%TD*%
D15*
%TO.C,R14*%
X149352000Y-91694000D03*
X151002000Y-91694000D03*
%TD*%
D24*
%TO.C,F2*%
X123036000Y-54498000D03*
X125836000Y-54498000D03*
%TD*%
D57*
%TO.C,C19*%
X138656000Y-102108000D03*
X137696000Y-102108000D03*
%TD*%
D12*
%TO.C,R22*%
X181102000Y-63053500D03*
X181102000Y-65978500D03*
%TD*%
D61*
%TO.C,U9*%
X136651500Y-142244000D03*
X136651500Y-142744000D03*
D62*
X136914000Y-143256500D03*
X137414000Y-143256500D03*
X137914000Y-143256500D03*
D61*
X138176500Y-142744000D03*
X138176500Y-142244000D03*
D62*
X137914000Y-141731500D03*
X137414000Y-141731500D03*
X136914000Y-141731500D03*
%TD*%
D14*
%TO.C,R43*%
X133897000Y-51704000D03*
X132247000Y-51704000D03*
%TD*%
D22*
%TO.C,R33*%
X173990000Y-137351000D03*
X173990000Y-139001000D03*
%TD*%
D63*
%TO.C,C39*%
X128930000Y-75464000D03*
X128930000Y-73914000D03*
%TD*%
M02*
