%TF.GenerationSoftware,KiCad,Pcbnew,9.0.0*%
%TF.CreationDate,2025-04-17T15:03:59+12:00*%
%TF.ProjectId,Central_ECU,43656e74-7261-46c5-9f45-43552e6b6963,A*%
%TF.SameCoordinates,Original*%
%TF.FileFunction,Soldermask,Top*%
%TF.FilePolarity,Negative*%
%FSLAX46Y46*%
G04 Gerber Fmt 4.6, Leading zero omitted, Abs format (unit mm)*
G04 Created by KiCad (PCBNEW 9.0.0) date 2025-04-17 15:03:59*
%MOMM*%
%LPD*%
G01*
G04 APERTURE LIST*
G04 Aperture macros list*
%AMRoundRect*
0 Rectangle with rounded corners*
0 $1 Rounding radius*
0 $2 $3 $4 $5 $6 $7 $8 $9 X,Y pos of 4 corners*
0 Add a 4 corners polygon primitive as box body*
4,1,4,$2,$3,$4,$5,$6,$7,$8,$9,$2,$3,0*
0 Add four circle primitives for the rounded corners*
1,1,$1+$1,$2,$3*
1,1,$1+$1,$4,$5*
1,1,$1+$1,$6,$7*
1,1,$1+$1,$8,$9*
0 Add four rect primitives between the rounded corners*
20,1,$1+$1,$2,$3,$4,$5,0*
20,1,$1+$1,$4,$5,$6,$7,0*
20,1,$1+$1,$6,$7,$8,$9,0*
20,1,$1+$1,$8,$9,$2,$3,0*%
%AMRotRect*
0 Rectangle, with rotation*
0 The origin of the aperture is its center*
0 $1 length*
0 $2 width*
0 $3 Rotation angle, in degrees counterclockwise*
0 Add horizontal line*
21,1,$1,$2,0,0,$3*%
%AMFreePoly0*
4,1,22,0.945671,0.830970,1.026777,0.776777,1.080970,0.695671,1.100000,0.600000,1.100000,-0.600000,1.080970,-0.695671,1.026777,-0.776777,0.945671,-0.830970,0.850000,-0.850000,-0.450000,-0.850000,-0.545671,-0.830970,-0.626777,-0.776777,-1.026777,-0.376777,-1.080970,-0.295671,-1.100000,-0.200000,-1.100000,0.600000,-1.080970,0.695671,-1.026777,0.776777,-0.945671,0.830970,-0.850000,0.850000,
0.850000,0.850000,0.945671,0.830970,0.945671,0.830970,$1*%
%AMFreePoly1*
4,1,17,1.395000,0.765000,0.855000,0.765000,0.855000,0.535000,1.395000,0.535000,1.395000,0.115000,0.855000,0.115000,0.855000,-0.115000,1.395000,-0.115000,1.395000,-0.535000,0.855000,-0.535000,0.855000,-0.765000,1.395000,-0.765000,1.395000,-1.185000,-0.855000,-1.185000,-0.855000,1.185000,1.395000,1.185000,1.395000,0.765000,1.395000,0.765000,$1*%
G04 Aperture macros list end*
%ADD10RoundRect,0.250000X0.325000X0.650000X-0.325000X0.650000X-0.325000X-0.650000X0.325000X-0.650000X0*%
%ADD11RoundRect,0.250000X1.000000X-1.950000X1.000000X1.950000X-1.000000X1.950000X-1.000000X-1.950000X0*%
%ADD12RoundRect,0.250000X-0.625000X0.312500X-0.625000X-0.312500X0.625000X-0.312500X0.625000X0.312500X0*%
%ADD13C,1.020000*%
%ADD14RoundRect,0.250001X-0.499999X-0.499999X0.499999X-0.499999X0.499999X0.499999X-0.499999X0.499999X0*%
%ADD15C,1.500000*%
%ADD16RoundRect,0.050000X-0.150000X-0.300000X0.150000X-0.300000X0.150000X0.300000X-0.150000X0.300000X0*%
%ADD17RoundRect,0.200000X0.200000X0.275000X-0.200000X0.275000X-0.200000X-0.275000X0.200000X-0.275000X0*%
%ADD18RoundRect,0.200000X-0.200000X-0.275000X0.200000X-0.275000X0.200000X0.275000X-0.200000X0.275000X0*%
%ADD19RoundRect,0.250000X0.625000X-0.350000X0.625000X0.350000X-0.625000X0.350000X-0.625000X-0.350000X0*%
%ADD20O,1.750000X1.200000*%
%ADD21RoundRect,0.225000X0.225000X0.250000X-0.225000X0.250000X-0.225000X-0.250000X0.225000X-0.250000X0*%
%ADD22RoundRect,0.250000X-1.000000X1.950000X-1.000000X-1.950000X1.000000X-1.950000X1.000000X1.950000X0*%
%ADD23R,2.960000X2.960000*%
%ADD24RoundRect,0.100000X-0.100000X0.687500X-0.100000X-0.687500X0.100000X-0.687500X0.100000X0.687500X0*%
%ADD25R,1.500000X1.500000*%
%ADD26C,1.300000*%
%ADD27FreePoly0,270.000000*%
%ADD28O,1.700000X2.200000*%
%ADD29RoundRect,0.095000X-0.095000X0.155000X-0.095000X-0.155000X0.095000X-0.155000X0.095000X0.155000X0*%
%ADD30RoundRect,0.075000X-0.075000X0.250000X-0.075000X-0.250000X0.075000X-0.250000X0.075000X0.250000X0*%
%ADD31RoundRect,0.200000X-0.275000X0.200000X-0.275000X-0.200000X0.275000X-0.200000X0.275000X0.200000X0*%
%ADD32RoundRect,0.200000X0.275000X-0.200000X0.275000X0.200000X-0.275000X0.200000X-0.275000X-0.200000X0*%
%ADD33RoundRect,0.250000X-0.375000X-0.625000X0.375000X-0.625000X0.375000X0.625000X-0.375000X0.625000X0*%
%ADD34R,0.800000X1.500000*%
%ADD35RoundRect,0.362500X-0.362500X-0.637500X0.362500X-0.637500X0.362500X0.637500X-0.362500X0.637500X0*%
%ADD36RoundRect,0.250000X0.625000X-0.375000X0.625000X0.375000X-0.625000X0.375000X-0.625000X-0.375000X0*%
%ADD37C,3.600000*%
%ADD38C,5.600000*%
%ADD39RoundRect,0.250000X-0.325000X-0.650000X0.325000X-0.650000X0.325000X0.650000X-0.325000X0.650000X0*%
%ADD40C,1.270000*%
%ADD41RoundRect,0.250001X-0.499999X-0.759999X0.499999X-0.759999X0.499999X0.759999X-0.499999X0.759999X0*%
%ADD42O,1.500000X2.020000*%
%ADD43RoundRect,0.125000X0.125000X-0.125000X0.125000X0.125000X-0.125000X0.125000X-0.125000X-0.125000X0*%
%ADD44R,0.425000X0.400000*%
%ADD45R,1.150000X0.950000*%
%ADD46R,0.800000X0.480000*%
%ADD47RoundRect,0.250000X-0.350000X-0.625000X0.350000X-0.625000X0.350000X0.625000X-0.350000X0.625000X0*%
%ADD48O,1.200000X1.750000*%
%ADD49RotRect,1.400000X1.200000X315.000000*%
%ADD50RoundRect,0.140000X-0.021213X0.219203X-0.219203X0.021213X0.021213X-0.219203X0.219203X-0.021213X0*%
%ADD51RoundRect,0.105000X0.245000X0.105000X-0.245000X0.105000X-0.245000X-0.105000X0.245000X-0.105000X0*%
%ADD52FreePoly1,180.000000*%
%ADD53RoundRect,0.050000X0.150000X0.300000X-0.150000X0.300000X-0.150000X-0.300000X0.150000X-0.300000X0*%
%ADD54R,2.400000X2.400000*%
%ADD55C,2.400000*%
%ADD56RoundRect,0.250000X0.300000X0.300000X-0.300000X0.300000X-0.300000X-0.300000X0.300000X-0.300000X0*%
%ADD57RoundRect,0.225000X-0.225000X-0.250000X0.225000X-0.250000X0.225000X0.250000X-0.225000X0.250000X0*%
%ADD58RoundRect,0.225000X-0.250000X0.225000X-0.250000X-0.225000X0.250000X-0.225000X0.250000X0.225000X0*%
%ADD59RoundRect,0.250000X-0.600000X-0.725000X0.600000X-0.725000X0.600000X0.725000X-0.600000X0.725000X0*%
%ADD60O,1.700000X1.950000*%
%ADD61RoundRect,0.250000X0.375000X0.625000X-0.375000X0.625000X-0.375000X-0.625000X0.375000X-0.625000X0*%
%ADD62C,2.600000*%
%ADD63RoundRect,0.100000X0.575000X-0.100000X0.575000X0.100000X-0.575000X0.100000X-0.575000X-0.100000X0*%
%ADD64O,1.600000X0.900000*%
%ADD65RoundRect,0.250000X0.450000X-0.550000X0.450000X0.550000X-0.450000X0.550000X-0.450000X-0.550000X0*%
%ADD66RoundRect,0.250000X0.700000X-0.700000X0.700000X0.700000X-0.700000X0.700000X-0.700000X-0.700000X0*%
%ADD67RoundRect,0.050000X-0.300000X0.150000X-0.300000X-0.150000X0.300000X-0.150000X0.300000X0.150000X0*%
%ADD68RoundRect,0.100000X-0.637500X-0.100000X0.637500X-0.100000X0.637500X0.100000X-0.637500X0.100000X0*%
%ADD69RoundRect,0.250000X0.350000X0.625000X-0.350000X0.625000X-0.350000X-0.625000X0.350000X-0.625000X0*%
%ADD70R,1.100000X0.600000*%
%ADD71RoundRect,0.050000X0.300000X-0.150000X0.300000X0.150000X-0.300000X0.150000X-0.300000X-0.150000X0*%
%ADD72RoundRect,0.250001X0.499999X-0.499999X0.499999X0.499999X-0.499999X0.499999X-0.499999X-0.499999X0*%
%ADD73RoundRect,0.250000X0.625000X-0.312500X0.625000X0.312500X-0.625000X0.312500X-0.625000X-0.312500X0*%
%ADD74RoundRect,0.375000X0.625000X0.375000X-0.625000X0.375000X-0.625000X-0.375000X0.625000X-0.375000X0*%
%ADD75RoundRect,0.500000X0.500000X1.400000X-0.500000X1.400000X-0.500000X-1.400000X0.500000X-1.400000X0*%
%ADD76RoundRect,0.075000X-0.441942X-0.548008X0.548008X0.441942X0.441942X0.548008X-0.548008X-0.441942X0*%
%ADD77RoundRect,0.075000X0.441942X-0.548008X0.548008X-0.441942X-0.441942X0.548008X-0.548008X0.441942X0*%
%ADD78RoundRect,0.200000X0.053033X-0.335876X0.335876X-0.053033X-0.053033X0.335876X-0.335876X0.053033X0*%
%ADD79RoundRect,0.250001X0.759999X-0.499999X0.759999X0.499999X-0.759999X0.499999X-0.759999X-0.499999X0*%
%ADD80O,2.020000X1.500000*%
%ADD81RoundRect,0.250000X-0.650000X0.325000X-0.650000X-0.325000X0.650000X-0.325000X0.650000X0.325000X0*%
%ADD82RoundRect,0.140000X0.140000X0.170000X-0.140000X0.170000X-0.140000X-0.170000X0.140000X-0.170000X0*%
%ADD83R,0.972299X0.304800*%
%ADD84R,1.700000X1.700000*%
%ADD85O,1.700000X1.700000*%
%ADD86RoundRect,0.150000X0.725000X0.150000X-0.725000X0.150000X-0.725000X-0.150000X0.725000X-0.150000X0*%
%ADD87RoundRect,0.140000X0.219203X0.021213X0.021213X0.219203X-0.219203X-0.021213X-0.021213X-0.219203X0*%
%ADD88RoundRect,0.087500X-0.125000X-0.087500X0.125000X-0.087500X0.125000X0.087500X-0.125000X0.087500X0*%
%ADD89RoundRect,0.087500X-0.087500X-0.125000X0.087500X-0.125000X0.087500X0.125000X-0.087500X0.125000X0*%
%ADD90RoundRect,0.225000X0.250000X-0.225000X0.250000X0.225000X-0.250000X0.225000X-0.250000X-0.225000X0*%
G04 APERTURE END LIST*
D10*
%TO.C,C24*%
X183847000Y-137414000D03*
X180897000Y-137414000D03*
%TD*%
%TO.C,C23*%
X183847000Y-134620000D03*
X180897000Y-134620000D03*
%TD*%
D11*
%TO.C,C43*%
X186182000Y-60596000D03*
X186182000Y-53196000D03*
%TD*%
D12*
%TO.C,R23*%
X180340000Y-142555500D03*
X180340000Y-145480500D03*
%TD*%
D13*
%TO.C,J16*%
X170760000Y-58296000D03*
X179760000Y-58296000D03*
D14*
X173760000Y-54356000D03*
D15*
X176760000Y-54356000D03*
X173760000Y-57356000D03*
X176760000Y-57356000D03*
%TD*%
D16*
%TO.C,D16*%
X174752000Y-62230000D03*
X175452000Y-62230000D03*
%TD*%
D17*
%TO.C,R44*%
X131611000Y-59040000D03*
X129961000Y-59040000D03*
%TD*%
D18*
%TO.C,R2*%
X152337000Y-124968000D03*
X153987000Y-124968000D03*
%TD*%
D19*
%TO.C,J5*%
X103124000Y-104076000D03*
D20*
X103124000Y-102076000D03*
X103124000Y-100076000D03*
X103124000Y-98076000D03*
X103124000Y-96076000D03*
%TD*%
D21*
%TO.C,C15*%
X188325487Y-102362000D03*
X186775487Y-102362000D03*
%TD*%
D16*
%TO.C,D11*%
X138430000Y-58420000D03*
X139130000Y-58420000D03*
%TD*%
D22*
%TO.C,C41*%
X146304000Y-64372000D03*
X146304000Y-71772000D03*
%TD*%
D23*
%TO.C,U6*%
X176276000Y-126746000D03*
D24*
X179201000Y-123883500D03*
X178551000Y-123883500D03*
X177901000Y-123883500D03*
X177251000Y-123883500D03*
X176601000Y-123883500D03*
X175951000Y-123883500D03*
X175301000Y-123883500D03*
X174651000Y-123883500D03*
X174001000Y-123883500D03*
X173351000Y-123883500D03*
X173351000Y-129608500D03*
X174001000Y-129608500D03*
X174651000Y-129608500D03*
X175301000Y-129608500D03*
X175951000Y-129608500D03*
X176601000Y-129608500D03*
X177251000Y-129608500D03*
X177901000Y-129608500D03*
X178551000Y-129608500D03*
X179201000Y-129608500D03*
%TD*%
D25*
%TO.C,TP29*%
X169672000Y-66040000D03*
%TD*%
D13*
%TO.C,J3*%
X110816000Y-58154000D03*
X119816000Y-58154000D03*
D14*
X113816000Y-54214000D03*
D15*
X116816000Y-54214000D03*
X113816000Y-57214000D03*
X116816000Y-57214000D03*
%TD*%
D25*
%TO.C,TP14*%
X128524000Y-88646000D03*
%TD*%
D17*
%TO.C,R34*%
X177101000Y-139700000D03*
X175451000Y-139700000D03*
%TD*%
D26*
%TO.C,J10*%
X185928000Y-144616000D03*
D27*
X187178000Y-145956000D03*
D28*
X184678000Y-145956000D03*
%TD*%
D25*
%TO.C,TP9*%
X163322000Y-104394000D03*
%TD*%
D29*
%TO.C,D12*%
X109760000Y-105830000D03*
D30*
X109220000Y-105750000D03*
D29*
X108680000Y-105830000D03*
X108680000Y-107530000D03*
X109760000Y-107530000D03*
%TD*%
D31*
%TO.C,R1*%
X133350000Y-121095000D03*
X133350000Y-122745000D03*
%TD*%
D32*
%TO.C,R11*%
X108712000Y-91757000D03*
X108712000Y-90107000D03*
%TD*%
D25*
%TO.C,TP12*%
X161798000Y-95250000D03*
%TD*%
D33*
%TO.C,F3*%
X123060000Y-64097000D03*
X125860000Y-64097000D03*
%TD*%
D17*
%TO.C,R52*%
X168719000Y-122682000D03*
X167069000Y-122682000D03*
%TD*%
D34*
%TO.C,J1*%
X145385000Y-137092000D03*
X146485000Y-137092000D03*
X147585000Y-137092000D03*
X148685000Y-137092000D03*
X149785000Y-137092000D03*
X150885000Y-137092000D03*
X151985000Y-137092000D03*
X153085000Y-137092000D03*
D35*
X141715000Y-134492000D03*
X141715000Y-142792000D03*
X155465000Y-134492000D03*
X155465000Y-142792000D03*
%TD*%
D36*
%TO.C,D4*%
X155956000Y-70996000D03*
X155956000Y-68196000D03*
%TD*%
D31*
%TO.C,R13*%
X153416000Y-64453000D03*
X153416000Y-66103000D03*
%TD*%
D37*
%TO.C,H3*%
X105000000Y-145000000D03*
D38*
X105000000Y-145000000D03*
%TD*%
D18*
%TO.C,R16*%
X108649000Y-109982000D03*
X110299000Y-109982000D03*
%TD*%
D17*
%TO.C,R40*%
X163131000Y-79502000D03*
X161481000Y-79502000D03*
%TD*%
D18*
%TO.C,R32*%
X175451000Y-141224000D03*
X177101000Y-141224000D03*
%TD*%
D31*
%TO.C,R27*%
X180848000Y-125921000D03*
X180848000Y-127571000D03*
%TD*%
D25*
%TO.C,TP21*%
X169164000Y-125222000D03*
%TD*%
D17*
%TO.C,R48*%
X135636000Y-71463000D03*
X133986000Y-71463000D03*
%TD*%
D39*
%TO.C,C26*%
X180897000Y-123952000D03*
X183847000Y-123952000D03*
%TD*%
D40*
%TO.C,SW1*%
X136446000Y-51746000D03*
X145446000Y-51746000D03*
D41*
X139446000Y-53706000D03*
D42*
X142446000Y-53706000D03*
%TD*%
D43*
%TO.C,D9*%
X133834000Y-55852000D03*
X133834000Y-53652000D03*
%TD*%
D44*
%TO.C,Q1*%
X188135500Y-139842000D03*
X188135500Y-139192000D03*
X188135500Y-138542000D03*
X186260500Y-138542000D03*
X186260500Y-139192000D03*
X186260500Y-139842000D03*
D45*
X187198000Y-139517000D03*
D46*
X187198000Y-138492000D03*
%TD*%
D47*
%TO.C,J15*%
X139986000Y-85090000D03*
D48*
X141986000Y-85090000D03*
X143986000Y-85090000D03*
%TD*%
D25*
%TO.C,TP26*%
X113792000Y-77724000D03*
%TD*%
D21*
%TO.C,C42*%
X135395000Y-140970000D03*
X133845000Y-140970000D03*
%TD*%
D49*
%TO.C,Y1*%
X144163142Y-109043223D03*
X145718777Y-110598858D03*
X146920858Y-109396777D03*
X145365223Y-107841142D03*
%TD*%
D17*
%TO.C,R41*%
X163131000Y-77724000D03*
X161481000Y-77724000D03*
%TD*%
D50*
%TO.C,C8*%
X142579411Y-104816589D03*
X141900589Y-105495411D03*
%TD*%
D17*
%TO.C,R9*%
X185327487Y-103124000D03*
X183677487Y-103124000D03*
%TD*%
D51*
%TO.C,Q4*%
X131548000Y-55656000D03*
X131548000Y-55006000D03*
X131548000Y-54356000D03*
X131548000Y-53706000D03*
D52*
X129593000Y-54681000D03*
%TD*%
D53*
%TO.C,D10*%
X141320000Y-58420000D03*
X140620000Y-58420000D03*
%TD*%
D25*
%TO.C,TP30*%
X160782000Y-145796000D03*
%TD*%
D54*
%TO.C,C5*%
X127519729Y-118872000D03*
D55*
X122519729Y-118872000D03*
%TD*%
D33*
%TO.C,F1*%
X180972000Y-132080000D03*
X183772000Y-132080000D03*
%TD*%
D18*
%TO.C,R49*%
X146495000Y-117094000D03*
X148145000Y-117094000D03*
%TD*%
D25*
%TO.C,TP16*%
X131064000Y-90932000D03*
%TD*%
D56*
%TO.C,D13*%
X131702000Y-64008000D03*
X128902000Y-64008000D03*
%TD*%
D17*
%TO.C,R45*%
X128309000Y-59040000D03*
X126659000Y-59040000D03*
%TD*%
D57*
%TO.C,C35*%
X164071000Y-139700000D03*
X165621000Y-139700000D03*
%TD*%
D17*
%TO.C,R36*%
X165671000Y-142748000D03*
X164021000Y-142748000D03*
%TD*%
D18*
%TO.C,R10*%
X183677487Y-107188000D03*
X185327487Y-107188000D03*
%TD*%
D57*
%TO.C,C25*%
X178549000Y-121666000D03*
X180099000Y-121666000D03*
%TD*%
D17*
%TO.C,R30*%
X168973000Y-128524000D03*
X167323000Y-128524000D03*
%TD*%
D57*
%TO.C,C28*%
X172961000Y-121666000D03*
X174511000Y-121666000D03*
%TD*%
D31*
%TO.C,R37*%
X169164000Y-138113000D03*
X169164000Y-139763000D03*
%TD*%
D58*
%TO.C,C13*%
X172466000Y-103873000D03*
X172466000Y-105423000D03*
%TD*%
D59*
%TO.C,J8*%
X165608000Y-145796000D03*
D60*
X168108000Y-145796000D03*
X170608000Y-145796000D03*
X173108000Y-145796000D03*
%TD*%
D25*
%TO.C,TP8*%
X167894000Y-100330000D03*
%TD*%
D21*
%TO.C,C18*%
X188325487Y-106426000D03*
X186775487Y-106426000D03*
%TD*%
D22*
%TO.C,C36*%
X151130000Y-52942000D03*
X151130000Y-60342000D03*
%TD*%
D53*
%TO.C,D15*%
X171038000Y-142748000D03*
X170338000Y-142748000D03*
%TD*%
D44*
%TO.C,Q3*%
X169085500Y-142890000D03*
X169085500Y-142240000D03*
X169085500Y-141590000D03*
X167210500Y-141590000D03*
X167210500Y-142240000D03*
X167210500Y-142890000D03*
D45*
X168148000Y-142565000D03*
D46*
X168148000Y-141540000D03*
%TD*%
D18*
%TO.C,R28*%
X174943000Y-132842000D03*
X176593000Y-132842000D03*
%TD*%
D17*
%TO.C,R5*%
X148145000Y-130302000D03*
X146495000Y-130302000D03*
%TD*%
D25*
%TO.C,TP3*%
X107696000Y-71374000D03*
%TD*%
D61*
%TO.C,D3*%
X151390000Y-89662000D03*
X148590000Y-89662000D03*
%TD*%
D53*
%TO.C,D7*%
X175864000Y-142748000D03*
X175164000Y-142748000D03*
%TD*%
D62*
%TO.C,TP27*%
X115062000Y-144272000D03*
X117602000Y-144272000D03*
%TD*%
D25*
%TO.C,TP5*%
X152908000Y-130302000D03*
%TD*%
D21*
%TO.C,C29*%
X168923000Y-130048000D03*
X167373000Y-130048000D03*
%TD*%
D44*
%TO.C,Q2*%
X173990000Y-142890000D03*
X173990000Y-142240000D03*
X173990000Y-141590000D03*
X172115000Y-141590000D03*
X172115000Y-142240000D03*
X172115000Y-142890000D03*
D45*
X173052500Y-142565000D03*
D46*
X173052500Y-141540000D03*
%TD*%
D39*
%TO.C,C27*%
X180897000Y-129540000D03*
X183847000Y-129540000D03*
%TD*%
D19*
%TO.C,J7*%
X103124000Y-117284000D03*
D20*
X103124000Y-115284000D03*
X103124000Y-113284000D03*
X103124000Y-111284000D03*
X103124000Y-109284000D03*
%TD*%
D63*
%TO.C,J13*%
X193413000Y-80548000D03*
X193413000Y-79898000D03*
X193413000Y-79248000D03*
X193413000Y-78598000D03*
X193413000Y-77948000D03*
D64*
X196088000Y-82548000D03*
D65*
X193638000Y-82448000D03*
D66*
X196088000Y-80448000D03*
X196088000Y-78048000D03*
D65*
X193638000Y-76048000D03*
D64*
X196088000Y-75948000D03*
%TD*%
D67*
%TO.C,D1*%
X133350000Y-119030000D03*
X133350000Y-119730000D03*
%TD*%
D36*
%TO.C,D2*%
X153416000Y-70996000D03*
X153416000Y-68196000D03*
%TD*%
D18*
%TO.C,R17*%
X111189000Y-107696000D03*
X112839000Y-107696000D03*
%TD*%
D16*
%TO.C,D5*%
X185578000Y-148844000D03*
X186278000Y-148844000D03*
%TD*%
D68*
%TO.C,U4*%
X162745500Y-115398000D03*
X162745500Y-116048000D03*
X162745500Y-116698000D03*
X162745500Y-117348000D03*
X162745500Y-117998000D03*
X162745500Y-118648000D03*
X162745500Y-119298000D03*
X168470500Y-119298000D03*
X168470500Y-118648000D03*
X168470500Y-117998000D03*
X168470500Y-117348000D03*
X168470500Y-116698000D03*
X168470500Y-116048000D03*
X168470500Y-115398000D03*
%TD*%
D69*
%TO.C,J2*%
X158114000Y-78486000D03*
D48*
X156114000Y-78486000D03*
X154114000Y-78486000D03*
X152114000Y-78486000D03*
X150114000Y-78486000D03*
X148114000Y-78486000D03*
X146114000Y-78486000D03*
%TD*%
D12*
%TO.C,R21*%
X167640000Y-54417500D03*
X167640000Y-57342500D03*
%TD*%
D25*
%TO.C,TP4*%
X153670000Y-118618000D03*
%TD*%
D70*
%TO.C,Y2*%
X140208000Y-104078000D03*
X140208000Y-102678000D03*
%TD*%
D18*
%TO.C,R19*%
X108649000Y-103632000D03*
X110299000Y-103632000D03*
%TD*%
D71*
%TO.C,D8*%
X125960000Y-57104000D03*
X125960000Y-56404000D03*
%TD*%
D17*
%TO.C,R46*%
X138977000Y-65367000D03*
X137327000Y-65367000D03*
%TD*%
D31*
%TO.C,R35*%
X173990000Y-134303000D03*
X173990000Y-135953000D03*
%TD*%
D13*
%TO.C,J11*%
X196472000Y-124776000D03*
X196472000Y-106776000D03*
D72*
X192532000Y-121776000D03*
D15*
X192532000Y-118776000D03*
X192532000Y-115776000D03*
X192532000Y-112776000D03*
X192532000Y-109776000D03*
X195532000Y-121776000D03*
X195532000Y-118776000D03*
X195532000Y-115776000D03*
X195532000Y-112776000D03*
X195532000Y-109776000D03*
%TD*%
D25*
%TO.C,TP2*%
X107696000Y-61722000D03*
%TD*%
%TO.C,TP11*%
X168148000Y-104394000D03*
%TD*%
D31*
%TO.C,R39*%
X169164000Y-135065000D03*
X169164000Y-136715000D03*
%TD*%
D32*
%TO.C,R31*%
X171704000Y-129857000D03*
X171704000Y-128207000D03*
%TD*%
D73*
%TO.C,R20*%
X165100000Y-57342500D03*
X165100000Y-54417500D03*
%TD*%
D74*
%TO.C,U7*%
X138684000Y-80278000D03*
X138684000Y-77978000D03*
D75*
X132384000Y-77978000D03*
D74*
X138684000Y-75678000D03*
%TD*%
D25*
%TO.C,TP15*%
X176022000Y-114808000D03*
%TD*%
D21*
%TO.C,C32*%
X177051000Y-138176000D03*
X175501000Y-138176000D03*
%TD*%
D76*
%TO.C,U2*%
X143335519Y-101361181D03*
X143689072Y-101714734D03*
X144042625Y-102068287D03*
X144396179Y-102421841D03*
X144749732Y-102775394D03*
X145103286Y-103128948D03*
X145456839Y-103482501D03*
X145810392Y-103836054D03*
X146163946Y-104189608D03*
X146517499Y-104543161D03*
X146871052Y-104896714D03*
X147224606Y-105250268D03*
X147578159Y-105603821D03*
X147931713Y-105957375D03*
X148285266Y-106310928D03*
X148638819Y-106664481D03*
D77*
X151361181Y-106664481D03*
X151714734Y-106310928D03*
X152068287Y-105957375D03*
X152421841Y-105603821D03*
X152775394Y-105250268D03*
X153128948Y-104896714D03*
X153482501Y-104543161D03*
X153836054Y-104189608D03*
X154189608Y-103836054D03*
X154543161Y-103482501D03*
X154896714Y-103128948D03*
X155250268Y-102775394D03*
X155603821Y-102421841D03*
X155957375Y-102068287D03*
X156310928Y-101714734D03*
X156664481Y-101361181D03*
D76*
X156664481Y-98638819D03*
X156310928Y-98285266D03*
X155957375Y-97931713D03*
X155603821Y-97578159D03*
X155250268Y-97224606D03*
X154896714Y-96871052D03*
X154543161Y-96517499D03*
X154189608Y-96163946D03*
X153836054Y-95810392D03*
X153482501Y-95456839D03*
X153128948Y-95103286D03*
X152775394Y-94749732D03*
X152421841Y-94396179D03*
X152068287Y-94042625D03*
X151714734Y-93689072D03*
X151361181Y-93335519D03*
D77*
X148638819Y-93335519D03*
X148285266Y-93689072D03*
X147931713Y-94042625D03*
X147578159Y-94396179D03*
X147224606Y-94749732D03*
X146871052Y-95103286D03*
X146517499Y-95456839D03*
X146163946Y-95810392D03*
X145810392Y-96163946D03*
X145456839Y-96517499D03*
X145103286Y-96871052D03*
X144749732Y-97224606D03*
X144396179Y-97578159D03*
X144042625Y-97931713D03*
X143689072Y-98285266D03*
X143335519Y-98638819D03*
%TD*%
D78*
%TO.C,R7*%
X154356637Y-92277363D03*
X155523363Y-91110637D03*
%TD*%
D25*
%TO.C,TP24*%
X113792000Y-73914000D03*
%TD*%
D40*
%TO.C,J4*%
X157645000Y-63404000D03*
X157645000Y-51404000D03*
D79*
X159605000Y-60404000D03*
D80*
X159605000Y-57404000D03*
X159605000Y-54404000D03*
%TD*%
D81*
%TO.C,C40*%
X117246000Y-77773000D03*
X117246000Y-80723000D03*
%TD*%
D62*
%TO.C,TP28*%
X193802000Y-70104000D03*
X196342000Y-70104000D03*
%TD*%
D17*
%TO.C,R4*%
X157480000Y-128524000D03*
X155830000Y-128524000D03*
%TD*%
D13*
%TO.C,J6*%
X110792000Y-69442000D03*
X119792000Y-69442000D03*
D14*
X113792000Y-65502000D03*
D15*
X116792000Y-65502000D03*
X113792000Y-68502000D03*
X116792000Y-68502000D03*
%TD*%
D50*
%TO.C,C9*%
X143595411Y-105578589D03*
X142916589Y-106257411D03*
%TD*%
D58*
%TO.C,C17*%
X116840000Y-93459000D03*
X116840000Y-95009000D03*
%TD*%
D43*
%TO.C,D14*%
X138938000Y-69426000D03*
X138938000Y-67226000D03*
%TD*%
D25*
%TO.C,TP18*%
X140462000Y-98552000D03*
%TD*%
D74*
%TO.C,U8*%
X126492000Y-80278000D03*
X126492000Y-77978000D03*
D75*
X120192000Y-77978000D03*
D74*
X126492000Y-75678000D03*
%TD*%
D82*
%TO.C,C20*%
X138656000Y-104648000D03*
X137696000Y-104648000D03*
%TD*%
D83*
%TO.C,U3*%
X174227749Y-102893622D03*
X174227749Y-103393748D03*
X174227749Y-103893874D03*
X174227749Y-104394000D03*
X174227749Y-104894126D03*
X174227749Y-105394252D03*
X174227749Y-105894378D03*
X177308251Y-105894378D03*
X177308251Y-105394252D03*
X177308251Y-104894126D03*
X177308251Y-104394000D03*
X177308251Y-103893874D03*
X177308251Y-103393748D03*
X177308251Y-102893622D03*
%TD*%
D17*
%TO.C,R42*%
X163131000Y-75946000D03*
X161481000Y-75946000D03*
%TD*%
D78*
%TO.C,R6*%
X155372637Y-93547363D03*
X156539363Y-92380637D03*
%TD*%
D18*
%TO.C,R18*%
X111189000Y-105664000D03*
X112839000Y-105664000D03*
%TD*%
D25*
%TO.C,TP13*%
X165862000Y-95250000D03*
%TD*%
D18*
%TO.C,R50*%
X145733000Y-118618000D03*
X147383000Y-118618000D03*
%TD*%
D17*
%TO.C,R29*%
X168973000Y-132080000D03*
X167323000Y-132080000D03*
%TD*%
D18*
%TO.C,R8*%
X183677487Y-101600000D03*
X185327487Y-101600000D03*
%TD*%
D25*
%TO.C,TP17*%
X171958000Y-114808000D03*
%TD*%
D84*
%TO.C,U1*%
X137668000Y-130000000D03*
D85*
X137668000Y-132540000D03*
X137668000Y-135080000D03*
X137668000Y-137620000D03*
%TD*%
D25*
%TO.C,TP6*%
X156210000Y-122174000D03*
%TD*%
D17*
%TO.C,R12*%
X185327487Y-105664000D03*
X183677487Y-105664000D03*
%TD*%
D40*
%TO.C,SW2*%
X122754000Y-66548000D03*
X131754000Y-66548000D03*
D41*
X125754000Y-68508000D03*
D42*
X128754000Y-68508000D03*
%TD*%
D17*
%TO.C,R47*%
X138938000Y-71463000D03*
X137288000Y-71463000D03*
%TD*%
D25*
%TO.C,TP25*%
X123952000Y-85344000D03*
%TD*%
D51*
%TO.C,Q5*%
X136882000Y-69431000D03*
X136882000Y-68781000D03*
X136882000Y-68131000D03*
X136882000Y-67481000D03*
D52*
X134927000Y-68456000D03*
%TD*%
D17*
%TO.C,R25*%
X191579000Y-136906000D03*
X189929000Y-136906000D03*
%TD*%
D50*
%TO.C,C6*%
X144357411Y-106340589D03*
X143678589Y-107019411D03*
%TD*%
D17*
%TO.C,R26*%
X194627000Y-136906000D03*
X192977000Y-136906000D03*
%TD*%
D31*
%TO.C,R15*%
X155702000Y-64453000D03*
X155702000Y-66103000D03*
%TD*%
D86*
%TO.C,CR1*%
X116078000Y-91694000D03*
X116078000Y-90424000D03*
X116078000Y-89154000D03*
X116078000Y-87884000D03*
X110928000Y-87884000D03*
X110928000Y-89154000D03*
X110928000Y-90424000D03*
X110928000Y-91694000D03*
%TD*%
D25*
%TO.C,TP10*%
X167894000Y-108712000D03*
%TD*%
D18*
%TO.C,R3*%
X153099000Y-126746000D03*
X154749000Y-126746000D03*
%TD*%
D58*
%TO.C,C37*%
X140970000Y-75679000D03*
X140970000Y-77229000D03*
%TD*%
D37*
%TO.C,H4*%
X195000000Y-145000000D03*
D38*
X195000000Y-145000000D03*
%TD*%
D37*
%TO.C,H2*%
X195000000Y-55000000D03*
D38*
X195000000Y-55000000D03*
%TD*%
D58*
%TO.C,C16*%
X115316000Y-93459000D03*
X115316000Y-95009000D03*
%TD*%
D37*
%TO.C,H1*%
X105000000Y-55000000D03*
D38*
X105000000Y-55000000D03*
%TD*%
D19*
%TO.C,J12*%
X103124000Y-89662000D03*
D20*
X103124000Y-87662000D03*
X103124000Y-85662000D03*
X103124000Y-83662000D03*
X103124000Y-81662000D03*
X103124000Y-79662000D03*
%TD*%
D13*
%TO.C,J9*%
X196472000Y-103996000D03*
X196472000Y-85996000D03*
D72*
X192532000Y-100996000D03*
D15*
X192532000Y-97996000D03*
X192532000Y-94996000D03*
X192532000Y-91996000D03*
X192532000Y-88996000D03*
X195532000Y-100996000D03*
X195532000Y-97996000D03*
X195532000Y-94996000D03*
X195532000Y-91996000D03*
X195532000Y-88996000D03*
%TD*%
D18*
%TO.C,R51*%
X167069000Y-121158000D03*
X168719000Y-121158000D03*
%TD*%
D25*
%TO.C,TP1*%
X133604000Y-112776000D03*
%TD*%
D57*
%TO.C,C14*%
X180327000Y-104394000D03*
X181877000Y-104394000D03*
%TD*%
D25*
%TO.C,TP7*%
X146558000Y-125222000D03*
%TD*%
D87*
%TO.C,C11*%
X143341411Y-110321411D03*
X142662589Y-109642589D03*
%TD*%
D81*
%TO.C,C38*%
X129438000Y-77773000D03*
X129438000Y-80723000D03*
%TD*%
D47*
%TO.C,J14*%
X149400000Y-85090000D03*
D48*
X151400000Y-85090000D03*
X153400000Y-85090000D03*
X155400000Y-85090000D03*
%TD*%
D18*
%TO.C,R38*%
X164021000Y-141224000D03*
X165671000Y-141224000D03*
%TD*%
D50*
%TO.C,C12*%
X148421411Y-110404589D03*
X147742589Y-111083411D03*
%TD*%
D18*
%TO.C,R14*%
X149352000Y-91694000D03*
X151002000Y-91694000D03*
%TD*%
D33*
%TO.C,F2*%
X123036000Y-54498000D03*
X125836000Y-54498000D03*
%TD*%
D82*
%TO.C,C19*%
X138656000Y-102108000D03*
X137696000Y-102108000D03*
%TD*%
D12*
%TO.C,R22*%
X181102000Y-63053500D03*
X181102000Y-65978500D03*
%TD*%
D88*
%TO.C,U9*%
X136651500Y-142244000D03*
X136651500Y-142744000D03*
D89*
X136914000Y-143256500D03*
X137414000Y-143256500D03*
X137914000Y-143256500D03*
D88*
X138176500Y-142744000D03*
X138176500Y-142244000D03*
D89*
X137914000Y-141731500D03*
X137414000Y-141731500D03*
X136914000Y-141731500D03*
%TD*%
D17*
%TO.C,R43*%
X133897000Y-51704000D03*
X132247000Y-51704000D03*
%TD*%
D31*
%TO.C,R33*%
X173990000Y-137351000D03*
X173990000Y-139001000D03*
%TD*%
D90*
%TO.C,C39*%
X128930000Y-75464000D03*
X128930000Y-73914000D03*
%TD*%
M02*
