M48
; DRILL file {KiCad 9.0.0} date 2025-04-17T15:04:01+1200
; FORMAT={-:-/ absolute / metric / decimal}
; #@! TF.CreationDate,2025-04-17T15:04:01+12:00
; #@! TF.GenerationSoftware,Kicad,Pcbnew,9.0.0
; #@! TF.FileFunction,Plated,1,4,PTH
FMAT,2
METRIC
; #@! TA.AperFunction,Plated,PTH,ViaDrill
T1C0.300
; #@! TA.AperFunction,Plated,PTH,ComponentDrill
T2C0.300
; #@! TA.AperFunction,Plated,PTH,ViaDrill
T3C0.500
; #@! TA.AperFunction,Plated,PTH,ComponentDrill
T4C0.500
; #@! TA.AperFunction,Plated,PTH,ViaDrill
T5C0.600
; #@! TA.AperFunction,Plated,PTH,ComponentDrill
T6C0.750
; #@! TA.AperFunction,Plated,PTH,ComponentDrill
T7C0.950
; #@! TA.AperFunction,Plated,PTH,ComponentDrill
T8C1.000
; #@! TA.AperFunction,Plated,PTH,ComponentDrill
T9C1.020
; #@! TA.AperFunction,Plated,PTH,ComponentDrill
T10C1.200
; #@! TA.AperFunction,Plated,PTH,ComponentDrill
T11C1.300
; #@! TA.AperFunction,Plated,PTH,ComponentDrill
T12C3.200
%
G90
G05
T1
X105.0Y-60.0
X105.0Y-65.0
X105.0Y-70.0
X105.0Y-75.0
X105.0Y-80.0
X105.0Y-120.0
X105.0Y-125.0
X105.0Y-130.0
X105.0Y-135.0
X105.0Y-140.0
X109.474Y-103.632
X109.474Y-104.902
X109.474Y-109.982
X110.0Y-55.0
X110.0Y-60.0
X110.0Y-65.0
X110.0Y-75.0
X110.0Y-80.0
X110.0Y-85.0
X110.0Y-95.0
X110.0Y-100.0
X110.0Y-115.0
X110.0Y-120.0
X110.0Y-125.0
X110.0Y-130.0
X110.0Y-135.0
X110.0Y-140.0
X110.0Y-145.0
X112.839Y-106.68
X115.0Y-55.0
X115.0Y-60.0
X115.0Y-140.0
X116.078Y-96.266
X117.246Y-75.844
X117.246Y-76.454
X117.856Y-87.884
X118.823Y-80.723
X120.0Y-60.0
X120.0Y-95.0
X120.0Y-100.0
X120.0Y-140.0
X120.0Y-145.0
X124.728Y-80.278
X125.0Y-60.0
X125.0Y-95.0
X125.0Y-100.0
X125.0Y-140.0
X125.0Y-145.0
X125.73Y-58.928
X127.0Y-57.15
X129.032Y-60.198
X129.54Y-72.898
X130.0Y-95.0
X130.0Y-105.0
X130.0Y-110.0
X130.0Y-140.0
X130.0Y-145.0
X131.064Y-81.026
X131.318Y-51.562
X132.334Y-132.588
X132.842Y-64.008
X133.007Y-71.463
X133.604Y-123.952
X133.858Y-139.954
X135.0Y-60.0
X135.0Y-110.0
X135.0Y-145.0
X135.89Y-143.764
X136.398Y-64.516
X136.398Y-72.644
X136.914Y-140.978
X137.668Y-102.87
X137.668Y-103.886
X138.43Y-141.224
X138.934Y-142.744
X140.0Y-60.0
X140.0Y-115.0
X140.0Y-120.0
X140.0Y-145.0
X140.462Y-94.996
X141.224Y-95.758
X141.715Y-137.16
X141.715Y-140.208
X141.859Y-78.105
X141.986Y-58.42
X141.986Y-102.616
X142.24Y-109.22
X142.409Y-106.003
X143.002Y-93.98
X143.44Y-95.066
X144.272Y-104.902
X144.272Y-135.382
X144.526Y-81.534
X144.526Y-99.822
X144.78Y-142.792
X144.891Y-100.655
X145.0Y-55.0
X145.0Y-60.0
X145.0Y-90.0
X145.0Y-115.0
X145.0Y-125.0
X145.0Y-140.0
X145.0Y-145.0
X145.034Y-105.41
X145.796Y-100.838
X146.304Y-99.06
X146.957Y-97.78
X147.828Y-102.616
X148.082Y-112.014
X148.145Y-118.11
X148.59Y-135.382
X148.844Y-100.838
X149.098Y-130.302
X149.352Y-94.742
X149.86Y-107.696
X150.0Y-140.0
X150.0Y-145.0
X150.016Y-93.305
X150.114Y-89.662
X150.114Y-114.046
X150.495Y-115.189
X150.622Y-94.742
X150.876Y-135.636
X151.13Y-103.378
X151.384Y-70.996
X151.401Y-108.117
X151.683Y-99.383
X151.892Y-104.14
X151.892Y-125.984
X152.4Y-142.792
X153.924Y-98.298
X154.178Y-100.33
X154.679Y-94.76
X155.0Y-60.0
X155.0Y-145.0
X155.194Y-99.568
X155.465Y-137.16
X155.465Y-140.208
X156.464Y-94.996
X156.464Y-96.012
X156.464Y-119.888
X156.718Y-108.204
X157.226Y-96.663
X157.521Y-114.752
X157.988Y-102.616
X158.35Y-121.93
X158.496Y-128.524
X158.75Y-110.236
X159.639Y-83.439
X160.0Y-65.0
X160.0Y-70.0
X160.0Y-90.0
X160.0Y-140.0
X160.274Y-116.84
X160.528Y-108.204
X161.798Y-102.616
X162.5Y-145.0
X163.068Y-67.873
X163.068Y-108.204
X163.068Y-113.03
X163.322Y-80.772
X163.555Y-127.134
X164.013Y-121.072
X164.084Y-115.316
X164.084Y-116.332
X164.084Y-119.126
X164.846Y-116.84
X165.0Y-85.0
X165.0Y-90.0
X165.0Y-135.0
X165.1Y-108.204
X165.671Y-140.462
X165.862Y-116.078
X166.37Y-129.286
X166.624Y-119.888
X166.624Y-141.59
X167.13Y-123.989
X167.132Y-115.316
X167.132Y-116.332
X167.132Y-118.872
X167.132Y-143.764
X167.132Y-147.32
X167.373Y-131.064
X167.386Y-127.254
X167.894Y-137.414
X169.164Y-135.89
X169.926Y-103.632
X169.926Y-116.698
X170.0Y-70.0
X170.0Y-75.0
X170.942Y-103.166
X171.196Y-141.732
X171.45Y-105.918
X171.958Y-143.764
X172.212Y-147.32
X172.72Y-136.652
X173.99Y-135.128
X174.001Y-122.682
X175.0Y-75.0
X175.0Y-95.0
X175.0Y-145.0
X175.451Y-138.938
X176.276Y-143.764
X176.784Y-135.636
X177.546Y-132.08
X179.324Y-104.394
X180.0Y-95.0
X181.102Y-121.666
X182.626Y-123.952
X182.626Y-129.54
X182.88Y-104.394
X185.0Y-70.0
X185.0Y-75.0
X185.0Y-90.0
X185.0Y-95.0
X185.532Y-138.542
X188.468Y-135.636
X189.484Y-102.362
X189.484Y-106.426
X190.0Y-70.0
X190.0Y-75.0
X190.0Y-90.0
X190.0Y-95.0
X190.0Y-100.0
X190.0Y-110.0
X190.0Y-115.0
X190.0Y-120.0
X190.0Y-125.0
X190.0Y-130.0
X190.0Y-135.0
X190.0Y-140.0
X190.0Y-145.0
X191.262Y-77.724
X195.0Y-60.0
X195.0Y-65.0
X195.0Y-75.0
X195.0Y-85.0
X195.0Y-130.0
X195.0Y-135.0
X195.0Y-140.0
X195.58Y-136.906
T2
X173.676Y-125.446
X173.676Y-126.746
X173.676Y-128.046
X174.976Y-125.446
X174.976Y-126.746
X174.976Y-128.046
X176.276Y-125.446
X176.276Y-126.746
X176.276Y-128.046
X177.576Y-125.446
X177.576Y-126.746
X177.576Y-128.046
X178.876Y-125.446
X178.876Y-126.746
X178.876Y-128.046
T3
X140.448Y-80.278
X140.462Y-69.342
X141.914Y-68.762
X142.803Y-67.873
X143.692Y-66.984
X143.764Y-71.628
X148.844Y-60.198
X181.102Y-67.564
X181.102Y-68.834
X181.102Y-118.872
X181.102Y-119.888
X182.372Y-119.888
X182.372Y-137.414
X182.88Y-54.102
X183.581Y-65.978
X183.769Y-53.213
X187.198Y-136.652
X187.198Y-137.668
T5
X168.148Y-140.716
X173.052Y-140.794
T6
X103.124Y-79.662
X103.124Y-81.662
X103.124Y-83.662
X103.124Y-85.662
X103.124Y-87.662
X103.124Y-89.662
X103.124Y-96.076
X103.124Y-98.076
X103.124Y-100.076
X103.124Y-102.076
X103.124Y-104.076
X103.124Y-109.284
X103.124Y-111.284
X103.124Y-113.284
X103.124Y-115.284
X103.124Y-117.284
X139.986Y-85.09
X141.986Y-85.09
X143.986Y-85.09
X146.114Y-78.486
X148.114Y-78.486
X149.4Y-85.09
X150.114Y-78.486
X151.4Y-85.09
X152.114Y-78.486
X153.4Y-85.09
X154.114Y-78.486
X155.4Y-85.09
X156.114Y-78.486
X158.114Y-78.486
T7
X165.608Y-145.796
X168.108Y-145.796
X170.608Y-145.796
X173.108Y-145.796
T8
X137.668Y-130.0
X137.668Y-132.54
X137.668Y-135.08
X137.668Y-137.62
T9
X113.792Y-65.502
X113.792Y-68.502
X113.816Y-54.214
X113.816Y-57.214
X116.792Y-65.502
X116.792Y-68.502
X116.816Y-54.214
X116.816Y-57.214
X125.754Y-68.508
X128.754Y-68.508
X139.446Y-53.706
X142.446Y-53.706
X159.605Y-54.404
X159.605Y-57.404
X159.605Y-60.404
X173.76Y-54.356
X173.76Y-57.356
X176.76Y-54.356
X176.76Y-57.356
X192.532Y-88.996
X192.532Y-91.996
X192.532Y-94.996
X192.532Y-97.996
X192.532Y-100.996
X192.532Y-109.776
X192.532Y-112.776
X192.532Y-115.776
X192.532Y-118.776
X192.532Y-121.776
X195.532Y-88.996
X195.532Y-91.996
X195.532Y-94.996
X195.532Y-97.996
X195.532Y-100.996
X195.532Y-109.776
X195.532Y-112.776
X195.532Y-115.776
X195.532Y-118.776
X195.532Y-121.776
T10
X122.52Y-118.872
X127.52Y-118.872
X184.678Y-145.956
X187.178Y-145.956
T11
X115.062Y-144.272
X117.602Y-144.272
X193.802Y-70.104
X196.342Y-70.104
T12
X105.0Y-55.0
X105.0Y-145.0
X195.0Y-55.0
X195.0Y-145.0
T4
G00X196.438Y-75.948
M15
G01X195.738Y-75.948
M16
G05
G00X196.438Y-82.548
M15
G01X195.738Y-82.548
M16
G05
M30
